G04*
G04 #@! TF.GenerationSoftware,Altium Limited,Altium Designer,18.0.9 (584)*
G04*
G04 Layer_Color=8388736*
%FSLAX25Y25*%
%MOIN*%
G70*
G01*
G75*
%ADD15C,0.07874*%
%ADD16R,0.11599X0.09300*%
%ADD17R,0.13398X0.04934*%
%ADD18R,0.33477X0.41942*%
%ADD19R,0.06115X0.04540*%
%ADD20O,0.03556X0.10642*%
%ADD21R,0.41745X0.39776*%
%ADD22R,0.04540X0.17139*%
%ADD23R,0.04343X0.03556*%
%ADD24R,0.07493X0.04540*%
%ADD25R,0.04540X0.06115*%
%ADD26R,0.04540X0.09461*%
%ADD27R,0.22453X0.27178*%
%ADD28C,0.07099*%
%ADD29R,0.08871X0.08871*%
%ADD30C,0.08871*%
%ADD31C,0.14580*%
%ADD32C,0.06800*%
%ADD33C,0.09068*%
%ADD34C,0.05800*%
%ADD35C,0.06706*%
D15*
X43154Y56890D02*
Y56933D01*
X89961Y66043D02*
Y78248D01*
X80807Y56890D02*
X89961Y66043D01*
X43154Y56933D02*
X55315Y69095D01*
Y73524D01*
X124803Y62205D02*
Y77658D01*
X99213Y56890D02*
X119488D01*
X70385D02*
X80807D01*
X119488D02*
X124803Y62205D01*
X20374Y56890D02*
Y72441D01*
D16*
X129724Y231535D02*
D03*
Y214134D02*
D03*
D17*
X110236Y207776D02*
D03*
Y214469D02*
D03*
Y221161D02*
D03*
Y227854D02*
D03*
Y234547D02*
D03*
D18*
X73032Y221161D02*
D03*
D19*
X184055Y129035D02*
D03*
Y135335D02*
D03*
D20*
X114803Y129630D02*
D03*
X119803D02*
D03*
X124803D02*
D03*
X129803D02*
D03*
X114803Y148921D02*
D03*
X119803D02*
D03*
X124803D02*
D03*
X129803D02*
D03*
X80026Y129630D02*
D03*
X85026D02*
D03*
X90026D02*
D03*
X95026D02*
D03*
X80026Y148921D02*
D03*
X85026D02*
D03*
X90026D02*
D03*
X95026D02*
D03*
X45249Y129630D02*
D03*
X50249D02*
D03*
X55249D02*
D03*
X60249D02*
D03*
X45249Y148921D02*
D03*
X50249D02*
D03*
X55249D02*
D03*
X60249D02*
D03*
X10472Y129630D02*
D03*
X15472D02*
D03*
X20472D02*
D03*
X25472D02*
D03*
X10472Y148921D02*
D03*
X15472D02*
D03*
X20472D02*
D03*
X25472D02*
D03*
D21*
X162697Y90748D02*
D03*
D22*
X152697Y128937D02*
D03*
X172697D02*
D03*
D23*
X124803Y157239D02*
D03*
Y162839D02*
D03*
X90026Y157239D02*
D03*
Y162839D02*
D03*
X55249Y157239D02*
D03*
Y162839D02*
D03*
X20472Y157239D02*
D03*
Y162839D02*
D03*
D24*
X124803Y120866D02*
D03*
Y110236D02*
D03*
X90026Y120866D02*
D03*
Y110236D02*
D03*
X55249Y120866D02*
D03*
Y110236D02*
D03*
X20472Y120866D02*
D03*
Y110236D02*
D03*
D25*
X32283Y129626D02*
D03*
X38583D02*
D03*
X66929D02*
D03*
X73228D02*
D03*
X101870D02*
D03*
X108169D02*
D03*
X136614D02*
D03*
X142913D02*
D03*
D26*
X133780Y110236D02*
D03*
X115827D02*
D03*
X99003D02*
D03*
X81050D02*
D03*
X64226D02*
D03*
X46273D02*
D03*
X29449D02*
D03*
X11496D02*
D03*
D27*
X124803Y84449D02*
D03*
X90026D02*
D03*
X55249D02*
D03*
X20472D02*
D03*
D28*
X185925Y201476D02*
D03*
X155217D02*
D03*
X172146Y245472D02*
D03*
X185925D02*
D03*
X154429Y168996D02*
D03*
Y155217D02*
D03*
X189665Y113189D02*
D03*
X129528Y200098D02*
D03*
X172697Y147244D02*
D03*
X187697Y159646D02*
D03*
D29*
X153150Y41142D02*
D03*
D30*
X172835D02*
D03*
D31*
X16437Y226279D02*
D03*
X138287Y11713D02*
D03*
X154331Y261910D02*
D03*
D32*
X110335Y265059D02*
D03*
X100335D02*
D03*
X90335D02*
D03*
X80335D02*
D03*
X70335D02*
D03*
X60335D02*
D03*
X50335D02*
D03*
X40335D02*
D03*
X110335Y175059D02*
D03*
X100335D02*
D03*
X90335D02*
D03*
X80335D02*
D03*
X70335D02*
D03*
X60335D02*
D03*
X50335D02*
D03*
X40335D02*
D03*
D33*
X20472Y41142D02*
D03*
X40157D02*
D03*
X59842D02*
D03*
X79528D02*
D03*
X99213D02*
D03*
X118898D02*
D03*
D34*
X145669Y139075D02*
D03*
D35*
X99213Y56890D02*
D03*
X70385D02*
D03*
X43154D02*
D03*
X20374D02*
D03*
M02*
