G04*
G04 #@! TF.GenerationSoftware,Altium Limited,Altium Designer,18.0.9 (584)*
G04*
G04 Layer_Physical_Order=2*
G04 Layer_Color=16711680*
%FSLAX43Y43*%
%MOMM*%
G71*
G01*
G75*
%ADD16R,0.950X1.350*%
%ADD19C,0.300*%
%ADD20C,2.000*%
%ADD21C,1.000*%
%ADD22C,0.500*%
%ADD23C,3.500*%
%ADD24C,1.600*%
%ADD25C,2.050*%
%ADD26R,2.050X2.050*%
%ADD27C,1.524*%
%ADD28C,2.100*%
%ADD29C,1.270*%
%ADD30C,1.500*%
%ADD31C,1.200*%
%ADD32R,0.950X1.700*%
%ADD33R,8.300X10.450*%
%ADD34R,3.200X1.050*%
%ADD35R,2.159X2.743*%
%ADD36C,2.500*%
G36*
X49715Y660D02*
X660D01*
X660Y69365D01*
X49715D01*
X49715Y660D01*
D02*
G37*
%LPC*%
G36*
X28025Y68447D02*
X27735Y68408D01*
X27464Y68296D01*
X27232Y68118D01*
X27054Y67886D01*
X26942Y67615D01*
X26903Y67325D01*
X26942Y67035D01*
X27054Y66764D01*
X27232Y66532D01*
X27464Y66354D01*
X27735Y66242D01*
X28025Y66203D01*
X28315Y66242D01*
X28586Y66354D01*
X28818Y66532D01*
X28996Y66764D01*
X29108Y67035D01*
X29147Y67325D01*
X29108Y67615D01*
X28996Y67886D01*
X28818Y68118D01*
X28586Y68296D01*
X28315Y68408D01*
X28025Y68447D01*
D02*
G37*
G36*
X25485D02*
X25195Y68408D01*
X24924Y68296D01*
X24692Y68118D01*
X24514Y67886D01*
X24402Y67615D01*
X24363Y67325D01*
X24402Y67035D01*
X24514Y66764D01*
X24692Y66532D01*
X24924Y66354D01*
X25195Y66242D01*
X25485Y66203D01*
X25775Y66242D01*
X26046Y66354D01*
X26278Y66532D01*
X26456Y66764D01*
X26568Y67035D01*
X26607Y67325D01*
X26568Y67615D01*
X26456Y67886D01*
X26278Y68118D01*
X26046Y68296D01*
X25775Y68408D01*
X25485Y68447D01*
D02*
G37*
G36*
X22945D02*
X22655Y68408D01*
X22384Y68296D01*
X22152Y68118D01*
X21974Y67886D01*
X21862Y67615D01*
X21823Y67325D01*
X21862Y67035D01*
X21974Y66764D01*
X22152Y66532D01*
X22384Y66354D01*
X22655Y66242D01*
X22945Y66203D01*
X23235Y66242D01*
X23506Y66354D01*
X23738Y66532D01*
X23916Y66764D01*
X24028Y67035D01*
X24067Y67325D01*
X24028Y67615D01*
X23916Y67886D01*
X23738Y68118D01*
X23506Y68296D01*
X23235Y68408D01*
X22945Y68447D01*
D02*
G37*
G36*
X15325D02*
X15035Y68408D01*
X14764Y68296D01*
X14532Y68118D01*
X14354Y67886D01*
X14242Y67615D01*
X14203Y67325D01*
X14242Y67035D01*
X14354Y66764D01*
X14532Y66532D01*
X14764Y66354D01*
X15035Y66242D01*
X15325Y66203D01*
X15615Y66242D01*
X15886Y66354D01*
X16118Y66532D01*
X16296Y66764D01*
X16408Y67035D01*
X16447Y67325D01*
X16408Y67615D01*
X16296Y67886D01*
X16118Y68118D01*
X15886Y68296D01*
X15615Y68408D01*
X15325Y68447D01*
D02*
G37*
G36*
X12785D02*
X12495Y68408D01*
X12224Y68296D01*
X11992Y68118D01*
X11814Y67886D01*
X11702Y67615D01*
X11663Y67325D01*
X11702Y67035D01*
X11814Y66764D01*
X11992Y66532D01*
X12224Y66354D01*
X12495Y66242D01*
X12785Y66203D01*
X13075Y66242D01*
X13346Y66354D01*
X13578Y66532D01*
X13756Y66764D01*
X13868Y67035D01*
X13907Y67325D01*
X13868Y67615D01*
X13756Y67886D01*
X13578Y68118D01*
X13346Y68296D01*
X13075Y68408D01*
X12785Y68447D01*
D02*
G37*
G36*
X10245D02*
X9955Y68408D01*
X9684Y68296D01*
X9452Y68118D01*
X9274Y67886D01*
X9162Y67615D01*
X9123Y67325D01*
X9162Y67035D01*
X9274Y66764D01*
X9452Y66532D01*
X9684Y66354D01*
X9955Y66242D01*
X10245Y66203D01*
X10535Y66242D01*
X10806Y66354D01*
X11038Y66532D01*
X11216Y66764D01*
X11328Y67035D01*
X11367Y67325D01*
X11328Y67615D01*
X11216Y67886D01*
X11038Y68118D01*
X10806Y68296D01*
X10535Y68408D01*
X10245Y68447D01*
D02*
G37*
G36*
X39200Y68635D02*
X38788Y68595D01*
X38392Y68475D01*
X38028Y68280D01*
X37708Y68017D01*
X37445Y67697D01*
X37250Y67333D01*
X37130Y66937D01*
X37090Y66525D01*
X37130Y66113D01*
X37250Y65717D01*
X37445Y65353D01*
X37708Y65033D01*
X38028Y64770D01*
X38392Y64575D01*
X38788Y64455D01*
X39200Y64415D01*
X39612Y64455D01*
X40008Y64575D01*
X40372Y64770D01*
X40692Y65033D01*
X40955Y65353D01*
X41150Y65717D01*
X41270Y66113D01*
X41310Y66525D01*
X41270Y66937D01*
X41150Y67333D01*
X40955Y67697D01*
X40692Y68017D01*
X40372Y68280D01*
X40008Y68475D01*
X39612Y68595D01*
X39200Y68635D01*
D02*
G37*
G36*
X43852Y63396D02*
Y62477D01*
X44771D01*
X44752Y62625D01*
X44646Y62882D01*
X44477Y63102D01*
X44257Y63271D01*
X44000Y63377D01*
X43852Y63396D01*
D02*
G37*
G36*
X43598Y63396D02*
X43450Y63377D01*
X43193Y63271D01*
X42973Y63102D01*
X42804Y62882D01*
X42698Y62625D01*
X42679Y62477D01*
X43598D01*
Y63396D01*
D02*
G37*
G36*
Y62223D02*
X42679D01*
X42698Y62075D01*
X42804Y61818D01*
X42973Y61598D01*
X43193Y61429D01*
X43450Y61323D01*
X43598Y61304D01*
Y62223D01*
D02*
G37*
G36*
X44771D02*
X43852D01*
Y61304D01*
X44000Y61323D01*
X44257Y61429D01*
X44477Y61598D01*
X44646Y61818D01*
X44752Y62075D01*
X44771Y62223D01*
D02*
G37*
G36*
X20405Y68447D02*
X20115Y68408D01*
X19844Y68296D01*
X19612Y68118D01*
X19434Y67886D01*
X19322Y67615D01*
X19283Y67325D01*
X19322Y67035D01*
X19434Y66764D01*
X19612Y66532D01*
X19844Y66354D01*
X19895Y66333D01*
Y61208D01*
X18492Y59805D01*
X18375Y59853D01*
Y66333D01*
X18426Y66354D01*
X18658Y66532D01*
X18836Y66764D01*
X18948Y67035D01*
X18987Y67325D01*
X18948Y67615D01*
X18836Y67886D01*
X18658Y68118D01*
X18426Y68296D01*
X18155Y68408D01*
X17865Y68447D01*
X17575Y68408D01*
X17304Y68296D01*
X17072Y68118D01*
X16894Y67886D01*
X16782Y67615D01*
X16743Y67325D01*
X16782Y67035D01*
X16894Y66764D01*
X17072Y66532D01*
X17304Y66354D01*
X17355Y66333D01*
Y59451D01*
X2590Y44685D01*
X2479Y44520D01*
X2440Y44325D01*
Y42181D01*
X2272Y42053D01*
X2120Y41854D01*
X2024Y41623D01*
X1992Y41375D01*
X2024Y41127D01*
X2120Y40896D01*
X2272Y40697D01*
X2471Y40545D01*
X2702Y40449D01*
X2950Y40417D01*
X3198Y40449D01*
X3429Y40545D01*
X3628Y40697D01*
X3780Y40896D01*
X3876Y41127D01*
X3908Y41375D01*
X3876Y41623D01*
X3780Y41854D01*
X3628Y42053D01*
X3460Y42181D01*
Y44114D01*
X7798Y48452D01*
X7915Y48403D01*
Y43175D01*
X7954Y42980D01*
X8065Y42815D01*
X9865Y41015D01*
X10030Y40904D01*
X10225Y40865D01*
X10969D01*
X11097Y40697D01*
X11296Y40545D01*
X11527Y40449D01*
X11775Y40417D01*
X12023Y40449D01*
X12254Y40545D01*
X12453Y40697D01*
X12605Y40896D01*
X12701Y41127D01*
X12733Y41375D01*
X12701Y41623D01*
X12605Y41854D01*
X12453Y42053D01*
X12254Y42205D01*
X12023Y42301D01*
X11775Y42333D01*
X11527Y42301D01*
X11296Y42205D01*
X11097Y42053D01*
X10969Y41885D01*
X10436D01*
X8935Y43386D01*
Y48805D01*
X20765Y60636D01*
X20876Y60801D01*
X20915Y60997D01*
Y66333D01*
X20966Y66354D01*
X21198Y66532D01*
X21376Y66764D01*
X21488Y67035D01*
X21527Y67325D01*
X21488Y67615D01*
X21376Y67886D01*
X21198Y68118D01*
X20966Y68296D01*
X20695Y68408D01*
X20405Y68447D01*
D02*
G37*
G36*
X4175Y59585D02*
X3763Y59545D01*
X3367Y59425D01*
X3003Y59230D01*
X2683Y58967D01*
X2420Y58647D01*
X2225Y58283D01*
X2105Y57887D01*
X2065Y57475D01*
X2105Y57063D01*
X2225Y56667D01*
X2420Y56303D01*
X2683Y55983D01*
X3003Y55720D01*
X3367Y55525D01*
X3763Y55405D01*
X4175Y55365D01*
X4587Y55405D01*
X4983Y55525D01*
X5347Y55720D01*
X5667Y55983D01*
X5930Y56303D01*
X6125Y56667D01*
X6245Y57063D01*
X6285Y57475D01*
X6245Y57887D01*
X6125Y58283D01*
X5930Y58647D01*
X5667Y58967D01*
X5347Y59230D01*
X4983Y59425D01*
X4587Y59545D01*
X4175Y59585D01*
D02*
G37*
G36*
X47225Y63510D02*
X46925Y63470D01*
X46645Y63355D01*
X46405Y63170D01*
X46220Y62930D01*
X46105Y62650D01*
X46065Y62350D01*
X46105Y62050D01*
X46220Y61770D01*
X46405Y61530D01*
X46613Y61370D01*
Y56937D01*
X22105D01*
X21871Y56890D01*
X21672Y56758D01*
X10472Y45557D01*
X10245Y45587D01*
X9955Y45548D01*
X9684Y45436D01*
X9452Y45258D01*
X9274Y45026D01*
X9162Y44755D01*
X9123Y44465D01*
X9162Y44175D01*
X9274Y43904D01*
X9452Y43672D01*
X9684Y43494D01*
X9955Y43382D01*
X10245Y43343D01*
X10535Y43382D01*
X10806Y43494D01*
X11038Y43672D01*
X11216Y43904D01*
X11328Y44175D01*
X11367Y44465D01*
X11337Y44692D01*
X22358Y55713D01*
X46613D01*
Y52155D01*
X46405Y51995D01*
X46245Y51787D01*
X43350D01*
X43116Y51740D01*
X42917Y51608D01*
X31749Y40439D01*
X31632Y40502D01*
X31637Y40525D01*
Y42522D01*
X39165Y50049D01*
X39425Y50015D01*
X39725Y50055D01*
X40005Y50170D01*
X40245Y50355D01*
X40430Y50595D01*
X40545Y50875D01*
X40585Y51175D01*
X40545Y51475D01*
X40430Y51755D01*
X40245Y51995D01*
X40005Y52180D01*
X39725Y52295D01*
X39425Y52335D01*
X39125Y52295D01*
X38845Y52180D01*
X38605Y51995D01*
X38420Y51755D01*
X38305Y51475D01*
X38265Y51175D01*
X38299Y50915D01*
X30592Y43208D01*
X30460Y43009D01*
X30413Y42775D01*
Y40778D01*
X27897Y38262D01*
X20100D01*
X19866Y38215D01*
X19667Y38083D01*
X12292Y30708D01*
X12160Y30509D01*
X12113Y30275D01*
Y23337D01*
X10564D01*
Y24447D01*
X7706D01*
Y21003D01*
X10564D01*
Y22113D01*
X15575D01*
Y21825D01*
Y20125D01*
X16668D01*
Y19100D01*
X16697Y18878D01*
X16783Y18671D01*
X16919Y18494D01*
X18569Y16844D01*
X18746Y16708D01*
X18953Y16622D01*
X19175Y16593D01*
X37538D01*
Y12058D01*
X25200D01*
X24886Y12027D01*
X24585Y11935D01*
X24307Y11787D01*
X24063Y11587D01*
X23863Y11343D01*
X23715Y11065D01*
X23623Y10764D01*
X23592Y10450D01*
X23623Y10136D01*
X23715Y9835D01*
X23863Y9557D01*
X24063Y9313D01*
X24307Y9113D01*
X24585Y8965D01*
X24886Y8873D01*
X25200Y8842D01*
X38900D01*
X39214Y8873D01*
X39515Y8965D01*
X39722Y9075D01*
X40275D01*
Y9628D01*
X40385Y9835D01*
X40477Y10136D01*
X40508Y10450D01*
X40477Y10764D01*
X40385Y11065D01*
X40275Y11272D01*
Y11825D01*
X40262D01*
Y17450D01*
Y31871D01*
X44828Y36437D01*
X45044Y36719D01*
X45180Y37048D01*
X45227Y37400D01*
X45180Y37752D01*
X45044Y38081D01*
X44828Y38363D01*
X44546Y38579D01*
X44217Y38715D01*
X43865Y38762D01*
X43513Y38715D01*
X43184Y38579D01*
X42902Y38363D01*
X37937Y33398D01*
X37721Y33116D01*
X37585Y32787D01*
X37538Y32435D01*
Y18307D01*
X19530D01*
X18382Y19455D01*
Y20125D01*
X19475D01*
Y21825D01*
X19475Y23575D01*
X19379Y23650D01*
X19379Y23702D01*
Y24273D01*
X17525D01*
X15671D01*
X15671Y23650D01*
X15575Y23575D01*
X15575Y23546D01*
Y23337D01*
X13337D01*
Y30022D01*
X20353Y37038D01*
X21709D01*
X21748Y36911D01*
X21592Y36808D01*
X14242Y29458D01*
X14110Y29259D01*
X14063Y29025D01*
Y26525D01*
X14110Y26291D01*
X14242Y26092D01*
X14667Y25667D01*
X14866Y25535D01*
X15100Y25488D01*
X15485D01*
X15575Y25398D01*
X15575Y25225D01*
X15671Y25150D01*
X15671Y25098D01*
Y24527D01*
X17525D01*
X19379D01*
X19379Y25150D01*
X19475Y25225D01*
X19475Y25254D01*
X19475Y26975D01*
X19379Y27050D01*
X19379Y27102D01*
Y27673D01*
X17525D01*
X15671D01*
X15671Y27050D01*
X15575Y26975D01*
X15575Y26946D01*
Y26712D01*
X15353D01*
X15287Y26778D01*
Y28772D01*
X22278Y35763D01*
X28550D01*
X28784Y35810D01*
X28983Y35942D01*
X43603Y50563D01*
X46245D01*
X46405Y50355D01*
X46613Y50195D01*
Y49600D01*
X46400D01*
Y47200D01*
X48050D01*
Y49600D01*
X47837D01*
Y50195D01*
X48045Y50355D01*
X48230Y50595D01*
X48345Y50875D01*
X48385Y51175D01*
X48345Y51475D01*
X48230Y51755D01*
X48045Y51995D01*
X47837Y52155D01*
Y56325D01*
Y61370D01*
X48045Y61530D01*
X48230Y61770D01*
X48345Y62050D01*
X48385Y62350D01*
X48345Y62650D01*
X48230Y62930D01*
X48045Y63170D01*
X47805Y63355D01*
X47525Y63470D01*
X47225Y63510D01*
D02*
G37*
G36*
X45254Y49504D02*
X44652D01*
Y48527D01*
X45254D01*
Y49504D01*
D02*
G37*
G36*
X44398D02*
X43796D01*
Y48527D01*
X44398D01*
Y49504D01*
D02*
G37*
G36*
X45254Y48273D02*
X44652D01*
Y47296D01*
X45254D01*
Y48273D01*
D02*
G37*
G36*
X44398D02*
X43796D01*
Y47296D01*
X44398D01*
Y48273D01*
D02*
G37*
G36*
X12912Y45473D02*
Y44592D01*
X13793D01*
X13775Y44730D01*
X13672Y44977D01*
X13510Y45190D01*
X13297Y45352D01*
X13050Y45455D01*
X12912Y45473D01*
D02*
G37*
G36*
X12658Y45473D02*
X12520Y45455D01*
X12273Y45352D01*
X12060Y45190D01*
X11898Y44977D01*
X11795Y44730D01*
X11777Y44592D01*
X12658D01*
Y45473D01*
D02*
G37*
G36*
X13793Y44338D02*
X12912D01*
Y43457D01*
X13050Y43475D01*
X13297Y43578D01*
X13510Y43740D01*
X13672Y43953D01*
X13775Y44200D01*
X13793Y44338D01*
D02*
G37*
G36*
X12658D02*
X11777D01*
X11795Y44200D01*
X11898Y43953D01*
X12060Y43740D01*
X12273Y43578D01*
X12520Y43475D01*
X12658Y43457D01*
Y44338D01*
D02*
G37*
G36*
X28025Y45587D02*
X27735Y45548D01*
X27464Y45436D01*
X27232Y45258D01*
X27054Y45026D01*
X26942Y44755D01*
X26903Y44465D01*
X26942Y44175D01*
X27054Y43904D01*
X27232Y43672D01*
X27464Y43494D01*
X27735Y43382D01*
X28025Y43343D01*
X28315Y43382D01*
X28586Y43494D01*
X28818Y43672D01*
X28996Y43904D01*
X29108Y44175D01*
X29147Y44465D01*
X29108Y44755D01*
X28996Y45026D01*
X28818Y45258D01*
X28586Y45436D01*
X28315Y45548D01*
X28025Y45587D01*
D02*
G37*
G36*
X25485D02*
X25195Y45548D01*
X24924Y45436D01*
X24692Y45258D01*
X24514Y45026D01*
X24402Y44755D01*
X24363Y44465D01*
X24402Y44175D01*
X24514Y43904D01*
X24692Y43672D01*
X24924Y43494D01*
X25195Y43382D01*
X25485Y43343D01*
X25775Y43382D01*
X26046Y43494D01*
X26278Y43672D01*
X26456Y43904D01*
X26568Y44175D01*
X26607Y44465D01*
X26568Y44755D01*
X26456Y45026D01*
X26278Y45258D01*
X26046Y45436D01*
X25775Y45548D01*
X25485Y45587D01*
D02*
G37*
G36*
X22945D02*
X22655Y45548D01*
X22384Y45436D01*
X22152Y45258D01*
X21974Y45026D01*
X21862Y44755D01*
X21823Y44465D01*
X21862Y44175D01*
X21974Y43904D01*
X22152Y43672D01*
X22384Y43494D01*
X22655Y43382D01*
X22945Y43343D01*
X23235Y43382D01*
X23506Y43494D01*
X23738Y43672D01*
X23916Y43904D01*
X24028Y44175D01*
X24067Y44465D01*
X24028Y44755D01*
X23916Y45026D01*
X23738Y45258D01*
X23506Y45436D01*
X23235Y45548D01*
X22945Y45587D01*
D02*
G37*
G36*
X20405D02*
X20115Y45548D01*
X19844Y45436D01*
X19612Y45258D01*
X19434Y45026D01*
X19322Y44755D01*
X19283Y44465D01*
X19322Y44175D01*
X19434Y43904D01*
X19612Y43672D01*
X19844Y43494D01*
X20115Y43382D01*
X20405Y43343D01*
X20695Y43382D01*
X20966Y43494D01*
X21198Y43672D01*
X21376Y43904D01*
X21488Y44175D01*
X21527Y44465D01*
X21488Y44755D01*
X21376Y45026D01*
X21198Y45258D01*
X20966Y45436D01*
X20695Y45548D01*
X20405Y45587D01*
D02*
G37*
G36*
X39352Y43971D02*
Y43052D01*
X40271D01*
X40252Y43200D01*
X40146Y43457D01*
X39977Y43677D01*
X39757Y43846D01*
X39500Y43952D01*
X39352Y43971D01*
D02*
G37*
G36*
X39098D02*
X38950Y43952D01*
X38693Y43846D01*
X38473Y43677D01*
X38304Y43457D01*
X38198Y43200D01*
X38179Y43052D01*
X39098D01*
Y43971D01*
D02*
G37*
G36*
X17865Y45587D02*
X17575Y45548D01*
X17304Y45436D01*
X17072Y45258D01*
X16894Y45026D01*
X16782Y44755D01*
X16743Y44465D01*
X16782Y44175D01*
X16894Y43904D01*
X17072Y43672D01*
X17304Y43494D01*
X17575Y43382D01*
X17865Y43343D01*
X18155Y43382D01*
X18206Y43403D01*
X19420Y42190D01*
X19585Y42079D01*
X19710Y42054D01*
X19774Y41924D01*
X19774Y41916D01*
X19754Y41885D01*
X18626D01*
X16387Y44124D01*
X16408Y44175D01*
X16447Y44465D01*
X16408Y44755D01*
X16296Y45026D01*
X16118Y45258D01*
X15886Y45436D01*
X15615Y45548D01*
X15325Y45587D01*
X15035Y45548D01*
X14764Y45436D01*
X14532Y45258D01*
X14354Y45026D01*
X14242Y44755D01*
X14203Y44465D01*
X14242Y44175D01*
X14354Y43904D01*
X14532Y43672D01*
X14764Y43494D01*
X15035Y43382D01*
X15325Y43343D01*
X15615Y43382D01*
X15666Y43403D01*
X18055Y41015D01*
X18220Y40904D01*
X18415Y40865D01*
X19844D01*
X19972Y40697D01*
X20171Y40545D01*
X20402Y40449D01*
X20650Y40417D01*
X20898Y40449D01*
X21129Y40545D01*
X21328Y40697D01*
X21480Y40896D01*
X21576Y41127D01*
X21608Y41375D01*
X21576Y41623D01*
X21480Y41854D01*
X21424Y41926D01*
X21481Y42040D01*
X27539D01*
X28019Y41560D01*
X27992Y41350D01*
X28024Y41102D01*
X28120Y40871D01*
X28272Y40672D01*
X28471Y40520D01*
X28702Y40424D01*
X28950Y40392D01*
X29198Y40424D01*
X29429Y40520D01*
X29628Y40672D01*
X29780Y40871D01*
X29876Y41102D01*
X29908Y41350D01*
X29876Y41598D01*
X29780Y41829D01*
X29628Y42028D01*
X29429Y42180D01*
X29198Y42276D01*
X28950Y42308D01*
X28740Y42281D01*
X28110Y42910D01*
X27945Y43021D01*
X27750Y43060D01*
X19991D01*
X18927Y44124D01*
X18948Y44175D01*
X18987Y44465D01*
X18948Y44755D01*
X18836Y45026D01*
X18658Y45258D01*
X18426Y45436D01*
X18155Y45548D01*
X17865Y45587D01*
D02*
G37*
G36*
X40271Y42798D02*
X39352D01*
Y41879D01*
X39500Y41898D01*
X39757Y42004D01*
X39977Y42173D01*
X40146Y42393D01*
X40252Y42650D01*
X40271Y42798D01*
D02*
G37*
G36*
X39098D02*
X38179D01*
X38198Y42650D01*
X38304Y42393D01*
X38473Y42173D01*
X38693Y42004D01*
X38950Y41898D01*
X39098Y41879D01*
Y42798D01*
D02*
G37*
G36*
X47802Y41596D02*
Y40677D01*
X48721D01*
X48702Y40825D01*
X48596Y41082D01*
X48427Y41302D01*
X48207Y41471D01*
X47950Y41577D01*
X47802Y41596D01*
D02*
G37*
G36*
X47548D02*
X47400Y41577D01*
X47143Y41471D01*
X46923Y41302D01*
X46754Y41082D01*
X46648Y40825D01*
X46629Y40677D01*
X47548D01*
Y41596D01*
D02*
G37*
G36*
X39225Y40585D02*
X38925Y40545D01*
X38645Y40430D01*
X38405Y40245D01*
X38245Y40037D01*
X37100D01*
Y40450D01*
X35450Y40450D01*
X35375Y40354D01*
X35323Y40354D01*
X34802D01*
Y39425D01*
Y38496D01*
X35375Y38496D01*
X35450Y38400D01*
X35479Y38400D01*
X36822D01*
X36870Y38283D01*
X36394Y37806D01*
X36258Y37629D01*
X36172Y37422D01*
X36143Y37200D01*
Y35826D01*
X36140Y35822D01*
X36040Y35582D01*
X36007Y35325D01*
X36040Y35068D01*
X36140Y34828D01*
X36297Y34622D01*
X36503Y34465D01*
X36743Y34365D01*
X37000Y34332D01*
X37257Y34365D01*
X37497Y34465D01*
X37703Y34622D01*
X37860Y34828D01*
X37960Y35068D01*
X37993Y35325D01*
X37960Y35582D01*
X37860Y35822D01*
X37857Y35826D01*
Y36845D01*
X39285Y38273D01*
X39525Y38305D01*
X39805Y38420D01*
X40045Y38605D01*
X40230Y38845D01*
X40345Y39125D01*
X40385Y39425D01*
X40345Y39725D01*
X40230Y40005D01*
X40045Y40245D01*
X39805Y40430D01*
X39525Y40545D01*
X39225Y40585D01*
D02*
G37*
G36*
X34548Y40354D02*
X33946D01*
Y39552D01*
X34548D01*
Y40354D01*
D02*
G37*
G36*
X48721Y40423D02*
X47802D01*
Y39504D01*
X47950Y39523D01*
X48207Y39629D01*
X48427Y39798D01*
X48596Y40018D01*
X48702Y40275D01*
X48721Y40423D01*
D02*
G37*
G36*
X47548D02*
X46629D01*
X46648Y40275D01*
X46754Y40018D01*
X46923Y39798D01*
X47143Y39629D01*
X47400Y39523D01*
X47548Y39504D01*
Y40423D01*
D02*
G37*
G36*
X34548Y39298D02*
X33946D01*
Y38496D01*
X34548D01*
Y39298D01*
D02*
G37*
G36*
X19379Y28579D02*
X17652D01*
Y27927D01*
X19379D01*
Y28579D01*
D02*
G37*
G36*
X17398D02*
X15671D01*
Y27927D01*
X17398D01*
Y28579D01*
D02*
G37*
G36*
X31379Y29879D02*
X27102D01*
Y24527D01*
X31379D01*
Y29879D01*
D02*
G37*
G36*
X26848D02*
X22571D01*
Y24527D01*
X26848D01*
Y29879D01*
D02*
G37*
G36*
X6049Y24351D02*
X4842D01*
Y22852D01*
X6049D01*
Y24351D01*
D02*
G37*
G36*
X4588D02*
X3382D01*
Y22852D01*
X4588D01*
Y24351D01*
D02*
G37*
G36*
X6049Y22598D02*
X4842D01*
Y21100D01*
X6049D01*
Y22598D01*
D02*
G37*
G36*
X4588D02*
X3382D01*
Y21100D01*
X4588D01*
Y22598D01*
D02*
G37*
G36*
X31379Y24273D02*
X27102D01*
Y18921D01*
X31379D01*
Y24273D01*
D02*
G37*
G36*
X26848D02*
X22571D01*
Y18921D01*
X26848D01*
Y24273D01*
D02*
G37*
G36*
X44027Y11723D02*
Y10577D01*
X45173D01*
X45146Y10784D01*
X45017Y11095D01*
X44812Y11362D01*
X44545Y11567D01*
X44234Y11696D01*
X44027Y11723D01*
D02*
G37*
G36*
X43773D02*
X43566Y11696D01*
X43255Y11567D01*
X42988Y11362D01*
X42783Y11095D01*
X42654Y10784D01*
X42627Y10577D01*
X43773D01*
Y11723D01*
D02*
G37*
G36*
X45173Y10323D02*
X44027D01*
Y9177D01*
X44234Y9204D01*
X44545Y9333D01*
X44812Y9538D01*
X45017Y9805D01*
X45146Y10116D01*
X45173Y10323D01*
D02*
G37*
G36*
X43773D02*
X42627D01*
X42654Y10116D01*
X42783Y9805D01*
X42988Y9538D01*
X43255Y9333D01*
X43566Y9204D01*
X43773Y9177D01*
Y10323D01*
D02*
G37*
G36*
X25200Y15812D02*
X24200D01*
X23848Y15765D01*
X23519Y15629D01*
X23237Y15413D01*
X19500Y11675D01*
X19494Y11673D01*
X19202Y11448D01*
X18977Y11156D01*
X18836Y10815D01*
X18788Y10450D01*
X18836Y10085D01*
X18977Y9744D01*
X19202Y9452D01*
X19494Y9227D01*
X19835Y9086D01*
X20200Y9038D01*
X20565Y9086D01*
X20906Y9227D01*
X21198Y9452D01*
X21423Y9744D01*
X21425Y9750D01*
X24764Y13088D01*
X25200D01*
X25552Y13135D01*
X25881Y13271D01*
X26163Y13487D01*
X26379Y13769D01*
X26515Y14098D01*
X26562Y14450D01*
X26515Y14802D01*
X26379Y15131D01*
X26163Y15413D01*
X25881Y15629D01*
X25552Y15765D01*
X25200Y15812D01*
D02*
G37*
G36*
X17878D02*
X17525Y15765D01*
X17197Y15629D01*
X16915Y15413D01*
X14237Y12735D01*
X14021Y12453D01*
X13885Y12125D01*
X13838Y11772D01*
Y10821D01*
X13836Y10815D01*
X13788Y10450D01*
X13836Y10085D01*
X13977Y9744D01*
X14202Y9452D01*
X14494Y9227D01*
X14835Y9086D01*
X15200Y9038D01*
X15565Y9086D01*
X15906Y9227D01*
X16198Y9452D01*
X16423Y9744D01*
X16564Y10085D01*
X16612Y10450D01*
X16564Y10815D01*
X16562Y10821D01*
Y11208D01*
X18841Y13487D01*
X19057Y13769D01*
X19193Y14098D01*
X19239Y14450D01*
X19193Y14802D01*
X19057Y15131D01*
X18841Y15413D01*
X18559Y15629D01*
X18230Y15765D01*
X17878Y15812D01*
D02*
G37*
G36*
X10961D02*
X10609Y15765D01*
X10280Y15629D01*
X9998Y15413D01*
X9237Y14652D01*
X9021Y14370D01*
X8885Y14041D01*
X8838Y13689D01*
Y10821D01*
X8836Y10815D01*
X8788Y10450D01*
X8836Y10085D01*
X8977Y9744D01*
X9202Y9452D01*
X9494Y9227D01*
X9835Y9086D01*
X10200Y9038D01*
X10565Y9086D01*
X10906Y9227D01*
X11198Y9452D01*
X11423Y9744D01*
X11564Y10085D01*
X11612Y10450D01*
X11564Y10815D01*
X11562Y10821D01*
Y13125D01*
X11924Y13487D01*
X12140Y13769D01*
X12276Y14098D01*
X12323Y14450D01*
X12276Y14802D01*
X12140Y15131D01*
X11924Y15413D01*
X11642Y15629D01*
X11313Y15765D01*
X10961Y15812D01*
D02*
G37*
G36*
X5175D02*
X4823Y15765D01*
X4494Y15629D01*
X4212Y15413D01*
X3996Y15131D01*
X3860Y14802D01*
X3813Y14450D01*
X3838Y14260D01*
Y10821D01*
X3836Y10815D01*
X3788Y10450D01*
X3836Y10085D01*
X3977Y9744D01*
X4202Y9452D01*
X4494Y9227D01*
X4835Y9086D01*
X5200Y9038D01*
X5565Y9086D01*
X5906Y9227D01*
X6198Y9452D01*
X6423Y9744D01*
X6564Y10085D01*
X6612Y10450D01*
X6564Y10815D01*
X6562Y10821D01*
Y14425D01*
X6515Y14777D01*
X6379Y15106D01*
X6163Y15388D01*
X6138Y15413D01*
X5856Y15629D01*
X5527Y15765D01*
X5175Y15812D01*
D02*
G37*
G36*
X35252Y4976D02*
Y3102D01*
X37126D01*
X37100Y3368D01*
X36985Y3746D01*
X36799Y4094D01*
X36549Y4399D01*
X36244Y4649D01*
X35896Y4835D01*
X35518Y4950D01*
X35252Y4976D01*
D02*
G37*
G36*
X34998Y4976D02*
X34732Y4950D01*
X34354Y4835D01*
X34006Y4649D01*
X33701Y4399D01*
X33451Y4094D01*
X33265Y3746D01*
X33150Y3368D01*
X33124Y3102D01*
X34998D01*
Y4976D01*
D02*
G37*
G36*
Y2848D02*
X33124D01*
X33150Y2582D01*
X33265Y2204D01*
X33451Y1856D01*
X33701Y1551D01*
X34006Y1301D01*
X34354Y1115D01*
X34732Y1000D01*
X34998Y974D01*
Y2848D01*
D02*
G37*
G36*
X37126D02*
X35252D01*
Y974D01*
X35518Y1000D01*
X35896Y1115D01*
X36244Y1301D01*
X36549Y1551D01*
X36799Y1856D01*
X36985Y2204D01*
X37100Y2582D01*
X37126Y2848D01*
D02*
G37*
%LPD*%
D16*
X36275Y39425D02*
D03*
X34675D02*
D03*
D19*
X20405Y60997D02*
Y67325D01*
X8425Y49017D02*
X20405Y60997D01*
X8425Y43175D02*
Y49017D01*
X17865Y59240D02*
Y67325D01*
X2950Y44325D02*
X17865Y59240D01*
X2950Y41375D02*
Y44325D01*
X10225Y41375D02*
X11775D01*
X8425Y43175D02*
X10225Y41375D01*
X15325Y44465D02*
X18415Y41375D01*
X20650D01*
X19780Y42550D02*
X27750D01*
X28950Y41350D01*
X17865Y44465D02*
X19780Y42550D01*
D20*
X38900Y17450D02*
Y32435D01*
Y10450D02*
Y17450D01*
Y32435D02*
X43865Y37400D01*
X24200Y14450D02*
X25200D01*
X20200Y10450D02*
X24200Y14450D01*
X15200Y11772D02*
X17878Y14450D01*
X15200Y10450D02*
Y11772D01*
X10200Y13689D02*
X10961Y14450D01*
X10200Y10450D02*
Y13689D01*
X5175Y14450D02*
X5200Y14425D01*
Y10450D02*
Y14425D01*
D21*
X19175Y17450D02*
X38900D01*
X37000Y35325D02*
Y37200D01*
X39225Y39425D01*
X17525Y19100D02*
X19175Y17450D01*
X17525Y19100D02*
Y21000D01*
D22*
X36275Y39425D02*
X39225D01*
X47225Y48400D02*
Y51175D01*
Y56325D02*
Y62350D01*
Y51175D02*
Y56325D01*
X10245Y44465D02*
X22105Y56325D01*
X47225D01*
X12725Y22725D02*
X17500D01*
X9135D02*
X12725D01*
Y30275D01*
X20100Y37650D01*
X28150D01*
X31025Y40525D01*
Y42775D01*
X39425Y51175D01*
X43350D02*
X47225D01*
X28550Y36375D02*
X43350Y51175D01*
X22025Y36375D02*
X28550D01*
X17500Y22725D02*
X17525Y22700D01*
X14675Y29025D02*
X22025Y36375D01*
X14675Y26525D02*
Y29025D01*
Y26525D02*
X15100Y26100D01*
X17525D01*
D23*
X4175Y57475D02*
D03*
X35125Y2975D02*
D03*
X39200Y66525D02*
D03*
D24*
X43725Y62350D02*
D03*
X47225D02*
D03*
X39425Y51175D02*
D03*
X47225D02*
D03*
X39225Y42925D02*
D03*
Y39425D02*
D03*
X43865Y37400D02*
D03*
X47675Y40550D02*
D03*
D25*
X43900Y10450D02*
D03*
D26*
X38900D02*
D03*
D27*
X28025Y67325D02*
D03*
X25485D02*
D03*
X22945D02*
D03*
X20405D02*
D03*
X17865D02*
D03*
X15325D02*
D03*
X12785D02*
D03*
X10245D02*
D03*
X28025Y44465D02*
D03*
X25485D02*
D03*
X22945D02*
D03*
X20405D02*
D03*
X17865D02*
D03*
X15325D02*
D03*
X12785D02*
D03*
X10245D02*
D03*
D28*
X5200Y10450D02*
D03*
X10200D02*
D03*
X15200D02*
D03*
X20200D02*
D03*
X25200D02*
D03*
X30200D02*
D03*
D29*
X37000Y35325D02*
D03*
D30*
X25200Y14450D02*
D03*
X17878D02*
D03*
X10961D02*
D03*
X5175D02*
D03*
D31*
X2950Y41375D02*
D03*
X11775D02*
D03*
X20650D02*
D03*
X28950Y41350D02*
D03*
D32*
X44525Y48400D02*
D03*
X47225D02*
D03*
D33*
X26975Y24400D02*
D03*
D34*
X17525Y27800D02*
D03*
Y26100D02*
D03*
Y24400D02*
D03*
Y22700D02*
D03*
Y21000D02*
D03*
D35*
X9135Y22725D02*
D03*
X4715D02*
D03*
D36*
X30200Y10450D02*
X38900D01*
X25200D02*
X30200D01*
M02*
