M48
;Layer_Color=9474304
;FILE_FORMAT=4:3
METRIC,LZ
;TYPE=PLATED
T1F00S00C0.600
T2F00S00C0.711
T3F00S00C0.800
T4F00S00C0.900
T5F00S00C1.200
T6F00S00C1.550
T7F00S00C3.100
%
T01
X002065Y0041375
X002895Y004135
X0011775Y0041375
X000295
T02
X0037Y0035325
T03
X0017865Y0044465
X0020405
X0022945
X0025485
X0028025
X0039225Y0042925
Y0039425
X0015325Y0044465
X0012785
X0010245
Y0067325
X0012785
X0015325
X0017865
X0020405
X0022945
X0025485
X0028025
X0043725Y006235
X0047225
T04
X0005175Y001445
X0010961
X0017878
X00252
X0043865Y00374
X0047675Y004055
X0047225Y0051175
X0039425
T05
X00052Y001045
X00102
X00152
X00202
X00252
X00302
T06
X00389Y001045
X00439
T07
X0035125Y0002975
X0004175Y0057475
X00392Y0066525
M30
