M48
;Layer_Color=9474304
;FILE_FORMAT=2:5
INCH,TZ
;TYPE=PLATED
T1F00S00C0.01181
T2F00S00C0.02800
T3F00S00C0.03150
T4F00S00C0.03543
T5F00S00C0.03937
T6F00S00C0.05512
T7F00S00C0.12205
%
T01
X11614Y162894
X46358
T02
X145669Y139075
T03
X70335Y175059
X80335
X90335
X100335
X110335
X154429Y168996
Y155217
X60335Y175059
X50335
X40335
Y265059
X50335
X60335
X70335
X80335
X90335
X100335
X110335
X172146Y245472
X185925
T04
X20374Y56890
X43154
X70385
X99213
X189665Y113189
X187697Y159646
X172697Y147244
X129528Y200098
T05
X155217Y201476
X185925
T06
X20472Y41142
X40157
X59842
X79528
X99213
X118898
X153150
X172835
T07
X138287Y11713
X16437Y226279
X154331Y261910
M30
