G04*
G04 #@! TF.GenerationSoftware,Altium Limited,Altium Designer,18.0.9 (584)*
G04*
G04 Layer_Color=32896*
%FSLAX25Y25*%
%MOIN*%
G70*
G01*
G75*
%ADD13C,0.00787*%
G36*
X64974Y119372D02*
X65090Y119326D01*
X65182Y119256D01*
X65263Y119187D01*
X65309Y119106D01*
X65355Y119049D01*
X65366Y119003D01*
X65378Y118980D01*
X65482Y118680D01*
X65505Y118611D01*
Y118542D01*
X65493Y118449D01*
X65459Y118380D01*
X65401Y118323D01*
X65332Y118299D01*
X65274Y118288D01*
X65228Y118276D01*
X65216D01*
X65078Y118299D01*
X64951Y118346D01*
X64859Y118403D01*
X64790Y118484D01*
X64732Y118553D01*
X64697Y118622D01*
X64686Y118668D01*
X64675Y118680D01*
X64571Y118980D01*
X64548Y119049D01*
Y119118D01*
Y119210D01*
X64594Y119280D01*
X64651Y119337D01*
X64721Y119360D01*
X64778Y119372D01*
X64813Y119383D01*
X64836D01*
X64974Y119372D01*
D02*
G37*
G36*
X46284D02*
X46399Y119326D01*
X46492Y119256D01*
X46572Y119187D01*
X46619Y119106D01*
X46665Y119049D01*
X46676Y119003D01*
X46688Y118980D01*
X46791Y118680D01*
X46815Y118611D01*
Y118542D01*
X46803Y118449D01*
X46768Y118380D01*
X46711Y118323D01*
X46642Y118299D01*
X46584Y118288D01*
X46538Y118276D01*
X46526D01*
X46388Y118299D01*
X46261Y118346D01*
X46169Y118403D01*
X46100Y118484D01*
X46042Y118553D01*
X46007Y118622D01*
X45996Y118668D01*
X45984Y118680D01*
X45881Y118980D01*
X45858Y119049D01*
Y119118D01*
Y119210D01*
X45904Y119280D01*
X45961Y119337D01*
X46031Y119360D01*
X46088Y119372D01*
X46123Y119383D01*
X46146D01*
X46284Y119372D01*
D02*
G37*
G36*
X111198Y119360D02*
X111440Y119314D01*
X111659Y119233D01*
X111855Y119153D01*
X112028Y119060D01*
X112144Y118980D01*
X112201Y118957D01*
X112224Y118934D01*
X112247Y118911D01*
X112259D01*
X112478Y118726D01*
X112662Y118530D01*
X112812Y118334D01*
X112927Y118161D01*
X113020Y118000D01*
X113077Y117873D01*
X113101Y117827D01*
X113112Y117792D01*
X113124Y117769D01*
Y117757D01*
X114161Y114714D01*
X114196Y114587D01*
X114219Y114471D01*
X114242Y114252D01*
Y114045D01*
X114207Y113883D01*
X114161Y113745D01*
X114127Y113641D01*
X114092Y113584D01*
X114081Y113561D01*
X113954Y113411D01*
X113792Y113295D01*
X113631Y113215D01*
X113469Y113157D01*
X113320Y113122D01*
X113204Y113111D01*
X113158Y113099D01*
X111878D01*
X111740Y113111D01*
X111613Y113157D01*
X111521Y113226D01*
X111440Y113295D01*
X111394Y113365D01*
X111348Y113434D01*
X111336Y113480D01*
X111325Y113491D01*
X111302Y113561D01*
Y113630D01*
X111313Y113722D01*
X111359Y113791D01*
X111417Y113849D01*
X111475Y113872D01*
X111544Y113883D01*
X111579Y113895D01*
X112824D01*
X112939Y113907D01*
X113043Y113930D01*
X113124Y113964D01*
X113193Y114010D01*
X113250Y114056D01*
X113285Y114091D01*
X113308Y114114D01*
X113320Y114126D01*
X113366Y114218D01*
X113389Y114322D01*
X113400Y114414D01*
X113389Y114506D01*
X113377Y114587D01*
X113366Y114656D01*
X113354Y114702D01*
Y114714D01*
X112316Y117757D01*
X112259Y117884D01*
X112201Y118000D01*
X112132Y118092D01*
X112051Y118184D01*
X111982Y118253D01*
X111924Y118299D01*
X111890Y118334D01*
X111878Y118346D01*
X111751Y118426D01*
X111636Y118484D01*
X111532Y118530D01*
X111429Y118553D01*
X111348Y118576D01*
X111279Y118588D01*
X109999D01*
X109861Y118599D01*
X109745Y118645D01*
X109653Y118714D01*
X109572Y118784D01*
X109526Y118853D01*
X109480Y118922D01*
X109468Y118968D01*
X109457Y118980D01*
X109434Y119049D01*
Y119118D01*
X109446Y119210D01*
X109492Y119280D01*
X109549Y119337D01*
X109607Y119360D01*
X109676Y119372D01*
X109711Y119383D01*
X110956D01*
X111198Y119360D01*
D02*
G37*
G36*
X107947Y119372D02*
X108062Y119326D01*
X108154Y119256D01*
X108235Y119187D01*
X108281Y119106D01*
X108327Y119049D01*
X108339Y119003D01*
X108350Y118980D01*
X110218Y113491D01*
X110241Y113422D01*
Y113365D01*
X110230Y113261D01*
X110195Y113192D01*
X110137Y113145D01*
X110068Y113122D01*
X110010Y113111D01*
X109964Y113099D01*
X109953D01*
X109814Y113111D01*
X109688Y113157D01*
X109595Y113226D01*
X109526Y113295D01*
X109468Y113365D01*
X109434Y113434D01*
X109422Y113480D01*
X109411Y113491D01*
X107543Y118980D01*
X107520Y119049D01*
Y119118D01*
Y119210D01*
X107566Y119280D01*
X107624Y119337D01*
X107693Y119360D01*
X107751Y119372D01*
X107785Y119383D01*
X107808D01*
X107947Y119372D01*
D02*
G37*
G36*
X106079D02*
X106183Y119326D01*
X106275Y119256D01*
X106355Y119187D01*
X106402Y119106D01*
X106448Y119049D01*
X106459Y119003D01*
X106471Y118980D01*
X106494Y118911D01*
Y118853D01*
X106482Y118749D01*
X106448Y118680D01*
X106390Y118634D01*
X106321Y118611D01*
X106263Y118599D01*
X106217Y118588D01*
X105076D01*
X106817Y113491D01*
X106840Y113422D01*
Y113365D01*
X106828Y113261D01*
X106794Y113192D01*
X106736Y113145D01*
X106667Y113122D01*
X106609Y113111D01*
X106563Y113099D01*
X106551D01*
X106413Y113111D01*
X106286Y113157D01*
X106194Y113226D01*
X106125Y113295D01*
X106067Y113365D01*
X106033Y113434D01*
X106021Y113480D01*
X106009Y113491D01*
X104269Y118588D01*
X103162D01*
X103023Y118599D01*
X102896Y118645D01*
X102804Y118714D01*
X102735Y118784D01*
X102677Y118853D01*
X102643Y118922D01*
X102631Y118968D01*
X102620Y118980D01*
X102597Y119049D01*
Y119118D01*
Y119210D01*
X102643Y119280D01*
X102700Y119337D01*
X102770Y119360D01*
X102827Y119372D01*
X102862Y119383D01*
X105940D01*
X106079Y119372D01*
D02*
G37*
G36*
X99230D02*
X99322Y119337D01*
X99414Y119280D01*
X99484Y119233D01*
X99541Y119176D01*
X99587Y119118D01*
X99610Y119083D01*
X99622Y119072D01*
X103300Y113618D01*
X103346Y113538D01*
X103358Y113503D01*
Y113491D01*
X103381Y113422D01*
Y113365D01*
X103369Y113261D01*
X103335Y113192D01*
X103277Y113145D01*
X103208Y113122D01*
X103150Y113111D01*
X103104Y113099D01*
X103092D01*
X102989Y113111D01*
X102896Y113145D01*
X102816Y113180D01*
X102746Y113238D01*
X102689Y113284D01*
X102654Y113319D01*
X102631Y113353D01*
X102620Y113365D01*
X101767Y114621D01*
X99714D01*
X99726Y113365D01*
X99714Y113272D01*
X99680Y113215D01*
X99633Y113169D01*
X99576Y113134D01*
X99530Y113111D01*
X99484Y113099D01*
X99437D01*
X99299Y113111D01*
X99184Y113157D01*
X99092Y113226D01*
X99011Y113295D01*
X98965Y113365D01*
X98919Y113434D01*
X98907Y113480D01*
X98896Y113491D01*
X98884Y113538D01*
X98873Y113584D01*
Y113607D01*
Y113618D01*
X98838Y119083D01*
X98849Y119187D01*
X98873Y119256D01*
X98919Y119314D01*
X98976Y119349D01*
X99034Y119372D01*
X99080Y119383D01*
X99126D01*
X99230Y119372D01*
D02*
G37*
G36*
X95494D02*
X95598Y119326D01*
X95690Y119256D01*
X95771Y119187D01*
X95817Y119106D01*
X95863Y119049D01*
X95875Y119003D01*
X95886Y118980D01*
X97754Y113491D01*
X97777Y113422D01*
Y113365D01*
X97766Y113261D01*
X97731Y113192D01*
X97673Y113145D01*
X97604Y113122D01*
X97546Y113111D01*
X97500Y113099D01*
X95667D01*
X95414Y113122D01*
X95171Y113169D01*
X94952Y113249D01*
X94756Y113342D01*
X94583Y113422D01*
X94456Y113503D01*
X94410Y113526D01*
X94376Y113549D01*
X94364Y113572D01*
X94353D01*
X94134Y113757D01*
X93949Y113953D01*
X93799Y114137D01*
X93672Y114322D01*
X93592Y114483D01*
X93534Y114598D01*
X93511Y114644D01*
X93499Y114679D01*
X93488Y114702D01*
Y114714D01*
X92450Y117757D01*
X92416Y117884D01*
X92393Y118000D01*
X92370Y118230D01*
Y118426D01*
X92404Y118588D01*
X92439Y118726D01*
X92485Y118830D01*
X92519Y118887D01*
X92531Y118911D01*
X92658Y119072D01*
X92808Y119187D01*
X92981Y119268D01*
X93142Y119326D01*
X93292Y119360D01*
X93407Y119372D01*
X93453Y119383D01*
X95356D01*
X95494Y119372D01*
D02*
G37*
G36*
X90502D02*
X90617Y119326D01*
X90709Y119256D01*
X90790Y119187D01*
X90836Y119106D01*
X90882Y119049D01*
X90894Y119003D01*
X90905Y118980D01*
X92773Y113491D01*
X92796Y113422D01*
Y113365D01*
X92785Y113261D01*
X92750Y113192D01*
X92692Y113145D01*
X92623Y113122D01*
X92566Y113111D01*
X92519Y113099D01*
X90075D01*
X89937Y113111D01*
X89810Y113157D01*
X89718Y113226D01*
X89637Y113295D01*
X89591Y113365D01*
X89545Y113434D01*
X89533Y113480D01*
X89522Y113491D01*
X89499Y113561D01*
Y113630D01*
X89510Y113722D01*
X89556Y113791D01*
X89614Y113849D01*
X89671Y113872D01*
X89741Y113883D01*
X89775Y113895D01*
X91828D01*
X91067Y116143D01*
X89648D01*
X89510Y116155D01*
X89383Y116201D01*
X89291Y116270D01*
X89210Y116339D01*
X89164Y116409D01*
X89118Y116478D01*
X89107Y116524D01*
X89095Y116535D01*
X89072Y116604D01*
Y116674D01*
X89083Y116766D01*
X89130Y116835D01*
X89187Y116893D01*
X89245Y116916D01*
X89314Y116927D01*
X89349Y116939D01*
X90790D01*
X90225Y118588D01*
X88196D01*
X88057Y118599D01*
X87942Y118645D01*
X87850Y118714D01*
X87769Y118784D01*
X87723Y118853D01*
X87677Y118922D01*
X87665Y118968D01*
X87654Y118980D01*
X87631Y119049D01*
Y119118D01*
X87642Y119210D01*
X87688Y119280D01*
X87746Y119337D01*
X87804Y119360D01*
X87873Y119372D01*
X87907Y119383D01*
X90363D01*
X90502Y119372D01*
D02*
G37*
G36*
X86143D02*
X86259Y119326D01*
X86351Y119256D01*
X86432Y119187D01*
X86478Y119106D01*
X86524Y119049D01*
X86535Y119003D01*
X86547Y118980D01*
X88415Y113491D01*
X88438Y113422D01*
Y113365D01*
X88426Y113261D01*
X88392Y113192D01*
X88334Y113145D01*
X88265Y113122D01*
X88207Y113111D01*
X88161Y113099D01*
X85717Y113099D01*
X85578Y113111D01*
X85452Y113157D01*
X85359Y113226D01*
X85279Y113295D01*
X85233Y113365D01*
X85186Y113434D01*
X85175Y113480D01*
X85163Y113491D01*
X85140Y113561D01*
Y113630D01*
X85152Y113722D01*
X85198Y113791D01*
X85255Y113849D01*
X85313Y113872D01*
X85382Y113883D01*
X85417Y113895D01*
X87469Y113895D01*
X85740Y118980D01*
X85717Y119049D01*
Y119118D01*
Y119210D01*
X85763Y119280D01*
X85821Y119337D01*
X85890Y119360D01*
X85947Y119372D01*
X85982Y119383D01*
X86005D01*
X86143Y119372D01*
D02*
G37*
G36*
X78049Y119372D02*
X78165Y119326D01*
X78257Y119256D01*
X78338Y119187D01*
X78384Y119106D01*
X78430Y119049D01*
X78441Y119003D01*
X78453Y118980D01*
X80321Y113491D01*
X80344Y113422D01*
Y113365D01*
X80332Y113261D01*
X80298Y113192D01*
X80240Y113145D01*
X80171Y113122D01*
X80113Y113111D01*
X80067Y113099D01*
X77623D01*
X77484Y113111D01*
X77358Y113157D01*
X77265Y113226D01*
X77184Y113295D01*
X77138Y113365D01*
X77092Y113434D01*
X77081Y113480D01*
X77069Y113491D01*
X77046Y113561D01*
Y113630D01*
X77058Y113722D01*
X77104Y113791D01*
X77162Y113849D01*
X77219Y113872D01*
X77288Y113883D01*
X77323Y113895D01*
X79375D01*
X78614Y116143D01*
X77196D01*
X77058Y116155D01*
X76931Y116201D01*
X76839Y116270D01*
X76758Y116339D01*
X76712Y116409D01*
X76666Y116478D01*
X76654Y116524D01*
X76643Y116535D01*
X76620Y116604D01*
Y116674D01*
X76631Y116766D01*
X76677Y116835D01*
X76735Y116893D01*
X76793Y116916D01*
X76862Y116927D01*
X76896Y116939D01*
X78338D01*
X77773Y118588D01*
X75743D01*
X75605Y118599D01*
X75490Y118645D01*
X75397Y118714D01*
X75317Y118784D01*
X75271Y118853D01*
X75224Y118922D01*
X75213Y118968D01*
X75201Y118980D01*
X75178Y119049D01*
Y119118D01*
X75190Y119210D01*
X75236Y119280D01*
X75294Y119337D01*
X75351Y119360D01*
X75420Y119372D01*
X75455Y119383D01*
X77911D01*
X78049Y119372D01*
D02*
G37*
G36*
X74325Y117538D02*
X74429Y117492D01*
X74521Y117423D01*
X74602Y117354D01*
X74648Y117273D01*
X74694Y117216D01*
X74706Y117169D01*
X74717Y117146D01*
X75962Y113491D01*
X75985Y113422D01*
Y113365D01*
X75974Y113261D01*
X75939Y113192D01*
X75882Y113145D01*
X75813Y113122D01*
X75755Y113111D01*
X75709Y113099D01*
X75697D01*
X75559Y113111D01*
X75432Y113157D01*
X75340Y113226D01*
X75271Y113295D01*
X75213Y113365D01*
X75178Y113434D01*
X75167Y113480D01*
X75155Y113491D01*
X74048Y116754D01*
X72930D01*
X72849Y116743D01*
X72792Y116731D01*
X72688Y116685D01*
X72642Y116628D01*
X72619Y116616D01*
Y116604D01*
X72584Y116547D01*
X72572Y116489D01*
Y116362D01*
Y116316D01*
X72584Y116270D01*
X72596Y116247D01*
Y116236D01*
X73529Y113491D01*
X73553Y113422D01*
Y113365D01*
X73541Y113261D01*
X73506Y113192D01*
X73449Y113145D01*
X73380Y113122D01*
X73322Y113111D01*
X73276Y113099D01*
X73264D01*
X73126Y113111D01*
X72999Y113157D01*
X72907Y113226D01*
X72838Y113295D01*
X72780Y113365D01*
X72746Y113434D01*
X72734Y113480D01*
X72722Y113491D01*
X71789Y116236D01*
X71742Y116432D01*
X71719Y116604D01*
X71731Y116766D01*
X71754Y116904D01*
X71789Y117008D01*
X71823Y117089D01*
X71846Y117146D01*
X71858Y117158D01*
X71961Y117285D01*
X72088Y117389D01*
X72215Y117458D01*
X72354Y117504D01*
X72469Y117527D01*
X72572Y117550D01*
X74187D01*
X74325Y117538D01*
D02*
G37*
G36*
X65608Y117527D02*
X65712Y117481D01*
X65804Y117412D01*
X65885Y117342D01*
X65931Y117273D01*
X65977Y117204D01*
X65989Y117158D01*
X66000Y117146D01*
X67246Y113491D01*
X67269Y113422D01*
Y113365D01*
X67257Y113261D01*
X67223Y113192D01*
X67165Y113145D01*
X67096Y113122D01*
X67038Y113111D01*
X66992Y113099D01*
X66980D01*
X66842Y113111D01*
X66715Y113157D01*
X66623Y113226D01*
X66554Y113295D01*
X66496Y113365D01*
X66462Y113434D01*
X66450Y113480D01*
X66439Y113491D01*
X65193Y117146D01*
X65170Y117216D01*
Y117273D01*
X65182Y117377D01*
X65216Y117446D01*
X65274Y117492D01*
X65343Y117515D01*
X65412Y117538D01*
X65470D01*
X65608Y117527D01*
D02*
G37*
G36*
X63729Y117538D02*
X63833Y117492D01*
X63925Y117423D01*
X64006Y117354D01*
X64052Y117273D01*
X64098Y117216D01*
X64109Y117169D01*
X64121Y117146D01*
X65366Y113491D01*
X65389Y113422D01*
Y113365D01*
X65378Y113261D01*
X65343Y113192D01*
X65286Y113145D01*
X65216Y113122D01*
X65159Y113111D01*
X65113Y113099D01*
X65101D01*
X64963Y113111D01*
X64836Y113157D01*
X64744Y113226D01*
X64675Y113295D01*
X64617Y113365D01*
X64582Y113434D01*
X64571Y113480D01*
X64559Y113491D01*
X63452Y116754D01*
X62334D01*
X62253Y116743D01*
X62195Y116731D01*
X62092Y116685D01*
X62046Y116628D01*
X62023Y116616D01*
Y116604D01*
X61988Y116547D01*
X61976Y116489D01*
Y116362D01*
Y116316D01*
X61988Y116270D01*
X61999Y116247D01*
Y116236D01*
X62933Y113491D01*
X62957Y113422D01*
Y113365D01*
X62945Y113261D01*
X62910Y113192D01*
X62853Y113145D01*
X62784Y113122D01*
X62726Y113111D01*
X62680Y113099D01*
X62668D01*
X62530Y113111D01*
X62403Y113157D01*
X62311Y113226D01*
X62242Y113295D01*
X62184Y113365D01*
X62149Y113434D01*
X62138Y113480D01*
X62126Y113491D01*
X61192Y116236D01*
X61146Y116432D01*
X61123Y116604D01*
X61135Y116766D01*
X61158Y116904D01*
X61192Y117008D01*
X61227Y117089D01*
X61250Y117146D01*
X61262Y117158D01*
X61365Y117285D01*
X61492Y117389D01*
X61619Y117458D01*
X61757Y117504D01*
X61873Y117527D01*
X61976Y117550D01*
X63591D01*
X63729Y117538D01*
D02*
G37*
G36*
X58252Y117527D02*
X58494Y117481D01*
X58714Y117400D01*
X58909Y117319D01*
X59082Y117227D01*
X59198Y117146D01*
X59255Y117123D01*
X59278Y117100D01*
X59302Y117077D01*
X59313D01*
X59532Y116893D01*
X59717Y116697D01*
X59866Y116501D01*
X59982Y116328D01*
X60074Y116166D01*
X60132Y116040D01*
X60155Y115993D01*
X60166Y115959D01*
X60178Y115936D01*
Y115924D01*
X60697Y114402D01*
X60743Y114206D01*
X60766Y114022D01*
X60754Y113860D01*
X60731Y113734D01*
X60708Y113618D01*
X60674Y113538D01*
X60650Y113491D01*
X60639Y113468D01*
X60535Y113341D01*
X60408Y113261D01*
X60270Y113192D01*
X60143Y113145D01*
X60016Y113122D01*
X59924Y113111D01*
X59855Y113099D01*
X58310D01*
X58172Y113111D01*
X58045Y113157D01*
X57952Y113226D01*
X57872Y113295D01*
X57826Y113365D01*
X57780Y113434D01*
X57768Y113480D01*
X57757Y113491D01*
X57733Y113561D01*
Y113630D01*
X57745Y113722D01*
X57791Y113791D01*
X57849Y113849D01*
X57906Y113872D01*
X57976Y113883D01*
X58010Y113895D01*
X59555D01*
X59624Y113907D01*
X59693Y113918D01*
X59786Y113964D01*
X59843Y114010D01*
X59866Y114033D01*
X59890Y114091D01*
X59913Y114160D01*
Y114276D01*
X59901Y114322D01*
Y114368D01*
X59890Y114391D01*
Y114402D01*
X59717Y114921D01*
X57272D01*
X56938Y115924D01*
X56903Y116051D01*
X56880Y116166D01*
X56857Y116397D01*
Y116593D01*
X56892Y116754D01*
X56926Y116893D01*
X56972Y116997D01*
X57007Y117054D01*
X57019Y117077D01*
X57145Y117239D01*
X57295Y117354D01*
X57468Y117435D01*
X57630Y117492D01*
X57780Y117527D01*
X57895Y117538D01*
X57941Y117550D01*
X58010D01*
X58252Y117527D01*
D02*
G37*
G36*
X53894D02*
X54136Y117481D01*
X54355Y117400D01*
X54551Y117319D01*
X54724Y117227D01*
X54839Y117146D01*
X54897Y117123D01*
X54920Y117100D01*
X54943Y117077D01*
X54955D01*
X55174Y116893D01*
X55358Y116697D01*
X55508Y116501D01*
X55623Y116328D01*
X55716Y116166D01*
X55773Y116040D01*
X55796Y115993D01*
X55808Y115959D01*
X55819Y115936D01*
Y115924D01*
X56338Y114402D01*
X56384Y114206D01*
X56407Y114022D01*
X56396Y113860D01*
X56373Y113734D01*
X56350Y113618D01*
X56315Y113538D01*
X56292Y113491D01*
X56281Y113468D01*
X56177Y113341D01*
X56050Y113261D01*
X55912Y113192D01*
X55785Y113145D01*
X55658Y113122D01*
X55566Y113111D01*
X55497Y113099D01*
X53952D01*
X53813Y113111D01*
X53686Y113157D01*
X53594Y113226D01*
X53513Y113295D01*
X53467Y113365D01*
X53421Y113434D01*
X53410Y113480D01*
X53398Y113491D01*
X53375Y113561D01*
Y113630D01*
X53387Y113722D01*
X53433Y113791D01*
X53490Y113849D01*
X53548Y113872D01*
X53617Y113883D01*
X53652Y113895D01*
X55197D01*
X55266Y113907D01*
X55335Y113918D01*
X55427Y113964D01*
X55485Y114010D01*
X55508Y114033D01*
X55531Y114091D01*
X55554Y114160D01*
Y114276D01*
X55543Y114322D01*
Y114368D01*
X55531Y114391D01*
Y114402D01*
X55358Y114921D01*
X52914D01*
X52579Y115924D01*
X52545Y116051D01*
X52522Y116166D01*
X52499Y116397D01*
Y116593D01*
X52533Y116754D01*
X52568Y116893D01*
X52614Y116997D01*
X52649Y117054D01*
X52660Y117077D01*
X52787Y117239D01*
X52937Y117354D01*
X53110Y117435D01*
X53271Y117492D01*
X53421Y117527D01*
X53536Y117538D01*
X53583Y117550D01*
X53652D01*
X53894Y117527D01*
D02*
G37*
G36*
X50654Y117538D02*
X50758Y117492D01*
X50850Y117423D01*
X50931Y117354D01*
X50977Y117273D01*
X51023Y117216D01*
X51034Y117169D01*
X51046Y117146D01*
X52291Y113491D01*
X52314Y113422D01*
Y113365D01*
X52303Y113261D01*
X52268Y113192D01*
X52211Y113145D01*
X52141Y113122D01*
X52084Y113111D01*
X52038Y113099D01*
X52026D01*
X51888Y113111D01*
X51761Y113157D01*
X51669Y113226D01*
X51600Y113295D01*
X51542Y113365D01*
X51507Y113434D01*
X51496Y113480D01*
X51484Y113491D01*
X50377Y116754D01*
X49351D01*
X49420Y116535D01*
X49443Y116466D01*
Y116409D01*
X49432Y116305D01*
X49397Y116236D01*
X49340Y116190D01*
X49270Y116166D01*
X49213Y116155D01*
X49167Y116143D01*
X49155D01*
X49017Y116155D01*
X48901Y116201D01*
X48809Y116270D01*
X48728Y116339D01*
X48682Y116409D01*
X48636Y116478D01*
X48625Y116524D01*
X48613Y116535D01*
X48406Y117146D01*
X48383Y117216D01*
Y117285D01*
X48394Y117377D01*
X48440Y117446D01*
X48498Y117504D01*
X48555Y117527D01*
X48625Y117538D01*
X48659Y117550D01*
X50516D01*
X50654Y117538D01*
D02*
G37*
G36*
X46918Y117527D02*
X47022Y117481D01*
X47114Y117412D01*
X47195Y117342D01*
X47241Y117273D01*
X47287Y117204D01*
X47299Y117158D01*
X47310Y117146D01*
X48555Y113491D01*
X48579Y113422D01*
Y113365D01*
X48567Y113261D01*
X48533Y113192D01*
X48475Y113145D01*
X48406Y113122D01*
X48348Y113111D01*
X48302Y113099D01*
X48290D01*
X48152Y113111D01*
X48025Y113157D01*
X47933Y113226D01*
X47864Y113295D01*
X47806Y113365D01*
X47771Y113434D01*
X47760Y113480D01*
X47748Y113491D01*
X46503Y117146D01*
X46480Y117216D01*
Y117273D01*
X46492Y117377D01*
X46526Y117446D01*
X46584Y117492D01*
X46653Y117515D01*
X46722Y117538D01*
X46780D01*
X46918Y117527D01*
D02*
G37*
G36*
X45039Y117538D02*
X45143Y117492D01*
X45235Y117423D01*
X45316Y117354D01*
X45362Y117273D01*
X45408Y117216D01*
X45419Y117169D01*
X45431Y117146D01*
X46676Y113491D01*
X46699Y113422D01*
Y113365D01*
X46688Y113261D01*
X46653Y113192D01*
X46595Y113145D01*
X46526Y113122D01*
X46469Y113111D01*
X46422Y113099D01*
X46411D01*
X46273Y113111D01*
X46146Y113157D01*
X46053Y113226D01*
X45984Y113295D01*
X45927Y113365D01*
X45892Y113434D01*
X45881Y113480D01*
X45869Y113491D01*
X44762Y116754D01*
X43644D01*
X43563Y116743D01*
X43505Y116731D01*
X43402Y116685D01*
X43356Y116628D01*
X43332Y116616D01*
Y116604D01*
X43298Y116547D01*
X43286Y116489D01*
Y116362D01*
Y116316D01*
X43298Y116270D01*
X43309Y116247D01*
Y116236D01*
X44243Y113491D01*
X44266Y113422D01*
Y113365D01*
X44255Y113261D01*
X44220Y113192D01*
X44163Y113145D01*
X44093Y113122D01*
X44036Y113111D01*
X43990Y113099D01*
X43978D01*
X43840Y113111D01*
X43713Y113157D01*
X43621Y113226D01*
X43551Y113295D01*
X43494Y113365D01*
X43459Y113434D01*
X43448Y113480D01*
X43436Y113491D01*
X42502Y116236D01*
X42456Y116432D01*
X42433Y116604D01*
X42445Y116766D01*
X42468Y116904D01*
X42502Y117008D01*
X42537Y117089D01*
X42560Y117146D01*
X42571Y117158D01*
X42675Y117285D01*
X42802Y117389D01*
X42929Y117458D01*
X43067Y117504D01*
X43183Y117527D01*
X43286Y117550D01*
X44901D01*
X45039Y117538D01*
D02*
G37*
G36*
X69113D02*
X69310Y117492D01*
X69494Y117435D01*
X69655Y117366D01*
X69782Y117285D01*
X69886Y117227D01*
X69955Y117181D01*
X69967Y117169D01*
X69978D01*
X70151Y117020D01*
X70301Y116858D01*
X70416Y116708D01*
X70509Y116558D01*
X70589Y116432D01*
X70635Y116328D01*
X70659Y116259D01*
X70670Y116247D01*
Y116236D01*
X71293Y114402D01*
X71327Y114276D01*
X71350Y114149D01*
X71362Y114033D01*
Y113941D01*
X71350Y113860D01*
Y113803D01*
X71339Y113757D01*
Y113745D01*
X71304Y113630D01*
X71258Y113538D01*
X71201Y113445D01*
X71131Y113376D01*
X70981Y113261D01*
X70832Y113180D01*
X70682Y113134D01*
X70543Y113111D01*
X70497Y113099D01*
X69298D01*
X69482Y112581D01*
X69517Y112511D01*
X69552Y112442D01*
X69644Y112327D01*
X69690Y112281D01*
X69725Y112246D01*
X69748Y112235D01*
X69759Y112223D01*
X69828Y112165D01*
X69909Y112131D01*
X70036Y112085D01*
X70094Y112073D01*
X70140Y112062D01*
X71385D01*
X71523Y112050D01*
X71639Y112004D01*
X71731Y111935D01*
X71800Y111866D01*
X71858Y111796D01*
X71892Y111727D01*
X71904Y111681D01*
X71915Y111670D01*
X71938Y111600D01*
Y111531D01*
Y111439D01*
X71892Y111370D01*
X71835Y111312D01*
X71777Y111289D01*
X71719Y111278D01*
X71673Y111266D01*
X70439D01*
X70232Y111278D01*
X70036Y111324D01*
X69863Y111393D01*
X69702Y111462D01*
X69563Y111531D01*
X69471Y111600D01*
X69402Y111647D01*
X69379Y111658D01*
X69194Y111808D01*
X69044Y111958D01*
X68929Y112119D01*
X68837Y112258D01*
X68756Y112384D01*
X68710Y112488D01*
X68687Y112557D01*
X68675Y112569D01*
Y112581D01*
X67119Y117146D01*
X67096Y117216D01*
Y117285D01*
X67107Y117377D01*
X67142Y117446D01*
X67199Y117504D01*
X67269Y117527D01*
X67338Y117538D01*
X67373Y117550D01*
X68918D01*
X69113Y117538D01*
D02*
G37*
G36*
X39827D02*
X40023Y117492D01*
X40208Y117435D01*
X40369Y117366D01*
X40496Y117285D01*
X40600Y117227D01*
X40669Y117181D01*
X40681Y117169D01*
X40692D01*
X40865Y117020D01*
X41015Y116858D01*
X41130Y116708D01*
X41223Y116558D01*
X41303Y116432D01*
X41349Y116328D01*
X41372Y116259D01*
X41384Y116247D01*
Y116236D01*
X42006Y114402D01*
X42041Y114276D01*
X42064Y114149D01*
X42076Y114033D01*
Y113941D01*
X42064Y113860D01*
Y113803D01*
X42053Y113757D01*
Y113745D01*
X42018Y113630D01*
X41972Y113538D01*
X41914Y113445D01*
X41845Y113376D01*
X41695Y113261D01*
X41545Y113180D01*
X41395Y113134D01*
X41257Y113111D01*
X41211Y113099D01*
X40012D01*
X40196Y112581D01*
X40231Y112511D01*
X40266Y112442D01*
X40358Y112327D01*
X40404Y112281D01*
X40438Y112246D01*
X40462Y112235D01*
X40473Y112223D01*
X40542Y112165D01*
X40623Y112131D01*
X40750Y112085D01*
X40807Y112073D01*
X40854Y112062D01*
X42099D01*
X42237Y112050D01*
X42352Y112004D01*
X42445Y111935D01*
X42514Y111866D01*
X42571Y111796D01*
X42606Y111727D01*
X42618Y111681D01*
X42629Y111670D01*
X42652Y111600D01*
Y111531D01*
Y111439D01*
X42606Y111370D01*
X42548Y111312D01*
X42491Y111289D01*
X42433Y111278D01*
X42387Y111266D01*
X41153D01*
X40946Y111278D01*
X40750Y111324D01*
X40577Y111393D01*
X40415Y111462D01*
X40277Y111531D01*
X40185Y111600D01*
X40116Y111647D01*
X40093Y111658D01*
X39908Y111808D01*
X39758Y111958D01*
X39643Y112119D01*
X39551Y112258D01*
X39470Y112384D01*
X39424Y112488D01*
X39401Y112557D01*
X39389Y112569D01*
Y112581D01*
X37833Y117146D01*
X37810Y117216D01*
Y117285D01*
X37821Y117377D01*
X37856Y117446D01*
X37913Y117504D01*
X37982Y117527D01*
X38052Y117538D01*
X38086Y117550D01*
X39631D01*
X39827Y117538D01*
D02*
G37*
G36*
X89983Y109998D02*
X90098Y109952D01*
X90190Y109882D01*
X90271Y109813D01*
X90317Y109733D01*
X90363Y109675D01*
X90375Y109629D01*
X90386Y109606D01*
X92254Y104118D01*
X92277Y104048D01*
Y103991D01*
X92266Y103887D01*
X92231Y103818D01*
X92173Y103772D01*
X92104Y103749D01*
X92047Y103737D01*
X92001Y103726D01*
X91989D01*
X91851Y103737D01*
X91724Y103783D01*
X91632Y103852D01*
X91562Y103921D01*
X91505Y103991D01*
X91470Y104060D01*
X91459Y104106D01*
X91447Y104118D01*
X89948Y108510D01*
X89510Y106689D01*
X89476Y106620D01*
X89441Y106562D01*
X89383Y106527D01*
X89337Y106493D01*
X89291Y106481D01*
X89256Y106470D01*
X89222D01*
X89141Y106481D01*
X89060Y106504D01*
X88922Y106585D01*
X88864Y106620D01*
X88818Y106654D01*
X88795Y106677D01*
X88784Y106689D01*
X87100Y108510D01*
X88599Y104118D01*
X88622Y104048D01*
Y103991D01*
X88611Y103887D01*
X88576Y103818D01*
X88519Y103772D01*
X88449Y103749D01*
X88392Y103737D01*
X88346Y103726D01*
X88334D01*
X88196Y103737D01*
X88069Y103783D01*
X87977Y103852D01*
X87907Y103921D01*
X87850Y103991D01*
X87815Y104060D01*
X87804Y104106D01*
X87792Y104118D01*
X85924Y109606D01*
X85901Y109675D01*
Y109744D01*
X85913Y109836D01*
X85947Y109906D01*
X86005Y109963D01*
X86074Y109986D01*
X86143Y109998D01*
X86178Y110009D01*
X86201D01*
X86282Y109998D01*
X86351Y109986D01*
X86478Y109917D01*
X86524Y109882D01*
X86558Y109860D01*
X86581Y109836D01*
X86593Y109825D01*
X88864Y107507D01*
X89556Y109813D01*
X89591Y109882D01*
X89625Y109929D01*
X89683Y109963D01*
X89729Y109986D01*
X89775Y109998D01*
X89810Y110009D01*
X89845D01*
X89983Y109998D01*
D02*
G37*
G36*
X65090D02*
X65193Y109952D01*
X65286Y109882D01*
X65366Y109813D01*
X65412Y109733D01*
X65459Y109675D01*
X65470Y109629D01*
X65482Y109606D01*
X65493Y109548D01*
X65505Y109525D01*
Y109514D01*
X66150Y103991D01*
Y103899D01*
X66116Y103841D01*
X66081Y103795D01*
X66023Y103760D01*
X65966Y103737D01*
X65920Y103726D01*
X65874D01*
X65770Y103737D01*
X65666Y103772D01*
X65574Y103829D01*
X65505Y103887D01*
X65435Y103945D01*
X65389Y104002D01*
X65366Y104037D01*
X65355Y104048D01*
X63625Y106723D01*
X63718Y104048D01*
X63706Y103945D01*
X63671Y103864D01*
X63625Y103806D01*
X63568Y103772D01*
X63521Y103749D01*
X63475Y103726D01*
X63429D01*
X63314Y103737D01*
X63210Y103772D01*
X63130Y103829D01*
X63049Y103887D01*
X63003Y103945D01*
X62957Y104002D01*
X62933Y104037D01*
X62922Y104048D01*
X59843Y109514D01*
X59809Y109583D01*
X59797Y109594D01*
Y109606D01*
X59774Y109675D01*
Y109744D01*
X59786Y109836D01*
X59820Y109906D01*
X59878Y109963D01*
X59947Y109986D01*
X60016Y109998D01*
X60051Y110009D01*
X60074D01*
X60189Y109998D01*
X60282Y109963D01*
X60374Y109906D01*
X60443Y109848D01*
X60501Y109790D01*
X60535Y109733D01*
X60558Y109698D01*
X60570Y109687D01*
X62945Y105351D01*
X62841Y107922D01*
X62853Y108003D01*
X62887Y108072D01*
X62933Y108118D01*
X62980Y108142D01*
X63037Y108165D01*
X63083Y108176D01*
X63130D01*
X63233Y108165D01*
X63326Y108130D01*
X63418Y108072D01*
X63487Y108015D01*
X63544Y107957D01*
X63591Y107899D01*
X63614Y107865D01*
X63625Y107853D01*
X65228Y105351D01*
X64651Y109733D01*
Y109825D01*
X64686Y109894D01*
X64732Y109940D01*
X64790Y109975D01*
X64847Y109998D01*
X64894Y110009D01*
X64951D01*
X65090Y109998D01*
D02*
G37*
G36*
X82869D02*
X83019Y109986D01*
X83307Y109917D01*
X83561Y109836D01*
X83803Y109733D01*
X83999Y109629D01*
X84079Y109571D01*
X84149Y109537D01*
X84206Y109502D01*
X84241Y109467D01*
X84264Y109456D01*
X84276Y109444D01*
X84529Y109225D01*
X84748Y108995D01*
X84933Y108764D01*
X85071Y108557D01*
X85175Y108361D01*
X85209Y108291D01*
X85244Y108222D01*
X85267Y108165D01*
X85290Y108118D01*
X85302Y108095D01*
Y108084D01*
X86132Y105640D01*
X86178Y105490D01*
X86201Y105351D01*
X86224Y105224D01*
Y105086D01*
X86212Y104856D01*
X86178Y104659D01*
X86132Y104498D01*
X86086Y104383D01*
X86063Y104337D01*
X86040Y104302D01*
X86028Y104290D01*
Y104279D01*
X85959Y104187D01*
X85867Y104095D01*
X85694Y103956D01*
X85498Y103864D01*
X85302Y103795D01*
X85129Y103760D01*
X84990Y103737D01*
X84944Y103726D01*
X84864D01*
X84714Y103737D01*
X84564Y103749D01*
X84276Y103818D01*
X84010Y103899D01*
X83780Y104002D01*
X83584Y104106D01*
X83503Y104152D01*
X83434Y104198D01*
X83376Y104233D01*
X83341Y104256D01*
X83319Y104267D01*
X83307Y104279D01*
X83169Y104383D01*
X83042Y104498D01*
X82823Y104729D01*
X82650Y104959D01*
X82511Y105167D01*
X82408Y105363D01*
X82362Y105444D01*
X82338Y105501D01*
X82315Y105559D01*
X82292Y105605D01*
X82281Y105628D01*
Y105640D01*
X81451Y108084D01*
X81405Y108234D01*
X81370Y108372D01*
X81358Y108510D01*
X81347Y108637D01*
X81358Y108868D01*
X81393Y109064D01*
X81439Y109225D01*
X81485Y109341D01*
X81508Y109387D01*
X81531Y109421D01*
X81543Y109433D01*
Y109444D01*
X81612Y109548D01*
X81704Y109629D01*
X81785Y109710D01*
X81877Y109767D01*
X82073Y109871D01*
X82269Y109940D01*
X82442Y109975D01*
X82523Y109998D01*
X82592D01*
X82638Y110009D01*
X82719D01*
X82869Y109998D01*
D02*
G37*
G36*
X78291Y109986D02*
X78534Y109929D01*
X78753Y109860D01*
X78949Y109767D01*
X79122Y109675D01*
X79237Y109606D01*
X79295Y109571D01*
X79318Y109548D01*
X79341Y109537D01*
X79352Y109525D01*
X79571Y109341D01*
X79756Y109145D01*
X79906Y108960D01*
X80021Y108776D01*
X80113Y108626D01*
X80171Y108499D01*
X80194Y108453D01*
X80205Y108418D01*
X80217Y108395D01*
Y108384D01*
X80263Y108211D01*
X80298Y108038D01*
X80309Y107888D01*
X80298Y107749D01*
X80275Y107623D01*
X80240Y107496D01*
X80194Y107392D01*
X80148Y107300D01*
X80032Y107150D01*
X79929Y107035D01*
X79894Y107000D01*
X79860Y106977D01*
X79836Y106954D01*
X79825D01*
X78268Y106066D01*
X78199Y105974D01*
X78165Y105859D01*
X78153Y105732D01*
Y105616D01*
X78165Y105513D01*
X78188Y105420D01*
X78199Y105363D01*
X78211Y105351D01*
Y105340D01*
X78257Y105213D01*
X78326Y105098D01*
X78395Y105005D01*
X78476Y104913D01*
X78545Y104844D01*
X78591Y104798D01*
X78637Y104763D01*
X78649Y104752D01*
X78764Y104671D01*
X78891Y104613D01*
X78995Y104579D01*
X79098Y104556D01*
X79179Y104533D01*
X79248Y104521D01*
X79456D01*
X79594Y104544D01*
X79721Y104556D01*
X79825Y104579D01*
X79917Y104602D01*
X79975Y104613D01*
X80021Y104636D01*
X80032D01*
X80205Y104729D01*
X80344Y104809D01*
X80459Y104878D01*
X80563Y104936D01*
X80632Y104982D01*
X80678Y105028D01*
X80713Y105040D01*
X80724Y105052D01*
X80805Y105098D01*
X80863Y105109D01*
X80909Y105121D01*
X80932D01*
X81047Y105098D01*
X81151Y105063D01*
X81232Y105028D01*
X81243Y105005D01*
X81255D01*
X81347Y104913D01*
X81416Y104821D01*
X81451Y104752D01*
X81462Y104740D01*
Y104729D01*
X81474Y104659D01*
Y104590D01*
X81451Y104498D01*
X81416Y104429D01*
X81405Y104417D01*
Y104406D01*
X81278Y104290D01*
X81139Y104187D01*
X80989Y104095D01*
X80840Y104014D01*
X80690Y103945D01*
X80528Y103887D01*
X80240Y103806D01*
X80102Y103783D01*
X79986Y103760D01*
X79871Y103749D01*
X79767Y103737D01*
X79698Y103726D01*
X79583D01*
X79329Y103749D01*
X79087Y103795D01*
X78868Y103875D01*
X78672Y103968D01*
X78499Y104048D01*
X78372Y104129D01*
X78326Y104152D01*
X78291Y104175D01*
X78280Y104198D01*
X78268D01*
X78049Y104383D01*
X77865Y104579D01*
X77715Y104763D01*
X77588Y104948D01*
X77507Y105109D01*
X77450Y105224D01*
X77427Y105271D01*
X77415Y105305D01*
X77404Y105328D01*
Y105340D01*
X77358Y105513D01*
X77323Y105686D01*
X77311Y105835D01*
X77323Y105974D01*
X77346Y106112D01*
X77381Y106228D01*
X77427Y106331D01*
X77484Y106424D01*
X77588Y106585D01*
X77692Y106689D01*
X77738Y106735D01*
X77773Y106758D01*
X77796Y106781D01*
X77807D01*
X79352Y107669D01*
X79421Y107761D01*
X79456Y107865D01*
X79467Y107992D01*
Y108107D01*
X79456Y108211D01*
X79433Y108303D01*
X79421Y108361D01*
X79410Y108384D01*
X79352Y108510D01*
X79295Y108626D01*
X79225Y108718D01*
X79145Y108810D01*
X79075Y108879D01*
X79018Y108926D01*
X78983Y108960D01*
X78972Y108972D01*
X78845Y109052D01*
X78729Y109110D01*
X78626Y109156D01*
X78522Y109179D01*
X78441Y109202D01*
X78372Y109214D01*
X78315D01*
X78072Y109202D01*
X77830Y109168D01*
X77623Y109122D01*
X77438Y109075D01*
X77277Y109029D01*
X77162Y108983D01*
X77115Y108960D01*
X77081Y108949D01*
X77069Y108937D01*
X77058D01*
X76989Y108914D01*
X76942Y108903D01*
X76896D01*
X76781Y108926D01*
X76677Y108960D01*
X76596Y108995D01*
X76585Y109018D01*
X76573D01*
X76470Y109122D01*
X76401Y109214D01*
X76366Y109283D01*
X76354Y109294D01*
Y109306D01*
X76343Y109387D01*
Y109456D01*
X76354Y109514D01*
X76389Y109560D01*
X76447Y109629D01*
X76458Y109652D01*
X76470D01*
X76562Y109710D01*
X76677Y109767D01*
X76919Y109860D01*
X77173Y109917D01*
X77438Y109963D01*
X77669Y109986D01*
X77773Y109998D01*
X77865Y110009D01*
X78049D01*
X78291Y109986D01*
D02*
G37*
G36*
X73311D02*
X73553Y109940D01*
X73772Y109860D01*
X73968Y109779D01*
X74141Y109687D01*
X74256Y109606D01*
X74314Y109583D01*
X74337Y109560D01*
X74360Y109537D01*
X74371D01*
X74590Y109352D01*
X74775Y109156D01*
X74925Y108960D01*
X75040Y108787D01*
X75132Y108626D01*
X75190Y108499D01*
X75213Y108453D01*
X75224Y108418D01*
X75236Y108395D01*
Y108384D01*
X76274Y105340D01*
X76308Y105213D01*
X76331Y105098D01*
X76354Y104878D01*
Y104671D01*
X76320Y104510D01*
X76274Y104371D01*
X76239Y104267D01*
X76205Y104210D01*
X76193Y104187D01*
X76066Y104037D01*
X75905Y103921D01*
X75743Y103841D01*
X75582Y103783D01*
X75432Y103749D01*
X75317Y103737D01*
X75271Y103726D01*
X73991D01*
X73852Y103737D01*
X73725Y103783D01*
X73633Y103852D01*
X73553Y103921D01*
X73506Y103991D01*
X73460Y104060D01*
X73449Y104106D01*
X73437Y104118D01*
X73414Y104187D01*
Y104256D01*
X73426Y104348D01*
X73472Y104417D01*
X73529Y104475D01*
X73587Y104498D01*
X73656Y104510D01*
X73691Y104521D01*
X74936D01*
X75051Y104533D01*
X75155Y104556D01*
X75236Y104590D01*
X75305Y104636D01*
X75363Y104683D01*
X75397Y104717D01*
X75420Y104740D01*
X75432Y104752D01*
X75478Y104844D01*
X75501Y104948D01*
X75513Y105040D01*
X75501Y105132D01*
X75490Y105213D01*
X75478Y105282D01*
X75467Y105328D01*
Y105340D01*
X74429Y108384D01*
X74371Y108510D01*
X74314Y108626D01*
X74244Y108718D01*
X74164Y108810D01*
X74094Y108879D01*
X74037Y108926D01*
X74002Y108960D01*
X73991Y108972D01*
X73864Y109052D01*
X73749Y109110D01*
X73645Y109156D01*
X73541Y109179D01*
X73460Y109202D01*
X73391Y109214D01*
X72111D01*
X71973Y109225D01*
X71858Y109272D01*
X71765Y109341D01*
X71685Y109410D01*
X71639Y109479D01*
X71592Y109548D01*
X71581Y109594D01*
X71569Y109606D01*
X71546Y109675D01*
Y109744D01*
X71558Y109836D01*
X71604Y109906D01*
X71662Y109963D01*
X71719Y109986D01*
X71789Y109998D01*
X71823Y110009D01*
X73068D01*
X73311Y109986D01*
D02*
G37*
G36*
X68549Y109998D02*
X68699Y109986D01*
X68987Y109917D01*
X69240Y109836D01*
X69482Y109733D01*
X69678Y109629D01*
X69759Y109571D01*
X69828Y109537D01*
X69886Y109502D01*
X69921Y109467D01*
X69944Y109456D01*
X69955Y109444D01*
X70209Y109225D01*
X70428Y108995D01*
X70612Y108764D01*
X70751Y108557D01*
X70855Y108361D01*
X70889Y108291D01*
X70924Y108222D01*
X70947Y108165D01*
X70970Y108118D01*
X70981Y108095D01*
Y108084D01*
X71811Y105640D01*
X71858Y105490D01*
X71881Y105351D01*
X71904Y105224D01*
Y105086D01*
X71892Y104856D01*
X71858Y104659D01*
X71811Y104498D01*
X71765Y104383D01*
X71742Y104337D01*
X71719Y104302D01*
X71708Y104290D01*
Y104279D01*
X71639Y104187D01*
X71546Y104095D01*
X71373Y103956D01*
X71177Y103864D01*
X70981Y103795D01*
X70808Y103760D01*
X70670Y103737D01*
X70624Y103726D01*
X70543D01*
X70393Y103737D01*
X70244Y103749D01*
X69955Y103818D01*
X69690Y103899D01*
X69459Y104002D01*
X69263Y104106D01*
X69183Y104152D01*
X69113Y104198D01*
X69056Y104233D01*
X69021Y104256D01*
X68998Y104267D01*
X68987Y104279D01*
X68848Y104383D01*
X68721Y104498D01*
X68502Y104729D01*
X68330Y104959D01*
X68191Y105167D01*
X68087Y105363D01*
X68041Y105444D01*
X68018Y105501D01*
X67995Y105559D01*
X67972Y105605D01*
X67961Y105628D01*
Y105640D01*
X67130Y108084D01*
X67084Y108234D01*
X67050Y108372D01*
X67038Y108510D01*
X67027Y108637D01*
X67038Y108868D01*
X67073Y109064D01*
X67119Y109225D01*
X67165Y109341D01*
X67188Y109387D01*
X67211Y109421D01*
X67223Y109433D01*
Y109444D01*
X67292Y109548D01*
X67384Y109629D01*
X67465Y109710D01*
X67557Y109767D01*
X67753Y109871D01*
X67949Y109940D01*
X68122Y109975D01*
X68203Y109998D01*
X68272D01*
X68318Y110009D01*
X68399D01*
X68549Y109998D01*
D02*
G37*
G36*
X80880Y102457D02*
X81064Y102423D01*
X81237Y102365D01*
X81422Y102284D01*
X81595Y102192D01*
X81756Y102088D01*
X82056Y101881D01*
X82194Y101765D01*
X82321Y101662D01*
X82425Y101558D01*
X82517Y101466D01*
X82586Y101397D01*
X82644Y101327D01*
X82679Y101293D01*
X82690Y101281D01*
X82713Y101247D01*
X82736Y101200D01*
X82748Y101166D01*
X82759Y101154D01*
X82782Y101085D01*
Y101016D01*
X82771Y100924D01*
X82736Y100855D01*
X82679Y100797D01*
X82609Y100774D01*
X82552Y100762D01*
X82506Y100751D01*
X82494D01*
X82402Y100762D01*
X82321Y100785D01*
X82194Y100855D01*
X82148Y100889D01*
X82114Y100912D01*
X82091Y100935D01*
X82079Y100947D01*
X81952Y101074D01*
X81837Y101189D01*
X81733Y101281D01*
X81629Y101362D01*
X81526Y101443D01*
X81433Y101500D01*
X81272Y101581D01*
X81145Y101639D01*
X81041Y101662D01*
X80984Y101673D01*
X80961D01*
X80845Y101662D01*
X80742Y101639D01*
X80661Y101593D01*
X80592Y101558D01*
X80534Y101512D01*
X80499Y101466D01*
X80476Y101443D01*
X80465Y101431D01*
X80419Y101339D01*
X80384Y101235D01*
Y101143D01*
Y101051D01*
X80396Y100970D01*
X80407Y100901D01*
X80419Y100855D01*
Y100843D01*
X80453Y100762D01*
X80499Y100682D01*
X80603Y100532D01*
X80649Y100474D01*
X80684Y100428D01*
X80707Y100405D01*
X80718Y100393D01*
X84178Y96796D01*
X84235Y96715D01*
X84281Y96646D01*
X84304Y96600D01*
X84316Y96577D01*
X84339Y96508D01*
Y96450D01*
X84327Y96346D01*
X84293Y96277D01*
X84235Y96231D01*
X84166Y96208D01*
X84108Y96196D01*
X84062Y96185D01*
X81618D01*
X81480Y96196D01*
X81353Y96243D01*
X81260Y96312D01*
X81191Y96381D01*
X81134Y96450D01*
X81099Y96519D01*
X81087Y96565D01*
X81076Y96577D01*
X81053Y96646D01*
Y96715D01*
Y96807D01*
X81099Y96877D01*
X81157Y96934D01*
X81226Y96957D01*
X81283Y96969D01*
X81318Y96981D01*
X83128D01*
X80223Y99921D01*
X80073Y100094D01*
X79934Y100267D01*
X79831Y100416D01*
X79750Y100555D01*
X79692Y100682D01*
X79658Y100762D01*
X79635Y100820D01*
X79623Y100843D01*
X79589Y100970D01*
X79566Y101085D01*
X79542Y101304D01*
Y101500D01*
X79577Y101662D01*
X79612Y101800D01*
X79658Y101904D01*
X79692Y101961D01*
X79704Y101985D01*
X79831Y102146D01*
X79992Y102261D01*
X80154Y102354D01*
X80315Y102411D01*
X80465Y102446D01*
X80580Y102457D01*
X80626Y102469D01*
X80695D01*
X80880Y102457D01*
D02*
G37*
G36*
X72048D02*
X72106Y102446D01*
X72232Y102400D01*
X72278Y102365D01*
X72313Y102342D01*
X72336Y102330D01*
X72348Y102319D01*
X73939Y101120D01*
X74043Y101028D01*
X74100Y100935D01*
X74135Y100866D01*
X74146Y100855D01*
Y100843D01*
X74169Y100774D01*
Y100716D01*
Y100612D01*
X74123Y100543D01*
X74066Y100497D01*
X74008Y100474D01*
X73950Y100462D01*
X73904Y100451D01*
X73893D01*
X73766Y100474D01*
X73662Y100509D01*
X73593Y100543D01*
X73581Y100566D01*
X73570D01*
X72797Y101235D01*
X74388Y96577D01*
X74412Y96508D01*
Y96450D01*
X74400Y96346D01*
X74365Y96277D01*
X74308Y96231D01*
X74239Y96208D01*
X74181Y96196D01*
X74135Y96185D01*
X74123D01*
X73985Y96196D01*
X73858Y96243D01*
X73766Y96312D01*
X73697Y96381D01*
X73639Y96450D01*
X73605Y96519D01*
X73593Y96565D01*
X73581Y96577D01*
X71714Y102065D01*
X71690Y102134D01*
Y102204D01*
Y102296D01*
X71737Y102365D01*
X71794Y102423D01*
X71863Y102446D01*
X71921Y102457D01*
X71956Y102469D01*
X71979D01*
X72048Y102457D01*
D02*
G37*
G36*
X76510D02*
X76683Y102411D01*
X76844Y102354D01*
X77006Y102273D01*
X77156Y102181D01*
X77306Y102077D01*
X77571Y101858D01*
X77686Y101742D01*
X77790Y101627D01*
X77882Y101523D01*
X77951Y101431D01*
X78021Y101350D01*
X78067Y101293D01*
X78090Y101247D01*
X78101Y101235D01*
X78297Y100924D01*
X78470Y100601D01*
X78632Y100278D01*
X78770Y99978D01*
X78828Y99840D01*
X78874Y99713D01*
X78920Y99598D01*
X78954Y99506D01*
X78989Y99425D01*
X79001Y99367D01*
X79024Y99333D01*
Y99321D01*
X79150Y98918D01*
X79243Y98549D01*
X79277Y98376D01*
X79312Y98226D01*
X79335Y98076D01*
X79358Y97938D01*
X79369Y97822D01*
X79381Y97707D01*
X79392Y97615D01*
Y97534D01*
X79404Y97476D01*
Y97430D01*
Y97407D01*
Y97396D01*
X79392Y97188D01*
X79358Y96992D01*
X79312Y96831D01*
X79254Y96692D01*
X79185Y96577D01*
X79104Y96485D01*
X79024Y96404D01*
X78931Y96335D01*
X78851Y96289D01*
X78770Y96254D01*
X78620Y96208D01*
X78551Y96196D01*
X78505Y96185D01*
X78470D01*
X78297Y96196D01*
X78124Y96243D01*
X77963Y96300D01*
X77801Y96381D01*
X77652Y96473D01*
X77502Y96577D01*
X77236Y96796D01*
X77121Y96911D01*
X77017Y97015D01*
X76925Y97119D01*
X76844Y97211D01*
X76787Y97292D01*
X76741Y97349D01*
X76718Y97396D01*
X76706Y97407D01*
X76510Y97718D01*
X76326Y98053D01*
X76176Y98364D01*
X76037Y98664D01*
X75980Y98802D01*
X75933Y98929D01*
X75887Y99044D01*
X75853Y99137D01*
X75818Y99217D01*
X75795Y99275D01*
X75784Y99309D01*
Y99321D01*
X75657Y99713D01*
X75565Y100082D01*
X75495Y100405D01*
X75472Y100555D01*
X75449Y100693D01*
X75438Y100808D01*
X75426Y100924D01*
X75415Y101016D01*
X75403Y101085D01*
Y101154D01*
Y101200D01*
Y101224D01*
Y101235D01*
X75415Y101454D01*
X75438Y101639D01*
X75484Y101812D01*
X75553Y101950D01*
X75622Y102065D01*
X75703Y102169D01*
X75784Y102250D01*
X75864Y102319D01*
X75957Y102365D01*
X76037Y102400D01*
X76187Y102446D01*
X76245Y102457D01*
X76291Y102469D01*
X76337D01*
X76510Y102457D01*
D02*
G37*
G36*
X69108Y102446D02*
X69350Y102400D01*
X69569Y102319D01*
X69765Y102238D01*
X69938Y102146D01*
X70053Y102065D01*
X70111Y102042D01*
X70134Y102019D01*
X70157Y101996D01*
X70169D01*
X70388Y101812D01*
X70572Y101616D01*
X70722Y101419D01*
X70837Y101247D01*
X70929Y101085D01*
X70987Y100958D01*
X71010Y100912D01*
X71022Y100878D01*
X71033Y100855D01*
Y100843D01*
X71079Y100693D01*
X71102Y100555D01*
X71114Y100428D01*
Y100313D01*
X71091Y100105D01*
X71033Y99932D01*
X70976Y99794D01*
X70906Y99702D01*
X70860Y99644D01*
X70837Y99621D01*
X71091Y99448D01*
X71310Y99252D01*
X71495Y99056D01*
X71633Y98860D01*
X71737Y98687D01*
X71771Y98606D01*
X71806Y98537D01*
X71829Y98491D01*
X71852Y98445D01*
X71863Y98422D01*
Y98410D01*
X72071Y97799D01*
X72106Y97672D01*
X72129Y97557D01*
X72152Y97338D01*
Y97130D01*
X72117Y96969D01*
X72071Y96831D01*
X72036Y96727D01*
X72002Y96669D01*
X71990Y96646D01*
X71863Y96496D01*
X71702Y96381D01*
X71541Y96300D01*
X71379Y96243D01*
X71229Y96208D01*
X71114Y96196D01*
X71068Y96185D01*
X70999D01*
X70745Y96208D01*
X70514Y96254D01*
X70295Y96335D01*
X70099Y96427D01*
X69926Y96508D01*
X69800Y96588D01*
X69753Y96611D01*
X69719Y96635D01*
X69707Y96658D01*
X69696D01*
X69477Y96842D01*
X69292Y97038D01*
X69142Y97223D01*
X69016Y97407D01*
X68935Y97569D01*
X68877Y97684D01*
X68854Y97730D01*
X68843Y97764D01*
X68831Y97788D01*
Y97799D01*
X68785Y97938D01*
X68739Y98064D01*
X68670Y98283D01*
X68624Y98468D01*
X68589Y98606D01*
X68566Y98710D01*
X68554Y98779D01*
X68543Y98814D01*
Y98825D01*
Y99010D01*
X68566Y99171D01*
X68600Y99309D01*
X68658Y99413D01*
X68716Y99506D01*
X68773Y99575D01*
X68808Y99609D01*
X68819Y99621D01*
X68681Y99702D01*
X68554Y99794D01*
X68335Y99990D01*
X68162Y100197D01*
X68024Y100393D01*
X67920Y100566D01*
X67874Y100647D01*
X67851Y100716D01*
X67828Y100762D01*
X67805Y100808D01*
X67793Y100831D01*
Y100843D01*
X67759Y100970D01*
X67736Y101085D01*
X67713Y101304D01*
Y101500D01*
X67747Y101662D01*
X67782Y101800D01*
X67828Y101904D01*
X67862Y101961D01*
X67874Y101985D01*
X68001Y102146D01*
X68162Y102261D01*
X68324Y102354D01*
X68485Y102411D01*
X68635Y102446D01*
X68750Y102457D01*
X68796Y102469D01*
X68866D01*
X69108Y102446D01*
D02*
G37*
G36*
X61780Y94917D02*
X61896Y94871D01*
X61988Y94801D01*
X62069Y94732D01*
X62115Y94651D01*
X62161Y94594D01*
X62173Y94548D01*
X62184Y94525D01*
X62288Y94225D01*
X62311Y94156D01*
Y94086D01*
X62299Y93994D01*
X62265Y93925D01*
X62207Y93867D01*
X62138Y93844D01*
X62080Y93833D01*
X62034Y93821D01*
X62023D01*
X61884Y93844D01*
X61757Y93890D01*
X61665Y93948D01*
X61596Y94029D01*
X61538Y94098D01*
X61504Y94167D01*
X61492Y94213D01*
X61481Y94225D01*
X61377Y94525D01*
X61354Y94594D01*
Y94663D01*
Y94755D01*
X61400Y94824D01*
X61458Y94882D01*
X61527Y94905D01*
X61584Y94917D01*
X61619Y94928D01*
X61642D01*
X61780Y94917D01*
D02*
G37*
G36*
X89810D02*
X89925Y94871D01*
X90017Y94801D01*
X90098Y94732D01*
X90144Y94651D01*
X90190Y94594D01*
X90202Y94548D01*
X90213Y94525D01*
X92081Y89036D01*
X92104Y88967D01*
Y88910D01*
X92093Y88806D01*
X92058Y88736D01*
X92001Y88690D01*
X91931Y88667D01*
X91874Y88656D01*
X91828Y88644D01*
X91816D01*
X91678Y88656D01*
X91551Y88702D01*
X91459Y88771D01*
X91390Y88840D01*
X91332Y88910D01*
X91297Y88979D01*
X91286Y89025D01*
X91274Y89036D01*
X90721Y90662D01*
X90064Y91100D01*
X89660Y88852D01*
X89637Y88783D01*
X89602Y88736D01*
X89556Y88690D01*
X89499Y88667D01*
X89464Y88656D01*
X89418Y88644D01*
X89383D01*
X89256Y88667D01*
X89153Y88702D01*
X89107Y88725D01*
X89072Y88736D01*
X89060Y88760D01*
X89049D01*
X88945Y88852D01*
X88876Y88944D01*
X88841Y89013D01*
X88830Y89025D01*
Y89036D01*
X88818Y89105D01*
X88807Y89163D01*
X88818Y89209D01*
Y89221D01*
X89280Y91538D01*
X87804Y92426D01*
X87746Y92461D01*
X87711Y92495D01*
X87642Y92588D01*
X87596Y92657D01*
X87585Y92680D01*
Y92691D01*
X87562Y92760D01*
Y92830D01*
X87573Y92922D01*
X87619Y92991D01*
X87677Y93049D01*
X87735Y93072D01*
X87804Y93083D01*
X87838Y93095D01*
X87861D01*
X87965Y93083D01*
X88046Y93060D01*
X88103Y93026D01*
X88115Y93014D01*
X88126D01*
X90409Y91573D01*
X89406Y94525D01*
X89383Y94594D01*
Y94663D01*
Y94755D01*
X89429Y94824D01*
X89487Y94882D01*
X89556Y94905D01*
X89614Y94917D01*
X89648Y94928D01*
X89671D01*
X89810Y94917D01*
D02*
G37*
G36*
X105606Y92472D02*
X105710Y92426D01*
X105802Y92357D01*
X105883Y92288D01*
X105929Y92207D01*
X105975Y92149D01*
X105986Y92103D01*
X105998Y92080D01*
X106102Y91780D01*
X106125Y91711D01*
Y91642D01*
X106113Y91550D01*
X106079Y91481D01*
X106021Y91423D01*
X105952Y91400D01*
X105894Y91388D01*
X105848Y91377D01*
X105837D01*
X105698Y91400D01*
X105583Y91446D01*
X105491Y91504D01*
X105410Y91584D01*
X105364Y91654D01*
X105318Y91723D01*
X105306Y91769D01*
X105295Y91780D01*
X105191Y92080D01*
X105168Y92149D01*
Y92219D01*
X105179Y92311D01*
X105214Y92380D01*
X105272Y92438D01*
X105341Y92461D01*
X105410Y92472D01*
X105445Y92484D01*
X105468D01*
X105606Y92472D01*
D02*
G37*
G36*
X94779Y93072D02*
X94883Y93037D01*
X94964Y93003D01*
X94975Y92980D01*
X94987D01*
X95079Y92887D01*
X95148Y92795D01*
X95183Y92726D01*
X95194Y92703D01*
Y92691D01*
X95217Y92611D01*
Y92576D01*
Y92564D01*
X95240Y88956D01*
X95229Y88852D01*
X95206Y88771D01*
X95160Y88725D01*
X95102Y88679D01*
X95056Y88656D01*
X95010Y88644D01*
X94964D01*
X94860Y88656D01*
X94756Y88690D01*
X94664Y88748D01*
X94595Y88806D01*
X94526Y88852D01*
X94480Y88910D01*
X94456Y88944D01*
X94445Y88956D01*
X92024Y92564D01*
X91989Y92622D01*
X91966Y92657D01*
X91954Y92680D01*
Y92691D01*
X91931Y92760D01*
Y92830D01*
X91943Y92922D01*
X91978Y92991D01*
X92035Y93049D01*
X92104Y93072D01*
X92173Y93083D01*
X92208Y93095D01*
X92231D01*
X92335Y93083D01*
X92427Y93049D01*
X92508Y93003D01*
X92577Y92957D01*
X92635Y92910D01*
X92669Y92864D01*
X92692Y92830D01*
X92704Y92818D01*
X94456Y90097D01*
X94364Y92818D01*
X94376Y92910D01*
X94410Y92980D01*
X94456Y93026D01*
X94514Y93060D01*
X94572Y93083D01*
X94618Y93095D01*
X94664D01*
X94779Y93072D01*
D02*
G37*
G36*
X106436Y90028D02*
X106540Y89982D01*
X106632Y89913D01*
X106713Y89843D01*
X106759Y89763D01*
X106805Y89705D01*
X106817Y89659D01*
X106828Y89636D01*
X106932Y89336D01*
X106955Y89267D01*
Y89209D01*
X106944Y89105D01*
X106909Y89036D01*
X106851Y88990D01*
X106782Y88967D01*
X106724Y88956D01*
X106678Y88944D01*
X106667D01*
X106528Y88956D01*
X106413Y89002D01*
X106321Y89071D01*
X106240Y89140D01*
X106194Y89209D01*
X106148Y89278D01*
X106136Y89325D01*
X106125Y89336D01*
X106021Y89636D01*
X105998Y89705D01*
Y89774D01*
X106009Y89867D01*
X106044Y89936D01*
X106102Y89993D01*
X106171Y90016D01*
X106240Y90028D01*
X106275Y90039D01*
X106298D01*
X106436Y90028D01*
D02*
G37*
G36*
X125311Y94917D02*
X125426Y94871D01*
X125518Y94801D01*
X125599Y94732D01*
X125645Y94651D01*
X125691Y94594D01*
X125703Y94548D01*
X125714Y94525D01*
X127582Y89036D01*
X127605Y88967D01*
Y88910D01*
X127594Y88806D01*
X127559Y88736D01*
X127501Y88690D01*
X127432Y88667D01*
X127375Y88656D01*
X127329Y88644D01*
X127317D01*
X127179Y88656D01*
X127052Y88702D01*
X126960Y88771D01*
X126890Y88840D01*
X126833Y88910D01*
X126798Y88979D01*
X126787Y89025D01*
X126775Y89036D01*
X125668Y92299D01*
X124550D01*
X124469Y92288D01*
X124411Y92276D01*
X124308Y92230D01*
X124261Y92172D01*
X124239Y92161D01*
Y92149D01*
X124204Y92092D01*
X124192Y92034D01*
Y91907D01*
Y91861D01*
X124204Y91815D01*
X124215Y91792D01*
Y91780D01*
X125149Y89036D01*
X125172Y88967D01*
Y88910D01*
X125161Y88806D01*
X125126Y88736D01*
X125069Y88690D01*
X124999Y88667D01*
X124942Y88656D01*
X124896Y88644D01*
X124884D01*
X124746Y88656D01*
X124619Y88702D01*
X124527Y88771D01*
X124458Y88840D01*
X124400Y88910D01*
X124365Y88979D01*
X124354Y89025D01*
X124342Y89036D01*
X123397Y91803D01*
X123351Y92000D01*
X123339Y92172D01*
X123351Y92322D01*
X123374Y92461D01*
X123408Y92564D01*
X123443Y92645D01*
X123466Y92703D01*
X123477Y92714D01*
X123581Y92841D01*
X123708Y92933D01*
X123846Y93003D01*
X123973Y93049D01*
X124100Y93072D01*
X124192Y93095D01*
X125391D01*
X124907Y94525D01*
X124884Y94594D01*
Y94663D01*
Y94755D01*
X124930Y94824D01*
X124988Y94882D01*
X125057Y94905D01*
X125115Y94917D01*
X125149Y94928D01*
X125172D01*
X125311Y94917D01*
D02*
G37*
G36*
X120341D02*
X120457Y94871D01*
X120549Y94801D01*
X120630Y94732D01*
X120676Y94651D01*
X120722Y94594D01*
X120733Y94548D01*
X120745Y94525D01*
X121229Y93095D01*
X121448D01*
X121587Y93083D01*
X121690Y93037D01*
X121783Y92968D01*
X121863Y92899D01*
X121909Y92818D01*
X121956Y92760D01*
X121967Y92714D01*
X121979Y92691D01*
X122002Y92622D01*
Y92564D01*
X121990Y92461D01*
X121956Y92392D01*
X121898Y92345D01*
X121829Y92322D01*
X121771Y92311D01*
X121725Y92299D01*
X121506D01*
X122613Y89036D01*
X122636Y88967D01*
Y88910D01*
X122624Y88806D01*
X122590Y88736D01*
X122532Y88690D01*
X122463Y88667D01*
X122405Y88656D01*
X122359Y88644D01*
X122347D01*
X122209Y88656D01*
X122082Y88702D01*
X121990Y88771D01*
X121921Y88840D01*
X121863Y88910D01*
X121829Y88979D01*
X121817Y89025D01*
X121806Y89036D01*
X120699Y92299D01*
X119880D01*
X119742Y92311D01*
X119626Y92357D01*
X119534Y92426D01*
X119454Y92495D01*
X119407Y92564D01*
X119361Y92634D01*
X119350Y92680D01*
X119338Y92691D01*
X119315Y92760D01*
Y92830D01*
X119327Y92922D01*
X119361Y92991D01*
X119419Y93049D01*
X119488Y93072D01*
X119557Y93083D01*
X119592Y93095D01*
X120422D01*
X119938Y94525D01*
X119915Y94594D01*
Y94663D01*
Y94755D01*
X119961Y94824D01*
X120018Y94882D01*
X120088Y94905D01*
X120145Y94917D01*
X120180Y94928D01*
X120203D01*
X120341Y94917D01*
D02*
G37*
G36*
X116606D02*
X116721Y94871D01*
X116813Y94801D01*
X116894Y94732D01*
X116940Y94651D01*
X116986Y94594D01*
X116998Y94548D01*
X117009Y94525D01*
X117493Y93095D01*
X117712D01*
X117851Y93083D01*
X117955Y93037D01*
X118047Y92968D01*
X118128Y92899D01*
X118174Y92818D01*
X118220Y92760D01*
X118231Y92714D01*
X118243Y92691D01*
X118266Y92622D01*
Y92564D01*
X118254Y92461D01*
X118220Y92392D01*
X118162Y92345D01*
X118093Y92322D01*
X118035Y92311D01*
X117989Y92299D01*
X117770D01*
X118877Y89036D01*
X118900Y88967D01*
Y88910D01*
X118888Y88806D01*
X118854Y88736D01*
X118796Y88690D01*
X118727Y88667D01*
X118669Y88656D01*
X118623Y88644D01*
X118612D01*
X118473Y88656D01*
X118347Y88702D01*
X118254Y88771D01*
X118185Y88840D01*
X118128Y88910D01*
X118093Y88979D01*
X118081Y89025D01*
X118070Y89036D01*
X116963Y92299D01*
X116144D01*
X116006Y92311D01*
X115891Y92357D01*
X115798Y92426D01*
X115718Y92495D01*
X115672Y92564D01*
X115626Y92634D01*
X115614Y92680D01*
X115603Y92691D01*
X115579Y92760D01*
Y92830D01*
X115591Y92922D01*
X115626Y92991D01*
X115683Y93049D01*
X115752Y93072D01*
X115822Y93083D01*
X115856Y93095D01*
X116686D01*
X116202Y94525D01*
X116179Y94594D01*
Y94663D01*
Y94755D01*
X116225Y94824D01*
X116283Y94882D01*
X116352Y94905D01*
X116410Y94917D01*
X116444Y94928D01*
X116467D01*
X116606Y94917D01*
D02*
G37*
G36*
X108777Y93083D02*
X108973Y93049D01*
X109157Y93003D01*
X109319Y92957D01*
X109446Y92910D01*
X109549Y92864D01*
X109607Y92830D01*
X109630Y92818D01*
X109826Y92691D01*
X109999Y92553D01*
X110126Y92403D01*
X110230Y92253D01*
X110310Y92126D01*
X110368Y92023D01*
X110391Y91953D01*
X110403Y91942D01*
Y91930D01*
X110437Y91803D01*
X110460Y91677D01*
X110472Y91561D01*
X110460Y91458D01*
X110414Y91285D01*
X110345Y91135D01*
X110264Y91019D01*
X110183Y90939D01*
X110126Y90893D01*
X110114Y90881D01*
X110103D01*
X108788Y90132D01*
X108731Y90086D01*
X108696Y90039D01*
X108685Y89982D01*
X108673Y89924D01*
X108685Y89878D01*
Y89832D01*
X108696Y89809D01*
Y89797D01*
X108731Y89740D01*
X108765Y89682D01*
X108880Y89590D01*
X109007Y89532D01*
X109146Y89486D01*
X109284Y89463D01*
X109399Y89451D01*
X109434Y89440D01*
X109503D01*
X109780Y89451D01*
X109895Y89474D01*
X110010Y89486D01*
X110103Y89509D01*
X110172Y89521D01*
X110218Y89532D01*
X110230D01*
X110322Y89578D01*
X110403Y89613D01*
X110472Y89636D01*
X110541Y89670D01*
X110587Y89693D01*
X110622Y89705D01*
X110633Y89717D01*
X110645D01*
X110679Y89728D01*
X110714Y89740D01*
X110760D01*
X110875Y89717D01*
X110979Y89682D01*
X111060Y89647D01*
X111071Y89624D01*
X111083D01*
X111175Y89532D01*
X111244Y89440D01*
X111279Y89371D01*
X111290Y89359D01*
Y89348D01*
X111313Y89267D01*
Y89198D01*
X111302Y89129D01*
X111279Y89082D01*
X111221Y89013D01*
X111210Y89002D01*
X111198Y88990D01*
X110991Y88875D01*
X110760Y88794D01*
X110529Y88725D01*
X110299Y88690D01*
X110103Y88667D01*
X110010Y88656D01*
X109941D01*
X109872Y88644D01*
X109791D01*
X109561Y88656D01*
X109353Y88679D01*
X109169Y88725D01*
X109007Y88771D01*
X108869Y88806D01*
X108765Y88852D01*
X108707Y88875D01*
X108685Y88886D01*
X108477Y89013D01*
X108316Y89163D01*
X108177Y89313D01*
X108062Y89463D01*
X107981Y89590D01*
X107935Y89693D01*
X107901Y89774D01*
X107889Y89786D01*
Y89797D01*
X107854Y89924D01*
X107831Y90051D01*
Y90166D01*
Y90270D01*
X107877Y90455D01*
X107958Y90593D01*
X108039Y90708D01*
X108119Y90789D01*
X108177Y90835D01*
X108189Y90847D01*
X108200D01*
X109526Y91607D01*
X109572Y91654D01*
X109607Y91700D01*
X109618Y91746D01*
Y91803D01*
Y91850D01*
Y91896D01*
X109607Y91919D01*
Y91930D01*
X109572Y92000D01*
X109538Y92057D01*
X109434Y92149D01*
X109307Y92207D01*
X109169Y92253D01*
X109042Y92276D01*
X108927Y92299D01*
X108823D01*
X108661Y92288D01*
X108511Y92265D01*
X108385Y92230D01*
X108269Y92195D01*
X108177Y92149D01*
X108119Y92115D01*
X108073Y92092D01*
X108062Y92080D01*
X107993Y92023D01*
X107923Y92000D01*
X107877Y91988D01*
X107854D01*
X107728Y92011D01*
X107624Y92046D01*
X107554Y92080D01*
X107543Y92103D01*
X107531D01*
X107428Y92207D01*
X107359Y92299D01*
X107324Y92369D01*
X107312Y92380D01*
Y92392D01*
X107301Y92461D01*
Y92530D01*
X107312Y92588D01*
X107335Y92645D01*
X107382Y92714D01*
X107393Y92726D01*
X107405Y92737D01*
X107578Y92853D01*
X107774Y92945D01*
X107958Y93003D01*
X108143Y93049D01*
X108304Y93072D01*
X108442Y93095D01*
X108558D01*
X108777Y93083D01*
D02*
G37*
G36*
X100417Y94917D02*
X100498Y94894D01*
X100579Y94847D01*
X100636Y94813D01*
X100694Y94767D01*
X100729Y94721D01*
X100752Y94697D01*
X100763Y94686D01*
X105029Y89244D01*
X105087Y89163D01*
X105122Y89094D01*
X105145Y89048D01*
X105156Y89036D01*
X105168Y88979D01*
X105179Y88921D01*
X105168Y88840D01*
X105145Y88783D01*
X105133Y88760D01*
X105064Y88690D01*
X104983Y88656D01*
X104914Y88644D01*
X104891D01*
X104799Y88656D01*
X104707Y88679D01*
X104638Y88714D01*
X104568Y88760D01*
X104511Y88806D01*
X104476Y88840D01*
X104453Y88863D01*
X104441Y88875D01*
X100141Y94363D01*
X100095Y94432D01*
X100060Y94478D01*
X100048Y94513D01*
X100037Y94525D01*
X100025Y94582D01*
Y94640D01*
X100037Y94721D01*
X100060Y94778D01*
X100072Y94801D01*
X100106Y94847D01*
X100141Y94871D01*
X100233Y94917D01*
X100302Y94928D01*
X100325D01*
X100417Y94917D01*
D02*
G37*
G36*
X96059Y94917D02*
X96140Y94893D01*
X96221Y94847D01*
X96278Y94813D01*
X96336Y94767D01*
X96371Y94721D01*
X96394Y94697D01*
X96405Y94686D01*
X100671Y89244D01*
X100729Y89163D01*
X100763Y89094D01*
X100786Y89048D01*
X100798Y89036D01*
X100810Y88979D01*
X100821Y88921D01*
X100810Y88840D01*
X100786Y88783D01*
X100775Y88760D01*
X100706Y88690D01*
X100625Y88656D01*
X100556Y88644D01*
X100533D01*
X100441Y88656D01*
X100348Y88679D01*
X100279Y88714D01*
X100210Y88760D01*
X100152Y88806D01*
X100118Y88840D01*
X100095Y88863D01*
X100083Y88875D01*
X95782Y94363D01*
X95736Y94432D01*
X95702Y94478D01*
X95690Y94513D01*
X95679Y94525D01*
X95667Y94582D01*
Y94640D01*
X95679Y94721D01*
X95702Y94778D01*
X95713Y94801D01*
X95748Y94847D01*
X95782Y94871D01*
X95875Y94917D01*
X95944Y94928D01*
X95967D01*
X96059Y94917D01*
D02*
G37*
G36*
X87227Y89728D02*
X87331Y89682D01*
X87423Y89613D01*
X87504Y89544D01*
X87550Y89463D01*
X87596Y89405D01*
X87608Y89359D01*
X87619Y89336D01*
X87723Y89036D01*
X87746Y88967D01*
Y88910D01*
X87735Y88806D01*
X87700Y88736D01*
X87642Y88690D01*
X87573Y88667D01*
X87515Y88656D01*
X87469Y88644D01*
X87458D01*
X87319Y88656D01*
X87193Y88702D01*
X87100Y88771D01*
X87031Y88840D01*
X86974Y88910D01*
X86939Y88979D01*
X86927Y89025D01*
X86916Y89036D01*
X86812Y89336D01*
X86789Y89405D01*
Y89474D01*
X86800Y89567D01*
X86835Y89636D01*
X86893Y89693D01*
X86962Y89717D01*
X87031Y89728D01*
X87066Y89740D01*
X87089D01*
X87227Y89728D01*
D02*
G37*
G36*
X83353Y93083D02*
X83549Y93037D01*
X83722Y92980D01*
X83884Y92910D01*
X84022Y92830D01*
X84126Y92772D01*
X84195Y92726D01*
X84206Y92714D01*
X84218D01*
X84391Y92564D01*
X84541Y92403D01*
X84656Y92253D01*
X84748Y92103D01*
X84829Y91976D01*
X84875Y91873D01*
X84898Y91803D01*
X84910Y91792D01*
Y91780D01*
X85532Y89947D01*
X85578Y89751D01*
X85601Y89567D01*
X85590Y89405D01*
X85567Y89278D01*
X85544Y89163D01*
X85509Y89082D01*
X85486Y89036D01*
X85475Y89013D01*
X85371Y88886D01*
X85244Y88806D01*
X85106Y88736D01*
X84979Y88690D01*
X84852Y88667D01*
X84760Y88656D01*
X84691Y88644D01*
X83745D01*
X83607Y88656D01*
X83491Y88702D01*
X83399Y88771D01*
X83319Y88840D01*
X83272Y88910D01*
X83226Y88979D01*
X83215Y89025D01*
X83203Y89036D01*
X83180Y89105D01*
Y89175D01*
X83192Y89267D01*
X83226Y89336D01*
X83284Y89394D01*
X83353Y89417D01*
X83422Y89428D01*
X83457Y89440D01*
X84391D01*
X84460Y89451D01*
X84529Y89463D01*
X84621Y89521D01*
X84679Y89567D01*
X84702Y89578D01*
Y89590D01*
X84725Y89647D01*
X84748Y89705D01*
Y89820D01*
X84737Y89878D01*
Y89913D01*
X84725Y89936D01*
Y89947D01*
X84102Y91780D01*
X84022Y91930D01*
X83930Y92046D01*
X83895Y92092D01*
X83860Y92126D01*
X83837Y92138D01*
X83826Y92149D01*
X83757Y92195D01*
X83676Y92242D01*
X83549Y92276D01*
X83503Y92288D01*
X83457Y92299D01*
X82500D01*
X82362Y92311D01*
X82246Y92357D01*
X82154Y92426D01*
X82073Y92495D01*
X82027Y92564D01*
X81981Y92634D01*
X81969Y92680D01*
X81958Y92691D01*
X81935Y92760D01*
Y92830D01*
X81946Y92922D01*
X81993Y92991D01*
X82050Y93049D01*
X82108Y93072D01*
X82177Y93083D01*
X82212Y93095D01*
X83145D01*
X83353Y93083D01*
D02*
G37*
G36*
X79352Y93072D02*
X79594Y93026D01*
X79813Y92945D01*
X80009Y92864D01*
X80182Y92772D01*
X80298Y92691D01*
X80355Y92668D01*
X80378Y92645D01*
X80401Y92622D01*
X80413D01*
X80632Y92438D01*
X80817Y92242D01*
X80966Y92046D01*
X81082Y91873D01*
X81174Y91711D01*
X81232Y91584D01*
X81255Y91538D01*
X81266Y91504D01*
X81278Y91481D01*
Y91469D01*
X81693Y90259D01*
X81727Y90132D01*
X81750Y90016D01*
X81774Y89797D01*
Y89590D01*
X81739Y89428D01*
X81693Y89290D01*
X81658Y89186D01*
X81624Y89129D01*
X81612Y89105D01*
X81485Y88956D01*
X81324Y88840D01*
X81162Y88760D01*
X81001Y88702D01*
X80851Y88667D01*
X80736Y88656D01*
X80690Y88644D01*
X80620D01*
X80367Y88667D01*
X80136Y88714D01*
X79917Y88794D01*
X79721Y88886D01*
X79548Y88967D01*
X79421Y89048D01*
X79375Y89071D01*
X79341Y89094D01*
X79329Y89117D01*
X79318D01*
X79098Y89302D01*
X78914Y89498D01*
X78764Y89682D01*
X78649Y89867D01*
X78557Y90028D01*
X78499Y90143D01*
X78476Y90189D01*
X78464Y90224D01*
X78453Y90247D01*
Y90259D01*
X78038Y91469D01*
X78003Y91596D01*
X77980Y91711D01*
X77957Y91942D01*
Y92138D01*
X77992Y92299D01*
X78026Y92438D01*
X78072Y92541D01*
X78107Y92599D01*
X78118Y92622D01*
X78245Y92784D01*
X78407Y92899D01*
X78568Y92980D01*
X78729Y93037D01*
X78879Y93072D01*
X78995Y93083D01*
X79041Y93095D01*
X79110D01*
X79352Y93072D01*
D02*
G37*
G36*
X76112Y93083D02*
X76216Y93037D01*
X76308Y92968D01*
X76389Y92899D01*
X76435Y92818D01*
X76481Y92760D01*
X76493Y92714D01*
X76504Y92691D01*
X77750Y89036D01*
X77773Y88967D01*
Y88910D01*
X77761Y88806D01*
X77726Y88736D01*
X77669Y88690D01*
X77600Y88667D01*
X77542Y88656D01*
X77496Y88644D01*
X77484D01*
X77346Y88656D01*
X77219Y88702D01*
X77127Y88771D01*
X77058Y88840D01*
X77000Y88910D01*
X76965Y88979D01*
X76954Y89025D01*
X76942Y89036D01*
X75836Y92299D01*
X74809D01*
X75916Y89036D01*
X75939Y88967D01*
Y88910D01*
X75928Y88806D01*
X75893Y88736D01*
X75836Y88690D01*
X75766Y88667D01*
X75709Y88656D01*
X75663Y88644D01*
X75651D01*
X75513Y88656D01*
X75386Y88702D01*
X75294Y88771D01*
X75224Y88840D01*
X75167Y88910D01*
X75132Y88979D01*
X75121Y89025D01*
X75109Y89036D01*
X74002Y92299D01*
X73495D01*
X73414Y92288D01*
X73357Y92276D01*
X73253Y92230D01*
X73195Y92172D01*
X73172Y92161D01*
Y92149D01*
X73137Y92092D01*
X73126Y92034D01*
Y91907D01*
Y91861D01*
X73137Y91815D01*
X73149Y91792D01*
Y91780D01*
X74083Y89036D01*
X74106Y88967D01*
Y88910D01*
X74094Y88806D01*
X74060Y88736D01*
X74002Y88690D01*
X73933Y88667D01*
X73875Y88656D01*
X73829Y88644D01*
X73818D01*
X73679Y88656D01*
X73553Y88702D01*
X73460Y88771D01*
X73391Y88840D01*
X73334Y88910D01*
X73299Y88979D01*
X73287Y89025D01*
X73276Y89036D01*
X72342Y91780D01*
X72296Y91976D01*
X72273Y92149D01*
X72284Y92311D01*
X72307Y92449D01*
X72342Y92553D01*
X72377Y92634D01*
X72400Y92691D01*
X72411Y92703D01*
X72515Y92830D01*
X72642Y92933D01*
X72780Y93003D01*
X72907Y93049D01*
X73034Y93072D01*
X73126Y93095D01*
X75974D01*
X76112Y93083D01*
D02*
G37*
G36*
X67407Y94917D02*
X67488Y94893D01*
X67568Y94847D01*
X67626Y94813D01*
X67684Y94767D01*
X67718Y94721D01*
X67742Y94697D01*
X67753Y94686D01*
X72019Y89244D01*
X72077Y89163D01*
X72111Y89094D01*
X72134Y89048D01*
X72146Y89036D01*
X72157Y88979D01*
X72169Y88921D01*
X72157Y88840D01*
X72134Y88783D01*
X72123Y88760D01*
X72054Y88690D01*
X71973Y88656D01*
X71904Y88644D01*
X71881D01*
X71789Y88656D01*
X71696Y88679D01*
X71627Y88714D01*
X71558Y88760D01*
X71500Y88806D01*
X71466Y88840D01*
X71443Y88863D01*
X71431Y88875D01*
X67130Y94363D01*
X67084Y94432D01*
X67050Y94478D01*
X67038Y94513D01*
X67027Y94525D01*
X67015Y94582D01*
Y94640D01*
X67027Y94721D01*
X67050Y94778D01*
X67061Y94801D01*
X67096Y94847D01*
X67130Y94871D01*
X67223Y94917D01*
X67292Y94928D01*
X67315D01*
X67407Y94917D01*
D02*
G37*
G36*
X65297Y93083D02*
X65493Y93037D01*
X65666Y92980D01*
X65828Y92910D01*
X65966Y92830D01*
X66070Y92772D01*
X66139Y92726D01*
X66150Y92714D01*
X66162D01*
X66335Y92564D01*
X66485Y92403D01*
X66600Y92253D01*
X66692Y92103D01*
X66773Y91976D01*
X66819Y91873D01*
X66842Y91803D01*
X66854Y91792D01*
Y91780D01*
X67476Y89947D01*
X67522Y89751D01*
X67545Y89567D01*
X67534Y89405D01*
X67511Y89278D01*
X67488Y89163D01*
X67453Y89082D01*
X67430Y89036D01*
X67419Y89013D01*
X67315Y88886D01*
X67188Y88806D01*
X67050Y88736D01*
X66923Y88690D01*
X66796Y88667D01*
X66704Y88656D01*
X66635Y88644D01*
X65689D01*
X65551Y88656D01*
X65435Y88702D01*
X65343Y88771D01*
X65263Y88840D01*
X65216Y88910D01*
X65170Y88979D01*
X65159Y89025D01*
X65147Y89036D01*
X65124Y89105D01*
Y89175D01*
X65136Y89267D01*
X65170Y89336D01*
X65228Y89394D01*
X65297Y89417D01*
X65366Y89428D01*
X65401Y89440D01*
X66335D01*
X66404Y89451D01*
X66473Y89463D01*
X66565Y89521D01*
X66623Y89567D01*
X66646Y89578D01*
Y89590D01*
X66669Y89647D01*
X66692Y89705D01*
Y89820D01*
X66681Y89878D01*
Y89913D01*
X66669Y89936D01*
Y89947D01*
X66047Y91780D01*
X65966Y91930D01*
X65874Y92046D01*
X65839Y92092D01*
X65804Y92126D01*
X65781Y92138D01*
X65770Y92149D01*
X65701Y92195D01*
X65620Y92242D01*
X65493Y92276D01*
X65447Y92288D01*
X65401Y92299D01*
X64444D01*
X64306Y92311D01*
X64190Y92357D01*
X64098Y92426D01*
X64017Y92495D01*
X63971Y92564D01*
X63925Y92634D01*
X63914Y92680D01*
X63902Y92691D01*
X63879Y92760D01*
Y92830D01*
X63890Y92922D01*
X63937Y92991D01*
X63994Y93049D01*
X64052Y93072D01*
X64121Y93083D01*
X64156Y93095D01*
X65090D01*
X65297Y93083D01*
D02*
G37*
G36*
X62415Y93072D02*
X62518Y93026D01*
X62611Y92957D01*
X62691Y92887D01*
X62737Y92818D01*
X62784Y92749D01*
X62795Y92703D01*
X62807Y92691D01*
X64052Y89036D01*
X64075Y88967D01*
Y88910D01*
X64063Y88806D01*
X64029Y88736D01*
X63971Y88690D01*
X63902Y88667D01*
X63844Y88656D01*
X63798Y88644D01*
X63787D01*
X63648Y88656D01*
X63521Y88702D01*
X63429Y88771D01*
X63360Y88840D01*
X63302Y88910D01*
X63268Y88979D01*
X63256Y89025D01*
X63245Y89036D01*
X61999Y92691D01*
X61976Y92760D01*
Y92818D01*
X61988Y92922D01*
X62023Y92991D01*
X62080Y93037D01*
X62149Y93060D01*
X62219Y93083D01*
X62276D01*
X62415Y93072D01*
D02*
G37*
G36*
X59290Y94917D02*
X59405Y94871D01*
X59497Y94801D01*
X59578Y94732D01*
X59624Y94651D01*
X59671Y94594D01*
X59682Y94548D01*
X59693Y94525D01*
X60178Y93095D01*
X60397D01*
X60535Y93083D01*
X60639Y93037D01*
X60731Y92968D01*
X60812Y92899D01*
X60858Y92818D01*
X60904Y92760D01*
X60916Y92714D01*
X60927Y92691D01*
X60950Y92622D01*
Y92564D01*
X60939Y92461D01*
X60904Y92392D01*
X60847Y92345D01*
X60777Y92322D01*
X60720Y92311D01*
X60674Y92299D01*
X60454D01*
X61561Y89036D01*
X61584Y88967D01*
Y88910D01*
X61573Y88806D01*
X61538Y88736D01*
X61481Y88690D01*
X61411Y88667D01*
X61354Y88656D01*
X61308Y88644D01*
X61296D01*
X61158Y88656D01*
X61031Y88702D01*
X60939Y88771D01*
X60870Y88840D01*
X60812Y88910D01*
X60777Y88979D01*
X60766Y89025D01*
X60754Y89036D01*
X59647Y92299D01*
X58829D01*
X58690Y92311D01*
X58575Y92357D01*
X58483Y92426D01*
X58402Y92495D01*
X58356Y92564D01*
X58310Y92634D01*
X58298Y92680D01*
X58287Y92691D01*
X58264Y92760D01*
Y92830D01*
X58275Y92922D01*
X58310Y92991D01*
X58368Y93049D01*
X58437Y93072D01*
X58506Y93083D01*
X58540Y93095D01*
X59371D01*
X58886Y94525D01*
X58863Y94594D01*
Y94663D01*
Y94755D01*
X58909Y94824D01*
X58967Y94882D01*
X59036Y94905D01*
X59094Y94917D01*
X59128Y94928D01*
X59152D01*
X59290Y94917D01*
D02*
G37*
G36*
X56500Y93083D02*
X56603Y93037D01*
X56696Y92968D01*
X56776Y92899D01*
X56823Y92818D01*
X56869Y92760D01*
X56880Y92714D01*
X56892Y92691D01*
X56915Y92622D01*
Y92564D01*
X56903Y92461D01*
X56869Y92392D01*
X56811Y92345D01*
X56742Y92322D01*
X56684Y92311D01*
X56638Y92299D01*
X55404D01*
X55335Y92288D01*
X55266Y92276D01*
X55174Y92219D01*
X55116Y92161D01*
X55093Y92149D01*
Y92138D01*
X55058Y92080D01*
X55047Y92023D01*
Y91907D01*
Y91850D01*
X55058Y91815D01*
X55070Y91792D01*
Y91780D01*
X55243Y91262D01*
X56373D01*
X56511Y91250D01*
X56650Y91238D01*
X56776Y91204D01*
X56903Y91158D01*
X57134Y91054D01*
X57341Y90939D01*
X57503Y90812D01*
X57630Y90708D01*
X57676Y90662D01*
X57710Y90627D01*
X57722Y90616D01*
X57733Y90604D01*
X57826Y90489D01*
X57906Y90374D01*
X57976Y90270D01*
X58033Y90166D01*
X58079Y90074D01*
X58102Y90005D01*
X58114Y89959D01*
X58125Y89947D01*
X58183Y89751D01*
X58195Y89567D01*
Y89405D01*
X58172Y89278D01*
X58137Y89163D01*
X58102Y89082D01*
X58079Y89036D01*
X58068Y89013D01*
X57964Y88886D01*
X57837Y88806D01*
X57699Y88736D01*
X57572Y88690D01*
X57445Y88667D01*
X57353Y88656D01*
X57284Y88644D01*
X55739D01*
X55600Y88656D01*
X55474Y88702D01*
X55381Y88771D01*
X55312Y88840D01*
X55255Y88910D01*
X55220Y88979D01*
X55208Y89025D01*
X55197Y89036D01*
X54263Y91780D01*
X54217Y91976D01*
X54194Y92149D01*
X54205Y92311D01*
X54228Y92449D01*
X54263Y92553D01*
X54298Y92634D01*
X54321Y92691D01*
X54332Y92703D01*
X54436Y92830D01*
X54563Y92933D01*
X54701Y93003D01*
X54828Y93049D01*
X54955Y93072D01*
X55047Y93095D01*
X56361D01*
X56500Y93083D01*
D02*
G37*
G36*
X49374Y94917D02*
X49490Y94871D01*
X49582Y94801D01*
X49662Y94732D01*
X49709Y94651D01*
X49755Y94594D01*
X49766Y94548D01*
X49778Y94525D01*
X50262Y93095D01*
X51392D01*
X51530Y93083D01*
X51669Y93072D01*
X51796Y93037D01*
X51922Y92991D01*
X52153Y92887D01*
X52349Y92772D01*
X52510Y92645D01*
X52637Y92541D01*
X52683Y92495D01*
X52718Y92461D01*
X52729Y92449D01*
X52741Y92438D01*
X52833Y92322D01*
X52925Y92207D01*
X52995Y92103D01*
X53041Y92000D01*
X53087Y91907D01*
X53121Y91838D01*
X53133Y91792D01*
X53145Y91780D01*
X53767Y89947D01*
X53813Y89751D01*
X53836Y89567D01*
X53825Y89405D01*
X53802Y89278D01*
X53779Y89163D01*
X53744Y89082D01*
X53721Y89036D01*
X53710Y89013D01*
X53606Y88886D01*
X53479Y88806D01*
X53341Y88736D01*
X53214Y88690D01*
X53087Y88667D01*
X52995Y88656D01*
X52925Y88644D01*
X51380D01*
X51242Y88656D01*
X51115Y88702D01*
X51023Y88771D01*
X50954Y88840D01*
X50896Y88910D01*
X50862Y88979D01*
X50850Y89025D01*
X50839Y89036D01*
X48971Y94525D01*
X48948Y94594D01*
Y94663D01*
Y94755D01*
X48994Y94824D01*
X49051Y94882D01*
X49121Y94905D01*
X49178Y94917D01*
X49213Y94928D01*
X49236D01*
X49374Y94917D01*
D02*
G37*
G36*
X46964Y93072D02*
X47207Y93026D01*
X47426Y92945D01*
X47622Y92864D01*
X47795Y92772D01*
X47910Y92691D01*
X47967Y92668D01*
X47991Y92645D01*
X48014Y92622D01*
X48025D01*
X48244Y92438D01*
X48429Y92242D01*
X48579Y92046D01*
X48694Y91873D01*
X48786Y91711D01*
X48844Y91584D01*
X48867Y91538D01*
X48878Y91504D01*
X48890Y91481D01*
Y91469D01*
X49409Y89947D01*
X49455Y89751D01*
X49478Y89567D01*
X49466Y89405D01*
X49443Y89278D01*
X49420Y89163D01*
X49386Y89082D01*
X49363Y89036D01*
X49351Y89013D01*
X49247Y88886D01*
X49121Y88806D01*
X48982Y88736D01*
X48855Y88690D01*
X48728Y88667D01*
X48636Y88656D01*
X48567Y88644D01*
X47022D01*
X46884Y88656D01*
X46757Y88702D01*
X46665Y88771D01*
X46584Y88840D01*
X46538Y88910D01*
X46492Y88979D01*
X46480Y89025D01*
X46469Y89036D01*
X46446Y89105D01*
Y89175D01*
X46457Y89267D01*
X46503Y89336D01*
X46561Y89394D01*
X46619Y89417D01*
X46688Y89428D01*
X46722Y89440D01*
X48267D01*
X48336Y89451D01*
X48406Y89463D01*
X48498Y89509D01*
X48555Y89555D01*
X48579Y89578D01*
X48602Y89636D01*
X48625Y89705D01*
Y89820D01*
X48613Y89867D01*
Y89913D01*
X48602Y89936D01*
Y89947D01*
X48429Y90466D01*
X45984D01*
X45650Y91469D01*
X45615Y91596D01*
X45592Y91711D01*
X45569Y91942D01*
Y92138D01*
X45604Y92299D01*
X45638Y92438D01*
X45685Y92541D01*
X45719Y92599D01*
X45731Y92622D01*
X45858Y92784D01*
X46007Y92899D01*
X46180Y92980D01*
X46342Y93037D01*
X46492Y93072D01*
X46607Y93083D01*
X46653Y93095D01*
X46722D01*
X46964Y93072D01*
D02*
G37*
G36*
X43090Y94917D02*
X43206Y94871D01*
X43298Y94801D01*
X43379Y94732D01*
X43425Y94651D01*
X43471Y94594D01*
X43482Y94548D01*
X43494Y94525D01*
X45154Y89647D01*
X45200Y89486D01*
X45223Y89336D01*
X45212Y89209D01*
X45200Y89105D01*
X45177Y89013D01*
X45154Y88956D01*
X45143Y88921D01*
X45131Y88910D01*
X45050Y88817D01*
X44947Y88760D01*
X44843Y88714D01*
X44739Y88679D01*
X44635Y88656D01*
X44555Y88644D01*
X44485D01*
X44347Y88656D01*
X44232Y88702D01*
X44140Y88771D01*
X44059Y88840D01*
X44013Y88910D01*
X43967Y88979D01*
X43955Y89025D01*
X43944Y89036D01*
X43920Y89140D01*
X43932Y89232D01*
X43955Y89290D01*
X44001Y89348D01*
X44047Y89382D01*
X44082Y89405D01*
X44117Y89417D01*
X44128D01*
X44220Y89451D01*
X44278Y89486D01*
X44324Y89521D01*
X44336Y89555D01*
X44347Y89590D01*
Y89624D01*
Y89636D01*
Y89647D01*
X42687Y94525D01*
X42664Y94594D01*
Y94663D01*
Y94755D01*
X42710Y94824D01*
X42768Y94882D01*
X42837Y94905D01*
X42894Y94917D01*
X42929Y94928D01*
X42952D01*
X43090Y94917D01*
D02*
G37*
G36*
X34985Y94917D02*
X35100Y94871D01*
X35192Y94801D01*
X35273Y94732D01*
X35319Y94651D01*
X35365Y94594D01*
X35377Y94548D01*
X35388Y94525D01*
X37256Y89036D01*
X37279Y88967D01*
Y88910D01*
X37268Y88806D01*
X37233Y88736D01*
X37175Y88690D01*
X37106Y88667D01*
X37049Y88656D01*
X37003Y88644D01*
X35469D01*
X35261Y88656D01*
X35065Y88702D01*
X34892Y88760D01*
X34731Y88840D01*
X34593Y88910D01*
X34501Y88967D01*
X34431Y89013D01*
X34408Y89025D01*
X34224Y89175D01*
X34074Y89324D01*
X33959Y89486D01*
X33866Y89624D01*
X33786Y89751D01*
X33740Y89855D01*
X33716Y89924D01*
X33705Y89936D01*
Y89947D01*
X33082Y91780D01*
X33048Y91907D01*
X33025Y92034D01*
X33013Y92138D01*
Y92242D01*
Y92322D01*
X33025Y92380D01*
X33036Y92426D01*
Y92438D01*
X33071Y92553D01*
X33117Y92657D01*
X33174Y92737D01*
X33244Y92818D01*
X33313Y92887D01*
X33394Y92933D01*
X33555Y93014D01*
X33705Y93060D01*
X33832Y93083D01*
X33889Y93095D01*
X35065D01*
X34581Y94525D01*
X34558Y94594D01*
Y94663D01*
Y94755D01*
X34604Y94824D01*
X34662Y94882D01*
X34731Y94905D01*
X34789Y94917D01*
X34823Y94928D01*
X34846D01*
X34985Y94917D01*
D02*
G37*
G36*
X30142Y93072D02*
X30384Y93026D01*
X30603Y92945D01*
X30799Y92864D01*
X30972Y92772D01*
X31088Y92691D01*
X31145Y92668D01*
X31168Y92645D01*
X31191Y92622D01*
X31203D01*
X31422Y92438D01*
X31606Y92242D01*
X31756Y92046D01*
X31872Y91873D01*
X31964Y91711D01*
X32021Y91584D01*
X32045Y91538D01*
X32056Y91504D01*
X32068Y91481D01*
Y91469D01*
X32483Y90259D01*
X32517Y90132D01*
X32540Y90016D01*
X32563Y89797D01*
Y89590D01*
X32529Y89428D01*
X32483Y89290D01*
X32448Y89186D01*
X32414Y89129D01*
X32402Y89105D01*
X32275Y88956D01*
X32114Y88840D01*
X31952Y88760D01*
X31791Y88702D01*
X31641Y88667D01*
X31526Y88656D01*
X31480Y88644D01*
X31410D01*
X31157Y88667D01*
X30926Y88714D01*
X30707Y88794D01*
X30511Y88886D01*
X30338Y88967D01*
X30211Y89048D01*
X30165Y89071D01*
X30131Y89094D01*
X30119Y89117D01*
X30108D01*
X29888Y89302D01*
X29704Y89498D01*
X29554Y89682D01*
X29439Y89866D01*
X29347Y90028D01*
X29289Y90143D01*
X29266Y90189D01*
X29254Y90224D01*
X29243Y90247D01*
Y90259D01*
X28828Y91469D01*
X28793Y91596D01*
X28770Y91711D01*
X28747Y91942D01*
Y92138D01*
X28782Y92299D01*
X28816Y92438D01*
X28862Y92541D01*
X28897Y92599D01*
X28908Y92622D01*
X29035Y92783D01*
X29197Y92899D01*
X29358Y92980D01*
X29520Y93037D01*
X29669Y93072D01*
X29785Y93083D01*
X29831Y93095D01*
X29900D01*
X30142Y93072D01*
D02*
G37*
G36*
X25922Y93083D02*
X26118Y93049D01*
X26303Y93003D01*
X26464Y92957D01*
X26591Y92910D01*
X26695Y92864D01*
X26752Y92830D01*
X26775Y92818D01*
X26971Y92691D01*
X27144Y92553D01*
X27271Y92403D01*
X27375Y92253D01*
X27456Y92126D01*
X27513Y92023D01*
X27536Y91953D01*
X27548Y91942D01*
Y91930D01*
X27582Y91803D01*
X27606Y91677D01*
X27617Y91561D01*
X27606Y91458D01*
X27559Y91285D01*
X27490Y91135D01*
X27409Y91019D01*
X27329Y90939D01*
X27271Y90893D01*
X27260Y90881D01*
X27248D01*
X25934Y90132D01*
X25876Y90086D01*
X25841Y90039D01*
X25830Y89982D01*
X25818Y89924D01*
X25830Y89878D01*
Y89832D01*
X25841Y89809D01*
Y89797D01*
X25876Y89740D01*
X25911Y89682D01*
X26026Y89590D01*
X26153Y89532D01*
X26291Y89486D01*
X26430Y89463D01*
X26545Y89451D01*
X26579Y89440D01*
X26649D01*
X26925Y89451D01*
X27041Y89474D01*
X27156Y89486D01*
X27248Y89509D01*
X27317Y89521D01*
X27363Y89532D01*
X27375D01*
X27467Y89578D01*
X27548Y89613D01*
X27617Y89636D01*
X27686Y89670D01*
X27732Y89693D01*
X27767Y89705D01*
X27779Y89717D01*
X27790D01*
X27825Y89728D01*
X27859Y89740D01*
X27905D01*
X28021Y89717D01*
X28124Y89682D01*
X28205Y89647D01*
X28217Y89624D01*
X28228D01*
X28320Y89532D01*
X28390Y89440D01*
X28424Y89371D01*
X28436Y89359D01*
Y89348D01*
X28459Y89267D01*
Y89198D01*
X28447Y89129D01*
X28424Y89082D01*
X28367Y89013D01*
X28355Y89002D01*
X28343Y88990D01*
X28136Y88875D01*
X27905Y88794D01*
X27675Y88725D01*
X27444Y88690D01*
X27248Y88667D01*
X27156Y88656D01*
X27087D01*
X27018Y88644D01*
X26937D01*
X26706Y88656D01*
X26499Y88679D01*
X26314Y88725D01*
X26153Y88771D01*
X26014Y88806D01*
X25911Y88852D01*
X25853Y88875D01*
X25830Y88886D01*
X25622Y89013D01*
X25461Y89163D01*
X25323Y89313D01*
X25207Y89463D01*
X25127Y89590D01*
X25080Y89693D01*
X25046Y89774D01*
X25034Y89786D01*
Y89797D01*
X25000Y89924D01*
X24977Y90051D01*
Y90166D01*
Y90270D01*
X25023Y90455D01*
X25104Y90593D01*
X25184Y90708D01*
X25265Y90789D01*
X25323Y90835D01*
X25334Y90847D01*
X25346D01*
X26672Y91607D01*
X26718Y91654D01*
X26752Y91700D01*
X26764Y91746D01*
Y91803D01*
Y91850D01*
Y91896D01*
X26752Y91919D01*
Y91930D01*
X26718Y92000D01*
X26683Y92057D01*
X26579Y92149D01*
X26452Y92207D01*
X26314Y92253D01*
X26187Y92276D01*
X26072Y92299D01*
X25968D01*
X25807Y92288D01*
X25657Y92265D01*
X25530Y92230D01*
X25415Y92195D01*
X25323Y92149D01*
X25265Y92115D01*
X25219Y92092D01*
X25207Y92080D01*
X25138Y92023D01*
X25069Y92000D01*
X25023Y91988D01*
X25000D01*
X24873Y92011D01*
X24769Y92046D01*
X24700Y92080D01*
X24688Y92103D01*
X24677D01*
X24573Y92207D01*
X24504Y92299D01*
X24469Y92369D01*
X24458Y92380D01*
Y92392D01*
X24446Y92461D01*
Y92530D01*
X24458Y92588D01*
X24481Y92645D01*
X24527Y92714D01*
X24539Y92726D01*
X24550Y92737D01*
X24723Y92853D01*
X24919Y92945D01*
X25104Y93003D01*
X25288Y93049D01*
X25449Y93072D01*
X25588Y93095D01*
X25703D01*
X25922Y93083D01*
D02*
G37*
G36*
X114115Y93083D02*
X114219Y93037D01*
X114311Y92968D01*
X114392Y92899D01*
X114438Y92818D01*
X114484Y92760D01*
X114496Y92714D01*
X114507Y92691D01*
X116375Y87215D01*
X116398Y87145D01*
Y87076D01*
X116386Y86984D01*
X116352Y86915D01*
X116294Y86857D01*
X116225Y86834D01*
X116167Y86823D01*
X116121Y86811D01*
X116110D01*
X115972Y86834D01*
X115856Y86880D01*
X115764Y86938D01*
X115683Y87019D01*
X115637Y87088D01*
X115591Y87157D01*
X115579Y87203D01*
X115568Y87215D01*
X115072Y88644D01*
X113965D01*
X113758Y88656D01*
X113562Y88702D01*
X113389Y88760D01*
X113227Y88840D01*
X113089Y88910D01*
X112997Y88967D01*
X112927Y89013D01*
X112905Y89025D01*
X112720Y89175D01*
X112570Y89325D01*
X112455Y89486D01*
X112363Y89624D01*
X112282Y89751D01*
X112236Y89855D01*
X112213Y89924D01*
X112201Y89936D01*
Y89947D01*
X111579Y91780D01*
X111532Y91976D01*
X111509Y92149D01*
X111521Y92311D01*
X111544Y92449D01*
X111579Y92553D01*
X111613Y92634D01*
X111636Y92691D01*
X111648Y92703D01*
X111751Y92830D01*
X111878Y92933D01*
X112005Y93003D01*
X112144Y93049D01*
X112259Y93072D01*
X112363Y93095D01*
X113977D01*
X114115Y93083D01*
D02*
G37*
G36*
X44601Y87595D02*
X44704Y87549D01*
X44797Y87480D01*
X44877Y87411D01*
X44924Y87341D01*
X44970Y87272D01*
X44981Y87226D01*
X44993Y87215D01*
X45016Y87145D01*
Y87076D01*
X45004Y86984D01*
X44970Y86915D01*
X44912Y86857D01*
X44843Y86834D01*
X44785Y86822D01*
X44739Y86811D01*
X38040Y86811D01*
X37902Y86834D01*
X37786Y86880D01*
X37694Y86938D01*
X37614Y87019D01*
X37567Y87088D01*
X37521Y87157D01*
X37510Y87203D01*
X37498Y87214D01*
X37475Y87284D01*
Y87341D01*
X37487Y87445D01*
X37521Y87514D01*
X37579Y87560D01*
X37648Y87584D01*
X37717Y87607D01*
X44462Y87607D01*
X44601Y87595D01*
D02*
G37*
G36*
X41545Y135554D02*
X41853Y135496D01*
X42141Y135400D01*
X42448Y135266D01*
X42737Y135112D01*
X43006Y134939D01*
X43505Y134593D01*
X43736Y134401D01*
X43948Y134228D01*
X44121Y134055D01*
X44274Y133901D01*
X44390Y133786D01*
X44486Y133670D01*
X44543Y133613D01*
X44563Y133594D01*
X44601Y133536D01*
X44640Y133459D01*
X44659Y133401D01*
X44678Y133382D01*
X44716Y133267D01*
Y133152D01*
X44697Y132998D01*
X44640Y132882D01*
X44543Y132786D01*
X44428Y132748D01*
X44332Y132729D01*
X44255Y132710D01*
X44236D01*
X44082Y132729D01*
X43948Y132767D01*
X43736Y132882D01*
X43659Y132940D01*
X43602Y132979D01*
X43563Y133017D01*
X43544Y133036D01*
X43332Y133248D01*
X43140Y133440D01*
X42967Y133594D01*
X42794Y133728D01*
X42621Y133863D01*
X42468Y133959D01*
X42199Y134093D01*
X41987Y134189D01*
X41814Y134228D01*
X41718Y134247D01*
X41680D01*
X41487Y134228D01*
X41314Y134189D01*
X41180Y134113D01*
X41065Y134055D01*
X40968Y133978D01*
X40911Y133901D01*
X40872Y133863D01*
X40853Y133844D01*
X40776Y133690D01*
X40719Y133517D01*
Y133363D01*
Y133209D01*
X40738Y133075D01*
X40757Y132959D01*
X40776Y132882D01*
Y132863D01*
X40834Y132729D01*
X40911Y132594D01*
X41084Y132344D01*
X41161Y132248D01*
X41218Y132171D01*
X41257Y132133D01*
X41276Y132114D01*
X47042Y126117D01*
X47138Y125982D01*
X47215Y125867D01*
X47253Y125790D01*
X47273Y125752D01*
X47311Y125637D01*
Y125540D01*
X47292Y125367D01*
X47234Y125252D01*
X47138Y125175D01*
X47023Y125137D01*
X46927Y125118D01*
X46850Y125098D01*
X42775D01*
X42544Y125118D01*
X42333Y125195D01*
X42179Y125310D01*
X42064Y125425D01*
X41968Y125540D01*
X41910Y125656D01*
X41891Y125733D01*
X41872Y125752D01*
X41833Y125867D01*
Y125982D01*
Y126136D01*
X41910Y126252D01*
X42006Y126348D01*
X42122Y126386D01*
X42218Y126405D01*
X42275Y126425D01*
X45293D01*
X40450Y131326D01*
X40200Y131614D01*
X39969Y131902D01*
X39796Y132152D01*
X39661Y132383D01*
X39565Y132594D01*
X39508Y132729D01*
X39469Y132825D01*
X39450Y132863D01*
X39392Y133075D01*
X39354Y133267D01*
X39316Y133632D01*
Y133959D01*
X39373Y134228D01*
X39431Y134458D01*
X39508Y134632D01*
X39565Y134728D01*
X39585Y134766D01*
X39796Y135035D01*
X40065Y135227D01*
X40334Y135381D01*
X40603Y135477D01*
X40853Y135535D01*
X41045Y135554D01*
X41122Y135573D01*
X41238D01*
X41545Y135554D01*
D02*
G37*
G36*
X65301Y132479D02*
X65474Y132421D01*
X65609Y132364D01*
X65628Y132325D01*
X65647D01*
X65801Y132171D01*
X65916Y132018D01*
X65974Y131902D01*
X65993Y131864D01*
Y131845D01*
X66031Y131710D01*
Y131652D01*
Y131633D01*
X66070Y125617D01*
X66051Y125444D01*
X66012Y125310D01*
X65935Y125233D01*
X65839Y125156D01*
X65762Y125118D01*
X65685Y125098D01*
X65609D01*
X65435Y125118D01*
X65263Y125175D01*
X65109Y125271D01*
X64994Y125367D01*
X64878Y125444D01*
X64801Y125540D01*
X64763Y125598D01*
X64744Y125617D01*
X60707Y131633D01*
X60650Y131729D01*
X60611Y131787D01*
X60592Y131825D01*
Y131845D01*
X60554Y131960D01*
Y132075D01*
X60573Y132229D01*
X60631Y132344D01*
X60727Y132440D01*
X60842Y132479D01*
X60957Y132498D01*
X61015Y132517D01*
X61053D01*
X61226Y132498D01*
X61380Y132440D01*
X61515Y132364D01*
X61630Y132287D01*
X61726Y132210D01*
X61784Y132133D01*
X61822Y132075D01*
X61841Y132056D01*
X64763Y127520D01*
X64609Y132056D01*
X64628Y132210D01*
X64686Y132325D01*
X64763Y132402D01*
X64859Y132460D01*
X64955Y132498D01*
X65032Y132517D01*
X65109D01*
X65301Y132479D01*
D02*
G37*
G36*
X102703Y132498D02*
X102876Y132421D01*
X103030Y132306D01*
X103164Y132191D01*
X103241Y132056D01*
X103318Y131960D01*
X103337Y131883D01*
X103357Y131845D01*
X104913Y127270D01*
X104990Y126944D01*
X105029Y126636D01*
X105009Y126367D01*
X104971Y126155D01*
X104933Y125963D01*
X104875Y125829D01*
X104836Y125752D01*
X104817Y125714D01*
X104644Y125502D01*
X104433Y125367D01*
X104202Y125252D01*
X103991Y125175D01*
X103779Y125137D01*
X103626Y125118D01*
X103510Y125098D01*
X100935D01*
X100704Y125118D01*
X100493Y125195D01*
X100339Y125310D01*
X100224Y125425D01*
X100128Y125540D01*
X100070Y125656D01*
X100051Y125733D01*
X100031Y125752D01*
X97956Y131845D01*
X97917Y131960D01*
Y132075D01*
X97937Y132229D01*
X97994Y132344D01*
X98090Y132440D01*
X98206Y132479D01*
X98321Y132498D01*
X98379Y132517D01*
X98417D01*
X98648Y132498D01*
X98821Y132421D01*
X98974Y132306D01*
X99109Y132191D01*
X99186Y132056D01*
X99263Y131960D01*
X99282Y131883D01*
X99301Y131845D01*
X101146Y126425D01*
X103011D01*
X103126Y126444D01*
X103241Y126463D01*
X103395Y126559D01*
X103491Y126636D01*
X103530Y126655D01*
Y126674D01*
X103568Y126771D01*
X103606Y126867D01*
Y127059D01*
X103587Y127155D01*
Y127213D01*
X103568Y127251D01*
Y127270D01*
X102011Y131845D01*
X101973Y131960D01*
Y132075D01*
X101992Y132229D01*
X102050Y132344D01*
X102146Y132440D01*
X102261Y132479D01*
X102376Y132498D01*
X102434Y132517D01*
X102472D01*
X102703Y132498D01*
D02*
G37*
G36*
X108911Y135554D02*
X109103Y135477D01*
X109257Y135362D01*
X109392Y135247D01*
X109469Y135112D01*
X109545Y135016D01*
X109565Y134939D01*
X109584Y134901D01*
X112698Y125752D01*
X112736Y125637D01*
Y125540D01*
X112717Y125367D01*
X112659Y125252D01*
X112563Y125175D01*
X112448Y125137D01*
X112352Y125118D01*
X112275Y125098D01*
X108200D01*
X107969Y125118D01*
X107758Y125195D01*
X107604Y125310D01*
X107470Y125425D01*
X107393Y125540D01*
X107316Y125656D01*
X107297Y125733D01*
X107278Y125752D01*
X107239Y125867D01*
Y125982D01*
X107258Y126136D01*
X107335Y126252D01*
X107431Y126348D01*
X107527Y126386D01*
X107643Y126405D01*
X107700Y126425D01*
X111121D01*
X108238Y134901D01*
X108200Y135016D01*
Y135131D01*
Y135285D01*
X108277Y135400D01*
X108373Y135496D01*
X108488Y135535D01*
X108584Y135554D01*
X108642Y135573D01*
X108680D01*
X108911Y135554D01*
D02*
G37*
G36*
X95438Y132498D02*
X95611Y132421D01*
X95765Y132306D01*
X95899Y132191D01*
X95976Y132056D01*
X96053Y131960D01*
X96072Y131883D01*
X96091Y131845D01*
X98167Y125752D01*
X98206Y125637D01*
Y125540D01*
X98186Y125367D01*
X98129Y125252D01*
X98033Y125175D01*
X97917Y125137D01*
X97821Y125118D01*
X97744Y125098D01*
X97725D01*
X97495Y125118D01*
X97283Y125195D01*
X97129Y125310D01*
X97014Y125425D01*
X96918Y125540D01*
X96860Y125656D01*
X96841Y125733D01*
X96822Y125752D01*
X94977Y131191D01*
X93266D01*
X95111Y125752D01*
X95150Y125637D01*
Y125540D01*
X95130Y125367D01*
X95073Y125252D01*
X94977Y125175D01*
X94861Y125137D01*
X94765Y125118D01*
X94688Y125098D01*
X94669D01*
X94438Y125118D01*
X94227Y125195D01*
X94073Y125310D01*
X93958Y125425D01*
X93862Y125540D01*
X93804Y125656D01*
X93785Y125733D01*
X93766Y125752D01*
X91921Y131191D01*
X91075D01*
X90940Y131172D01*
X90844Y131153D01*
X90671Y131076D01*
X90575Y130980D01*
X90537Y130961D01*
Y130941D01*
X90479Y130845D01*
X90460Y130749D01*
Y130538D01*
Y130461D01*
X90479Y130384D01*
X90498Y130345D01*
Y130326D01*
X92055Y125752D01*
X92094Y125637D01*
Y125540D01*
X92075Y125367D01*
X92017Y125252D01*
X91921Y125175D01*
X91805Y125137D01*
X91709Y125118D01*
X91632Y125098D01*
X91613D01*
X91382Y125118D01*
X91171Y125195D01*
X91017Y125310D01*
X90902Y125425D01*
X90806Y125540D01*
X90748Y125656D01*
X90729Y125733D01*
X90710Y125752D01*
X89153Y130326D01*
X89076Y130653D01*
X89038Y130941D01*
X89057Y131210D01*
X89095Y131441D01*
X89153Y131614D01*
X89211Y131748D01*
X89249Y131845D01*
X89268Y131864D01*
X89441Y132075D01*
X89653Y132248D01*
X89883Y132364D01*
X90095Y132440D01*
X90306Y132479D01*
X90460Y132517D01*
X95207D01*
X95438Y132498D01*
D02*
G37*
G36*
X84233Y132479D02*
X84636Y132402D01*
X85001Y132267D01*
X85328Y132133D01*
X85616Y131979D01*
X85809Y131845D01*
X85905Y131806D01*
X85943Y131768D01*
X85982Y131729D01*
X86001D01*
X86366Y131422D01*
X86674Y131095D01*
X86923Y130768D01*
X87116Y130480D01*
X87270Y130211D01*
X87366Y129999D01*
X87404Y129923D01*
X87423Y129865D01*
X87442Y129826D01*
Y129807D01*
X88134Y127789D01*
X88192Y127578D01*
X88231Y127386D01*
X88269Y127020D01*
Y126674D01*
X88211Y126405D01*
X88134Y126175D01*
X88077Y126002D01*
X88019Y125906D01*
X88000Y125867D01*
X87788Y125617D01*
X87519Y125425D01*
X87250Y125291D01*
X86981Y125195D01*
X86731Y125137D01*
X86539Y125118D01*
X86462Y125098D01*
X86347D01*
X85924Y125137D01*
X85540Y125214D01*
X85175Y125348D01*
X84848Y125502D01*
X84559Y125637D01*
X84348Y125771D01*
X84271Y125810D01*
X84214Y125848D01*
X84194Y125886D01*
X84175D01*
X83810Y126194D01*
X83502Y126521D01*
X83253Y126828D01*
X83060Y127136D01*
X82907Y127405D01*
X82810Y127597D01*
X82772Y127674D01*
X82753Y127732D01*
X82734Y127770D01*
Y127789D01*
X82042Y129807D01*
X81984Y130019D01*
X81946Y130211D01*
X81907Y130595D01*
Y130922D01*
X81965Y131191D01*
X82022Y131422D01*
X82099Y131595D01*
X82157Y131691D01*
X82176Y131729D01*
X82388Y131998D01*
X82657Y132191D01*
X82926Y132325D01*
X83195Y132421D01*
X83445Y132479D01*
X83637Y132498D01*
X83714Y132517D01*
X83829D01*
X84233Y132479D01*
D02*
G37*
G36*
X77198Y132498D02*
X77525Y132440D01*
X77832Y132364D01*
X78101Y132287D01*
X78313Y132210D01*
X78486Y132133D01*
X78582Y132075D01*
X78620Y132056D01*
X78947Y131845D01*
X79236Y131614D01*
X79447Y131364D01*
X79620Y131114D01*
X79754Y130903D01*
X79851Y130730D01*
X79889Y130615D01*
X79908Y130595D01*
Y130576D01*
X79966Y130365D01*
X80004Y130153D01*
X80023Y129961D01*
X80004Y129788D01*
X79927Y129500D01*
X79812Y129250D01*
X79678Y129058D01*
X79543Y128923D01*
X79447Y128846D01*
X79428Y128827D01*
X79409D01*
X77217Y127578D01*
X77121Y127501D01*
X77064Y127424D01*
X77044Y127328D01*
X77025Y127232D01*
X77044Y127155D01*
Y127078D01*
X77064Y127040D01*
Y127020D01*
X77121Y126924D01*
X77179Y126828D01*
X77371Y126674D01*
X77583Y126578D01*
X77813Y126502D01*
X78044Y126463D01*
X78236Y126444D01*
X78294Y126425D01*
X78409D01*
X78870Y126444D01*
X79062Y126482D01*
X79255Y126502D01*
X79409Y126540D01*
X79524Y126559D01*
X79601Y126578D01*
X79620D01*
X79774Y126655D01*
X79908Y126713D01*
X80023Y126751D01*
X80139Y126809D01*
X80216Y126847D01*
X80273Y126867D01*
X80293Y126886D01*
X80312D01*
X80370Y126905D01*
X80427Y126924D01*
X80504D01*
X80696Y126886D01*
X80869Y126828D01*
X81004Y126771D01*
X81023Y126732D01*
X81042D01*
X81196Y126578D01*
X81311Y126425D01*
X81369Y126309D01*
X81388Y126290D01*
Y126271D01*
X81427Y126136D01*
Y126021D01*
X81407Y125906D01*
X81369Y125829D01*
X81273Y125713D01*
X81254Y125694D01*
X81234Y125675D01*
X80888Y125483D01*
X80504Y125348D01*
X80120Y125233D01*
X79735Y125175D01*
X79409Y125137D01*
X79255Y125118D01*
X79139D01*
X79024Y125098D01*
X78890D01*
X78505Y125118D01*
X78159Y125156D01*
X77852Y125233D01*
X77583Y125310D01*
X77352Y125367D01*
X77179Y125444D01*
X77083Y125483D01*
X77044Y125502D01*
X76698Y125713D01*
X76429Y125963D01*
X76199Y126213D01*
X76007Y126463D01*
X75872Y126674D01*
X75795Y126847D01*
X75738Y126982D01*
X75718Y127001D01*
Y127020D01*
X75661Y127232D01*
X75622Y127443D01*
Y127635D01*
Y127808D01*
X75699Y128116D01*
X75834Y128347D01*
X75968Y128539D01*
X76103Y128673D01*
X76199Y128750D01*
X76218Y128769D01*
X76237D01*
X78448Y130038D01*
X78524Y130115D01*
X78582Y130192D01*
X78601Y130269D01*
Y130365D01*
Y130442D01*
Y130518D01*
X78582Y130557D01*
Y130576D01*
X78524Y130691D01*
X78467Y130788D01*
X78294Y130941D01*
X78082Y131037D01*
X77852Y131114D01*
X77640Y131153D01*
X77448Y131191D01*
X77275D01*
X77006Y131172D01*
X76756Y131133D01*
X76545Y131076D01*
X76353Y131018D01*
X76199Y130941D01*
X76103Y130884D01*
X76026Y130845D01*
X76007Y130826D01*
X75891Y130730D01*
X75776Y130691D01*
X75699Y130672D01*
X75661D01*
X75449Y130711D01*
X75276Y130768D01*
X75161Y130826D01*
X75142Y130864D01*
X75122D01*
X74949Y131037D01*
X74834Y131191D01*
X74777Y131307D01*
X74757Y131326D01*
Y131345D01*
X74738Y131460D01*
Y131576D01*
X74757Y131672D01*
X74796Y131768D01*
X74873Y131883D01*
X74892Y131902D01*
X74911Y131922D01*
X75199Y132114D01*
X75526Y132267D01*
X75834Y132364D01*
X76141Y132440D01*
X76410Y132479D01*
X76641Y132517D01*
X76833D01*
X77198Y132498D01*
D02*
G37*
G36*
X59977Y126905D02*
X60150Y126828D01*
X60304Y126713D01*
X60438Y126598D01*
X60515Y126463D01*
X60592Y126367D01*
X60611Y126290D01*
X60631Y126252D01*
X60804Y125752D01*
X60842Y125637D01*
Y125540D01*
X60823Y125367D01*
X60765Y125252D01*
X60669Y125175D01*
X60554Y125137D01*
X60458Y125118D01*
X60381Y125098D01*
X60361D01*
X60131Y125118D01*
X59919Y125195D01*
X59766Y125310D01*
X59650Y125425D01*
X59554Y125540D01*
X59497Y125656D01*
X59477Y125733D01*
X59458Y125752D01*
X59285Y126252D01*
X59247Y126367D01*
Y126482D01*
X59266Y126636D01*
X59324Y126751D01*
X59420Y126847D01*
X59535Y126886D01*
X59650Y126905D01*
X59708Y126924D01*
X59746D01*
X59977Y126905D01*
D02*
G37*
G36*
X51924Y135554D02*
X52212Y135477D01*
X52481Y135381D01*
X52750Y135247D01*
X53000Y135093D01*
X53250Y134920D01*
X53692Y134555D01*
X53884Y134362D01*
X54057Y134170D01*
X54211Y133997D01*
X54326Y133844D01*
X54442Y133709D01*
X54519Y133613D01*
X54557Y133536D01*
X54576Y133517D01*
X54903Y132998D01*
X55191Y132460D01*
X55460Y131922D01*
X55691Y131422D01*
X55787Y131191D01*
X55864Y130980D01*
X55941Y130788D01*
X55998Y130634D01*
X56056Y130499D01*
X56075Y130403D01*
X56114Y130345D01*
Y130326D01*
X56325Y129654D01*
X56479Y129039D01*
X56537Y128750D01*
X56594Y128500D01*
X56633Y128251D01*
X56671Y128020D01*
X56690Y127828D01*
X56710Y127635D01*
X56729Y127482D01*
Y127347D01*
X56748Y127251D01*
Y127174D01*
Y127136D01*
Y127117D01*
X56729Y126771D01*
X56671Y126444D01*
X56594Y126175D01*
X56498Y125944D01*
X56383Y125752D01*
X56248Y125598D01*
X56114Y125464D01*
X55960Y125348D01*
X55826Y125271D01*
X55691Y125214D01*
X55441Y125137D01*
X55326Y125118D01*
X55249Y125098D01*
X55191D01*
X54903Y125118D01*
X54615Y125195D01*
X54346Y125291D01*
X54076Y125425D01*
X53827Y125579D01*
X53577Y125752D01*
X53135Y126117D01*
X52943Y126309D01*
X52770Y126482D01*
X52616Y126655D01*
X52481Y126809D01*
X52385Y126944D01*
X52308Y127040D01*
X52270Y127117D01*
X52251Y127136D01*
X51924Y127655D01*
X51616Y128212D01*
X51367Y128731D01*
X51136Y129231D01*
X51040Y129461D01*
X50963Y129673D01*
X50886Y129865D01*
X50828Y130019D01*
X50771Y130153D01*
X50732Y130249D01*
X50713Y130307D01*
Y130326D01*
X50502Y130980D01*
X50348Y131595D01*
X50232Y132133D01*
X50194Y132383D01*
X50156Y132613D01*
X50136Y132806D01*
X50117Y132998D01*
X50098Y133152D01*
X50079Y133267D01*
Y133382D01*
Y133459D01*
Y133498D01*
Y133517D01*
X50098Y133882D01*
X50136Y134189D01*
X50213Y134478D01*
X50329Y134708D01*
X50444Y134901D01*
X50578Y135074D01*
X50713Y135208D01*
X50848Y135324D01*
X51001Y135400D01*
X51136Y135458D01*
X51386Y135535D01*
X51482Y135554D01*
X51559Y135573D01*
X51636D01*
X51924Y135554D01*
D02*
G37*
G36*
X49579Y126905D02*
X49752Y126828D01*
X49906Y126713D01*
X50040Y126598D01*
X50117Y126463D01*
X50194Y126367D01*
X50213Y126290D01*
X50232Y126252D01*
X50406Y125752D01*
X50444Y125637D01*
Y125540D01*
X50425Y125367D01*
X50367Y125252D01*
X50271Y125175D01*
X50156Y125137D01*
X50059Y125118D01*
X49983Y125098D01*
X49963D01*
X49733Y125118D01*
X49521Y125195D01*
X49368Y125310D01*
X49252Y125425D01*
X49156Y125540D01*
X49099Y125656D01*
X49079Y125733D01*
X49060Y125752D01*
X48887Y126252D01*
X48849Y126367D01*
Y126482D01*
X48868Y126636D01*
X48926Y126751D01*
X49022Y126847D01*
X49137Y126886D01*
X49252Y126905D01*
X49310Y126924D01*
X49348D01*
X49579Y126905D01*
D02*
G37*
G36*
X184051Y199527D02*
X184080Y199521D01*
X184144Y199498D01*
X184168Y199480D01*
X184185Y199469D01*
X184197Y199463D01*
X184203Y199457D01*
X185010Y198849D01*
X185063Y198802D01*
X185092Y198755D01*
X185110Y198720D01*
X185116Y198714D01*
Y198708D01*
X185127Y198673D01*
Y198644D01*
Y198591D01*
X185104Y198556D01*
X185074Y198533D01*
X185045Y198521D01*
X185016Y198515D01*
X184993Y198509D01*
X184987D01*
X184922Y198521D01*
X184870Y198539D01*
X184835Y198556D01*
X184829Y198568D01*
X184823D01*
X184431Y198907D01*
X185238Y196544D01*
X185250Y196509D01*
Y196479D01*
X185244Y196427D01*
X185227Y196392D01*
X185197Y196368D01*
X185162Y196357D01*
X185133Y196351D01*
X185110Y196345D01*
X185104D01*
X185034Y196351D01*
X184969Y196374D01*
X184922Y196409D01*
X184887Y196444D01*
X184858Y196479D01*
X184841Y196514D01*
X184835Y196538D01*
X184829Y196544D01*
X183881Y199328D01*
X183869Y199364D01*
Y199399D01*
Y199445D01*
X183893Y199480D01*
X183922Y199510D01*
X183957Y199521D01*
X183986Y199527D01*
X184004Y199533D01*
X184016D01*
X184051Y199527D01*
D02*
G37*
G36*
X187233D02*
X187286Y199504D01*
X187333Y199469D01*
X187374Y199434D01*
X187397Y199393D01*
X187420Y199364D01*
X187426Y199340D01*
X187432Y199328D01*
X188380Y196544D01*
X188391Y196509D01*
Y196479D01*
X188386Y196427D01*
X188368Y196392D01*
X188339Y196368D01*
X188304Y196357D01*
X188275Y196351D01*
X188251Y196345D01*
X188245D01*
X188175Y196351D01*
X188111Y196374D01*
X188064Y196409D01*
X188029Y196444D01*
X187999Y196479D01*
X187982Y196514D01*
X187976Y196538D01*
X187970Y196544D01*
X187619Y197579D01*
X187023D01*
X186847Y196456D01*
X186835Y196421D01*
X186818Y196392D01*
X186794Y196374D01*
X186765Y196357D01*
X186742Y196351D01*
X186718Y196345D01*
X186701D01*
X186642Y196357D01*
X186590Y196374D01*
X186549Y196392D01*
X186543Y196403D01*
X186537D01*
X186508Y196427D01*
X186484Y196450D01*
X186449Y196497D01*
X186432Y196532D01*
X186426Y196538D01*
Y196544D01*
X186414Y196573D01*
Y196602D01*
Y196626D01*
Y196632D01*
X186595Y197667D01*
X186484Y197714D01*
X186379Y197766D01*
X186285Y197831D01*
X186198Y197895D01*
X186122Y197971D01*
X186051Y198041D01*
X185987Y198117D01*
X185934Y198194D01*
X185888Y198264D01*
X185847Y198334D01*
X185812Y198392D01*
X185788Y198445D01*
X185765Y198492D01*
X185753Y198527D01*
X185741Y198550D01*
Y198556D01*
X185718Y198632D01*
X185701Y198702D01*
X185695Y198773D01*
X185689Y198837D01*
X185695Y198954D01*
X185712Y199053D01*
X185735Y199135D01*
X185759Y199194D01*
X185771Y199217D01*
X185782Y199235D01*
X185788Y199241D01*
Y199247D01*
X185823Y199299D01*
X185870Y199340D01*
X185911Y199381D01*
X185958Y199410D01*
X186057Y199463D01*
X186157Y199498D01*
X186244Y199516D01*
X186285Y199527D01*
X186321D01*
X186344Y199533D01*
X187163D01*
X187233Y199527D01*
D02*
G37*
G36*
X143770Y163673D02*
X143893Y163650D01*
X144004Y163609D01*
X144104Y163568D01*
X144192Y163521D01*
X144250Y163480D01*
X144279Y163469D01*
X144291Y163457D01*
X144303Y163445D01*
X144309D01*
X144420Y163352D01*
X144513Y163252D01*
X144589Y163153D01*
X144648Y163065D01*
X144695Y162983D01*
X144724Y162919D01*
X144736Y162895D01*
X144741Y162878D01*
X144747Y162866D01*
Y162860D01*
X145274Y161316D01*
X145291Y161251D01*
X145303Y161193D01*
X145315Y161082D01*
Y160977D01*
X145297Y160895D01*
X145274Y160825D01*
X145256Y160772D01*
X145239Y160743D01*
X145233Y160731D01*
X145169Y160655D01*
X145087Y160596D01*
X145005Y160555D01*
X144923Y160526D01*
X144847Y160509D01*
X144788Y160503D01*
X144765Y160497D01*
X144116D01*
X144045Y160503D01*
X143981Y160526D01*
X143934Y160561D01*
X143893Y160596D01*
X143870Y160631D01*
X143846Y160667D01*
X143841Y160690D01*
X143835Y160696D01*
X143823Y160731D01*
Y160766D01*
X143829Y160813D01*
X143852Y160848D01*
X143882Y160877D01*
X143911Y160889D01*
X143946Y160895D01*
X143964Y160900D01*
X144595D01*
X144654Y160906D01*
X144706Y160918D01*
X144747Y160936D01*
X144782Y160959D01*
X144812Y160982D01*
X144829Y161000D01*
X144841Y161012D01*
X144847Y161018D01*
X144870Y161064D01*
X144882Y161117D01*
X144888Y161164D01*
X144882Y161211D01*
X144876Y161251D01*
X144870Y161287D01*
X144864Y161310D01*
Y161316D01*
X144338Y162860D01*
X144309Y162925D01*
X144279Y162983D01*
X144244Y163030D01*
X144203Y163077D01*
X144168Y163112D01*
X144139Y163135D01*
X144121Y163153D01*
X144116Y163159D01*
X144051Y163199D01*
X143993Y163229D01*
X143940Y163252D01*
X143887Y163264D01*
X143846Y163276D01*
X143811Y163281D01*
X143162D01*
X143092Y163287D01*
X143033Y163311D01*
X142987Y163346D01*
X142946Y163381D01*
X142922Y163416D01*
X142899Y163451D01*
X142893Y163475D01*
X142887Y163480D01*
X142875Y163515D01*
Y163550D01*
X142881Y163597D01*
X142905Y163632D01*
X142934Y163662D01*
X142963Y163673D01*
X142998Y163679D01*
X143016Y163685D01*
X143648D01*
X143770Y163673D01*
D02*
G37*
G36*
X142127Y163679D02*
X142179Y163656D01*
X142226Y163621D01*
X142267Y163586D01*
X142290Y163545D01*
X142314Y163515D01*
X142320Y163492D01*
X142325Y163480D01*
X142337Y163445D01*
Y163416D01*
X142331Y163363D01*
X142314Y163328D01*
X142285Y163305D01*
X142249Y163293D01*
X142220Y163287D01*
X142197Y163281D01*
X141577D01*
X141518Y163276D01*
X141465Y163264D01*
X141419Y163241D01*
X141384Y163217D01*
X141360Y163194D01*
X141337Y163170D01*
X141331Y163159D01*
X141325Y163153D01*
X141302Y163106D01*
X141284Y163053D01*
Y163006D01*
Y162960D01*
X141290Y162919D01*
X141296Y162890D01*
X141302Y162866D01*
Y162860D01*
X141325Y162796D01*
X141360Y162737D01*
X141395Y162691D01*
X141436Y162644D01*
X141471Y162609D01*
X141495Y162585D01*
X141518Y162568D01*
X141524Y162562D01*
X141583Y162521D01*
X141647Y162492D01*
X141700Y162474D01*
X141752Y162462D01*
X141793Y162451D01*
X141828Y162445D01*
X142167D01*
X142238Y162439D01*
X142296Y162416D01*
X142343Y162381D01*
X142378Y162346D01*
X142407Y162304D01*
X142425Y162275D01*
X142431Y162252D01*
X142437Y162240D01*
X142448Y162205D01*
Y162176D01*
Y162123D01*
X142425Y162088D01*
X142396Y162065D01*
X142366Y162053D01*
X142337Y162047D01*
X142314Y162041D01*
X141998D01*
X141939Y162035D01*
X141887Y162024D01*
X141846Y162000D01*
X141811Y161983D01*
X141781Y161959D01*
X141764Y161936D01*
X141752Y161924D01*
X141746Y161918D01*
X141723Y161872D01*
X141705Y161819D01*
Y161772D01*
Y161725D01*
X141711Y161684D01*
X141717Y161649D01*
X141723Y161626D01*
Y161620D01*
X141828Y161316D01*
X141852Y161251D01*
X141887Y161193D01*
X141922Y161146D01*
X141963Y161099D01*
X141998Y161064D01*
X142021Y161041D01*
X142045Y161023D01*
X142051Y161018D01*
X142109Y160977D01*
X142167Y160947D01*
X142226Y160930D01*
X142279Y160918D01*
X142320Y160906D01*
X142355Y160900D01*
X143004D01*
X143074Y160895D01*
X143127Y160871D01*
X143174Y160836D01*
X143215Y160801D01*
X143238Y160760D01*
X143262Y160731D01*
X143267Y160707D01*
X143273Y160696D01*
X143285Y160661D01*
Y160631D01*
X143279Y160579D01*
X143262Y160544D01*
X143232Y160520D01*
X143197Y160509D01*
X143168Y160503D01*
X143145Y160497D01*
X142524D01*
X142396Y160509D01*
X142273Y160532D01*
X142162Y160573D01*
X142062Y160620D01*
X141974Y160661D01*
X141910Y160702D01*
X141887Y160713D01*
X141869Y160725D01*
X141863Y160737D01*
X141858D01*
X141746Y160830D01*
X141653Y160930D01*
X141577Y161023D01*
X141518Y161117D01*
X141471Y161199D01*
X141442Y161257D01*
X141430Y161281D01*
X141425Y161298D01*
X141419Y161310D01*
Y161316D01*
X141313Y161620D01*
X141290Y161696D01*
X141278Y161766D01*
X141272Y161831D01*
X141267Y161889D01*
X141284Y161995D01*
X141308Y162082D01*
X141343Y162152D01*
X141378Y162199D01*
X141401Y162228D01*
X141413Y162240D01*
X141343Y162281D01*
X141278Y162328D01*
X141167Y162427D01*
X141079Y162533D01*
X141009Y162632D01*
X140957Y162720D01*
X140933Y162761D01*
X140921Y162796D01*
X140910Y162819D01*
X140898Y162843D01*
X140892Y162854D01*
Y162860D01*
X140875Y162925D01*
X140863Y162983D01*
X140851Y163094D01*
Y163194D01*
X140869Y163276D01*
X140886Y163346D01*
X140910Y163399D01*
X140927Y163428D01*
X140933Y163439D01*
X140998Y163521D01*
X141079Y163580D01*
X141161Y163627D01*
X141243Y163656D01*
X141319Y163673D01*
X141378Y163679D01*
X141401Y163685D01*
X142056D01*
X142127Y163679D01*
D02*
G37*
%LPC*%
G36*
X99622Y117919D02*
X99680Y115417D01*
X101271D01*
X99622Y117919D01*
D02*
G37*
G36*
X95206Y118588D02*
X93799D01*
X93684Y118576D01*
X93580Y118553D01*
X93488Y118507D01*
X93419Y118472D01*
X93373Y118426D01*
X93326Y118380D01*
X93315Y118357D01*
X93304Y118346D01*
X93257Y118253D01*
X93223Y118150D01*
Y118057D01*
Y117965D01*
X93234Y117884D01*
X93246Y117815D01*
X93257Y117769D01*
Y117757D01*
X94295Y114714D01*
X94341Y114587D01*
X94410Y114471D01*
X94480Y114379D01*
X94560Y114287D01*
X94629Y114218D01*
X94675Y114172D01*
X94722Y114137D01*
X94733Y114126D01*
X94849Y114045D01*
X94975Y113987D01*
X95079Y113953D01*
X95183Y113930D01*
X95264Y113907D01*
X95333Y113895D01*
X96809D01*
X95206Y118588D01*
D02*
G37*
G36*
X58333Y116743D02*
X58275D01*
X58160Y116731D01*
X58056Y116708D01*
X57976Y116662D01*
X57906Y116628D01*
X57849Y116581D01*
X57814Y116535D01*
X57791Y116512D01*
X57780Y116501D01*
X57733Y116409D01*
X57699Y116305D01*
Y116212D01*
Y116120D01*
X57710Y116040D01*
X57722Y115982D01*
X57733Y115936D01*
Y115924D01*
X57814Y115717D01*
X59440D01*
X59371Y115924D01*
X59313Y116051D01*
X59255Y116166D01*
X59186Y116259D01*
X59105Y116339D01*
X59036Y116409D01*
X58979Y116455D01*
X58944Y116489D01*
X58933Y116501D01*
X58806Y116581D01*
X58690Y116639D01*
X58587Y116685D01*
X58483Y116708D01*
X58402Y116731D01*
X58333Y116743D01*
D02*
G37*
G36*
X53975D02*
X53917D01*
X53802Y116731D01*
X53698Y116708D01*
X53617Y116662D01*
X53548Y116628D01*
X53490Y116581D01*
X53456Y116535D01*
X53433Y116512D01*
X53421Y116501D01*
X53375Y116409D01*
X53341Y116305D01*
Y116212D01*
Y116120D01*
X53352Y116040D01*
X53364Y115982D01*
X53375Y115936D01*
Y115924D01*
X53456Y115717D01*
X55081D01*
X55012Y115924D01*
X54955Y116051D01*
X54897Y116166D01*
X54828Y116259D01*
X54747Y116339D01*
X54678Y116409D01*
X54620Y116455D01*
X54586Y116489D01*
X54574Y116501D01*
X54447Y116581D01*
X54332Y116639D01*
X54228Y116685D01*
X54124Y116708D01*
X54044Y116731D01*
X53975Y116743D01*
D02*
G37*
G36*
X69217Y116754D02*
X68064D01*
X69033Y113895D01*
X70151D01*
X70220Y113907D01*
X70290Y113918D01*
X70382Y113976D01*
X70439Y114022D01*
X70463Y114033D01*
Y114045D01*
X70486Y114102D01*
X70509Y114160D01*
Y114276D01*
X70497Y114333D01*
Y114368D01*
X70486Y114391D01*
Y114402D01*
X69863Y116236D01*
X69782Y116385D01*
X69690Y116501D01*
X69655Y116547D01*
X69621Y116581D01*
X69598Y116593D01*
X69586Y116604D01*
X69517Y116651D01*
X69436Y116697D01*
X69310Y116731D01*
X69263Y116743D01*
X69217Y116754D01*
D02*
G37*
G36*
X39931D02*
X38778D01*
X39747Y113895D01*
X40865D01*
X40934Y113907D01*
X41003Y113918D01*
X41096Y113976D01*
X41153Y114022D01*
X41176Y114033D01*
Y114045D01*
X41199Y114102D01*
X41223Y114160D01*
Y114276D01*
X41211Y114333D01*
Y114368D01*
X41199Y114391D01*
Y114402D01*
X40577Y116236D01*
X40496Y116385D01*
X40404Y116501D01*
X40369Y116547D01*
X40335Y116581D01*
X40312Y116593D01*
X40300Y116604D01*
X40231Y116651D01*
X40150Y116697D01*
X40023Y116731D01*
X39977Y116743D01*
X39931Y116754D01*
D02*
G37*
G36*
X83076Y109214D02*
X82996D01*
X82834Y109202D01*
X82684Y109168D01*
X82569Y109110D01*
X82477Y109052D01*
X82408Y108983D01*
X82350Y108937D01*
X82327Y108891D01*
X82315Y108879D01*
X82246Y108753D01*
X82212Y108614D01*
X82200Y108487D01*
Y108361D01*
X82223Y108245D01*
X82235Y108165D01*
X82246Y108107D01*
X82258Y108084D01*
X83088Y105640D01*
X83157Y105467D01*
X83249Y105317D01*
X83353Y105178D01*
X83445Y105063D01*
X83538Y104971D01*
X83618Y104902D01*
X83664Y104856D01*
X83688Y104844D01*
X83849Y104740D01*
X84010Y104659D01*
X84172Y104602D01*
X84310Y104567D01*
X84425Y104544D01*
X84518Y104521D01*
X84598D01*
X84760Y104533D01*
X84898Y104567D01*
X85013Y104625D01*
X85106Y104683D01*
X85186Y104740D01*
X85233Y104798D01*
X85267Y104832D01*
X85279Y104844D01*
X85336Y104971D01*
X85371Y105109D01*
X85382Y105236D01*
Y105363D01*
X85359Y105478D01*
X85348Y105559D01*
X85336Y105616D01*
X85325Y105640D01*
X84495Y108084D01*
X84425Y108257D01*
X84333Y108407D01*
X84229Y108545D01*
X84137Y108660D01*
X84045Y108753D01*
X83964Y108822D01*
X83918Y108868D01*
X83895Y108879D01*
X83734Y108995D01*
X83572Y109075D01*
X83422Y109133D01*
X83284Y109168D01*
X83169Y109202D01*
X83076Y109214D01*
D02*
G37*
G36*
X68756D02*
X68675D01*
X68514Y109202D01*
X68364Y109168D01*
X68249Y109110D01*
X68156Y109052D01*
X68087Y108983D01*
X68030Y108937D01*
X68007Y108891D01*
X67995Y108879D01*
X67926Y108753D01*
X67891Y108614D01*
X67880Y108487D01*
Y108361D01*
X67903Y108245D01*
X67914Y108165D01*
X67926Y108107D01*
X67937Y108084D01*
X68768Y105640D01*
X68837Y105467D01*
X68929Y105317D01*
X69033Y105178D01*
X69125Y105063D01*
X69217Y104971D01*
X69298Y104902D01*
X69344Y104856D01*
X69367Y104844D01*
X69529Y104740D01*
X69690Y104659D01*
X69851Y104602D01*
X69990Y104567D01*
X70105Y104544D01*
X70197Y104521D01*
X70278D01*
X70439Y104533D01*
X70578Y104567D01*
X70693Y104625D01*
X70785Y104683D01*
X70866Y104740D01*
X70912Y104798D01*
X70947Y104832D01*
X70958Y104844D01*
X71016Y104971D01*
X71051Y105109D01*
X71062Y105236D01*
Y105363D01*
X71039Y105478D01*
X71027Y105559D01*
X71016Y105616D01*
X71004Y105640D01*
X70174Y108084D01*
X70105Y108257D01*
X70013Y108407D01*
X69909Y108545D01*
X69817Y108660D01*
X69725Y108753D01*
X69644Y108822D01*
X69598Y108868D01*
X69575Y108879D01*
X69413Y108995D01*
X69252Y109075D01*
X69102Y109133D01*
X68964Y109168D01*
X68848Y109202D01*
X68756Y109214D01*
D02*
G37*
G36*
X76625Y101673D02*
X76602D01*
X76533Y101662D01*
X76464Y101639D01*
X76418Y101581D01*
X76372Y101523D01*
X76314Y101373D01*
X76279Y101200D01*
X76256Y101028D01*
Y100878D01*
Y100820D01*
X76268Y100774D01*
Y100739D01*
Y100728D01*
X76302Y100474D01*
X76349Y100232D01*
X76395Y99990D01*
X76452Y99771D01*
X76510Y99586D01*
X76533Y99517D01*
X76545Y99448D01*
X76568Y99390D01*
X76579Y99356D01*
X76591Y99333D01*
Y99321D01*
X76695Y99044D01*
X76798Y98791D01*
X76902Y98549D01*
X77006Y98341D01*
X77087Y98168D01*
X77133Y98087D01*
X77156Y98030D01*
X77190Y97984D01*
X77213Y97949D01*
X77225Y97926D01*
Y97914D01*
X77329Y97753D01*
X77421Y97603D01*
X77513Y97476D01*
X77605Y97373D01*
X77698Y97280D01*
X77778Y97211D01*
X77847Y97142D01*
X77917Y97096D01*
X78032Y97027D01*
X78124Y96992D01*
X78182Y96981D01*
X78205D01*
X78274Y96992D01*
X78343Y97027D01*
X78389Y97073D01*
X78435Y97130D01*
X78493Y97280D01*
X78528Y97453D01*
X78551Y97615D01*
Y97764D01*
X78539Y97834D01*
Y97880D01*
Y97903D01*
Y97914D01*
X78505Y98168D01*
X78459Y98410D01*
X78401Y98652D01*
X78355Y98860D01*
X78297Y99044D01*
X78274Y99125D01*
X78251Y99194D01*
X78240Y99252D01*
X78228Y99287D01*
X78216Y99309D01*
Y99321D01*
X78113Y99586D01*
X78009Y99851D01*
X77905Y100082D01*
X77801Y100290D01*
X77709Y100462D01*
X77675Y100543D01*
X77640Y100601D01*
X77605Y100647D01*
X77582Y100682D01*
X77571Y100705D01*
Y100716D01*
X77467Y100889D01*
X77375Y101028D01*
X77283Y101166D01*
X77190Y101270D01*
X77110Y101362D01*
X77029Y101443D01*
X76948Y101500D01*
X76879Y101558D01*
X76764Y101627D01*
X76671Y101662D01*
X76625Y101673D01*
D02*
G37*
G36*
X69200Y101662D02*
X69142D01*
X69027Y101650D01*
X68923Y101627D01*
X68831Y101581D01*
X68762Y101546D01*
X68716Y101500D01*
X68670Y101454D01*
X68658Y101431D01*
X68647Y101419D01*
X68600Y101327D01*
X68566Y101224D01*
Y101131D01*
Y101039D01*
X68577Y100958D01*
X68589Y100901D01*
X68600Y100855D01*
Y100843D01*
X68647Y100716D01*
X68716Y100601D01*
X68785Y100509D01*
X68866Y100416D01*
X68935Y100347D01*
X68981Y100301D01*
X69027Y100267D01*
X69039Y100255D01*
X69154Y100174D01*
X69269Y100117D01*
X69384Y100082D01*
X69488Y100059D01*
X69569Y100036D01*
X69638Y100024D01*
X69696D01*
X69811Y100036D01*
X69915Y100059D01*
X69996Y100094D01*
X70065Y100140D01*
X70122Y100186D01*
X70157Y100220D01*
X70180Y100243D01*
X70192Y100255D01*
X70238Y100347D01*
X70261Y100451D01*
X70272Y100543D01*
X70261Y100636D01*
X70249Y100716D01*
X70238Y100785D01*
X70226Y100831D01*
Y100843D01*
X70180Y100970D01*
X70111Y101085D01*
X70042Y101177D01*
X69972Y101258D01*
X69903Y101327D01*
X69846Y101373D01*
X69811Y101408D01*
X69800Y101419D01*
X69673Y101500D01*
X69557Y101558D01*
X69454Y101604D01*
X69350Y101627D01*
X69269Y101650D01*
X69200Y101662D01*
D02*
G37*
G36*
X70019Y99229D02*
X69961D01*
X69846Y99217D01*
X69742Y99194D01*
X69661Y99148D01*
X69592Y99114D01*
X69546Y99067D01*
X69500Y99021D01*
X69488Y98998D01*
X69477Y98987D01*
X69431Y98895D01*
X69396Y98791D01*
Y98699D01*
Y98606D01*
X69408Y98526D01*
X69419Y98468D01*
X69431Y98422D01*
Y98410D01*
X69638Y97799D01*
X69684Y97672D01*
X69753Y97557D01*
X69823Y97465D01*
X69903Y97373D01*
X69972Y97303D01*
X70019Y97257D01*
X70065Y97223D01*
X70076Y97211D01*
X70192Y97130D01*
X70307Y97073D01*
X70422Y97038D01*
X70526Y97015D01*
X70607Y96992D01*
X70676Y96981D01*
X70733D01*
X70849Y96992D01*
X70953Y97015D01*
X71033Y97050D01*
X71102Y97096D01*
X71160Y97142D01*
X71195Y97176D01*
X71218Y97199D01*
X71229Y97211D01*
X71275Y97303D01*
X71298Y97396D01*
X71310Y97499D01*
X71298Y97592D01*
X71287Y97672D01*
X71275Y97742D01*
X71264Y97788D01*
Y97799D01*
X71056Y98410D01*
X70999Y98537D01*
X70929Y98652D01*
X70860Y98745D01*
X70791Y98825D01*
X70722Y98895D01*
X70664Y98941D01*
X70630Y98975D01*
X70618Y98987D01*
X70503Y99067D01*
X70388Y99125D01*
X70272Y99171D01*
X70169Y99194D01*
X70088Y99217D01*
X70019Y99229D01*
D02*
G37*
G36*
X79444Y92299D02*
X79387D01*
X79272Y92288D01*
X79168Y92265D01*
X79075Y92219D01*
X79006Y92184D01*
X78960Y92138D01*
X78914Y92092D01*
X78903Y92069D01*
X78891Y92057D01*
X78845Y91965D01*
X78810Y91861D01*
Y91769D01*
Y91677D01*
X78822Y91596D01*
X78833Y91527D01*
X78845Y91481D01*
Y91469D01*
X79260Y90259D01*
X79306Y90132D01*
X79375Y90016D01*
X79444Y89924D01*
X79525Y89832D01*
X79594Y89763D01*
X79640Y89717D01*
X79686Y89682D01*
X79698Y89670D01*
X79813Y89590D01*
X79940Y89532D01*
X80044Y89498D01*
X80148Y89474D01*
X80228Y89451D01*
X80298Y89440D01*
X80355D01*
X80471Y89451D01*
X80574Y89474D01*
X80655Y89509D01*
X80724Y89555D01*
X80782Y89601D01*
X80817Y89636D01*
X80840Y89659D01*
X80851Y89670D01*
X80897Y89763D01*
X80920Y89855D01*
X80932Y89959D01*
X80920Y90051D01*
X80909Y90132D01*
X80897Y90201D01*
X80886Y90247D01*
Y90259D01*
X80471Y91469D01*
X80413Y91596D01*
X80355Y91711D01*
X80286Y91803D01*
X80205Y91896D01*
X80136Y91965D01*
X80079Y92011D01*
X80044Y92046D01*
X80032Y92057D01*
X79917Y92138D01*
X79790Y92195D01*
X79686Y92242D01*
X79583Y92265D01*
X79502Y92288D01*
X79444Y92299D01*
D02*
G37*
G36*
X56673Y90466D02*
X55520D01*
X55866Y89440D01*
X56995D01*
X57065Y89451D01*
X57122Y89463D01*
X57215Y89509D01*
X57272Y89555D01*
X57295Y89578D01*
X57330Y89636D01*
X57341Y89705D01*
Y89820D01*
Y89867D01*
X57330Y89913D01*
X57318Y89936D01*
Y89947D01*
X57284Y90028D01*
X57249Y90097D01*
X57157Y90212D01*
X57122Y90259D01*
X57088Y90293D01*
X57065Y90305D01*
X57053Y90316D01*
X56972Y90362D01*
X56903Y90408D01*
X56765Y90443D01*
X56719Y90455D01*
X56673Y90466D01*
D02*
G37*
G36*
X51692Y92299D02*
X50539D01*
X51507Y89440D01*
X52626D01*
X52695Y89451D01*
X52764Y89463D01*
X52856Y89521D01*
X52914Y89567D01*
X52937Y89578D01*
Y89590D01*
X52960Y89647D01*
X52983Y89705D01*
Y89820D01*
X52972Y89878D01*
Y89913D01*
X52960Y89936D01*
Y89947D01*
X52337Y91780D01*
X52257Y91930D01*
X52164Y92046D01*
X52130Y92092D01*
X52095Y92126D01*
X52072Y92138D01*
X52061Y92149D01*
X51991Y92195D01*
X51911Y92242D01*
X51784Y92276D01*
X51738Y92288D01*
X51692Y92299D01*
D02*
G37*
G36*
X47045Y92288D02*
X46988D01*
X46872Y92276D01*
X46768Y92253D01*
X46688Y92207D01*
X46619Y92172D01*
X46561Y92126D01*
X46526Y92080D01*
X46503Y92057D01*
X46492Y92046D01*
X46446Y91953D01*
X46411Y91850D01*
Y91757D01*
Y91665D01*
X46422Y91584D01*
X46434Y91527D01*
X46446Y91481D01*
Y91469D01*
X46526Y91262D01*
X48152D01*
X48083Y91469D01*
X48025Y91596D01*
X47967Y91711D01*
X47898Y91803D01*
X47818Y91884D01*
X47748Y91953D01*
X47691Y92000D01*
X47656Y92034D01*
X47645Y92046D01*
X47518Y92126D01*
X47403Y92184D01*
X47299Y92230D01*
X47195Y92253D01*
X47114Y92276D01*
X47045Y92288D01*
D02*
G37*
G36*
X35342Y92299D02*
X34224D01*
X34143Y92288D01*
X34085Y92276D01*
X33982Y92230D01*
X33935Y92172D01*
X33912Y92161D01*
Y92149D01*
X33878Y92092D01*
X33866Y92034D01*
Y91907D01*
Y91861D01*
X33878Y91815D01*
X33889Y91792D01*
Y91780D01*
X34512Y89947D01*
X34547Y89878D01*
X34581Y89809D01*
X34673Y89693D01*
X34719Y89647D01*
X34754Y89613D01*
X34777Y89601D01*
X34789Y89590D01*
X34858Y89544D01*
X34939Y89509D01*
X35065Y89463D01*
X35123Y89451D01*
X35169Y89440D01*
X36311D01*
X35342Y92299D01*
D02*
G37*
G36*
X30234D02*
X30177D01*
X30061Y92288D01*
X29958Y92265D01*
X29865Y92219D01*
X29796Y92184D01*
X29750Y92138D01*
X29704Y92092D01*
X29693Y92069D01*
X29681Y92057D01*
X29635Y91965D01*
X29600Y91861D01*
Y91769D01*
Y91677D01*
X29612Y91596D01*
X29623Y91527D01*
X29635Y91481D01*
Y91469D01*
X30050Y90259D01*
X30096Y90132D01*
X30165Y90016D01*
X30234Y89924D01*
X30315Y89832D01*
X30384Y89763D01*
X30430Y89717D01*
X30476Y89682D01*
X30488Y89670D01*
X30603Y89590D01*
X30730Y89532D01*
X30834Y89498D01*
X30938Y89474D01*
X31018Y89451D01*
X31088Y89440D01*
X31145D01*
X31260Y89451D01*
X31364Y89474D01*
X31445Y89509D01*
X31514Y89555D01*
X31572Y89601D01*
X31606Y89636D01*
X31629Y89659D01*
X31641Y89670D01*
X31687Y89763D01*
X31710Y89855D01*
X31722Y89959D01*
X31710Y90051D01*
X31699Y90132D01*
X31687Y90201D01*
X31676Y90247D01*
Y90259D01*
X31260Y91469D01*
X31203Y91596D01*
X31145Y91711D01*
X31076Y91803D01*
X30995Y91896D01*
X30926Y91965D01*
X30869Y92011D01*
X30834Y92046D01*
X30822Y92057D01*
X30707Y92138D01*
X30580Y92195D01*
X30476Y92242D01*
X30373Y92265D01*
X30292Y92288D01*
X30234Y92299D01*
D02*
G37*
G36*
X113838Y92299D02*
X112720D01*
X112639Y92288D01*
X112582Y92276D01*
X112478Y92230D01*
X112432Y92172D01*
X112409Y92161D01*
Y92149D01*
X112374Y92092D01*
X112363Y92034D01*
Y91907D01*
Y91861D01*
X112374Y91815D01*
X112386Y91792D01*
Y91780D01*
X113008Y89947D01*
X113043Y89878D01*
X113077Y89809D01*
X113170Y89693D01*
X113216Y89647D01*
X113250Y89613D01*
X113273Y89601D01*
X113285Y89590D01*
X113354Y89544D01*
X113435Y89509D01*
X113562Y89463D01*
X113619Y89451D01*
X113665Y89440D01*
X114807D01*
X113838Y92299D01*
D02*
G37*
G36*
X84386Y131191D02*
X84290Y131191D01*
X84098Y131172D01*
X83925Y131133D01*
X83771Y131057D01*
X83656Y130999D01*
X83579Y130922D01*
X83502Y130845D01*
X83483Y130807D01*
X83464Y130788D01*
X83387Y130634D01*
X83329Y130461D01*
Y130307D01*
Y130153D01*
X83349Y130019D01*
X83368Y129903D01*
X83387Y129826D01*
Y129807D01*
X84079Y127789D01*
X84156Y127578D01*
X84271Y127386D01*
X84386Y127232D01*
X84521Y127078D01*
X84636Y126963D01*
X84713Y126886D01*
X84790Y126828D01*
X84809Y126809D01*
X85001Y126674D01*
X85213Y126578D01*
X85386Y126521D01*
X85559Y126482D01*
X85693Y126444D01*
X85809Y126425D01*
X85905D01*
X86097Y126444D01*
X86270Y126482D01*
X86405Y126540D01*
X86520Y126617D01*
X86616Y126694D01*
X86674Y126751D01*
X86712Y126790D01*
X86731Y126809D01*
X86808Y126963D01*
X86847Y127117D01*
X86866Y127289D01*
X86847Y127443D01*
X86827Y127578D01*
X86808Y127693D01*
X86789Y127770D01*
Y127789D01*
X86097Y129807D01*
X86001Y130019D01*
X85905Y130211D01*
X85790Y130365D01*
X85655Y130518D01*
X85540Y130634D01*
X85444Y130711D01*
X85386Y130768D01*
X85367Y130788D01*
X85175Y130922D01*
X84963Y131018D01*
X84790Y131095D01*
X84617Y131133D01*
X84483Y131172D01*
X84386Y131191D01*
D02*
G37*
G36*
X52116Y134247D02*
X52078D01*
X51962Y134228D01*
X51847Y134189D01*
X51770Y134093D01*
X51693Y133997D01*
X51597Y133747D01*
X51539Y133459D01*
X51501Y133171D01*
Y132921D01*
Y132825D01*
X51520Y132748D01*
Y132690D01*
Y132671D01*
X51578Y132248D01*
X51655Y131845D01*
X51732Y131441D01*
X51828Y131076D01*
X51924Y130768D01*
X51962Y130653D01*
X51982Y130538D01*
X52020Y130442D01*
X52039Y130384D01*
X52058Y130345D01*
Y130326D01*
X52231Y129865D01*
X52404Y129442D01*
X52577Y129039D01*
X52750Y128693D01*
X52885Y128404D01*
X52962Y128270D01*
X53000Y128174D01*
X53058Y128097D01*
X53096Y128039D01*
X53115Y128001D01*
Y127981D01*
X53289Y127712D01*
X53442Y127462D01*
X53596Y127251D01*
X53750Y127078D01*
X53904Y126924D01*
X54038Y126809D01*
X54153Y126694D01*
X54269Y126617D01*
X54461Y126502D01*
X54615Y126444D01*
X54711Y126425D01*
X54749D01*
X54865Y126444D01*
X54980Y126502D01*
X55057Y126578D01*
X55134Y126674D01*
X55230Y126924D01*
X55287Y127213D01*
X55326Y127482D01*
Y127732D01*
X55307Y127847D01*
Y127924D01*
Y127962D01*
Y127981D01*
X55249Y128404D01*
X55172Y128808D01*
X55076Y129211D01*
X54999Y129557D01*
X54903Y129865D01*
X54865Y129999D01*
X54826Y130115D01*
X54807Y130211D01*
X54788Y130269D01*
X54768Y130307D01*
Y130326D01*
X54596Y130768D01*
X54422Y131210D01*
X54250Y131595D01*
X54076Y131941D01*
X53923Y132229D01*
X53865Y132364D01*
X53807Y132460D01*
X53750Y132537D01*
X53711Y132594D01*
X53692Y132633D01*
Y132652D01*
X53519Y132940D01*
X53365Y133171D01*
X53212Y133401D01*
X53058Y133574D01*
X52923Y133728D01*
X52789Y133863D01*
X52654Y133959D01*
X52539Y134055D01*
X52347Y134170D01*
X52193Y134228D01*
X52116Y134247D01*
D02*
G37*
G36*
X187087Y199129D02*
X186525D01*
X186443Y199124D01*
X186367Y199106D01*
X186309Y199077D01*
X186262Y199048D01*
X186227Y199012D01*
X186198Y198989D01*
X186186Y198966D01*
X186180Y198960D01*
X186145Y198896D01*
X186127Y198825D01*
X186122Y198761D01*
Y198697D01*
X186133Y198638D01*
X186139Y198597D01*
X186145Y198568D01*
X186151Y198556D01*
X186186Y198468D01*
X186233Y198387D01*
X186285Y198316D01*
X186332Y198258D01*
X186379Y198211D01*
X186420Y198176D01*
X186443Y198152D01*
X186455Y198147D01*
X186537Y198094D01*
X186619Y198053D01*
X186701Y198024D01*
X186771Y198006D01*
X186829Y197995D01*
X186876Y197983D01*
X187479D01*
X187087Y199129D01*
D02*
G37*
%LPD*%
D13*
X178642Y187598D02*
X182579D01*
X178642Y193504D02*
X182579D01*
X139469Y157480D02*
X139862D01*
X139469Y152953D02*
X139862D01*
M02*
