G04*
G04 #@! TF.GenerationSoftware,Altium Limited,Altium Designer,18.0.9 (584)*
G04*
G04 Layer_Color=65535*
%FSLAX25Y25*%
%MOIN*%
G70*
G01*
G75*
%ADD10C,0.01968*%
%ADD11C,0.00984*%
%ADD12C,0.01000*%
%ADD13C,0.00787*%
%ADD14C,0.00394*%
G36*
X125717Y241501D02*
X125746Y241495D01*
X125781Y241484D01*
X125810Y241455D01*
X125834Y241419D01*
Y241373D01*
Y241337D01*
X125822Y241302D01*
X124874Y238518D01*
X124869Y238512D01*
X124863Y238489D01*
X124845Y238453D01*
X124816Y238418D01*
X124781Y238383D01*
X124734Y238348D01*
X124670Y238325D01*
X124599Y238319D01*
X124594D01*
X124570Y238325D01*
X124541Y238331D01*
X124506Y238342D01*
X124477Y238366D01*
X124459Y238401D01*
X124453Y238453D01*
Y238483D01*
X124465Y238518D01*
X125272Y240881D01*
X124880Y240542D01*
X124874D01*
X124869Y240530D01*
X124833Y240513D01*
X124781Y240495D01*
X124716Y240483D01*
X124711D01*
X124687Y240489D01*
X124658Y240495D01*
X124629Y240507D01*
X124599Y240530D01*
X124576Y240565D01*
Y240618D01*
Y240647D01*
X124588Y240682D01*
Y240688D01*
X124594Y240694D01*
X124611Y240729D01*
X124640Y240776D01*
X124693Y240823D01*
X125500Y241431D01*
X125506Y241437D01*
X125518Y241443D01*
X125535Y241455D01*
X125559Y241472D01*
X125623Y241495D01*
X125652Y241501D01*
X125688Y241507D01*
X125699D01*
X125717Y241501D01*
D02*
G37*
G36*
X123529D02*
X123587Y241495D01*
X123663Y241478D01*
X123745Y241449D01*
X123833Y241408D01*
X123909Y241349D01*
X123974Y241267D01*
X123979Y241256D01*
X123997Y241226D01*
X124020Y241174D01*
X124038Y241104D01*
X124055Y241022D01*
Y240922D01*
X124044Y240805D01*
X124032Y240747D01*
X124014Y240682D01*
X123488Y239138D01*
Y239132D01*
X123482Y239120D01*
X123476Y239103D01*
X123465Y239079D01*
X123435Y239021D01*
X123394Y238939D01*
X123330Y238845D01*
X123254Y238752D01*
X123160Y238652D01*
X123049Y238559D01*
X123043D01*
X123037Y238547D01*
X123020Y238535D01*
X122996Y238524D01*
X122932Y238483D01*
X122844Y238442D01*
X122745Y238395D01*
X122634Y238354D01*
X122511Y238331D01*
X122382Y238319D01*
X121452D01*
X121429Y238325D01*
X121399Y238331D01*
X121364Y238342D01*
X121335Y238366D01*
X121318Y238401D01*
X121312Y238453D01*
Y238483D01*
X121323Y238518D01*
X122271Y241302D01*
X122277Y241314D01*
X122283Y241337D01*
X122306Y241367D01*
X122330Y241408D01*
X122371Y241443D01*
X122417Y241478D01*
X122470Y241501D01*
X122540Y241507D01*
X123505D01*
X123529Y241501D01*
D02*
G37*
G36*
X58239Y248004D02*
X58268Y247998D01*
X58304Y247986D01*
X58333Y247957D01*
X58356Y247922D01*
Y247875D01*
Y247840D01*
X58345Y247805D01*
X57660Y245792D01*
Y245786D01*
X57654Y245775D01*
X57643Y245751D01*
X57631Y245722D01*
X57619Y245693D01*
X57596Y245652D01*
X57543Y245552D01*
X57473Y245447D01*
X57385Y245330D01*
X57274Y245213D01*
X57210Y245155D01*
X57139Y245102D01*
X57134Y245096D01*
X57122Y245090D01*
X57104Y245079D01*
X57075Y245061D01*
X57040Y245038D01*
X56999Y245014D01*
X56900Y244962D01*
X56783Y244909D01*
X56648Y244868D01*
X56502Y244833D01*
X56426Y244827D01*
X56350Y244821D01*
X56309D01*
X56285Y244827D01*
X56215Y244839D01*
X56127Y244856D01*
X56028Y244892D01*
X55928Y244938D01*
X55841Y245008D01*
X55794Y245055D01*
X55759Y245102D01*
Y245108D01*
X55753Y245114D01*
X55741Y245131D01*
X55730Y245155D01*
X55706Y245213D01*
X55683Y245295D01*
X55665Y245395D01*
X55659Y245512D01*
Y245582D01*
X55671Y245646D01*
X55683Y245716D01*
X55706Y245792D01*
X56391Y247805D01*
X56397Y247816D01*
X56402Y247840D01*
X56426Y247869D01*
X56449Y247910D01*
X56490Y247945D01*
X56537Y247980D01*
X56595Y248004D01*
X56666Y248009D01*
X56677D01*
X56695Y248004D01*
X56724Y247998D01*
X56759Y247986D01*
X56788Y247957D01*
X56812Y247922D01*
Y247875D01*
Y247840D01*
X56800Y247805D01*
X56116Y245792D01*
X56110Y245781D01*
X56104Y245751D01*
X56098Y245710D01*
X56086Y245652D01*
Y245588D01*
X56092Y245523D01*
X56110Y245453D01*
X56139Y245389D01*
X56145Y245383D01*
X56163Y245365D01*
X56186Y245336D01*
X56227Y245307D01*
X56274Y245278D01*
X56332Y245248D01*
X56402Y245231D01*
X56484Y245225D01*
X56525D01*
X56572Y245237D01*
X56630Y245248D01*
X56701Y245266D01*
X56783Y245295D01*
X56865Y245336D01*
X56946Y245389D01*
X56958Y245395D01*
X56981Y245418D01*
X57023Y245453D01*
X57069Y245500D01*
X57116Y245558D01*
X57169Y245629D01*
X57215Y245705D01*
X57251Y245792D01*
X57935Y247805D01*
X57941Y247816D01*
X57947Y247840D01*
X57970Y247869D01*
X57994Y247910D01*
X58034Y247945D01*
X58081Y247980D01*
X58140Y248004D01*
X58210Y248009D01*
X58222D01*
X58239Y248004D01*
D02*
G37*
G36*
X59866D02*
X59924Y247998D01*
X60000Y247980D01*
X60082Y247951D01*
X60164Y247904D01*
X60246Y247846D01*
X60310Y247764D01*
X60316Y247752D01*
X60334Y247723D01*
X60357Y247670D01*
X60374Y247600D01*
X60392Y247518D01*
Y247419D01*
X60380Y247307D01*
X60369Y247249D01*
X60351Y247185D01*
X60345Y247173D01*
X60334Y247144D01*
X60316Y247103D01*
X60287Y247038D01*
X60246Y246968D01*
X60193Y246892D01*
X60123Y246804D01*
X60047Y246717D01*
X58573Y245225D01*
X59491D01*
X59509Y245219D01*
X59538Y245213D01*
X59573Y245201D01*
X59602Y245172D01*
X59626Y245137D01*
Y245090D01*
Y245055D01*
X59614Y245020D01*
X59608Y245014D01*
X59602Y244991D01*
X59585Y244956D01*
X59556Y244921D01*
X59520Y244886D01*
X59474Y244850D01*
X59409Y244827D01*
X59339Y244821D01*
X58099D01*
X58075Y244827D01*
X58046Y244833D01*
X58011Y244845D01*
X57982Y244868D01*
X57964Y244903D01*
X57959Y244956D01*
Y244985D01*
X57970Y245020D01*
X57976Y245032D01*
X57988Y245055D01*
X58011Y245090D01*
X58040Y245131D01*
X59795Y246956D01*
X59801Y246962D01*
X59813Y246974D01*
X59830Y246997D01*
X59854Y247027D01*
X59907Y247103D01*
X59930Y247144D01*
X59948Y247185D01*
Y247190D01*
X59953Y247214D01*
X59959Y247249D01*
X59965Y247290D01*
Y247337D01*
Y247384D01*
X59948Y247436D01*
X59924Y247483D01*
X59918Y247489D01*
X59907Y247501D01*
X59889Y247524D01*
X59860Y247547D01*
X59825Y247565D01*
X59784Y247588D01*
X59731Y247600D01*
X59672Y247606D01*
X59661D01*
X59632Y247600D01*
X59579Y247588D01*
X59515Y247559D01*
X59433Y247518D01*
X59386Y247489D01*
X59333Y247448D01*
X59281Y247407D01*
X59228Y247360D01*
X59169Y247302D01*
X59105Y247237D01*
X59099Y247232D01*
X59088Y247220D01*
X59070Y247208D01*
X59047Y247190D01*
X58982Y247155D01*
X58941Y247144D01*
X58894Y247138D01*
X58889D01*
X58865Y247144D01*
X58836Y247150D01*
X58801Y247161D01*
X58772Y247190D01*
X58754Y247226D01*
X58748Y247272D01*
Y247307D01*
X58760Y247343D01*
X58766Y247348D01*
X58772Y247366D01*
X58783Y247389D01*
X58795Y247407D01*
X58801Y247413D01*
X58818Y247430D01*
X58848Y247465D01*
X58883Y247501D01*
X58930Y247547D01*
X58982Y247600D01*
X59047Y247653D01*
X59117Y247711D01*
X59269Y247816D01*
X59351Y247869D01*
X59439Y247916D01*
X59532Y247957D01*
X59620Y247986D01*
X59714Y248004D01*
X59807Y248009D01*
X59842D01*
X59866Y248004D01*
D02*
G37*
G36*
X153551Y224344D02*
X153580Y224338D01*
X153616Y224326D01*
X153645Y224297D01*
X153668Y224262D01*
Y224215D01*
Y224180D01*
X153656Y224145D01*
X152709Y221360D01*
X152703Y221355D01*
X152697Y221331D01*
X152680Y221296D01*
X152650Y221261D01*
X152615Y221226D01*
X152568Y221191D01*
X152504Y221167D01*
X152434Y221161D01*
X152428D01*
X152405Y221167D01*
X152375Y221173D01*
X152340Y221185D01*
X152311Y221208D01*
X152294Y221243D01*
X152288Y221296D01*
Y221325D01*
X152299Y221360D01*
X153107Y223724D01*
X152715Y223384D01*
X152709D01*
X152703Y223373D01*
X152668Y223355D01*
X152615Y223338D01*
X152551Y223326D01*
X152545D01*
X152522Y223332D01*
X152492Y223338D01*
X152463Y223349D01*
X152434Y223373D01*
X152410Y223408D01*
Y223461D01*
Y223490D01*
X152422Y223525D01*
Y223531D01*
X152428Y223536D01*
X152446Y223572D01*
X152475Y223618D01*
X152527Y223665D01*
X153335Y224274D01*
X153341Y224279D01*
X153352Y224285D01*
X153370Y224297D01*
X153393Y224315D01*
X153458Y224338D01*
X153487Y224344D01*
X153522Y224350D01*
X153534D01*
X153551Y224344D01*
D02*
G37*
G36*
X150726D02*
X150755Y224338D01*
X150790Y224326D01*
X150819Y224297D01*
X150843Y224262D01*
Y224215D01*
Y224180D01*
X150831Y224145D01*
X149953Y221565D01*
X150995D01*
X151012Y221559D01*
X151048Y221553D01*
X151077Y221542D01*
X151106Y221512D01*
X151129Y221477D01*
X151135Y221430D01*
Y221395D01*
X151123Y221360D01*
X151118Y221355D01*
X151112Y221331D01*
X151088Y221296D01*
X151065Y221261D01*
X151024Y221226D01*
X150977Y221191D01*
X150913Y221167D01*
X150843Y221161D01*
X149602D01*
X149579Y221167D01*
X149550Y221173D01*
X149515Y221185D01*
X149486Y221208D01*
X149468Y221243D01*
X149462Y221296D01*
Y221325D01*
X149474Y221360D01*
X150422Y224145D01*
X150427Y224157D01*
X150433Y224180D01*
X150457Y224209D01*
X150480Y224250D01*
X150521Y224285D01*
X150568Y224320D01*
X150626Y224344D01*
X150697Y224350D01*
X150708D01*
X150726Y224344D01*
D02*
G37*
G36*
X176272Y67652D02*
X176341Y67640D01*
X176399Y67617D01*
X176456Y67559D01*
X176502Y67490D01*
X176514Y67398D01*
Y67329D01*
X176491Y67260D01*
X176283Y66649D01*
X176272Y66637D01*
X176260Y66591D01*
X176214Y66522D01*
X176168Y66452D01*
X176087Y66383D01*
X175995Y66314D01*
X175880Y66268D01*
X175741Y66256D01*
X175730D01*
X175684Y66268D01*
X175626Y66280D01*
X175557Y66303D01*
X175499Y66349D01*
X175465Y66418D01*
X175453Y66522D01*
Y66579D01*
X175476Y66649D01*
X175545Y66868D01*
X174519D01*
X173412Y63605D01*
X173401Y63593D01*
X173389Y63547D01*
X173355Y63478D01*
X173297Y63409D01*
X173228Y63339D01*
X173136Y63270D01*
X173009Y63224D01*
X172870Y63213D01*
X172859D01*
X172813Y63224D01*
X172755Y63236D01*
X172686Y63259D01*
X172628Y63305D01*
X172594Y63374D01*
X172582Y63478D01*
Y63535D01*
X172605Y63605D01*
X173851Y67260D01*
X173862Y67283D01*
X173873Y67329D01*
X173920Y67387D01*
X173966Y67467D01*
X174047Y67536D01*
X174139Y67606D01*
X174242Y67652D01*
X174381Y67663D01*
X176237D01*
X176272Y67652D01*
D02*
G37*
G36*
X168166D02*
X168247Y67617D01*
X168316Y67548D01*
X168328Y67525D01*
X168351Y67467D01*
X168374Y67387D01*
X168362Y67329D01*
X168351Y67271D01*
Y67260D01*
X168339Y67237D01*
X168305Y67167D01*
X166172Y63547D01*
X166160Y63535D01*
X166137Y63501D01*
X166091Y63443D01*
X166033Y63386D01*
X165964Y63316D01*
X165872Y63270D01*
X165768Y63224D01*
X165653Y63213D01*
X165606D01*
X165560Y63224D01*
X165514Y63247D01*
X165457Y63282D01*
X165410Y63328D01*
X165376Y63397D01*
X165364Y63489D01*
X165376Y65080D01*
X164315Y63501D01*
X164304Y63489D01*
X164281Y63455D01*
X164234Y63409D01*
X164177Y63362D01*
X164096Y63305D01*
X164015Y63259D01*
X163923Y63224D01*
X163819Y63213D01*
X163808D01*
X163773Y63224D01*
X163727Y63236D01*
X163670Y63259D01*
X163612Y63293D01*
X163577Y63362D01*
X163543Y63443D01*
Y63559D01*
X163865Y67167D01*
Y67179D01*
Y67190D01*
X163877Y67225D01*
X163889Y67271D01*
X163900Y67283D01*
X163912Y67329D01*
X163958Y67398D01*
X164004Y67467D01*
X164084Y67536D01*
X164177Y67606D01*
X164281Y67652D01*
X164419Y67663D01*
X164465D01*
X164523Y67652D01*
X164580Y67629D01*
X164638Y67594D01*
X164684Y67548D01*
X164707Y67490D01*
X164719Y67398D01*
X164419Y64723D01*
X165364Y66176D01*
X165376Y66187D01*
X165399Y66222D01*
X165434Y66256D01*
X165491Y66314D01*
X165560Y66360D01*
X165641Y66395D01*
X165733Y66430D01*
X165837Y66441D01*
X165883D01*
X165929Y66430D01*
X165975Y66406D01*
X166033Y66372D01*
X166079Y66326D01*
X166114Y66268D01*
X166125Y66176D01*
X166091Y64723D01*
X167590Y67352D01*
X167601Y67363D01*
X167624Y67398D01*
X167659Y67456D01*
X167717Y67513D01*
X167786Y67559D01*
X167878Y67617D01*
X167970Y67652D01*
X168074Y67663D01*
X168097D01*
X168166Y67652D01*
D02*
G37*
G36*
X171360D02*
X171475Y67640D01*
X171625Y67606D01*
X171787Y67548D01*
X171959Y67467D01*
X172109Y67352D01*
X172236Y67190D01*
X172248Y67167D01*
X172282Y67110D01*
X172328Y67006D01*
X172363Y66868D01*
X172398Y66706D01*
Y66510D01*
X172375Y66280D01*
X172352Y66164D01*
X172317Y66037D01*
X171983Y65034D01*
X169538D01*
X169365Y64516D01*
Y64504D01*
X169354Y64481D01*
Y64435D01*
X169342Y64389D01*
Y64273D01*
X169365Y64204D01*
X169388Y64147D01*
X169411Y64123D01*
X169469Y64077D01*
X169561Y64031D01*
X169631Y64020D01*
X169700Y64008D01*
X171245D01*
X171279Y63997D01*
X171349Y63985D01*
X171406Y63962D01*
X171464Y63904D01*
X171510Y63835D01*
X171521Y63743D01*
Y63674D01*
X171498Y63605D01*
X171487Y63593D01*
X171475Y63547D01*
X171429Y63478D01*
X171383Y63409D01*
X171302Y63339D01*
X171210Y63270D01*
X171083Y63224D01*
X170945Y63213D01*
X169400D01*
X169331Y63224D01*
X169238Y63236D01*
X169112Y63259D01*
X168985Y63305D01*
X168846Y63374D01*
X168720Y63455D01*
X168616Y63582D01*
X168604Y63605D01*
X168581Y63651D01*
X168547Y63731D01*
X168524Y63847D01*
X168500Y63974D01*
X168489Y64135D01*
X168512Y64319D01*
X168558Y64516D01*
X169077Y66037D01*
Y66049D01*
X169089Y66072D01*
X169100Y66107D01*
X169123Y66153D01*
X169181Y66280D01*
X169273Y66441D01*
X169388Y66614D01*
X169538Y66810D01*
X169723Y67006D01*
X169942Y67190D01*
X169953D01*
X169976Y67213D01*
X169999Y67237D01*
X170057Y67260D01*
X170172Y67340D01*
X170345Y67433D01*
X170541Y67513D01*
X170760Y67594D01*
X171002Y67640D01*
X171245Y67663D01*
X171314D01*
X171360Y67652D01*
D02*
G37*
G36*
X161398D02*
X161513Y67640D01*
X161663Y67606D01*
X161825Y67548D01*
X161986Y67467D01*
X162147Y67352D01*
X162274Y67190D01*
X162286Y67167D01*
X162320Y67110D01*
X162367Y67006D01*
X162401Y66868D01*
X162436Y66706D01*
Y66510D01*
X162413Y66280D01*
X162390Y66164D01*
X162355Y66037D01*
X161940Y64827D01*
Y64815D01*
X161928Y64792D01*
X161917Y64758D01*
X161894Y64711D01*
X161836Y64596D01*
X161744Y64435D01*
X161629Y64250D01*
X161479Y64066D01*
X161294Y63870D01*
X161075Y63685D01*
X161064D01*
X161052Y63662D01*
X161018Y63639D01*
X160971Y63616D01*
X160845Y63535D01*
X160672Y63455D01*
X160476Y63362D01*
X160257Y63282D01*
X160026Y63236D01*
X159772Y63213D01*
X159703D01*
X159657Y63224D01*
X159542Y63236D01*
X159392Y63270D01*
X159230Y63328D01*
X159069Y63409D01*
X158908Y63524D01*
X158781Y63674D01*
X158769Y63697D01*
X158735Y63754D01*
X158700Y63858D01*
X158654Y63997D01*
X158619Y64158D01*
Y64366D01*
X158642Y64585D01*
X158666Y64700D01*
X158700Y64827D01*
X159115Y66037D01*
Y66049D01*
X159127Y66072D01*
X159138Y66107D01*
X159161Y66153D01*
X159219Y66280D01*
X159311Y66441D01*
X159426Y66614D01*
X159576Y66810D01*
X159761Y67006D01*
X159980Y67190D01*
X159991D01*
X160014Y67213D01*
X160038Y67237D01*
X160095Y67260D01*
X160211Y67340D01*
X160383Y67433D01*
X160579Y67513D01*
X160799Y67594D01*
X161041Y67640D01*
X161283Y67663D01*
X161352D01*
X161398Y67652D01*
D02*
G37*
G36*
X157363Y69485D02*
X157432D01*
X157512Y69462D01*
X157685Y69427D01*
X157881Y69358D01*
X158077Y69254D01*
X158170Y69197D01*
X158250Y69116D01*
X158343Y69035D01*
X158412Y68932D01*
Y68920D01*
X158423Y68908D01*
X158446Y68874D01*
X158469Y68828D01*
X158516Y68712D01*
X158562Y68551D01*
X158596Y68355D01*
X158608Y68124D01*
X158596Y67998D01*
X158585Y67859D01*
X158550Y67721D01*
X158504Y67571D01*
Y67559D01*
X158493Y67536D01*
X158469Y67490D01*
X158446Y67433D01*
X158412Y67352D01*
X158377Y67271D01*
X158273Y67075D01*
X158135Y66856D01*
X157951Y66625D01*
X157743Y66395D01*
X157489Y66176D01*
X157478D01*
X157455Y66153D01*
X157420Y66130D01*
X157363Y66095D01*
X157293Y66049D01*
X157224Y66003D01*
X157132Y65957D01*
X157028Y65911D01*
X156798Y65818D01*
X156532Y65726D01*
X156233Y65668D01*
X156083Y65657D01*
X155921Y65645D01*
X154803D01*
X154111Y63605D01*
X154100Y63593D01*
X154088Y63547D01*
X154053Y63478D01*
X153996Y63409D01*
X153927Y63339D01*
X153834Y63270D01*
X153708Y63224D01*
X153569Y63213D01*
X153558D01*
X153512Y63224D01*
X153454Y63236D01*
X153385Y63259D01*
X153327Y63305D01*
X153293Y63374D01*
X153281Y63478D01*
Y63535D01*
X153304Y63605D01*
X155172Y69093D01*
X155183Y69116D01*
X155195Y69162D01*
X155241Y69220D01*
X155287Y69300D01*
X155368Y69370D01*
X155460Y69439D01*
X155564Y69485D01*
X155702Y69497D01*
X157316D01*
X157363Y69485D01*
D02*
G37*
G36*
X180810Y12041D02*
X180878Y12028D01*
X180958Y12001D01*
X181026Y11934D01*
X181079Y11853D01*
Y11745D01*
Y11665D01*
X181053Y11584D01*
X178874Y5182D01*
X178860Y5168D01*
X178847Y5114D01*
X178806Y5034D01*
X178739Y4953D01*
X178658Y4872D01*
X178551Y4792D01*
X178403Y4738D01*
X178242Y4724D01*
X176439D01*
X176358Y4738D01*
X176251Y4751D01*
X176103Y4778D01*
X175955Y4832D01*
X175794Y4913D01*
X175646Y5007D01*
X175525Y5155D01*
X175511Y5182D01*
X175484Y5235D01*
X175444Y5330D01*
X175417Y5464D01*
X175390Y5612D01*
X175377Y5800D01*
X175404Y6016D01*
X175457Y6244D01*
X176184Y8383D01*
X176197Y8396D01*
X176211Y8450D01*
X176251Y8531D01*
X176305Y8638D01*
X176358Y8759D01*
X176439Y8880D01*
X176547Y9015D01*
X176654Y9149D01*
X176668Y9163D01*
X176681Y9176D01*
X176722Y9217D01*
X176776Y9270D01*
X176924Y9392D01*
X177112Y9539D01*
X177340Y9674D01*
X177609Y9795D01*
X177757Y9849D01*
X177905Y9889D01*
X178067Y9903D01*
X178228Y9916D01*
X179546D01*
X180111Y11584D01*
X180124Y11611D01*
X180138Y11665D01*
X180192Y11732D01*
X180246Y11826D01*
X180340Y11907D01*
X180447Y11987D01*
X180582Y12041D01*
X180743Y12055D01*
X180770D01*
X180810Y12041D01*
D02*
G37*
G36*
X174085Y9889D02*
X174220Y9862D01*
X174381Y9809D01*
X174529Y9728D01*
X174677Y9607D01*
X174798Y9459D01*
X174812Y9445D01*
X174839Y9378D01*
X174879Y9284D01*
X174919Y9163D01*
X174946Y9002D01*
X174960Y8813D01*
X174933Y8612D01*
X174879Y8383D01*
X173790Y5182D01*
X173776Y5168D01*
X173763Y5114D01*
X173722Y5034D01*
X173655Y4953D01*
X173574Y4872D01*
X173467Y4792D01*
X173319Y4738D01*
X173157Y4724D01*
X173144D01*
X173090Y4738D01*
X173023Y4751D01*
X172942Y4778D01*
X172875Y4832D01*
X172835Y4913D01*
X172821Y5034D01*
Y5101D01*
X172848Y5182D01*
X173938Y8383D01*
Y8396D01*
X173951Y8423D01*
X173965Y8477D01*
Y8531D01*
Y8679D01*
X173951Y8746D01*
X173911Y8813D01*
Y8827D01*
X173884Y8840D01*
X173830Y8907D01*
X173709Y8961D01*
X173642Y8975D01*
X173547Y8988D01*
X172243D01*
X170952Y5182D01*
X170938Y5168D01*
X170925Y5114D01*
X170884Y5034D01*
X170817Y4953D01*
X170736Y4872D01*
X170629Y4792D01*
X170481Y4738D01*
X170319Y4724D01*
X170306D01*
X170252Y4738D01*
X170185Y4751D01*
X170104Y4778D01*
X170037Y4832D01*
X169997Y4913D01*
X169983Y5034D01*
Y5101D01*
X170010Y5182D01*
X171463Y9445D01*
X171476Y9472D01*
X171490Y9526D01*
X171544Y9593D01*
X171597Y9687D01*
X171691Y9768D01*
X171799Y9849D01*
X171920Y9903D01*
X172081Y9916D01*
X173965D01*
X174085Y9889D01*
D02*
G37*
G36*
X170629Y12041D02*
X170696Y12028D01*
X170777Y12001D01*
X170844Y11934D01*
X170898Y11853D01*
Y11745D01*
Y11665D01*
X170871Y11584D01*
X170858Y11570D01*
X170844Y11517D01*
X170804Y11436D01*
X170736Y11355D01*
X170656Y11275D01*
X170548Y11194D01*
X170400Y11140D01*
X170239Y11127D01*
X168046D01*
X167966Y11113D01*
X167872Y11086D01*
X167751Y11059D01*
X167630Y11006D01*
X167495Y10938D01*
X167347Y10844D01*
X167334Y10831D01*
X167293Y10790D01*
X167226Y10737D01*
X167145Y10656D01*
X167051Y10548D01*
X166971Y10441D01*
X166903Y10306D01*
X166836Y10158D01*
X165626Y6607D01*
Y6594D01*
X165612Y6540D01*
X165599Y6459D01*
X165585Y6365D01*
X165572Y6258D01*
X165585Y6150D01*
X165612Y6029D01*
X165666Y5922D01*
X165679Y5908D01*
X165706Y5881D01*
X165746Y5841D01*
X165814Y5787D01*
X165894Y5733D01*
X165989Y5693D01*
X166110Y5666D01*
X166244Y5652D01*
X167912D01*
X168800Y8275D01*
X168194D01*
X168141Y8289D01*
X168073Y8302D01*
X167993Y8329D01*
X167925Y8383D01*
X167885Y8463D01*
X167872Y8585D01*
Y8652D01*
X167898Y8732D01*
X167912Y8759D01*
X167925Y8813D01*
X167979Y8880D01*
X168033Y8975D01*
X168127Y9055D01*
X168235Y9136D01*
X168356Y9190D01*
X168517Y9203D01*
X169607D01*
X169647Y9190D01*
X169728Y9176D01*
X169808Y9149D01*
X169876Y9082D01*
X169916Y9002D01*
X169929Y8894D01*
Y8813D01*
X169903Y8732D01*
X168692Y5182D01*
X168679Y5168D01*
X168665Y5114D01*
X168625Y5034D01*
X168558Y4953D01*
X168477Y4872D01*
X168369Y4792D01*
X168221Y4738D01*
X168060Y4724D01*
X165854D01*
X165800Y4738D01*
X165666Y4751D01*
X165491Y4792D01*
X165303Y4859D01*
X165114Y4953D01*
X164926Y5088D01*
X164778Y5262D01*
X164765Y5289D01*
X164724Y5357D01*
X164684Y5478D01*
X164630Y5639D01*
X164590Y5827D01*
Y6069D01*
X164617Y6325D01*
X164644Y6459D01*
X164684Y6607D01*
X165894Y10158D01*
Y10172D01*
X165908Y10199D01*
X165921Y10239D01*
X165948Y10293D01*
X166016Y10441D01*
X166123Y10629D01*
X166258Y10831D01*
X166432Y11059D01*
X166648Y11288D01*
X166903Y11503D01*
X166917D01*
X166944Y11530D01*
X166971Y11557D01*
X167038Y11584D01*
X167172Y11678D01*
X167374Y11786D01*
X167603Y11880D01*
X167858Y11974D01*
X168141Y12028D01*
X168423Y12055D01*
X170589D01*
X170629Y12041D01*
D02*
G37*
G36*
X155524D02*
X155604Y12028D01*
X155685Y12001D01*
X155752Y11934D01*
X155792Y11853D01*
X155806Y11745D01*
Y11665D01*
X155779Y11584D01*
Y11570D01*
X155766Y11530D01*
X155712Y11436D01*
X151421Y5061D01*
X151408Y5047D01*
X151381Y5007D01*
X151327Y4953D01*
X151260Y4899D01*
X151166Y4832D01*
X151072Y4778D01*
X150951Y4738D01*
X150830Y4724D01*
X150776D01*
X150722Y4738D01*
X150668Y4765D01*
X150601Y4805D01*
X150547Y4872D01*
X150507Y4953D01*
X150493Y5061D01*
X150547Y11436D01*
Y11449D01*
Y11476D01*
X150560Y11530D01*
X150574Y11584D01*
X150587Y11611D01*
X150601Y11665D01*
X150655Y11732D01*
X150708Y11826D01*
X150803Y11907D01*
X150910Y11987D01*
X151031Y12041D01*
X151193Y12055D01*
X151246D01*
X151300Y12041D01*
X151367Y12014D01*
X151435Y11974D01*
X151488Y11920D01*
X151529Y11840D01*
X151542Y11732D01*
X151421Y6419D01*
X154918Y11732D01*
X154932Y11745D01*
X154959Y11786D01*
X154999Y11840D01*
X155066Y11893D01*
X155133Y11947D01*
X155228Y12001D01*
X155335Y12041D01*
X155456Y12055D01*
X155483D01*
X155524Y12041D01*
D02*
G37*
G36*
X121695D02*
X121776Y12028D01*
X121856Y12001D01*
X121924Y11934D01*
X121964Y11853D01*
X121977Y11745D01*
Y11665D01*
X121950Y11584D01*
Y11570D01*
X121937Y11530D01*
X121883Y11436D01*
X117593Y5061D01*
X117579Y5047D01*
X117552Y5007D01*
X117499Y4953D01*
X117431Y4899D01*
X117337Y4832D01*
X117243Y4778D01*
X117122Y4738D01*
X117001Y4724D01*
X116947D01*
X116893Y4738D01*
X116840Y4765D01*
X116772Y4805D01*
X116718Y4872D01*
X116678Y4953D01*
X116665Y5061D01*
X116718Y11436D01*
Y11449D01*
Y11476D01*
X116732Y11530D01*
X116745Y11584D01*
X116759Y11611D01*
X116772Y11665D01*
X116826Y11732D01*
X116880Y11826D01*
X116974Y11907D01*
X117082Y11987D01*
X117203Y12041D01*
X117364Y12055D01*
X117418D01*
X117472Y12041D01*
X117539Y12014D01*
X117606Y11974D01*
X117660Y11920D01*
X117700Y11840D01*
X117714Y11732D01*
X117593Y6419D01*
X121090Y11732D01*
X121103Y11745D01*
X121130Y11786D01*
X121170Y11840D01*
X121238Y11893D01*
X121305Y11947D01*
X121399Y12001D01*
X121507Y12041D01*
X121628Y12055D01*
X121655D01*
X121695Y12041D01*
D02*
G37*
G36*
X102010D02*
X102091Y12028D01*
X102171Y12001D01*
X102239Y11934D01*
X102279Y11853D01*
X102292Y11745D01*
Y11665D01*
X102266Y11584D01*
Y11570D01*
X102252Y11530D01*
X102198Y11436D01*
X97908Y5061D01*
X97894Y5047D01*
X97867Y5007D01*
X97813Y4953D01*
X97746Y4899D01*
X97652Y4832D01*
X97558Y4778D01*
X97437Y4738D01*
X97316Y4724D01*
X97262D01*
X97208Y4738D01*
X97154Y4765D01*
X97087Y4805D01*
X97033Y4872D01*
X96993Y4953D01*
X96980Y5061D01*
X97033Y11436D01*
Y11449D01*
Y11476D01*
X97047Y11530D01*
X97060Y11584D01*
X97074Y11611D01*
X97087Y11665D01*
X97141Y11732D01*
X97195Y11826D01*
X97289Y11907D01*
X97397Y11987D01*
X97518Y12041D01*
X97679Y12055D01*
X97733D01*
X97787Y12041D01*
X97854Y12014D01*
X97921Y11974D01*
X97975Y11920D01*
X98015Y11840D01*
X98029Y11732D01*
X97908Y6419D01*
X101405Y11732D01*
X101418Y11745D01*
X101445Y11786D01*
X101485Y11840D01*
X101553Y11893D01*
X101620Y11947D01*
X101714Y12001D01*
X101822Y12041D01*
X101943Y12055D01*
X101970D01*
X102010Y12041D01*
D02*
G37*
G36*
X82190D02*
X82271D01*
X82365Y12014D01*
X82567Y11974D01*
X82796Y11893D01*
X83024Y11772D01*
X83132Y11705D01*
X83226Y11611D01*
X83334Y11517D01*
X83414Y11396D01*
Y11382D01*
X83428Y11369D01*
X83455Y11328D01*
X83482Y11275D01*
X83535Y11140D01*
X83589Y10952D01*
X83630Y10723D01*
X83643Y10454D01*
X83630Y10306D01*
X83616Y10145D01*
X83576Y9983D01*
X83522Y9809D01*
Y9795D01*
X83495Y9741D01*
X83468Y9661D01*
X83414Y9553D01*
X83360Y9432D01*
X83280Y9297D01*
X83186Y9136D01*
X83078Y8975D01*
X82957Y8800D01*
X82809Y8625D01*
X82648Y8463D01*
X82473Y8289D01*
X82271Y8141D01*
X82056Y7993D01*
X81814Y7872D01*
X81558Y7764D01*
X81975Y5384D01*
Y5370D01*
Y5316D01*
Y5249D01*
X81948Y5182D01*
Y5168D01*
X81935Y5155D01*
X81894Y5074D01*
X81814Y4967D01*
X81760Y4913D01*
X81693Y4859D01*
X81679D01*
X81666Y4832D01*
X81572Y4792D01*
X81451Y4751D01*
X81316Y4724D01*
X81276D01*
X81222Y4738D01*
X81168Y4751D01*
X81101Y4792D01*
X81047Y4832D01*
X81007Y4899D01*
X80980Y4980D01*
X80576Y7562D01*
X79204D01*
X78398Y5182D01*
X78384Y5168D01*
X78371Y5114D01*
X78330Y5034D01*
X78263Y4953D01*
X78182Y4872D01*
X78075Y4792D01*
X77927Y4738D01*
X77765Y4724D01*
X77752D01*
X77698Y4738D01*
X77631Y4751D01*
X77550Y4778D01*
X77483Y4832D01*
X77443Y4913D01*
X77429Y5034D01*
Y5101D01*
X77456Y5182D01*
X79635Y11584D01*
X79648Y11611D01*
X79662Y11665D01*
X79716Y11732D01*
X79769Y11826D01*
X79864Y11907D01*
X79971Y11987D01*
X80092Y12041D01*
X80254Y12055D01*
X82137D01*
X82190Y12041D01*
D02*
G37*
G36*
X63823D02*
X63891Y12028D01*
X63971Y12001D01*
X64039Y11934D01*
X64092Y11853D01*
Y11745D01*
Y11665D01*
X64065Y11584D01*
X64052Y11570D01*
X64039Y11517D01*
X63998Y11436D01*
X63931Y11355D01*
X63850Y11275D01*
X63743Y11194D01*
X63595Y11140D01*
X63433Y11127D01*
X61241D01*
X61160Y11113D01*
X61066Y11086D01*
X60945Y11059D01*
X60824Y11006D01*
X60690Y10938D01*
X60542Y10844D01*
X60528Y10831D01*
X60488Y10790D01*
X60421Y10737D01*
X60340Y10656D01*
X60246Y10548D01*
X60165Y10441D01*
X60098Y10306D01*
X60031Y10158D01*
X58820Y6607D01*
Y6594D01*
X58807Y6540D01*
X58793Y6459D01*
X58780Y6365D01*
X58766Y6258D01*
X58780Y6150D01*
X58807Y6029D01*
X58860Y5922D01*
X58874Y5908D01*
X58901Y5881D01*
X58941Y5841D01*
X59008Y5787D01*
X59089Y5733D01*
X59183Y5693D01*
X59304Y5666D01*
X59439Y5652D01*
X61107D01*
X61994Y8275D01*
X61389D01*
X61335Y8289D01*
X61268Y8302D01*
X61187Y8329D01*
X61120Y8383D01*
X61080Y8463D01*
X61066Y8585D01*
Y8652D01*
X61093Y8732D01*
X61107Y8759D01*
X61120Y8813D01*
X61174Y8880D01*
X61228Y8975D01*
X61322Y9055D01*
X61429Y9136D01*
X61550Y9190D01*
X61712Y9203D01*
X62801D01*
X62842Y9190D01*
X62922Y9176D01*
X63003Y9149D01*
X63070Y9082D01*
X63111Y9002D01*
X63124Y8894D01*
Y8813D01*
X63097Y8732D01*
X61887Y5182D01*
X61873Y5168D01*
X61860Y5114D01*
X61819Y5034D01*
X61752Y4953D01*
X61672Y4872D01*
X61564Y4792D01*
X61416Y4738D01*
X61255Y4724D01*
X59049D01*
X58995Y4738D01*
X58860Y4751D01*
X58686Y4792D01*
X58497Y4859D01*
X58309Y4953D01*
X58121Y5088D01*
X57973Y5262D01*
X57959Y5289D01*
X57919Y5357D01*
X57879Y5478D01*
X57825Y5639D01*
X57784Y5827D01*
Y6069D01*
X57811Y6325D01*
X57838Y6459D01*
X57879Y6607D01*
X59089Y10158D01*
Y10172D01*
X59102Y10199D01*
X59116Y10239D01*
X59143Y10293D01*
X59210Y10441D01*
X59318Y10629D01*
X59452Y10831D01*
X59627Y11059D01*
X59842Y11288D01*
X60098Y11503D01*
X60111D01*
X60138Y11530D01*
X60165Y11557D01*
X60232Y11584D01*
X60367Y11678D01*
X60569Y11786D01*
X60797Y11880D01*
X61053Y11974D01*
X61335Y12028D01*
X61618Y12055D01*
X63783D01*
X63823Y12041D01*
D02*
G37*
G36*
X42807D02*
X42941Y12028D01*
X43116Y11987D01*
X43304Y11920D01*
X43493Y11826D01*
X43681Y11692D01*
X43829Y11503D01*
X43843Y11476D01*
X43883Y11409D01*
X43937Y11288D01*
X43977Y11127D01*
X44017Y10938D01*
Y10710D01*
X43990Y10441D01*
X43964Y10306D01*
X43923Y10158D01*
Y10145D01*
X43910Y10118D01*
X43896Y10078D01*
X43856Y10010D01*
X43789Y9849D01*
X43668Y9647D01*
X43506Y9432D01*
X43318Y9203D01*
X43076Y8975D01*
X42793Y8786D01*
X42807D01*
X42834Y8759D01*
X42874Y8732D01*
X42915Y8679D01*
X42968Y8612D01*
X43036Y8544D01*
X43103Y8450D01*
X43157Y8343D01*
X43210Y8221D01*
X43264Y8087D01*
X43291Y7939D01*
X43318Y7778D01*
Y7589D01*
X43304Y7401D01*
X43264Y7186D01*
X43197Y6957D01*
Y6944D01*
X43183Y6917D01*
X43157Y6863D01*
X43130Y6796D01*
X43103Y6729D01*
X43049Y6634D01*
X42928Y6406D01*
X42766Y6164D01*
X42565Y5895D01*
X42309Y5626D01*
X42161Y5491D01*
X42000Y5370D01*
X41986Y5357D01*
X41960Y5343D01*
X41906Y5316D01*
X41852Y5276D01*
X41771Y5222D01*
X41677Y5168D01*
X41435Y5047D01*
X41166Y4926D01*
X40857Y4832D01*
X40534Y4751D01*
X40359Y4738D01*
X40184Y4724D01*
X38382D01*
X38328Y4738D01*
X38261Y4751D01*
X38180Y4778D01*
X38113Y4832D01*
X38072Y4913D01*
X38059Y5034D01*
Y5101D01*
X38086Y5182D01*
X40265Y11584D01*
X40278Y11611D01*
X40292Y11665D01*
X40345Y11732D01*
X40399Y11826D01*
X40494Y11907D01*
X40601Y11987D01*
X40722Y12041D01*
X40883Y12055D01*
X42753D01*
X42807Y12041D01*
D02*
G37*
G36*
X25435D02*
X25516Y12028D01*
X25597Y12001D01*
X25664Y11934D01*
X25704Y11853D01*
X25718Y11745D01*
Y11665D01*
X25691Y11584D01*
Y11570D01*
X25677Y11557D01*
X25637Y11476D01*
X22046Y5101D01*
X22032Y5088D01*
X22005Y5047D01*
X21952Y4980D01*
X21898Y4913D01*
X21804Y4845D01*
X21710Y4778D01*
X21588Y4738D01*
X21454Y4724D01*
X21400D01*
X21346Y4751D01*
X21293Y4778D01*
X21225Y4819D01*
X21172Y4886D01*
X21131Y4980D01*
X21118Y5101D01*
X21225Y8221D01*
X19208Y5101D01*
X19194Y5088D01*
X19168Y5047D01*
X19114Y4980D01*
X19033Y4913D01*
X18952Y4845D01*
X18845Y4778D01*
X18724Y4738D01*
X18603Y4724D01*
X18549D01*
X18495Y4738D01*
X18428Y4765D01*
X18361Y4805D01*
X18320Y4859D01*
X18280Y4926D01*
Y5034D01*
X19033Y11476D01*
Y11490D01*
X19047Y11517D01*
X19060Y11584D01*
X19073Y11611D01*
X19087Y11665D01*
X19141Y11732D01*
X19194Y11826D01*
X19289Y11907D01*
X19396Y11987D01*
X19517Y12041D01*
X19679Y12055D01*
X19746D01*
X19800Y12041D01*
X19867Y12014D01*
X19934Y11974D01*
X19988Y11920D01*
X20028Y11840D01*
Y11732D01*
X19356Y6621D01*
X21225Y9539D01*
X21239Y9553D01*
X21266Y9593D01*
X21319Y9661D01*
X21387Y9728D01*
X21467Y9795D01*
X21575Y9862D01*
X21683Y9903D01*
X21804Y9916D01*
X21858D01*
X21911Y9903D01*
X21979Y9876D01*
X22032Y9849D01*
X22086Y9795D01*
X22127Y9714D01*
X22140Y9620D01*
X22019Y6621D01*
X24790Y11678D01*
X24803Y11692D01*
X24830Y11732D01*
X24870Y11799D01*
X24938Y11866D01*
X25018Y11934D01*
X25126Y12001D01*
X25234Y12041D01*
X25368Y12055D01*
X25395D01*
X25435Y12041D01*
D02*
G37*
G36*
X191456Y243157D02*
X191486Y243151D01*
X191521Y243139D01*
X191550Y243116D01*
X191567Y243080D01*
X191573Y243028D01*
Y242999D01*
X191562Y242964D01*
X191421Y242548D01*
X191842D01*
X191866Y242542D01*
X191895Y242536D01*
X191930Y242525D01*
X191959Y242501D01*
X191977Y242466D01*
X191983Y242414D01*
Y242384D01*
X191971Y242349D01*
X191965Y242337D01*
X191959Y242314D01*
X191936Y242285D01*
X191913Y242244D01*
X191872Y242209D01*
X191825Y242174D01*
X191772Y242150D01*
X191702Y242144D01*
X191281D01*
X191140Y241729D01*
X191135Y241717D01*
X191129Y241694D01*
X191105Y241665D01*
X191082Y241624D01*
X191041Y241589D01*
X190994Y241554D01*
X190942Y241530D01*
X190871Y241524D01*
X190860D01*
X190842Y241530D01*
X190807Y241536D01*
X190772Y241548D01*
X190743Y241577D01*
X190725Y241612D01*
X190719Y241659D01*
Y241694D01*
X190731Y241729D01*
X190871Y242144D01*
X190450D01*
X190433Y242150D01*
X190397Y242156D01*
X190368Y242168D01*
X190339Y242197D01*
X190315Y242232D01*
X190310Y242279D01*
Y242314D01*
X190321Y242349D01*
X190327Y242355D01*
X190333Y242378D01*
X190357Y242414D01*
X190380Y242449D01*
X190421Y242484D01*
X190468Y242519D01*
X190526Y242542D01*
X190596Y242548D01*
X191012D01*
X191152Y242964D01*
X191158Y242969D01*
X191164Y242993D01*
X191181Y243028D01*
X191211Y243063D01*
X191246Y243098D01*
X191293Y243133D01*
X191357Y243157D01*
X191427Y243162D01*
X191433D01*
X191456Y243157D01*
D02*
G37*
G36*
X151306Y150820D02*
X151312Y150814D01*
X151335Y150809D01*
X151370Y150785D01*
X151405Y150762D01*
X151441Y150721D01*
X151476Y150674D01*
X151499Y150616D01*
X151505Y150545D01*
Y150130D01*
X151920Y149990D01*
X151926Y149984D01*
X151949Y149978D01*
X151985Y149960D01*
X152020Y149931D01*
X152055Y149896D01*
X152090Y149849D01*
X152113Y149785D01*
X152119Y149715D01*
Y149709D01*
X152113Y149685D01*
X152107Y149656D01*
X152096Y149621D01*
X152072Y149592D01*
X152037Y149574D01*
X151985Y149568D01*
X151955D01*
X151920Y149580D01*
X151505Y149721D01*
Y149299D01*
X151499Y149276D01*
X151493Y149247D01*
X151481Y149212D01*
X151458Y149182D01*
X151423Y149165D01*
X151370Y149159D01*
X151341D01*
X151306Y149171D01*
X151294Y149177D01*
X151271Y149182D01*
X151242Y149206D01*
X151201Y149229D01*
X151165Y149270D01*
X151130Y149317D01*
X151107Y149370D01*
X151101Y149440D01*
Y149861D01*
X150686Y150001D01*
X150674Y150007D01*
X150651Y150013D01*
X150621Y150036D01*
X150581Y150060D01*
X150545Y150101D01*
X150510Y150148D01*
X150487Y150200D01*
X150481Y150270D01*
Y150282D01*
X150487Y150300D01*
X150493Y150335D01*
X150505Y150370D01*
X150534Y150399D01*
X150569Y150417D01*
X150616Y150423D01*
X150651D01*
X150686Y150411D01*
X151101Y150270D01*
Y150692D01*
X151107Y150709D01*
X151113Y150744D01*
X151125Y150774D01*
X151154Y150803D01*
X151189Y150826D01*
X151236Y150832D01*
X151271D01*
X151306Y150820D01*
D02*
G37*
G36*
X3906Y140999D02*
X3912D01*
X3930Y140987D01*
X3953Y140975D01*
X3988Y140958D01*
X4017Y140935D01*
X4047Y140905D01*
X4070Y140864D01*
X4088Y140823D01*
Y140818D01*
X4093Y140806D01*
X4099Y140788D01*
X4105Y140765D01*
X4117Y140730D01*
X4129Y140695D01*
X4169Y140601D01*
X4222Y140496D01*
X4292Y140379D01*
X4380Y140250D01*
X4485Y140116D01*
Y140110D01*
X4497Y140104D01*
X4526Y140069D01*
X4573Y140022D01*
X4632Y139963D01*
X4702Y139905D01*
X4784Y139841D01*
X4860Y139782D01*
X4942Y139735D01*
Y140168D01*
X4948Y140192D01*
X4953Y140250D01*
X4971Y140326D01*
X5000Y140408D01*
X5047Y140496D01*
X5105Y140572D01*
X5187Y140636D01*
X5199Y140642D01*
X5228Y140660D01*
X5281Y140683D01*
X5351Y140700D01*
X5433Y140718D01*
X5533D01*
X5644Y140706D01*
X5702Y140695D01*
X5767Y140677D01*
X6071Y140572D01*
X6077D01*
X6088Y140566D01*
X6106Y140560D01*
X6129Y140549D01*
X6194Y140519D01*
X6276Y140472D01*
X6363Y140414D01*
X6463Y140338D01*
X6562Y140244D01*
X6656Y140133D01*
Y140127D01*
X6667Y140121D01*
X6679Y140104D01*
X6691Y140080D01*
X6732Y140016D01*
X6773Y139928D01*
X6814Y139829D01*
X6855Y139718D01*
X6878Y139601D01*
X6890Y139472D01*
Y139437D01*
X6884Y139414D01*
X6878Y139355D01*
X6860Y139279D01*
X6831Y139197D01*
X6790Y139115D01*
X6732Y139033D01*
X6656Y138969D01*
X6644Y138963D01*
X6615Y138946D01*
X6562Y138928D01*
X6492Y138905D01*
X6410Y138887D01*
X6311D01*
X6199Y138899D01*
X6141Y138910D01*
X6077Y138928D01*
X5147Y139244D01*
X5141D01*
X5123Y139256D01*
X5094Y139267D01*
X5053Y139279D01*
X5006Y139302D01*
X4953Y139332D01*
X4889Y139361D01*
X4825Y139402D01*
X4749Y139443D01*
X4673Y139496D01*
X4597Y139548D01*
X4515Y139612D01*
X4433Y139683D01*
X4351Y139759D01*
X4269Y139841D01*
X4193Y139928D01*
X4187Y139934D01*
X4181Y139946D01*
X4164Y139969D01*
X4140Y139993D01*
X4117Y140028D01*
X4088Y140069D01*
X4017Y140168D01*
X3941Y140285D01*
X3871Y140414D01*
X3801Y140549D01*
X3743Y140689D01*
Y140695D01*
X3737Y140706D01*
X3731Y140730D01*
X3719Y140753D01*
X3707Y140812D01*
X3701Y140864D01*
Y140876D01*
X3707Y140894D01*
X3713Y140923D01*
X3725Y140958D01*
X3754Y140987D01*
X3789Y141011D01*
X3836D01*
X3871D01*
X3906Y140999D01*
D02*
G37*
G36*
Y139092D02*
X5919Y138407D01*
X5925D01*
X5936Y138401D01*
X5960Y138390D01*
X5989Y138378D01*
X6018Y138366D01*
X6059Y138343D01*
X6159Y138290D01*
X6264Y138220D01*
X6381Y138132D01*
X6498Y138021D01*
X6556Y137957D01*
X6609Y137887D01*
X6615Y137881D01*
X6621Y137869D01*
X6632Y137852D01*
X6650Y137822D01*
X6673Y137787D01*
X6697Y137746D01*
X6749Y137647D01*
X6802Y137530D01*
X6843Y137395D01*
X6878Y137249D01*
X6884Y137173D01*
X6890Y137097D01*
Y137056D01*
X6884Y137033D01*
X6872Y136962D01*
X6855Y136875D01*
X6820Y136775D01*
X6773Y136676D01*
X6703Y136588D01*
X6656Y136541D01*
X6609Y136506D01*
X6603D01*
X6597Y136500D01*
X6580Y136489D01*
X6556Y136477D01*
X6498Y136453D01*
X6416Y136430D01*
X6317Y136413D01*
X6199Y136407D01*
X6129D01*
X6065Y136418D01*
X5995Y136430D01*
X5919Y136453D01*
X3906Y137138D01*
X3895Y137144D01*
X3871Y137150D01*
X3842Y137173D01*
X3801Y137196D01*
X3766Y137237D01*
X3731Y137284D01*
X3707Y137343D01*
X3701Y137413D01*
Y137425D01*
X3707Y137442D01*
X3713Y137471D01*
X3725Y137506D01*
X3754Y137536D01*
X3789Y137559D01*
X3836D01*
X3871D01*
X3906Y137547D01*
X5919Y136863D01*
X5930Y136857D01*
X5960Y136851D01*
X6001Y136845D01*
X6059Y136834D01*
X6123D01*
X6188Y136840D01*
X6258Y136857D01*
X6322Y136886D01*
X6328Y136892D01*
X6346Y136910D01*
X6375Y136933D01*
X6404Y136974D01*
X6434Y137021D01*
X6463Y137079D01*
X6480Y137150D01*
X6486Y137232D01*
Y137273D01*
X6474Y137319D01*
X6463Y137378D01*
X6445Y137448D01*
X6416Y137530D01*
X6375Y137612D01*
X6322Y137694D01*
X6317Y137705D01*
X6293Y137729D01*
X6258Y137770D01*
X6211Y137817D01*
X6153Y137863D01*
X6083Y137916D01*
X6006Y137963D01*
X5919Y137998D01*
X3906Y138682D01*
X3895Y138688D01*
X3871Y138694D01*
X3842Y138717D01*
X3801Y138741D01*
X3766Y138782D01*
X3731Y138829D01*
X3707Y138887D01*
X3701Y138957D01*
Y138969D01*
X3707Y138987D01*
X3713Y139016D01*
X3725Y139051D01*
X3754Y139080D01*
X3789Y139103D01*
X3836D01*
X3871D01*
X3906Y139092D01*
D02*
G37*
G36*
X37820Y141402D02*
X37826Y141396D01*
X37850Y141390D01*
X37885Y141367D01*
X37920Y141343D01*
X37955Y141302D01*
X37990Y141255D01*
X38013Y141197D01*
X38019Y141127D01*
Y140255D01*
X38856Y139969D01*
Y140413D01*
X38862Y140436D01*
X38868Y140495D01*
X38885Y140571D01*
X38914Y140653D01*
X38961Y140735D01*
X39020Y140817D01*
X39102Y140881D01*
X39113Y140887D01*
X39143Y140904D01*
X39195Y140928D01*
X39265Y140945D01*
X39347Y140963D01*
X39447D01*
X39558Y140951D01*
X39616Y140940D01*
X39681Y140922D01*
X39985Y140817D01*
X39991D01*
X40003Y140811D01*
X40020Y140805D01*
X40043Y140793D01*
X40102Y140764D01*
X40184Y140717D01*
X40277Y140659D01*
X40371Y140583D01*
X40470Y140489D01*
X40564Y140378D01*
Y140372D01*
X40576Y140366D01*
X40587Y140349D01*
X40599Y140325D01*
X40640Y140261D01*
X40681Y140173D01*
X40728Y140074D01*
X40769Y139963D01*
X40792Y139846D01*
X40804Y139717D01*
Y139091D01*
X40798Y139068D01*
X40792Y139038D01*
X40780Y139003D01*
X40757Y138974D01*
X40722Y138956D01*
X40669Y138951D01*
X40640D01*
X40605Y138962D01*
X40593Y138968D01*
X40570Y138974D01*
X40541Y138997D01*
X40500Y139021D01*
X40465Y139062D01*
X40429Y139109D01*
X40406Y139161D01*
X40400Y139231D01*
Y139881D01*
X40394Y139916D01*
X40383Y139957D01*
X40371Y140009D01*
X40354Y140068D01*
X40324Y140126D01*
X40283Y140185D01*
X40277Y140191D01*
X40260Y140214D01*
X40236Y140238D01*
X40201Y140273D01*
X40155Y140314D01*
X40108Y140349D01*
X40049Y140384D01*
X39985Y140407D01*
X39681Y140513D01*
X39675D01*
X39652Y140518D01*
X39616Y140524D01*
X39575Y140530D01*
X39529D01*
X39482D01*
X39429Y140513D01*
X39382Y140489D01*
X39377Y140483D01*
X39365Y140477D01*
X39341Y140454D01*
X39318Y140431D01*
X39301Y140395D01*
X39277Y140349D01*
X39265Y140296D01*
X39259Y140238D01*
Y139618D01*
X39254Y139594D01*
X39248Y139565D01*
X39236Y139530D01*
X39213Y139500D01*
X39178Y139483D01*
X39125Y139477D01*
X39096D01*
X39061Y139489D01*
X37820Y139910D01*
X37809Y139916D01*
X37785Y139922D01*
X37756Y139945D01*
X37715Y139969D01*
X37680Y140009D01*
X37645Y140056D01*
X37622Y140109D01*
X37616Y140179D01*
Y141273D01*
X37622Y141291D01*
X37627Y141326D01*
X37639Y141355D01*
X37668Y141384D01*
X37703Y141408D01*
X37750Y141413D01*
X37785D01*
X37820Y141402D01*
D02*
G37*
G36*
Y139337D02*
X39833Y138652D01*
X39839D01*
X39850Y138646D01*
X39874Y138635D01*
X39903Y138623D01*
X39932Y138611D01*
X39973Y138588D01*
X40073Y138535D01*
X40178Y138465D01*
X40295Y138377D01*
X40412Y138266D01*
X40470Y138202D01*
X40523Y138132D01*
X40529Y138126D01*
X40535Y138114D01*
X40547Y138096D01*
X40564Y138067D01*
X40587Y138032D01*
X40611Y137991D01*
X40663Y137892D01*
X40716Y137775D01*
X40757Y137640D01*
X40792Y137494D01*
X40798Y137418D01*
X40804Y137342D01*
Y137301D01*
X40798Y137277D01*
X40786Y137207D01*
X40769Y137119D01*
X40734Y137020D01*
X40687Y136921D01*
X40617Y136833D01*
X40570Y136786D01*
X40523Y136751D01*
X40517D01*
X40511Y136745D01*
X40494Y136733D01*
X40470Y136722D01*
X40412Y136698D01*
X40330Y136675D01*
X40231Y136657D01*
X40114Y136652D01*
X40043D01*
X39979Y136663D01*
X39909Y136675D01*
X39833Y136698D01*
X37820Y137383D01*
X37809Y137389D01*
X37785Y137394D01*
X37756Y137418D01*
X37715Y137441D01*
X37680Y137482D01*
X37645Y137529D01*
X37622Y137587D01*
X37616Y137658D01*
Y137669D01*
X37622Y137687D01*
X37627Y137716D01*
X37639Y137751D01*
X37668Y137781D01*
X37703Y137804D01*
X37750D01*
X37785D01*
X37820Y137792D01*
X39833Y137108D01*
X39845Y137102D01*
X39874Y137096D01*
X39915Y137090D01*
X39973Y137079D01*
X40038D01*
X40102Y137084D01*
X40172Y137102D01*
X40236Y137131D01*
X40242Y137137D01*
X40260Y137155D01*
X40289Y137178D01*
X40318Y137219D01*
X40348Y137266D01*
X40377Y137324D01*
X40394Y137394D01*
X40400Y137476D01*
Y137517D01*
X40389Y137564D01*
X40377Y137623D01*
X40359Y137693D01*
X40330Y137775D01*
X40289Y137857D01*
X40236Y137938D01*
X40231Y137950D01*
X40207Y137974D01*
X40172Y138015D01*
X40125Y138061D01*
X40067Y138108D01*
X39997Y138161D01*
X39921Y138208D01*
X39833Y138243D01*
X37820Y138927D01*
X37809Y138933D01*
X37785Y138939D01*
X37756Y138962D01*
X37715Y138986D01*
X37680Y139027D01*
X37645Y139073D01*
X37622Y139132D01*
X37616Y139202D01*
Y139214D01*
X37622Y139231D01*
X37627Y139261D01*
X37639Y139296D01*
X37668Y139325D01*
X37703Y139348D01*
X37750D01*
X37785D01*
X37820Y139337D01*
D02*
G37*
G36*
X74785Y141133D02*
X74791Y141127D01*
X74814Y141121D01*
X74849Y141097D01*
X74884Y141074D01*
X74919Y141033D01*
X74955Y140986D01*
X74978Y140922D01*
X74984Y140852D01*
Y140600D01*
X75405Y140454D01*
X75411Y140448D01*
X75434Y140442D01*
X75469Y140425D01*
X75504Y140395D01*
X75540Y140360D01*
X75575Y140314D01*
X75598Y140249D01*
X75604Y140179D01*
Y140173D01*
X75598Y140150D01*
X75592Y140121D01*
X75581Y140085D01*
X75557Y140056D01*
X75522Y140039D01*
X75469Y140033D01*
X75440D01*
X75405Y140044D01*
X74984Y140191D01*
Y139302D01*
X74978Y139278D01*
X74972Y139249D01*
X74960Y139214D01*
X74937Y139185D01*
X74902Y139167D01*
X74849Y139161D01*
X74820D01*
X74785Y139173D01*
X74779D01*
X74767Y139179D01*
X74750Y139190D01*
X74732Y139202D01*
X72568Y140553D01*
X72562Y140559D01*
X72544Y140571D01*
X72521Y140589D01*
X72492Y140618D01*
X72462Y140653D01*
X72439Y140700D01*
X72421Y140746D01*
X72416Y140799D01*
Y140811D01*
X72421Y140828D01*
X72427Y140864D01*
X72439Y140899D01*
X72468Y140928D01*
X72503Y140945D01*
X72550Y140951D01*
X72585D01*
X72620Y140940D01*
X72626D01*
X72638Y140934D01*
X72661Y140922D01*
X72691Y140904D01*
X74580Y139699D01*
Y140325D01*
X74165Y140466D01*
X74159Y140472D01*
X74136Y140477D01*
X74101Y140501D01*
X74065Y140524D01*
X74030Y140565D01*
X73995Y140612D01*
X73972Y140671D01*
X73966Y140741D01*
Y140770D01*
X73978Y140799D01*
X73989Y140834D01*
X74013Y140864D01*
X74048Y140887D01*
X74101D01*
X74130D01*
X74165Y140875D01*
X74580Y140735D01*
Y141004D01*
X74586Y141022D01*
X74592Y141057D01*
X74604Y141086D01*
X74633Y141115D01*
X74668Y141139D01*
X74715Y141144D01*
X74750D01*
X74785Y141133D01*
D02*
G37*
G36*
X72620Y139337D02*
X74633Y138652D01*
X74639D01*
X74650Y138646D01*
X74674Y138635D01*
X74703Y138623D01*
X74732Y138611D01*
X74773Y138588D01*
X74873Y138535D01*
X74978Y138465D01*
X75095Y138377D01*
X75212Y138266D01*
X75270Y138202D01*
X75323Y138132D01*
X75329Y138126D01*
X75335Y138114D01*
X75346Y138096D01*
X75364Y138067D01*
X75388Y138032D01*
X75411Y137991D01*
X75463Y137892D01*
X75516Y137775D01*
X75557Y137640D01*
X75592Y137494D01*
X75598Y137418D01*
X75604Y137342D01*
Y137301D01*
X75598Y137277D01*
X75586Y137207D01*
X75569Y137119D01*
X75534Y137020D01*
X75487Y136921D01*
X75417Y136833D01*
X75370Y136786D01*
X75323Y136751D01*
X75317D01*
X75311Y136745D01*
X75294Y136733D01*
X75270Y136722D01*
X75212Y136698D01*
X75130Y136675D01*
X75031Y136657D01*
X74914Y136652D01*
X74843D01*
X74779Y136663D01*
X74709Y136675D01*
X74633Y136698D01*
X72620Y137383D01*
X72609Y137389D01*
X72585Y137394D01*
X72556Y137418D01*
X72515Y137441D01*
X72480Y137482D01*
X72445Y137529D01*
X72421Y137587D01*
X72416Y137658D01*
Y137669D01*
X72421Y137687D01*
X72427Y137716D01*
X72439Y137751D01*
X72468Y137781D01*
X72503Y137804D01*
X72550D01*
X72585D01*
X72620Y137792D01*
X74633Y137108D01*
X74645Y137102D01*
X74674Y137096D01*
X74715Y137090D01*
X74773Y137079D01*
X74838D01*
X74902Y137084D01*
X74972Y137102D01*
X75037Y137131D01*
X75042Y137137D01*
X75060Y137155D01*
X75089Y137178D01*
X75118Y137219D01*
X75148Y137266D01*
X75177Y137324D01*
X75194Y137394D01*
X75200Y137476D01*
Y137517D01*
X75189Y137564D01*
X75177Y137623D01*
X75159Y137693D01*
X75130Y137775D01*
X75089Y137857D01*
X75037Y137938D01*
X75031Y137950D01*
X75007Y137974D01*
X74972Y138015D01*
X74925Y138061D01*
X74867Y138108D01*
X74797Y138161D01*
X74721Y138208D01*
X74633Y138243D01*
X72620Y138927D01*
X72609Y138933D01*
X72585Y138939D01*
X72556Y138962D01*
X72515Y138986D01*
X72480Y139027D01*
X72445Y139073D01*
X72421Y139132D01*
X72416Y139202D01*
Y139214D01*
X72421Y139231D01*
X72427Y139261D01*
X72439Y139296D01*
X72468Y139325D01*
X72503Y139348D01*
X72550D01*
X72585D01*
X72620Y139337D01*
D02*
G37*
G36*
X107918Y141373D02*
X107976Y141361D01*
X108040Y141343D01*
X108046D01*
X108058Y141337D01*
X108081Y141326D01*
X108105Y141314D01*
X108140Y141302D01*
X108181Y141279D01*
X108269Y141226D01*
X108368Y141156D01*
X108473Y141068D01*
X108573Y140957D01*
X108620Y140893D01*
X108661Y140823D01*
X108672Y140834D01*
X108702Y140858D01*
X108748Y140893D01*
X108819Y140928D01*
X108906Y140951D01*
X109012Y140969D01*
X109070Y140963D01*
X109134Y140957D01*
X109205Y140945D01*
X109281Y140922D01*
X109585Y140817D01*
X109591D01*
X109602Y140811D01*
X109620Y140805D01*
X109643Y140793D01*
X109702Y140764D01*
X109784Y140717D01*
X109877Y140659D01*
X109971Y140583D01*
X110071Y140489D01*
X110164Y140378D01*
Y140372D01*
X110176Y140366D01*
X110187Y140349D01*
X110199Y140325D01*
X110240Y140261D01*
X110281Y140173D01*
X110328Y140074D01*
X110369Y139963D01*
X110392Y139840D01*
X110404Y139711D01*
Y139091D01*
X110398Y139068D01*
X110392Y139038D01*
X110380Y139003D01*
X110357Y138974D01*
X110322Y138956D01*
X110269Y138951D01*
X110240D01*
X110205Y138962D01*
X110193Y138968D01*
X110170Y138974D01*
X110141Y138997D01*
X110100Y139021D01*
X110065Y139062D01*
X110029Y139109D01*
X110006Y139161D01*
X110000Y139231D01*
Y139881D01*
X109994Y139916D01*
X109983Y139957D01*
X109971Y140009D01*
X109953Y140068D01*
X109924Y140126D01*
X109883Y140185D01*
X109877Y140191D01*
X109860Y140214D01*
X109836Y140238D01*
X109801Y140273D01*
X109755Y140314D01*
X109708Y140349D01*
X109649Y140384D01*
X109585Y140407D01*
X109281Y140513D01*
X109275D01*
X109251Y140518D01*
X109216Y140524D01*
X109175Y140530D01*
X109129D01*
X109082D01*
X109029Y140513D01*
X108982Y140489D01*
X108976Y140483D01*
X108965Y140472D01*
X108941Y140454D01*
X108918Y140425D01*
X108900Y140390D01*
X108877Y140349D01*
X108865Y140296D01*
X108860Y140238D01*
Y139922D01*
X108854Y139898D01*
X108848Y139869D01*
X108836Y139840D01*
X108813Y139811D01*
X108778Y139787D01*
X108725D01*
X108696D01*
X108661Y139799D01*
X108649Y139805D01*
X108625Y139811D01*
X108596Y139828D01*
X108555Y139857D01*
X108520Y139892D01*
X108485Y139939D01*
X108462Y139998D01*
X108456Y140068D01*
Y140407D01*
X108450Y140442D01*
X108438Y140483D01*
X108427Y140536D01*
X108409Y140589D01*
X108380Y140653D01*
X108339Y140711D01*
X108333Y140717D01*
X108316Y140741D01*
X108292Y140764D01*
X108257Y140799D01*
X108210Y140840D01*
X108163Y140875D01*
X108105Y140910D01*
X108040Y140934D01*
X108035D01*
X108011Y140940D01*
X107982Y140945D01*
X107941Y140951D01*
X107894D01*
X107847D01*
X107795Y140934D01*
X107748Y140910D01*
X107742Y140904D01*
X107730Y140899D01*
X107707Y140875D01*
X107684Y140852D01*
X107660Y140817D01*
X107637Y140770D01*
X107625Y140717D01*
X107619Y140659D01*
Y140039D01*
X107614Y140015D01*
X107608Y139986D01*
X107596Y139951D01*
X107572Y139922D01*
X107537Y139904D01*
X107485Y139898D01*
X107456D01*
X107420Y139910D01*
X107409Y139916D01*
X107385Y139922D01*
X107356Y139945D01*
X107315Y139969D01*
X107280Y140009D01*
X107245Y140056D01*
X107221Y140109D01*
X107216Y140179D01*
Y140834D01*
X107221Y140858D01*
X107227Y140916D01*
X107245Y140992D01*
X107274Y141074D01*
X107321Y141156D01*
X107379Y141238D01*
X107461Y141302D01*
X107473Y141308D01*
X107502Y141326D01*
X107555Y141349D01*
X107625Y141367D01*
X107707Y141384D01*
X107807D01*
X107918Y141373D01*
D02*
G37*
G36*
X107420Y139337D02*
X109433Y138652D01*
X109439D01*
X109450Y138646D01*
X109474Y138635D01*
X109503Y138623D01*
X109532Y138611D01*
X109573Y138588D01*
X109673Y138535D01*
X109778Y138465D01*
X109895Y138377D01*
X110012Y138266D01*
X110071Y138202D01*
X110123Y138132D01*
X110129Y138126D01*
X110135Y138114D01*
X110146Y138096D01*
X110164Y138067D01*
X110187Y138032D01*
X110211Y137991D01*
X110264Y137892D01*
X110316Y137775D01*
X110357Y137640D01*
X110392Y137494D01*
X110398Y137418D01*
X110404Y137342D01*
Y137301D01*
X110398Y137277D01*
X110386Y137207D01*
X110369Y137119D01*
X110334Y137020D01*
X110287Y136921D01*
X110217Y136833D01*
X110170Y136786D01*
X110123Y136751D01*
X110117D01*
X110111Y136745D01*
X110094Y136733D01*
X110071Y136722D01*
X110012Y136698D01*
X109930Y136675D01*
X109831Y136657D01*
X109714Y136652D01*
X109643D01*
X109579Y136663D01*
X109509Y136675D01*
X109433Y136698D01*
X107420Y137383D01*
X107409Y137389D01*
X107385Y137394D01*
X107356Y137418D01*
X107315Y137441D01*
X107280Y137482D01*
X107245Y137529D01*
X107221Y137587D01*
X107216Y137658D01*
Y137669D01*
X107221Y137687D01*
X107227Y137716D01*
X107239Y137751D01*
X107268Y137781D01*
X107303Y137804D01*
X107350D01*
X107385D01*
X107420Y137792D01*
X109433Y137108D01*
X109444Y137102D01*
X109474Y137096D01*
X109515Y137090D01*
X109573Y137079D01*
X109638D01*
X109702Y137084D01*
X109772Y137102D01*
X109836Y137131D01*
X109842Y137137D01*
X109860Y137155D01*
X109889Y137178D01*
X109918Y137219D01*
X109948Y137266D01*
X109977Y137324D01*
X109994Y137394D01*
X110000Y137476D01*
Y137517D01*
X109989Y137564D01*
X109977Y137623D01*
X109959Y137693D01*
X109930Y137775D01*
X109889Y137857D01*
X109836Y137938D01*
X109831Y137950D01*
X109807Y137974D01*
X109772Y138015D01*
X109725Y138061D01*
X109667Y138108D01*
X109597Y138161D01*
X109521Y138208D01*
X109433Y138243D01*
X107420Y138927D01*
X107409Y138933D01*
X107385Y138939D01*
X107356Y138962D01*
X107315Y138986D01*
X107280Y139027D01*
X107245Y139073D01*
X107221Y139132D01*
X107216Y139202D01*
Y139214D01*
X107221Y139231D01*
X107227Y139261D01*
X107239Y139296D01*
X107268Y139325D01*
X107303Y139348D01*
X107350D01*
X107385D01*
X107420Y139337D01*
D02*
G37*
G36*
X31532Y122435D02*
X31590Y122429D01*
X31666Y122412D01*
X31748Y122382D01*
X31830Y122336D01*
X31912Y122277D01*
X31976Y122195D01*
X31982Y122184D01*
X32000Y122154D01*
X32023Y122102D01*
X32041Y122031D01*
X32058Y121950D01*
Y121850D01*
X32047Y121739D01*
X32035Y121680D01*
X32017Y121616D01*
X32012Y121604D01*
X32000Y121575D01*
X31982Y121534D01*
X31953Y121470D01*
X31912Y121400D01*
X31859Y121324D01*
X31789Y121236D01*
X31713Y121148D01*
X30239Y119656D01*
X31157D01*
X31175Y119650D01*
X31204Y119645D01*
X31239Y119633D01*
X31269Y119604D01*
X31292Y119569D01*
Y119522D01*
Y119487D01*
X31280Y119452D01*
X31274Y119446D01*
X31269Y119422D01*
X31251Y119387D01*
X31222Y119352D01*
X31187Y119317D01*
X31140Y119282D01*
X31076Y119259D01*
X31005Y119253D01*
X29765D01*
X29742Y119259D01*
X29713Y119264D01*
X29677Y119276D01*
X29648Y119299D01*
X29631Y119335D01*
X29625Y119387D01*
Y119416D01*
X29636Y119452D01*
X29642Y119463D01*
X29654Y119487D01*
X29677Y119522D01*
X29707Y119563D01*
X31462Y121388D01*
X31468Y121394D01*
X31479Y121405D01*
X31497Y121429D01*
X31520Y121458D01*
X31573Y121534D01*
X31596Y121575D01*
X31614Y121616D01*
Y121622D01*
X31620Y121645D01*
X31625Y121680D01*
X31631Y121721D01*
Y121768D01*
Y121815D01*
X31614Y121868D01*
X31590Y121915D01*
X31584Y121920D01*
X31573Y121932D01*
X31555Y121955D01*
X31526Y121979D01*
X31491Y121996D01*
X31450Y122020D01*
X31397Y122031D01*
X31339Y122037D01*
X31327D01*
X31298Y122031D01*
X31245Y122020D01*
X31181Y121991D01*
X31099Y121950D01*
X31052Y121920D01*
X30999Y121879D01*
X30947Y121838D01*
X30894Y121792D01*
X30836Y121733D01*
X30771Y121669D01*
X30765Y121663D01*
X30754Y121651D01*
X30736Y121640D01*
X30713Y121622D01*
X30648Y121587D01*
X30608Y121575D01*
X30561Y121569D01*
X30555D01*
X30531Y121575D01*
X30502Y121581D01*
X30467Y121593D01*
X30438Y121622D01*
X30420Y121657D01*
X30414Y121704D01*
Y121739D01*
X30426Y121774D01*
X30432Y121780D01*
X30438Y121798D01*
X30450Y121821D01*
X30461Y121838D01*
X30467Y121844D01*
X30485Y121862D01*
X30514Y121897D01*
X30549Y121932D01*
X30596Y121979D01*
X30648Y122031D01*
X30713Y122084D01*
X30783Y122143D01*
X30935Y122248D01*
X31017Y122301D01*
X31105Y122347D01*
X31198Y122388D01*
X31286Y122418D01*
X31380Y122435D01*
X31473Y122441D01*
X31508D01*
X31532Y122435D01*
D02*
G37*
G36*
X29923D02*
X29952Y122429D01*
X29987Y122418D01*
X30017Y122388D01*
X30040Y122353D01*
Y122306D01*
Y122271D01*
X30028Y122236D01*
X29081Y119452D01*
X29075Y119446D01*
X29069Y119422D01*
X29051Y119387D01*
X29022Y119352D01*
X28987Y119317D01*
X28940Y119282D01*
X28876Y119259D01*
X28806Y119253D01*
X28800D01*
X28776Y119259D01*
X28747Y119264D01*
X28712Y119276D01*
X28683Y119299D01*
X28665Y119335D01*
X28659Y119387D01*
Y119416D01*
X28671Y119452D01*
X29478Y121815D01*
X29087Y121476D01*
X29081D01*
X29075Y121464D01*
X29040Y121447D01*
X28987Y121429D01*
X28923Y121417D01*
X28917D01*
X28894Y121423D01*
X28864Y121429D01*
X28835Y121441D01*
X28806Y121464D01*
X28782Y121499D01*
Y121552D01*
Y121581D01*
X28794Y121616D01*
Y121622D01*
X28800Y121628D01*
X28817Y121663D01*
X28847Y121710D01*
X28899Y121756D01*
X29707Y122365D01*
X29713Y122371D01*
X29724Y122377D01*
X29742Y122388D01*
X29765Y122406D01*
X29829Y122429D01*
X29859Y122435D01*
X29894Y122441D01*
X29906D01*
X29923Y122435D01*
D02*
G37*
G36*
X27589D02*
X27624D01*
X27665Y122423D01*
X27753Y122406D01*
X27852Y122371D01*
X27952Y122318D01*
X27998Y122289D01*
X28039Y122248D01*
X28086Y122207D01*
X28121Y122154D01*
Y122149D01*
X28127Y122143D01*
X28139Y122125D01*
X28150Y122102D01*
X28174Y122043D01*
X28197Y121961D01*
X28215Y121862D01*
X28221Y121745D01*
X28215Y121680D01*
X28209Y121610D01*
X28191Y121540D01*
X28168Y121464D01*
Y121458D01*
X28156Y121435D01*
X28145Y121400D01*
X28121Y121353D01*
X28098Y121300D01*
X28063Y121242D01*
X28022Y121171D01*
X27975Y121101D01*
X27922Y121025D01*
X27858Y120949D01*
X27788Y120879D01*
X27712Y120803D01*
X27624Y120739D01*
X27530Y120674D01*
X27425Y120622D01*
X27314Y120575D01*
X27495Y119539D01*
Y119534D01*
Y119510D01*
Y119481D01*
X27484Y119452D01*
Y119446D01*
X27478Y119440D01*
X27460Y119405D01*
X27425Y119358D01*
X27402Y119335D01*
X27372Y119311D01*
X27367D01*
X27361Y119299D01*
X27320Y119282D01*
X27267Y119264D01*
X27209Y119253D01*
X27191D01*
X27168Y119259D01*
X27144Y119264D01*
X27115Y119282D01*
X27092Y119299D01*
X27074Y119329D01*
X27062Y119364D01*
X26887Y120487D01*
X26290D01*
X25939Y119452D01*
X25933Y119446D01*
X25927Y119422D01*
X25910Y119387D01*
X25881Y119352D01*
X25846Y119317D01*
X25799Y119282D01*
X25734Y119259D01*
X25664Y119253D01*
X25658D01*
X25635Y119259D01*
X25606Y119264D01*
X25571Y119276D01*
X25541Y119299D01*
X25524Y119335D01*
X25518Y119387D01*
Y119416D01*
X25530Y119452D01*
X26477Y122236D01*
X26483Y122248D01*
X26489Y122271D01*
X26513Y122301D01*
X26536Y122342D01*
X26577Y122377D01*
X26624Y122412D01*
X26676Y122435D01*
X26746Y122441D01*
X27566D01*
X27589Y122435D01*
D02*
G37*
G36*
X66342Y122395D02*
X66371Y122389D01*
X66406Y122377D01*
X66435Y122348D01*
X66459Y122313D01*
Y122266D01*
Y122231D01*
X66447Y122196D01*
X65499Y119412D01*
X65493Y119406D01*
X65488Y119382D01*
X65470Y119347D01*
X65441Y119312D01*
X65406Y119277D01*
X65359Y119242D01*
X65294Y119218D01*
X65224Y119213D01*
X65219D01*
X65195Y119218D01*
X65166Y119224D01*
X65131Y119236D01*
X65101Y119259D01*
X65084Y119295D01*
X65078Y119347D01*
Y119376D01*
X65090Y119412D01*
X65897Y121775D01*
X65505Y121436D01*
X65499D01*
X65493Y121424D01*
X65458Y121406D01*
X65406Y121389D01*
X65341Y121377D01*
X65336D01*
X65312Y121383D01*
X65283Y121389D01*
X65254Y121400D01*
X65224Y121424D01*
X65201Y121459D01*
Y121512D01*
Y121541D01*
X65213Y121576D01*
Y121582D01*
X65219Y121588D01*
X65236Y121623D01*
X65265Y121670D01*
X65318Y121716D01*
X66125Y122325D01*
X66131Y122331D01*
X66143Y122336D01*
X66160Y122348D01*
X66184Y122366D01*
X66248Y122389D01*
X66277Y122395D01*
X66312Y122401D01*
X66324D01*
X66342Y122395D01*
D02*
G37*
G36*
X64762D02*
X64791Y122389D01*
X64827Y122377D01*
X64856Y122348D01*
X64879Y122313D01*
Y122266D01*
Y122231D01*
X64868Y122196D01*
X63920Y119412D01*
X63914Y119406D01*
X63908Y119382D01*
X63890Y119347D01*
X63861Y119312D01*
X63826Y119277D01*
X63779Y119242D01*
X63715Y119218D01*
X63645Y119213D01*
X63639D01*
X63616Y119218D01*
X63586Y119224D01*
X63551Y119236D01*
X63522Y119259D01*
X63504Y119295D01*
X63499Y119347D01*
Y119376D01*
X63510Y119412D01*
X64318Y121775D01*
X63926Y121436D01*
X63920D01*
X63914Y121424D01*
X63879Y121406D01*
X63826Y121389D01*
X63762Y121377D01*
X63756D01*
X63733Y121383D01*
X63703Y121389D01*
X63674Y121400D01*
X63645Y121424D01*
X63621Y121459D01*
Y121512D01*
Y121541D01*
X63633Y121576D01*
Y121582D01*
X63639Y121588D01*
X63657Y121623D01*
X63686Y121670D01*
X63738Y121716D01*
X64546Y122325D01*
X64552Y122331D01*
X64563Y122336D01*
X64581Y122348D01*
X64604Y122366D01*
X64669Y122389D01*
X64698Y122395D01*
X64733Y122401D01*
X64745D01*
X64762Y122395D01*
D02*
G37*
G36*
X62428D02*
X62463D01*
X62504Y122383D01*
X62592Y122366D01*
X62691Y122331D01*
X62791Y122278D01*
X62837Y122249D01*
X62879Y122208D01*
X62925Y122167D01*
X62960Y122114D01*
Y122108D01*
X62966Y122102D01*
X62978Y122085D01*
X62990Y122062D01*
X63013Y122003D01*
X63036Y121921D01*
X63054Y121822D01*
X63060Y121705D01*
X63054Y121640D01*
X63048Y121570D01*
X63031Y121500D01*
X63007Y121424D01*
Y121418D01*
X62995Y121395D01*
X62984Y121360D01*
X62960Y121313D01*
X62937Y121260D01*
X62902Y121202D01*
X62861Y121131D01*
X62814Y121061D01*
X62761Y120985D01*
X62697Y120909D01*
X62627Y120839D01*
X62551Y120763D01*
X62463Y120698D01*
X62370Y120634D01*
X62264Y120581D01*
X62153Y120535D01*
X62334Y119499D01*
Y119493D01*
Y119470D01*
Y119441D01*
X62323Y119412D01*
Y119406D01*
X62317Y119400D01*
X62299Y119365D01*
X62264Y119318D01*
X62241Y119295D01*
X62212Y119271D01*
X62206D01*
X62200Y119259D01*
X62159Y119242D01*
X62106Y119224D01*
X62048Y119213D01*
X62030D01*
X62007Y119218D01*
X61983Y119224D01*
X61954Y119242D01*
X61931Y119259D01*
X61913Y119289D01*
X61901Y119324D01*
X61726Y120447D01*
X61129D01*
X60778Y119412D01*
X60773Y119406D01*
X60767Y119382D01*
X60749Y119347D01*
X60720Y119312D01*
X60685Y119277D01*
X60638Y119242D01*
X60574Y119218D01*
X60503Y119213D01*
X60497D01*
X60474Y119218D01*
X60445Y119224D01*
X60410Y119236D01*
X60381Y119259D01*
X60363Y119295D01*
X60357Y119347D01*
Y119376D01*
X60369Y119412D01*
X61317Y122196D01*
X61322Y122208D01*
X61328Y122231D01*
X61352Y122260D01*
X61375Y122301D01*
X61416Y122336D01*
X61463Y122372D01*
X61515Y122395D01*
X61586Y122401D01*
X62405D01*
X62428Y122395D01*
D02*
G37*
G36*
X101089Y122419D02*
X101118Y122414D01*
X101194Y122390D01*
X101235Y122373D01*
X101282Y122349D01*
X101323Y122314D01*
X101364Y122273D01*
X101405Y122221D01*
X101440Y122162D01*
X101475Y122092D01*
X101498Y122004D01*
X101510Y121910D01*
X101516Y121799D01*
Y121793D01*
Y121782D01*
Y121758D01*
Y121723D01*
X101510Y121688D01*
X101504Y121641D01*
X101498Y121583D01*
X101493Y121524D01*
X101481Y121454D01*
X101469Y121378D01*
X101434Y121214D01*
X101387Y121027D01*
X101323Y120828D01*
Y120822D01*
X101317Y120805D01*
X101305Y120775D01*
X101288Y120735D01*
X101270Y120688D01*
X101247Y120629D01*
X101223Y120565D01*
X101194Y120495D01*
X101124Y120343D01*
X101048Y120185D01*
X100954Y120015D01*
X100855Y119857D01*
X100849Y119851D01*
X100837Y119828D01*
X100814Y119799D01*
X100785Y119758D01*
X100744Y119711D01*
X100697Y119658D01*
X100644Y119606D01*
X100586Y119547D01*
X100451Y119436D01*
X100375Y119383D01*
X100299Y119336D01*
X100217Y119296D01*
X100135Y119266D01*
X100048Y119243D01*
X99960Y119237D01*
X99942D01*
X99919Y119243D01*
X99884Y119249D01*
X99808Y119272D01*
X99767Y119290D01*
X99726Y119313D01*
X99679Y119348D01*
X99638Y119389D01*
X99597Y119436D01*
X99562Y119494D01*
X99533Y119565D01*
X99509Y119647D01*
X99492Y119746D01*
X99486Y119851D01*
Y119857D01*
Y119869D01*
Y119892D01*
X99492Y119921D01*
Y119962D01*
X99498Y120009D01*
X99503Y120068D01*
X99509Y120126D01*
X99521Y120196D01*
X99533Y120272D01*
X99550Y120349D01*
X99568Y120436D01*
X99615Y120623D01*
X99679Y120828D01*
Y120834D01*
X99691Y120852D01*
X99697Y120881D01*
X99714Y120922D01*
X99732Y120969D01*
X99755Y121027D01*
X99778Y121091D01*
X99808Y121162D01*
X99878Y121314D01*
X99960Y121477D01*
X100048Y121641D01*
X100147Y121799D01*
X100153Y121805D01*
X100165Y121828D01*
X100188Y121858D01*
X100223Y121899D01*
X100258Y121946D01*
X100305Y121998D01*
X100358Y122057D01*
X100416Y122115D01*
X100551Y122226D01*
X100627Y122279D01*
X100703Y122326D01*
X100785Y122367D01*
X100867Y122396D01*
X100954Y122419D01*
X101042Y122425D01*
X101066D01*
X101089Y122419D01*
D02*
G37*
G36*
X99492D02*
X99521Y122414D01*
X99556Y122402D01*
X99585Y122373D01*
X99609Y122337D01*
Y122291D01*
Y122256D01*
X99597Y122221D01*
X98649Y119436D01*
X98644Y119430D01*
X98638Y119407D01*
X98620Y119371D01*
X98591Y119336D01*
X98556Y119301D01*
X98509Y119266D01*
X98445Y119243D01*
X98374Y119237D01*
X98369D01*
X98345Y119243D01*
X98316Y119249D01*
X98281Y119260D01*
X98252Y119284D01*
X98234Y119319D01*
X98228Y119371D01*
Y119401D01*
X98240Y119436D01*
X99047Y121799D01*
X98655Y121460D01*
X98649D01*
X98644Y121448D01*
X98608Y121431D01*
X98556Y121413D01*
X98492Y121402D01*
X98486D01*
X98462Y121407D01*
X98433Y121413D01*
X98404Y121425D01*
X98374Y121448D01*
X98351Y121483D01*
Y121536D01*
Y121565D01*
X98363Y121600D01*
Y121606D01*
X98369Y121612D01*
X98386Y121647D01*
X98415Y121694D01*
X98468Y121741D01*
X99275Y122349D01*
X99281Y122355D01*
X99293Y122361D01*
X99310Y122373D01*
X99334Y122390D01*
X99398Y122414D01*
X99427Y122419D01*
X99463Y122425D01*
X99474D01*
X99492Y122419D01*
D02*
G37*
G36*
X97158D02*
X97193D01*
X97234Y122408D01*
X97321Y122390D01*
X97421Y122355D01*
X97520Y122302D01*
X97567Y122273D01*
X97608Y122232D01*
X97655Y122191D01*
X97690Y122139D01*
Y122133D01*
X97696Y122127D01*
X97708Y122109D01*
X97719Y122086D01*
X97743Y122027D01*
X97766Y121946D01*
X97784Y121846D01*
X97790Y121729D01*
X97784Y121665D01*
X97778Y121595D01*
X97760Y121524D01*
X97737Y121448D01*
Y121442D01*
X97725Y121419D01*
X97713Y121384D01*
X97690Y121337D01*
X97667Y121284D01*
X97632Y121226D01*
X97591Y121156D01*
X97544Y121086D01*
X97491Y121010D01*
X97427Y120933D01*
X97357Y120863D01*
X97281Y120787D01*
X97193Y120723D01*
X97099Y120659D01*
X96994Y120606D01*
X96883Y120559D01*
X97064Y119524D01*
Y119518D01*
Y119494D01*
Y119465D01*
X97052Y119436D01*
Y119430D01*
X97047Y119424D01*
X97029Y119389D01*
X96994Y119342D01*
X96970Y119319D01*
X96941Y119296D01*
X96935D01*
X96930Y119284D01*
X96889Y119266D01*
X96836Y119249D01*
X96777Y119237D01*
X96760D01*
X96737Y119243D01*
X96713Y119249D01*
X96684Y119266D01*
X96660Y119284D01*
X96643Y119313D01*
X96631Y119348D01*
X96456Y120471D01*
X95859D01*
X95508Y119436D01*
X95502Y119430D01*
X95496Y119407D01*
X95479Y119371D01*
X95450Y119336D01*
X95414Y119301D01*
X95368Y119266D01*
X95303Y119243D01*
X95233Y119237D01*
X95227D01*
X95204Y119243D01*
X95174Y119249D01*
X95139Y119260D01*
X95110Y119284D01*
X95093Y119319D01*
X95087Y119371D01*
Y119401D01*
X95099Y119436D01*
X96046Y122221D01*
X96052Y122232D01*
X96058Y122256D01*
X96081Y122285D01*
X96105Y122326D01*
X96146Y122361D01*
X96192Y122396D01*
X96245Y122419D01*
X96315Y122425D01*
X97134D01*
X97158Y122419D01*
D02*
G37*
G36*
X28007Y161926D02*
X28066Y161920D01*
X28142Y161902D01*
X28224Y161873D01*
X28306Y161832D01*
X28388Y161774D01*
X28452Y161692D01*
X28458Y161680D01*
X28475Y161651D01*
X28499Y161598D01*
X28516Y161528D01*
X28534Y161446D01*
X28540Y161347D01*
X28528Y161235D01*
X28516Y161177D01*
X28499Y161113D01*
X28177Y160182D01*
X28171Y160171D01*
X28165Y160147D01*
X28148Y160106D01*
X28119Y160048D01*
X28084Y159978D01*
X28043Y159902D01*
X27990Y159814D01*
X27926Y159714D01*
X27850Y159615D01*
X27768Y159510D01*
X27668Y159404D01*
X27557Y159299D01*
X27434Y159188D01*
X27300Y159088D01*
X27147Y158989D01*
X26984Y158895D01*
X26978D01*
X26972Y158890D01*
X26937Y158872D01*
X26884Y158849D01*
X26820Y158819D01*
X26750Y158790D01*
X26680Y158767D01*
X26609Y158749D01*
X26557Y158743D01*
X26545D01*
X26510Y158749D01*
X26469Y158767D01*
X26434Y158802D01*
X26428Y158814D01*
X26416Y158843D01*
X26410Y158884D01*
X26416Y158913D01*
X26422Y158942D01*
Y158948D01*
X26434Y158966D01*
X26445Y158989D01*
X26463Y159018D01*
X26486Y159047D01*
X26516Y159077D01*
X26551Y159100D01*
X26592Y159118D01*
X26598D01*
X26621Y159129D01*
X26656Y159141D01*
X26697Y159153D01*
X26750Y159170D01*
X26796Y159194D01*
X26902Y159241D01*
X26908Y159246D01*
X26925Y159252D01*
X26954Y159270D01*
X26995Y159293D01*
X27042Y159328D01*
X27095Y159363D01*
X27218Y159451D01*
X27352Y159556D01*
X27481Y159685D01*
X27539Y159749D01*
X27598Y159826D01*
X27645Y159902D01*
X27686Y159978D01*
X27253D01*
X27229Y159984D01*
X27165Y159989D01*
X27095Y160007D01*
X27013Y160036D01*
X26931Y160077D01*
X26849Y160136D01*
X26785Y160217D01*
X26779Y160229D01*
X26761Y160258D01*
X26744Y160311D01*
X26720Y160381D01*
X26703Y160463D01*
Y160563D01*
X26715Y160674D01*
X26726Y160732D01*
X26744Y160797D01*
X26849Y161107D01*
Y161113D01*
X26855Y161124D01*
X26861Y161142D01*
X26873Y161165D01*
X26902Y161230D01*
X26949Y161306D01*
X27007Y161399D01*
X27083Y161493D01*
X27177Y161592D01*
X27288Y161686D01*
X27294Y161692D01*
X27305Y161698D01*
X27317Y161709D01*
X27346Y161727D01*
X27405Y161762D01*
X27493Y161809D01*
X27592Y161855D01*
X27703Y161891D01*
X27826Y161920D01*
X27949Y161932D01*
X27984D01*
X28007Y161926D01*
D02*
G37*
G36*
X25644D02*
X25679D01*
X25720Y161914D01*
X25808Y161897D01*
X25907Y161861D01*
X26007Y161809D01*
X26054Y161779D01*
X26094Y161739D01*
X26141Y161698D01*
X26176Y161645D01*
Y161639D01*
X26182Y161633D01*
X26194Y161616D01*
X26206Y161592D01*
X26229Y161534D01*
X26252Y161452D01*
X26270Y161352D01*
X26276Y161235D01*
X26270Y161171D01*
X26264Y161101D01*
X26247Y161031D01*
X26223Y160955D01*
Y160949D01*
X26212Y160925D01*
X26200Y160890D01*
X26176Y160844D01*
X26153Y160791D01*
X26118Y160732D01*
X26077Y160662D01*
X26030Y160592D01*
X25978Y160516D01*
X25913Y160440D01*
X25843Y160370D01*
X25767Y160294D01*
X25679Y160229D01*
X25585Y160165D01*
X25480Y160112D01*
X25369Y160065D01*
X25550Y159030D01*
Y159024D01*
Y159001D01*
Y158972D01*
X25539Y158942D01*
Y158936D01*
X25533Y158931D01*
X25515Y158895D01*
X25480Y158849D01*
X25457Y158825D01*
X25428Y158802D01*
X25422D01*
X25416Y158790D01*
X25375Y158773D01*
X25322Y158755D01*
X25264Y158743D01*
X25246D01*
X25223Y158749D01*
X25199Y158755D01*
X25170Y158773D01*
X25147Y158790D01*
X25129Y158819D01*
X25117Y158854D01*
X24942Y159978D01*
X24345D01*
X23994Y158942D01*
X23989Y158936D01*
X23983Y158913D01*
X23965Y158878D01*
X23936Y158843D01*
X23901Y158808D01*
X23854Y158773D01*
X23790Y158749D01*
X23719Y158743D01*
X23713D01*
X23690Y158749D01*
X23661Y158755D01*
X23626Y158767D01*
X23596Y158790D01*
X23579Y158825D01*
X23573Y158878D01*
Y158907D01*
X23585Y158942D01*
X24532Y161727D01*
X24538Y161739D01*
X24544Y161762D01*
X24568Y161791D01*
X24591Y161832D01*
X24632Y161867D01*
X24679Y161902D01*
X24731Y161926D01*
X24802Y161932D01*
X25621D01*
X25644Y161926D01*
D02*
G37*
G36*
X62735Y161956D02*
X62794Y161950D01*
X62870Y161932D01*
X62952Y161903D01*
X63034Y161856D01*
X63116Y161798D01*
X63180Y161716D01*
X63186Y161704D01*
X63204Y161675D01*
X63227Y161622D01*
X63244Y161552D01*
X63262Y161470D01*
Y161371D01*
X63250Y161259D01*
X63239Y161201D01*
X63221Y161137D01*
Y161131D01*
X63215Y161119D01*
X63204Y161096D01*
X63192Y161072D01*
X63180Y161037D01*
X63157Y160996D01*
X63104Y160908D01*
X63034Y160809D01*
X62946Y160704D01*
X62835Y160604D01*
X62771Y160557D01*
X62700Y160517D01*
X62706Y160511D01*
X62724Y160493D01*
X62753Y160458D01*
X62782Y160411D01*
X62811Y160359D01*
X62829Y160288D01*
X62841Y160206D01*
Y160113D01*
Y160107D01*
X62835Y160090D01*
X62829Y160054D01*
X62817Y160002D01*
X62800Y159932D01*
X62776Y159838D01*
X62741Y159727D01*
X62718Y159662D01*
X62695Y159592D01*
Y159586D01*
X62689Y159575D01*
X62683Y159557D01*
X62671Y159534D01*
X62642Y159475D01*
X62601Y159393D01*
X62537Y159300D01*
X62461Y159206D01*
X62367Y159107D01*
X62256Y159013D01*
X62250D01*
X62244Y159001D01*
X62226Y158990D01*
X62203Y158978D01*
X62139Y158937D01*
X62051Y158896D01*
X61952Y158849D01*
X61840Y158808D01*
X61723Y158785D01*
X61595Y158773D01*
X61560D01*
X61536Y158779D01*
X61478Y158785D01*
X61402Y158802D01*
X61320Y158832D01*
X61238Y158873D01*
X61156Y158931D01*
X61092Y159007D01*
X61086Y159019D01*
X61068Y159048D01*
X61051Y159101D01*
X61027Y159171D01*
X61010Y159253D01*
Y159358D01*
X61021Y159469D01*
X61033Y159528D01*
X61051Y159592D01*
X61156Y159902D01*
Y159908D01*
X61162Y159920D01*
X61173Y159943D01*
X61185Y159967D01*
X61203Y160002D01*
X61220Y160043D01*
X61273Y160130D01*
X61343Y160230D01*
X61437Y160329D01*
X61548Y160429D01*
X61677Y160517D01*
X61665Y160528D01*
X61642Y160557D01*
X61606Y160604D01*
X61577Y160675D01*
X61548Y160762D01*
X61536Y160868D01*
Y160926D01*
X61542Y160990D01*
X61554Y161061D01*
X61577Y161137D01*
Y161143D01*
X61583Y161154D01*
X61589Y161172D01*
X61601Y161195D01*
X61630Y161259D01*
X61677Y161341D01*
X61735Y161429D01*
X61811Y161529D01*
X61905Y161628D01*
X62016Y161722D01*
X62022D01*
X62033Y161733D01*
X62045Y161745D01*
X62074Y161757D01*
X62133Y161798D01*
X62221Y161845D01*
X62320Y161885D01*
X62431Y161926D01*
X62554Y161950D01*
X62677Y161961D01*
X62712D01*
X62735Y161956D01*
D02*
G37*
G36*
X60372D02*
X60407D01*
X60448Y161944D01*
X60536Y161926D01*
X60635Y161891D01*
X60735Y161839D01*
X60782Y161809D01*
X60822Y161768D01*
X60869Y161727D01*
X60904Y161675D01*
Y161669D01*
X60910Y161663D01*
X60922Y161646D01*
X60934Y161622D01*
X60957Y161564D01*
X60980Y161482D01*
X60998Y161382D01*
X61004Y161265D01*
X60998Y161201D01*
X60992Y161131D01*
X60975Y161061D01*
X60951Y160985D01*
Y160979D01*
X60940Y160955D01*
X60928Y160920D01*
X60904Y160873D01*
X60881Y160821D01*
X60846Y160762D01*
X60805Y160692D01*
X60758Y160622D01*
X60706Y160546D01*
X60641Y160470D01*
X60571Y160399D01*
X60495Y160324D01*
X60407Y160259D01*
X60314Y160195D01*
X60208Y160142D01*
X60097Y160095D01*
X60278Y159060D01*
Y159054D01*
Y159031D01*
Y159001D01*
X60267Y158972D01*
Y158966D01*
X60261Y158960D01*
X60243Y158925D01*
X60208Y158879D01*
X60185Y158855D01*
X60156Y158832D01*
X60150D01*
X60144Y158820D01*
X60103Y158802D01*
X60050Y158785D01*
X59992Y158773D01*
X59974D01*
X59951Y158779D01*
X59927Y158785D01*
X59898Y158802D01*
X59875Y158820D01*
X59857Y158849D01*
X59846Y158884D01*
X59670Y160008D01*
X59073D01*
X58722Y158972D01*
X58716Y158966D01*
X58711Y158943D01*
X58693Y158908D01*
X58664Y158873D01*
X58629Y158838D01*
X58582Y158802D01*
X58518Y158779D01*
X58447Y158773D01*
X58442D01*
X58418Y158779D01*
X58389Y158785D01*
X58354Y158797D01*
X58325Y158820D01*
X58307Y158855D01*
X58301Y158908D01*
Y158937D01*
X58313Y158972D01*
X59261Y161757D01*
X59266Y161768D01*
X59272Y161792D01*
X59296Y161821D01*
X59319Y161862D01*
X59360Y161897D01*
X59407Y161932D01*
X59460Y161956D01*
X59530Y161961D01*
X60349D01*
X60372Y161956D01*
D02*
G37*
G36*
X98173Y161910D02*
X98208Y161899D01*
X98237Y161875D01*
X98260Y161840D01*
X98266Y161788D01*
X98260Y161758D01*
X98255Y161723D01*
Y161717D01*
X98249Y161712D01*
X98243Y161694D01*
X98225Y161665D01*
X97576Y160530D01*
X97652D01*
X97670Y160524D01*
X97699Y160518D01*
X97734Y160506D01*
X97763Y160477D01*
X97786Y160442D01*
Y160395D01*
Y160360D01*
X97775Y160325D01*
X97769Y160319D01*
X97763Y160296D01*
X97746Y160261D01*
X97716Y160226D01*
X97681Y160190D01*
X97635Y160155D01*
X97570Y160132D01*
X97500Y160126D01*
X97354D01*
X96663Y158892D01*
X96658Y158886D01*
X96646Y158868D01*
X96622Y158839D01*
X96599Y158816D01*
X96558Y158786D01*
X96517Y158757D01*
X96464Y158740D01*
X96406Y158734D01*
X96400D01*
X96377Y158740D01*
X96347Y158746D01*
X96312Y158757D01*
X96283Y158781D01*
X96266Y158816D01*
X96260Y158868D01*
Y158898D01*
X96271Y158933D01*
Y158939D01*
X96277Y158944D01*
X96289Y158974D01*
X96944Y160126D01*
X96874D01*
X96851Y160132D01*
X96821Y160138D01*
X96786Y160150D01*
X96757Y160173D01*
X96739Y160208D01*
X96734Y160261D01*
Y160290D01*
X96745Y160325D01*
X96751Y160337D01*
X96757Y160360D01*
X96780Y160389D01*
X96804Y160430D01*
X96845Y160466D01*
X96891Y160501D01*
X96950Y160524D01*
X97020Y160530D01*
X97161D01*
X97734Y161519D01*
X96728D01*
X96704Y161524D01*
X96675Y161530D01*
X96646Y161542D01*
X96617Y161565D01*
X96593Y161600D01*
Y161653D01*
Y161682D01*
X96605Y161717D01*
X96611Y161729D01*
X96617Y161752D01*
X96634Y161782D01*
X96663Y161823D01*
X96698Y161858D01*
X96745Y161893D01*
X96804Y161916D01*
X96874Y161922D01*
X98143D01*
X98173Y161910D01*
D02*
G37*
G36*
X95189Y161916D02*
X95224D01*
X95265Y161905D01*
X95353Y161887D01*
X95452Y161852D01*
X95552Y161799D01*
X95599Y161770D01*
X95640Y161729D01*
X95686Y161688D01*
X95722Y161635D01*
Y161630D01*
X95727Y161624D01*
X95739Y161606D01*
X95751Y161583D01*
X95774Y161524D01*
X95798Y161442D01*
X95815Y161343D01*
X95821Y161226D01*
X95815Y161162D01*
X95809Y161091D01*
X95792Y161021D01*
X95768Y160945D01*
Y160939D01*
X95757Y160916D01*
X95745Y160881D01*
X95722Y160834D01*
X95698Y160781D01*
X95663Y160723D01*
X95622Y160653D01*
X95575Y160582D01*
X95523Y160506D01*
X95458Y160430D01*
X95388Y160360D01*
X95312Y160284D01*
X95224Y160220D01*
X95131Y160155D01*
X95025Y160103D01*
X94914Y160056D01*
X95096Y159020D01*
Y159015D01*
Y158991D01*
Y158962D01*
X95084Y158933D01*
Y158927D01*
X95078Y158921D01*
X95060Y158886D01*
X95025Y158839D01*
X95002Y158816D01*
X94973Y158792D01*
X94967D01*
X94961Y158781D01*
X94920Y158763D01*
X94867Y158746D01*
X94809Y158734D01*
X94791D01*
X94768Y158740D01*
X94745Y158746D01*
X94715Y158763D01*
X94692Y158781D01*
X94674Y158810D01*
X94663Y158845D01*
X94487Y159968D01*
X93890D01*
X93539Y158933D01*
X93534Y158927D01*
X93528Y158904D01*
X93510Y158868D01*
X93481Y158833D01*
X93446Y158798D01*
X93399Y158763D01*
X93335Y158740D01*
X93265Y158734D01*
X93259D01*
X93235Y158740D01*
X93206Y158746D01*
X93171Y158757D01*
X93142Y158781D01*
X93124Y158816D01*
X93118Y158868D01*
Y158898D01*
X93130Y158933D01*
X94078Y161717D01*
X94083Y161729D01*
X94089Y161752D01*
X94113Y161782D01*
X94136Y161823D01*
X94177Y161858D01*
X94224Y161893D01*
X94276Y161916D01*
X94347Y161922D01*
X95166D01*
X95189Y161916D01*
D02*
G37*
G36*
X132617Y161960D02*
X132646Y161954D01*
X132681Y161943D01*
X132710Y161914D01*
X132734Y161878D01*
Y161832D01*
Y161797D01*
X132722Y161761D01*
Y161756D01*
X132710Y161738D01*
X132699Y161715D01*
X132681Y161679D01*
X132658Y161650D01*
X132628Y161621D01*
X132587Y161598D01*
X132546Y161580D01*
X132541D01*
X132529Y161574D01*
X132511Y161568D01*
X132488Y161563D01*
X132453Y161551D01*
X132418Y161539D01*
X132324Y161498D01*
X132219Y161446D01*
X132102Y161375D01*
X131973Y161288D01*
X131839Y161182D01*
X131833D01*
X131827Y161171D01*
X131792Y161141D01*
X131745Y161095D01*
X131686Y161036D01*
X131628Y160966D01*
X131564Y160884D01*
X131505Y160808D01*
X131458Y160726D01*
X131891D01*
X131915Y160720D01*
X131973Y160714D01*
X132049Y160697D01*
X132131Y160668D01*
X132219Y160621D01*
X132295Y160562D01*
X132359Y160480D01*
X132365Y160469D01*
X132383Y160439D01*
X132406Y160387D01*
X132423Y160317D01*
X132441Y160235D01*
Y160135D01*
X132429Y160024D01*
X132418Y159966D01*
X132400Y159901D01*
X132295Y159597D01*
Y159591D01*
X132289Y159579D01*
X132283Y159562D01*
X132271Y159538D01*
X132242Y159474D01*
X132195Y159392D01*
X132137Y159304D01*
X132061Y159205D01*
X131967Y159106D01*
X131856Y159012D01*
X131850D01*
X131844Y159000D01*
X131827Y158989D01*
X131803Y158977D01*
X131739Y158936D01*
X131651Y158895D01*
X131552Y158854D01*
X131441Y158813D01*
X131324Y158790D01*
X131195Y158778D01*
X131160D01*
X131137Y158784D01*
X131078Y158790D01*
X131002Y158807D01*
X130920Y158836D01*
X130838Y158877D01*
X130756Y158936D01*
X130692Y159012D01*
X130686Y159024D01*
X130668Y159053D01*
X130651Y159106D01*
X130628Y159176D01*
X130610Y159258D01*
Y159357D01*
X130622Y159468D01*
X130633Y159527D01*
X130651Y159591D01*
X130967Y160521D01*
Y160527D01*
X130979Y160545D01*
X130990Y160574D01*
X131002Y160615D01*
X131025Y160662D01*
X131055Y160714D01*
X131084Y160779D01*
X131125Y160843D01*
X131166Y160919D01*
X131218Y160995D01*
X131271Y161071D01*
X131335Y161153D01*
X131406Y161235D01*
X131482Y161317D01*
X131564Y161399D01*
X131651Y161475D01*
X131657Y161481D01*
X131669Y161486D01*
X131692Y161504D01*
X131716Y161527D01*
X131751Y161551D01*
X131792Y161580D01*
X131891Y161650D01*
X132008Y161726D01*
X132137Y161797D01*
X132271Y161867D01*
X132412Y161925D01*
X132418D01*
X132429Y161931D01*
X132453Y161937D01*
X132476Y161949D01*
X132535Y161960D01*
X132587Y161966D01*
X132599D01*
X132617Y161960D01*
D02*
G37*
G36*
X129972D02*
X130007D01*
X130048Y161949D01*
X130136Y161931D01*
X130236Y161896D01*
X130335Y161843D01*
X130382Y161814D01*
X130423Y161773D01*
X130470Y161732D01*
X130505Y161679D01*
Y161674D01*
X130510Y161668D01*
X130522Y161650D01*
X130534Y161627D01*
X130557Y161568D01*
X130581Y161486D01*
X130598Y161387D01*
X130604Y161270D01*
X130598Y161206D01*
X130593Y161135D01*
X130575Y161065D01*
X130552Y160989D01*
Y160983D01*
X130540Y160960D01*
X130528Y160925D01*
X130505Y160878D01*
X130481Y160826D01*
X130446Y160767D01*
X130405Y160697D01*
X130358Y160626D01*
X130306Y160550D01*
X130242Y160475D01*
X130171Y160404D01*
X130095Y160328D01*
X130007Y160264D01*
X129914Y160199D01*
X129808Y160147D01*
X129697Y160100D01*
X129879Y159065D01*
Y159059D01*
Y159035D01*
Y159006D01*
X129867Y158977D01*
Y158971D01*
X129861Y158965D01*
X129844Y158930D01*
X129808Y158883D01*
X129785Y158860D01*
X129756Y158836D01*
X129750D01*
X129744Y158825D01*
X129703Y158807D01*
X129651Y158790D01*
X129592Y158778D01*
X129575D01*
X129551Y158784D01*
X129528Y158790D01*
X129499Y158807D01*
X129475Y158825D01*
X129457Y158854D01*
X129446Y158889D01*
X129270Y160012D01*
X128674D01*
X128323Y158977D01*
X128317Y158971D01*
X128311Y158948D01*
X128293Y158913D01*
X128264Y158877D01*
X128229Y158842D01*
X128182Y158807D01*
X128118Y158784D01*
X128048Y158778D01*
X128042D01*
X128018Y158784D01*
X127989Y158790D01*
X127954Y158801D01*
X127925Y158825D01*
X127907Y158860D01*
X127901Y158913D01*
Y158942D01*
X127913Y158977D01*
X128861Y161761D01*
X128867Y161773D01*
X128873Y161797D01*
X128896Y161826D01*
X128919Y161867D01*
X128960Y161902D01*
X129007Y161937D01*
X129060Y161960D01*
X129130Y161966D01*
X129949D01*
X129972Y161960D01*
D02*
G37*
G36*
X134713Y122408D02*
X134749Y122402D01*
X134778Y122390D01*
X134807Y122361D01*
X134830Y122326D01*
X134836Y122279D01*
Y122244D01*
X134825Y122209D01*
X134819Y122203D01*
X134813Y122179D01*
X134790Y122144D01*
X134766Y122109D01*
X134725Y122074D01*
X134678Y122039D01*
X134620Y122016D01*
X134550Y122010D01*
X133678D01*
X133391Y121173D01*
X133836D01*
X133859Y121167D01*
X133918Y121161D01*
X133994Y121144D01*
X134076Y121115D01*
X134158Y121068D01*
X134240Y121009D01*
X134304Y120928D01*
X134310Y120916D01*
X134327Y120887D01*
X134351Y120834D01*
X134368Y120764D01*
X134386Y120682D01*
Y120582D01*
X134374Y120471D01*
X134362Y120413D01*
X134345Y120348D01*
X134240Y120044D01*
Y120038D01*
X134234Y120027D01*
X134228Y120009D01*
X134216Y119986D01*
X134187Y119927D01*
X134140Y119845D01*
X134082Y119752D01*
X134006Y119658D01*
X133912Y119559D01*
X133801Y119465D01*
X133795D01*
X133789Y119453D01*
X133772Y119442D01*
X133748Y119430D01*
X133684Y119389D01*
X133596Y119348D01*
X133497Y119301D01*
X133386Y119260D01*
X133269Y119237D01*
X133140Y119225D01*
X132514D01*
X132491Y119231D01*
X132461Y119237D01*
X132426Y119249D01*
X132397Y119272D01*
X132379Y119307D01*
X132373Y119360D01*
Y119389D01*
X132385Y119424D01*
X132391Y119436D01*
X132397Y119459D01*
X132420Y119488D01*
X132444Y119529D01*
X132485Y119564D01*
X132531Y119600D01*
X132584Y119623D01*
X132654Y119629D01*
X133304D01*
X133339Y119635D01*
X133380Y119646D01*
X133432Y119658D01*
X133491Y119676D01*
X133549Y119705D01*
X133608Y119746D01*
X133614Y119752D01*
X133637Y119769D01*
X133660Y119793D01*
X133696Y119828D01*
X133737Y119875D01*
X133772Y119921D01*
X133807Y119980D01*
X133830Y120044D01*
X133935Y120348D01*
Y120354D01*
X133941Y120378D01*
X133947Y120413D01*
X133953Y120454D01*
Y120501D01*
Y120547D01*
X133935Y120600D01*
X133912Y120647D01*
X133906Y120653D01*
X133900Y120664D01*
X133877Y120688D01*
X133854Y120711D01*
X133818Y120729D01*
X133772Y120752D01*
X133719Y120764D01*
X133660Y120770D01*
X133040D01*
X133017Y120775D01*
X132988Y120781D01*
X132953Y120793D01*
X132923Y120816D01*
X132906Y120852D01*
X132900Y120904D01*
Y120933D01*
X132912Y120968D01*
X133333Y122209D01*
X133339Y122220D01*
X133345Y122244D01*
X133368Y122273D01*
X133391Y122314D01*
X133432Y122349D01*
X133479Y122384D01*
X133532Y122408D01*
X133602Y122413D01*
X134696D01*
X134713Y122408D01*
D02*
G37*
G36*
X131917D02*
X131952D01*
X131993Y122396D01*
X132081Y122378D01*
X132181Y122343D01*
X132280Y122291D01*
X132327Y122261D01*
X132368Y122220D01*
X132414Y122179D01*
X132450Y122127D01*
Y122121D01*
X132455Y122115D01*
X132467Y122098D01*
X132479Y122074D01*
X132502Y122016D01*
X132526Y121934D01*
X132543Y121834D01*
X132549Y121717D01*
X132543Y121653D01*
X132537Y121583D01*
X132520Y121512D01*
X132496Y121437D01*
Y121431D01*
X132485Y121407D01*
X132473Y121372D01*
X132450Y121325D01*
X132426Y121273D01*
X132391Y121214D01*
X132350Y121144D01*
X132303Y121074D01*
X132251Y120998D01*
X132186Y120922D01*
X132116Y120852D01*
X132040Y120775D01*
X131952Y120711D01*
X131859Y120647D01*
X131753Y120594D01*
X131642Y120547D01*
X131824Y119512D01*
Y119506D01*
Y119483D01*
Y119453D01*
X131812Y119424D01*
Y119418D01*
X131806Y119412D01*
X131789Y119377D01*
X131753Y119331D01*
X131730Y119307D01*
X131701Y119284D01*
X131695D01*
X131689Y119272D01*
X131648Y119254D01*
X131596Y119237D01*
X131537Y119225D01*
X131519D01*
X131496Y119231D01*
X131473Y119237D01*
X131443Y119254D01*
X131420Y119272D01*
X131402Y119301D01*
X131391Y119336D01*
X131215Y120459D01*
X130619D01*
X130268Y119424D01*
X130262Y119418D01*
X130256Y119395D01*
X130238Y119360D01*
X130209Y119325D01*
X130174Y119290D01*
X130127Y119254D01*
X130063Y119231D01*
X129993Y119225D01*
X129987D01*
X129963Y119231D01*
X129934Y119237D01*
X129899Y119249D01*
X129870Y119272D01*
X129852Y119307D01*
X129846Y119360D01*
Y119389D01*
X129858Y119424D01*
X130806Y122209D01*
X130812Y122220D01*
X130817Y122244D01*
X130841Y122273D01*
X130864Y122314D01*
X130905Y122349D01*
X130952Y122384D01*
X131005Y122408D01*
X131075Y122413D01*
X131894D01*
X131917Y122408D01*
D02*
G37*
G36*
X9070Y121904D02*
X9105Y121899D01*
X9140Y121887D01*
X9170Y121858D01*
X9187Y121823D01*
X9193Y121776D01*
Y121741D01*
X9181Y121705D01*
Y121700D01*
X9176Y121688D01*
X9164Y121665D01*
X9146Y121635D01*
X7941Y119746D01*
X8567D01*
X8708Y120161D01*
X8713Y120167D01*
X8719Y120190D01*
X8743Y120226D01*
X8766Y120261D01*
X8807Y120296D01*
X8854Y120331D01*
X8912Y120354D01*
X8982Y120360D01*
X9012D01*
X9041Y120348D01*
X9076Y120337D01*
X9105Y120313D01*
X9129Y120278D01*
Y120226D01*
Y120196D01*
X9117Y120161D01*
X8977Y119746D01*
X9246D01*
X9263Y119740D01*
X9298Y119734D01*
X9328Y119722D01*
X9357Y119693D01*
X9380Y119658D01*
X9386Y119611D01*
Y119576D01*
X9374Y119541D01*
X9369Y119535D01*
X9363Y119512D01*
X9339Y119477D01*
X9316Y119442D01*
X9275Y119406D01*
X9228Y119371D01*
X9164Y119348D01*
X9094Y119342D01*
X8842D01*
X8696Y118921D01*
X8690Y118915D01*
X8684Y118892D01*
X8666Y118857D01*
X8637Y118822D01*
X8602Y118786D01*
X8555Y118751D01*
X8491Y118728D01*
X8421Y118722D01*
X8415D01*
X8392Y118728D01*
X8362Y118734D01*
X8327Y118745D01*
X8298Y118769D01*
X8280Y118804D01*
X8275Y118857D01*
Y118886D01*
X8286Y118921D01*
X8433Y119342D01*
X7543D01*
X7520Y119348D01*
X7491Y119354D01*
X7456Y119366D01*
X7426Y119389D01*
X7409Y119424D01*
X7403Y119477D01*
Y119506D01*
X7415Y119541D01*
Y119547D01*
X7421Y119559D01*
X7432Y119576D01*
X7444Y119594D01*
X8795Y121758D01*
X8801Y121764D01*
X8813Y121782D01*
X8830Y121805D01*
X8860Y121834D01*
X8895Y121863D01*
X8941Y121887D01*
X8988Y121904D01*
X9041Y121910D01*
X9053D01*
X9070Y121904D01*
D02*
G37*
G36*
X6736D02*
X6771D01*
X6812Y121893D01*
X6900Y121875D01*
X6999Y121840D01*
X7099Y121787D01*
X7146Y121758D01*
X7186Y121717D01*
X7233Y121676D01*
X7268Y121624D01*
Y121618D01*
X7274Y121612D01*
X7286Y121594D01*
X7298Y121571D01*
X7321Y121512D01*
X7344Y121431D01*
X7362Y121331D01*
X7368Y121214D01*
X7362Y121150D01*
X7356Y121080D01*
X7339Y121009D01*
X7315Y120933D01*
X6894Y119693D01*
Y119687D01*
X6882Y119664D01*
X6871Y119629D01*
X6853Y119588D01*
X6824Y119535D01*
X6795Y119483D01*
X6718Y119366D01*
X6923Y119067D01*
Y119061D01*
X6929Y119055D01*
X6941Y119020D01*
X6953Y118974D01*
X6947Y118950D01*
X6941Y118921D01*
X6935Y118915D01*
X6929Y118892D01*
X6906Y118857D01*
X6882Y118822D01*
X6841Y118786D01*
X6795Y118751D01*
X6736Y118728D01*
X6666Y118722D01*
X6648D01*
X6613Y118728D01*
X6572Y118745D01*
X6537Y118781D01*
X6391Y119038D01*
X6385Y119032D01*
X6373Y119026D01*
X6356Y119009D01*
X6327Y118991D01*
X6297Y118968D01*
X6256Y118939D01*
X6210Y118909D01*
X6157Y118880D01*
X6040Y118822D01*
X5900Y118769D01*
X5747Y118734D01*
X5666Y118728D01*
X5584Y118722D01*
X5543D01*
X5519Y118728D01*
X5449Y118740D01*
X5361Y118757D01*
X5262Y118792D01*
X5162Y118839D01*
X5075Y118909D01*
X5028Y118956D01*
X4993Y119003D01*
Y119009D01*
X4987Y119015D01*
X4975Y119032D01*
X4964Y119055D01*
X4940Y119114D01*
X4917Y119196D01*
X4899Y119295D01*
X4893Y119412D01*
Y119483D01*
X4905Y119547D01*
X4917Y119617D01*
X4940Y119693D01*
X5361Y120933D01*
Y120939D01*
X5367Y120951D01*
X5379Y120974D01*
X5390Y121003D01*
X5408Y121039D01*
X5426Y121074D01*
X5478Y121173D01*
X5548Y121279D01*
X5642Y121396D01*
X5753Y121512D01*
X5882Y121624D01*
X5888Y121630D01*
X5900Y121635D01*
X5917Y121653D01*
X5946Y121670D01*
X5981Y121688D01*
X6022Y121717D01*
X6122Y121770D01*
X6245Y121823D01*
X6373Y121863D01*
X6520Y121899D01*
X6596Y121904D01*
X6672Y121910D01*
X6713D01*
X6736Y121904D01*
D02*
G37*
G36*
X43899D02*
X43958Y121899D01*
X44034Y121881D01*
X44116Y121852D01*
X44198Y121805D01*
X44280Y121747D01*
X44344Y121665D01*
X44350Y121653D01*
X44367Y121624D01*
X44391Y121571D01*
X44408Y121501D01*
X44426Y121419D01*
Y121319D01*
X44414Y121208D01*
X44403Y121150D01*
X44385Y121085D01*
Y121080D01*
X44379Y121068D01*
X44367Y121045D01*
X44356Y121021D01*
X44344Y120986D01*
X44321Y120945D01*
X44268Y120857D01*
X44198Y120758D01*
X44110Y120652D01*
X43999Y120553D01*
X43935Y120506D01*
X43864Y120465D01*
X43876Y120454D01*
X43899Y120424D01*
X43935Y120378D01*
X43970Y120307D01*
X43993Y120220D01*
X44011Y120114D01*
X44005Y120056D01*
X43999Y119992D01*
X43987Y119921D01*
X43964Y119845D01*
X43859Y119541D01*
Y119535D01*
X43853Y119524D01*
X43847Y119506D01*
X43835Y119483D01*
X43806Y119424D01*
X43759Y119342D01*
X43701Y119248D01*
X43624Y119155D01*
X43531Y119055D01*
X43420Y118962D01*
X43414D01*
X43408Y118950D01*
X43391Y118939D01*
X43367Y118927D01*
X43303Y118886D01*
X43215Y118845D01*
X43115Y118798D01*
X43004Y118757D01*
X42882Y118734D01*
X42753Y118722D01*
X42133D01*
X42109Y118728D01*
X42080Y118734D01*
X42045Y118745D01*
X42016Y118769D01*
X41998Y118804D01*
X41992Y118857D01*
Y118886D01*
X42004Y118921D01*
X42010Y118933D01*
X42016Y118956D01*
X42039Y118985D01*
X42063Y119026D01*
X42103Y119061D01*
X42150Y119096D01*
X42203Y119120D01*
X42273Y119126D01*
X42922D01*
X42958Y119132D01*
X42998Y119143D01*
X43051Y119155D01*
X43110Y119173D01*
X43168Y119202D01*
X43227Y119243D01*
X43233Y119248D01*
X43256Y119266D01*
X43279Y119290D01*
X43314Y119325D01*
X43355Y119371D01*
X43391Y119418D01*
X43426Y119477D01*
X43449Y119541D01*
X43554Y119845D01*
Y119851D01*
X43560Y119875D01*
X43566Y119910D01*
X43572Y119950D01*
Y119997D01*
Y120044D01*
X43554Y120097D01*
X43531Y120144D01*
X43525Y120149D01*
X43513Y120161D01*
X43496Y120185D01*
X43466Y120208D01*
X43431Y120226D01*
X43391Y120249D01*
X43338Y120261D01*
X43279Y120266D01*
X42963D01*
X42940Y120272D01*
X42911Y120278D01*
X42882Y120290D01*
X42852Y120313D01*
X42829Y120348D01*
Y120401D01*
Y120430D01*
X42841Y120465D01*
X42846Y120477D01*
X42852Y120500D01*
X42870Y120530D01*
X42899Y120571D01*
X42934Y120606D01*
X42981Y120641D01*
X43040Y120664D01*
X43110Y120670D01*
X43449D01*
X43484Y120676D01*
X43525Y120688D01*
X43578Y120699D01*
X43630Y120717D01*
X43695Y120746D01*
X43753Y120787D01*
X43759Y120793D01*
X43782Y120810D01*
X43806Y120834D01*
X43841Y120869D01*
X43882Y120916D01*
X43917Y120963D01*
X43952Y121021D01*
X43975Y121085D01*
Y121091D01*
X43981Y121115D01*
X43987Y121144D01*
X43993Y121185D01*
Y121232D01*
Y121279D01*
X43975Y121331D01*
X43952Y121378D01*
X43946Y121384D01*
X43940Y121396D01*
X43917Y121419D01*
X43894Y121442D01*
X43859Y121466D01*
X43812Y121489D01*
X43759Y121501D01*
X43701Y121507D01*
X43080D01*
X43057Y121512D01*
X43028Y121518D01*
X42993Y121530D01*
X42963Y121553D01*
X42946Y121589D01*
X42940Y121641D01*
Y121670D01*
X42952Y121705D01*
X42958Y121717D01*
X42963Y121741D01*
X42987Y121770D01*
X43010Y121811D01*
X43051Y121846D01*
X43098Y121881D01*
X43151Y121904D01*
X43221Y121910D01*
X43876D01*
X43899Y121904D01*
D02*
G37*
G36*
X41536D02*
X41571D01*
X41612Y121893D01*
X41700Y121875D01*
X41799Y121840D01*
X41899Y121787D01*
X41945Y121758D01*
X41987Y121717D01*
X42033Y121676D01*
X42068Y121624D01*
Y121618D01*
X42074Y121612D01*
X42086Y121594D01*
X42098Y121571D01*
X42121Y121512D01*
X42144Y121431D01*
X42162Y121331D01*
X42168Y121214D01*
X42162Y121150D01*
X42156Y121080D01*
X42139Y121009D01*
X42115Y120933D01*
X41694Y119693D01*
Y119687D01*
X41682Y119664D01*
X41671Y119629D01*
X41653Y119588D01*
X41624Y119535D01*
X41594Y119483D01*
X41519Y119366D01*
X41723Y119067D01*
Y119061D01*
X41729Y119055D01*
X41741Y119020D01*
X41752Y118974D01*
X41747Y118950D01*
X41741Y118921D01*
X41735Y118915D01*
X41729Y118892D01*
X41706Y118857D01*
X41682Y118822D01*
X41641Y118786D01*
X41594Y118751D01*
X41536Y118728D01*
X41466Y118722D01*
X41448D01*
X41413Y118728D01*
X41372Y118745D01*
X41337Y118781D01*
X41191Y119038D01*
X41185Y119032D01*
X41173Y119026D01*
X41156Y119009D01*
X41126Y118991D01*
X41097Y118968D01*
X41056Y118939D01*
X41010Y118909D01*
X40957Y118880D01*
X40840Y118822D01*
X40699Y118769D01*
X40547Y118734D01*
X40466Y118728D01*
X40384Y118722D01*
X40343D01*
X40319Y118728D01*
X40249Y118740D01*
X40161Y118757D01*
X40062Y118792D01*
X39962Y118839D01*
X39875Y118909D01*
X39828Y118956D01*
X39793Y119003D01*
Y119009D01*
X39787Y119015D01*
X39775Y119032D01*
X39764Y119055D01*
X39740Y119114D01*
X39717Y119196D01*
X39699Y119295D01*
X39693Y119412D01*
Y119483D01*
X39705Y119547D01*
X39717Y119617D01*
X39740Y119693D01*
X40161Y120933D01*
Y120939D01*
X40167Y120951D01*
X40179Y120974D01*
X40191Y121003D01*
X40208Y121039D01*
X40226Y121074D01*
X40278Y121173D01*
X40349Y121279D01*
X40442Y121396D01*
X40553Y121512D01*
X40682Y121624D01*
X40688Y121630D01*
X40699Y121635D01*
X40717Y121653D01*
X40746Y121670D01*
X40781Y121688D01*
X40822Y121717D01*
X40922Y121770D01*
X41045Y121823D01*
X41173Y121863D01*
X41320Y121899D01*
X41396Y121904D01*
X41472Y121910D01*
X41513D01*
X41536Y121904D01*
D02*
G37*
G36*
X78699D02*
X78758Y121899D01*
X78834Y121881D01*
X78916Y121852D01*
X78998Y121805D01*
X79080Y121747D01*
X79144Y121665D01*
X79150Y121653D01*
X79167Y121624D01*
X79191Y121571D01*
X79208Y121501D01*
X79226Y121419D01*
Y121319D01*
X79214Y121208D01*
X79203Y121150D01*
X79185Y121085D01*
X79179Y121074D01*
X79167Y121045D01*
X79150Y121003D01*
X79121Y120939D01*
X79080Y120869D01*
X79027Y120793D01*
X78957Y120705D01*
X78881Y120617D01*
X77407Y119126D01*
X78325D01*
X78343Y119120D01*
X78372Y119114D01*
X78407Y119102D01*
X78436Y119073D01*
X78460Y119038D01*
Y118991D01*
Y118956D01*
X78448Y118921D01*
X78442Y118915D01*
X78436Y118892D01*
X78419Y118857D01*
X78389Y118822D01*
X78354Y118786D01*
X78307Y118751D01*
X78243Y118728D01*
X78173Y118722D01*
X76933D01*
X76909Y118728D01*
X76880Y118734D01*
X76845Y118745D01*
X76816Y118769D01*
X76798Y118804D01*
X76792Y118857D01*
Y118886D01*
X76804Y118921D01*
X76810Y118933D01*
X76822Y118956D01*
X76845Y118991D01*
X76874Y119032D01*
X78629Y120857D01*
X78635Y120863D01*
X78647Y120875D01*
X78664Y120898D01*
X78688Y120928D01*
X78740Y121003D01*
X78764Y121045D01*
X78781Y121085D01*
Y121091D01*
X78787Y121115D01*
X78793Y121150D01*
X78799Y121191D01*
Y121238D01*
Y121284D01*
X78781Y121337D01*
X78758Y121384D01*
X78752Y121390D01*
X78740Y121401D01*
X78723Y121425D01*
X78694Y121448D01*
X78658Y121466D01*
X78618Y121489D01*
X78565Y121501D01*
X78506Y121507D01*
X78495D01*
X78465Y121501D01*
X78413Y121489D01*
X78348Y121460D01*
X78267Y121419D01*
X78220Y121390D01*
X78167Y121349D01*
X78114Y121308D01*
X78062Y121261D01*
X78003Y121202D01*
X77939Y121138D01*
X77933Y121132D01*
X77921Y121121D01*
X77904Y121109D01*
X77880Y121091D01*
X77816Y121056D01*
X77775Y121045D01*
X77728Y121039D01*
X77723D01*
X77699Y121045D01*
X77670Y121050D01*
X77635Y121062D01*
X77605Y121091D01*
X77588Y121126D01*
X77582Y121173D01*
Y121208D01*
X77594Y121243D01*
X77600Y121249D01*
X77605Y121267D01*
X77617Y121290D01*
X77629Y121308D01*
X77635Y121314D01*
X77652Y121331D01*
X77681Y121366D01*
X77717Y121401D01*
X77763Y121448D01*
X77816Y121501D01*
X77880Y121553D01*
X77951Y121612D01*
X78103Y121717D01*
X78185Y121770D01*
X78272Y121817D01*
X78366Y121858D01*
X78454Y121887D01*
X78547Y121904D01*
X78641Y121910D01*
X78676D01*
X78699Y121904D01*
D02*
G37*
G36*
X76336D02*
X76371D01*
X76412Y121893D01*
X76500Y121875D01*
X76599Y121840D01*
X76699Y121787D01*
X76745Y121758D01*
X76787Y121717D01*
X76833Y121676D01*
X76868Y121624D01*
Y121618D01*
X76874Y121612D01*
X76886Y121594D01*
X76898Y121571D01*
X76921Y121512D01*
X76944Y121431D01*
X76962Y121331D01*
X76968Y121214D01*
X76962Y121150D01*
X76956Y121080D01*
X76939Y121009D01*
X76915Y120933D01*
X76494Y119693D01*
Y119687D01*
X76482Y119664D01*
X76471Y119629D01*
X76453Y119588D01*
X76424Y119535D01*
X76394Y119483D01*
X76319Y119366D01*
X76523Y119067D01*
Y119061D01*
X76529Y119055D01*
X76541Y119020D01*
X76552Y118974D01*
X76547Y118950D01*
X76541Y118921D01*
X76535Y118915D01*
X76529Y118892D01*
X76506Y118857D01*
X76482Y118822D01*
X76441Y118786D01*
X76394Y118751D01*
X76336Y118728D01*
X76266Y118722D01*
X76248D01*
X76213Y118728D01*
X76172Y118745D01*
X76137Y118781D01*
X75991Y119038D01*
X75985Y119032D01*
X75973Y119026D01*
X75956Y119009D01*
X75927Y118991D01*
X75897Y118968D01*
X75856Y118939D01*
X75810Y118909D01*
X75757Y118880D01*
X75640Y118822D01*
X75499Y118769D01*
X75347Y118734D01*
X75266Y118728D01*
X75184Y118722D01*
X75143D01*
X75119Y118728D01*
X75049Y118740D01*
X74961Y118757D01*
X74862Y118792D01*
X74762Y118839D01*
X74675Y118909D01*
X74628Y118956D01*
X74593Y119003D01*
Y119009D01*
X74587Y119015D01*
X74575Y119032D01*
X74563Y119055D01*
X74540Y119114D01*
X74517Y119196D01*
X74499Y119295D01*
X74493Y119412D01*
Y119483D01*
X74505Y119547D01*
X74517Y119617D01*
X74540Y119693D01*
X74961Y120933D01*
Y120939D01*
X74967Y120951D01*
X74979Y120974D01*
X74990Y121003D01*
X75008Y121039D01*
X75026Y121074D01*
X75078Y121173D01*
X75148Y121279D01*
X75242Y121396D01*
X75353Y121512D01*
X75482Y121624D01*
X75488Y121630D01*
X75499Y121635D01*
X75517Y121653D01*
X75546Y121670D01*
X75581Y121688D01*
X75622Y121717D01*
X75722Y121770D01*
X75845Y121823D01*
X75973Y121863D01*
X76120Y121899D01*
X76196Y121904D01*
X76272Y121910D01*
X76313D01*
X76336Y121904D01*
D02*
G37*
G36*
X113470D02*
X113499Y121899D01*
X113534Y121887D01*
X113564Y121858D01*
X113587Y121823D01*
Y121776D01*
Y121741D01*
X113575Y121705D01*
X112628Y118921D01*
X112622Y118915D01*
X112616Y118892D01*
X112599Y118857D01*
X112569Y118822D01*
X112534Y118786D01*
X112487Y118751D01*
X112423Y118728D01*
X112353Y118722D01*
X112347D01*
X112324Y118728D01*
X112294Y118734D01*
X112259Y118745D01*
X112230Y118769D01*
X112212Y118804D01*
X112207Y118857D01*
Y118886D01*
X112218Y118921D01*
X113026Y121284D01*
X112634Y120945D01*
X112628D01*
X112622Y120933D01*
X112587Y120916D01*
X112534Y120898D01*
X112470Y120887D01*
X112464D01*
X112441Y120892D01*
X112411Y120898D01*
X112382Y120910D01*
X112353Y120933D01*
X112329Y120968D01*
Y121021D01*
Y121050D01*
X112341Y121085D01*
Y121091D01*
X112347Y121097D01*
X112364Y121132D01*
X112394Y121179D01*
X112446Y121226D01*
X113254Y121834D01*
X113260Y121840D01*
X113271Y121846D01*
X113289Y121858D01*
X113312Y121875D01*
X113377Y121899D01*
X113406Y121904D01*
X113441Y121910D01*
X113453D01*
X113470Y121904D01*
D02*
G37*
G36*
X111136D02*
X111171D01*
X111212Y121893D01*
X111300Y121875D01*
X111399Y121840D01*
X111499Y121787D01*
X111546Y121758D01*
X111586Y121717D01*
X111633Y121676D01*
X111668Y121624D01*
Y121618D01*
X111674Y121612D01*
X111686Y121594D01*
X111698Y121571D01*
X111721Y121512D01*
X111744Y121431D01*
X111762Y121331D01*
X111768Y121214D01*
X111762Y121150D01*
X111756Y121080D01*
X111739Y121009D01*
X111715Y120933D01*
X111294Y119693D01*
Y119687D01*
X111282Y119664D01*
X111271Y119629D01*
X111253Y119588D01*
X111224Y119535D01*
X111195Y119483D01*
X111118Y119366D01*
X111323Y119067D01*
Y119061D01*
X111329Y119055D01*
X111341Y119020D01*
X111353Y118974D01*
X111347Y118950D01*
X111341Y118921D01*
X111335Y118915D01*
X111329Y118892D01*
X111306Y118857D01*
X111282Y118822D01*
X111241Y118786D01*
X111195Y118751D01*
X111136Y118728D01*
X111066Y118722D01*
X111048D01*
X111013Y118728D01*
X110972Y118745D01*
X110937Y118781D01*
X110791Y119038D01*
X110785Y119032D01*
X110773Y119026D01*
X110756Y119009D01*
X110726Y118991D01*
X110697Y118968D01*
X110656Y118939D01*
X110609Y118909D01*
X110557Y118880D01*
X110440Y118822D01*
X110300Y118769D01*
X110147Y118734D01*
X110065Y118728D01*
X109984Y118722D01*
X109943D01*
X109919Y118728D01*
X109849Y118740D01*
X109761Y118757D01*
X109662Y118792D01*
X109562Y118839D01*
X109475Y118909D01*
X109428Y118956D01*
X109393Y119003D01*
Y119009D01*
X109387Y119015D01*
X109375Y119032D01*
X109363Y119055D01*
X109340Y119114D01*
X109317Y119196D01*
X109299Y119295D01*
X109293Y119412D01*
Y119483D01*
X109305Y119547D01*
X109317Y119617D01*
X109340Y119693D01*
X109761Y120933D01*
Y120939D01*
X109767Y120951D01*
X109779Y120974D01*
X109791Y121003D01*
X109808Y121039D01*
X109826Y121074D01*
X109878Y121173D01*
X109949Y121279D01*
X110042Y121396D01*
X110153Y121512D01*
X110282Y121624D01*
X110288Y121630D01*
X110300Y121635D01*
X110317Y121653D01*
X110346Y121670D01*
X110381Y121688D01*
X110422Y121717D01*
X110522Y121770D01*
X110645Y121823D01*
X110773Y121863D01*
X110920Y121899D01*
X110996Y121904D01*
X111072Y121910D01*
X111113D01*
X111136Y121904D01*
D02*
G37*
G36*
X139681Y138104D02*
X139710Y138099D01*
X139786Y138075D01*
X139827Y138058D01*
X139874Y138034D01*
X139915Y137999D01*
X139955Y137958D01*
X139997Y137906D01*
X140032Y137847D01*
X140067Y137777D01*
X140090Y137689D01*
X140102Y137595D01*
X140108Y137484D01*
Y137478D01*
Y137467D01*
Y137443D01*
Y137408D01*
X140102Y137373D01*
X140096Y137326D01*
X140090Y137268D01*
X140084Y137209D01*
X140073Y137139D01*
X140061Y137063D01*
X140026Y136899D01*
X139979Y136712D01*
X139915Y136513D01*
Y136507D01*
X139909Y136490D01*
X139897Y136461D01*
X139880Y136420D01*
X139862Y136373D01*
X139839Y136314D01*
X139815Y136250D01*
X139786Y136180D01*
X139716Y136028D01*
X139640Y135870D01*
X139546Y135700D01*
X139447Y135542D01*
X139441Y135536D01*
X139429Y135513D01*
X139406Y135484D01*
X139376Y135443D01*
X139335Y135396D01*
X139289Y135343D01*
X139236Y135291D01*
X139178Y135232D01*
X139043Y135121D01*
X138967Y135068D01*
X138891Y135021D01*
X138809Y134980D01*
X138727Y134951D01*
X138639Y134928D01*
X138551Y134922D01*
X138534D01*
X138511Y134928D01*
X138476Y134934D01*
X138399Y134957D01*
X138358Y134975D01*
X138318Y134998D01*
X138271Y135033D01*
X138230Y135074D01*
X138189Y135121D01*
X138154Y135179D01*
X138125Y135250D01*
X138101Y135331D01*
X138084Y135431D01*
X138078Y135536D01*
Y135542D01*
Y135554D01*
Y135577D01*
X138084Y135607D01*
Y135647D01*
X138089Y135694D01*
X138095Y135753D01*
X138101Y135811D01*
X138113Y135881D01*
X138125Y135958D01*
X138142Y136033D01*
X138160Y136121D01*
X138206Y136309D01*
X138271Y136513D01*
Y136519D01*
X138282Y136537D01*
X138288Y136566D01*
X138306Y136607D01*
X138323Y136654D01*
X138347Y136712D01*
X138370Y136776D01*
X138399Y136847D01*
X138470Y136999D01*
X138551Y137163D01*
X138639Y137326D01*
X138739Y137484D01*
X138745Y137490D01*
X138756Y137514D01*
X138780Y137543D01*
X138815Y137584D01*
X138850Y137631D01*
X138897Y137683D01*
X138949Y137742D01*
X139008Y137800D01*
X139142Y137911D01*
X139218Y137964D01*
X139295Y138011D01*
X139376Y138052D01*
X139458Y138081D01*
X139546Y138104D01*
X139634Y138110D01*
X139657D01*
X139681Y138104D01*
D02*
G37*
G36*
X138084D02*
X138113Y138099D01*
X138148Y138087D01*
X138177Y138058D01*
X138200Y138022D01*
Y137976D01*
Y137941D01*
X138189Y137906D01*
X137241Y135121D01*
X137235Y135115D01*
X137229Y135092D01*
X137212Y135057D01*
X137183Y135021D01*
X137147Y134986D01*
X137101Y134951D01*
X137036Y134928D01*
X136966Y134922D01*
X136960D01*
X136937Y134928D01*
X136908Y134934D01*
X136873Y134945D01*
X136843Y134969D01*
X136826Y135004D01*
X136820Y135057D01*
Y135086D01*
X136832Y135121D01*
X137639Y137484D01*
X137247Y137145D01*
X137241D01*
X137235Y137133D01*
X137200Y137116D01*
X137147Y137098D01*
X137083Y137086D01*
X137077D01*
X137054Y137092D01*
X137025Y137098D01*
X136995Y137110D01*
X136966Y137133D01*
X136943Y137168D01*
Y137221D01*
Y137250D01*
X136954Y137285D01*
Y137291D01*
X136960Y137297D01*
X136978Y137332D01*
X137007Y137379D01*
X137060Y137426D01*
X137867Y138034D01*
X137873Y138040D01*
X137885Y138046D01*
X137902Y138058D01*
X137926Y138075D01*
X137990Y138099D01*
X138019Y138104D01*
X138054Y138110D01*
X138066D01*
X138084Y138104D01*
D02*
G37*
G36*
X136492D02*
X136527Y138099D01*
X136557Y138087D01*
X136586Y138058D01*
X136609Y138022D01*
X136615Y137976D01*
Y137941D01*
X136603Y137906D01*
X136598Y137900D01*
X136592Y137876D01*
X136568Y137841D01*
X136545Y137806D01*
X136504Y137771D01*
X136457Y137736D01*
X136399Y137713D01*
X136328Y137707D01*
X135679D01*
X135644Y137701D01*
X135603Y137689D01*
X135550Y137677D01*
X135498Y137654D01*
X135439Y137625D01*
X135375Y137584D01*
X135369Y137578D01*
X135352Y137560D01*
X135322Y137537D01*
X135287Y137502D01*
X135246Y137455D01*
X135211Y137408D01*
X135182Y137350D01*
X135153Y137285D01*
X134626Y135741D01*
Y135735D01*
X134620Y135712D01*
X134615Y135677D01*
X134609Y135636D01*
X134603Y135589D01*
X134609Y135542D01*
X134620Y135489D01*
X134644Y135443D01*
X134650Y135437D01*
X134661Y135425D01*
X134679Y135408D01*
X134708Y135384D01*
X134743Y135361D01*
X134784Y135343D01*
X134837Y135331D01*
X134895Y135326D01*
X135527D01*
X135545Y135320D01*
X135580Y135314D01*
X135609Y135302D01*
X135638Y135273D01*
X135662Y135238D01*
X135668Y135191D01*
Y135156D01*
X135656Y135121D01*
X135650Y135115D01*
X135644Y135092D01*
X135621Y135057D01*
X135597Y135021D01*
X135556Y134986D01*
X135510Y134951D01*
X135445Y134928D01*
X135375Y134922D01*
X134726D01*
X134702Y134928D01*
X134644Y134934D01*
X134568Y134951D01*
X134486Y134980D01*
X134404Y135021D01*
X134322Y135080D01*
X134258Y135156D01*
X134252Y135168D01*
X134234Y135197D01*
X134217Y135250D01*
X134193Y135320D01*
X134176Y135402D01*
Y135507D01*
X134187Y135618D01*
X134199Y135677D01*
X134217Y135741D01*
X134743Y137285D01*
Y137291D01*
X134749Y137303D01*
X134755Y137320D01*
X134767Y137344D01*
X134796Y137408D01*
X134843Y137490D01*
X134901Y137578D01*
X134977Y137677D01*
X135071Y137777D01*
X135182Y137870D01*
X135188D01*
X135199Y137882D01*
X135211Y137894D01*
X135240Y137906D01*
X135299Y137946D01*
X135387Y137993D01*
X135486Y138034D01*
X135597Y138075D01*
X135720Y138099D01*
X135843Y138110D01*
X136475D01*
X136492Y138104D01*
D02*
G37*
G36*
X103313D02*
X103371Y138099D01*
X103447Y138081D01*
X103529Y138052D01*
X103611Y138011D01*
X103693Y137952D01*
X103757Y137870D01*
X103763Y137859D01*
X103781Y137829D01*
X103804Y137777D01*
X103822Y137707D01*
X103839Y137625D01*
X103845Y137525D01*
X103833Y137414D01*
X103822Y137356D01*
X103804Y137291D01*
X103482Y136361D01*
X103477Y136349D01*
X103471Y136326D01*
X103453Y136285D01*
X103424Y136227D01*
X103389Y136156D01*
X103348Y136080D01*
X103295Y135993D01*
X103231Y135893D01*
X103155Y135794D01*
X103073Y135688D01*
X102973Y135583D01*
X102862Y135478D01*
X102740Y135367D01*
X102605Y135267D01*
X102453Y135168D01*
X102289Y135074D01*
X102283D01*
X102277Y135068D01*
X102242Y135051D01*
X102190Y135027D01*
X102125Y134998D01*
X102055Y134969D01*
X101985Y134945D01*
X101915Y134928D01*
X101862Y134922D01*
X101850D01*
X101815Y134928D01*
X101774Y134945D01*
X101739Y134980D01*
X101733Y134992D01*
X101722Y135021D01*
X101716Y135062D01*
X101722Y135092D01*
X101727Y135121D01*
Y135127D01*
X101739Y135144D01*
X101751Y135168D01*
X101768Y135197D01*
X101792Y135226D01*
X101821Y135256D01*
X101856Y135279D01*
X101897Y135296D01*
X101903D01*
X101926Y135308D01*
X101961Y135320D01*
X102002Y135331D01*
X102055Y135349D01*
X102102Y135372D01*
X102207Y135419D01*
X102213Y135425D01*
X102231Y135431D01*
X102260Y135449D01*
X102301Y135472D01*
X102348Y135507D01*
X102400Y135542D01*
X102523Y135630D01*
X102658Y135735D01*
X102786Y135864D01*
X102845Y135928D01*
X102903Y136004D01*
X102950Y136080D01*
X102991Y136156D01*
X102558D01*
X102535Y136162D01*
X102470Y136168D01*
X102400Y136186D01*
X102318Y136215D01*
X102236Y136256D01*
X102155Y136314D01*
X102090Y136396D01*
X102084Y136408D01*
X102067Y136437D01*
X102049Y136490D01*
X102026Y136560D01*
X102008Y136642D01*
Y136741D01*
X102020Y136853D01*
X102032Y136911D01*
X102049Y136975D01*
X102155Y137285D01*
Y137291D01*
X102160Y137303D01*
X102166Y137320D01*
X102178Y137344D01*
X102207Y137408D01*
X102254Y137484D01*
X102312Y137578D01*
X102389Y137671D01*
X102482Y137771D01*
X102593Y137865D01*
X102599Y137870D01*
X102611Y137876D01*
X102622Y137888D01*
X102652Y137906D01*
X102710Y137941D01*
X102798Y137987D01*
X102897Y138034D01*
X103009Y138069D01*
X103131Y138099D01*
X103254Y138110D01*
X103289D01*
X103313Y138104D01*
D02*
G37*
G36*
X101692D02*
X101727Y138099D01*
X101757Y138087D01*
X101786Y138058D01*
X101809Y138022D01*
X101815Y137976D01*
Y137941D01*
X101804Y137906D01*
X101798Y137900D01*
X101792Y137876D01*
X101768Y137841D01*
X101745Y137806D01*
X101704Y137771D01*
X101657Y137736D01*
X101599Y137713D01*
X101529Y137707D01*
X100879D01*
X100844Y137701D01*
X100803Y137689D01*
X100751Y137677D01*
X100698Y137654D01*
X100639Y137625D01*
X100575Y137584D01*
X100569Y137578D01*
X100552Y137560D01*
X100522Y137537D01*
X100487Y137502D01*
X100446Y137455D01*
X100411Y137408D01*
X100382Y137350D01*
X100353Y137285D01*
X99826Y135741D01*
Y135735D01*
X99820Y135712D01*
X99814Y135677D01*
X99809Y135636D01*
X99803Y135589D01*
X99809Y135542D01*
X99820Y135489D01*
X99844Y135443D01*
X99850Y135437D01*
X99861Y135425D01*
X99879Y135408D01*
X99908Y135384D01*
X99943Y135361D01*
X99984Y135343D01*
X100037Y135331D01*
X100095Y135326D01*
X100727D01*
X100745Y135320D01*
X100780Y135314D01*
X100809Y135302D01*
X100838Y135273D01*
X100862Y135238D01*
X100867Y135191D01*
Y135156D01*
X100856Y135121D01*
X100850Y135115D01*
X100844Y135092D01*
X100821Y135057D01*
X100797Y135021D01*
X100756Y134986D01*
X100709Y134951D01*
X100645Y134928D01*
X100575Y134922D01*
X99926D01*
X99902Y134928D01*
X99844Y134934D01*
X99768Y134951D01*
X99686Y134980D01*
X99604Y135021D01*
X99522Y135080D01*
X99458Y135156D01*
X99452Y135168D01*
X99434Y135197D01*
X99417Y135250D01*
X99393Y135320D01*
X99376Y135402D01*
Y135507D01*
X99387Y135618D01*
X99399Y135677D01*
X99417Y135741D01*
X99943Y137285D01*
Y137291D01*
X99949Y137303D01*
X99955Y137320D01*
X99967Y137344D01*
X99996Y137408D01*
X100043Y137490D01*
X100101Y137578D01*
X100177Y137677D01*
X100271Y137777D01*
X100382Y137870D01*
X100388D01*
X100399Y137882D01*
X100411Y137894D01*
X100440Y137906D01*
X100499Y137946D01*
X100587Y137993D01*
X100686Y138034D01*
X100797Y138075D01*
X100920Y138099D01*
X101043Y138110D01*
X101675D01*
X101692Y138104D01*
D02*
G37*
G36*
X68413D02*
X68471Y138099D01*
X68547Y138081D01*
X68629Y138052D01*
X68711Y138005D01*
X68793Y137946D01*
X68857Y137865D01*
X68863Y137853D01*
X68881Y137824D01*
X68904Y137771D01*
X68922Y137701D01*
X68939Y137619D01*
Y137519D01*
X68928Y137408D01*
X68916Y137350D01*
X68898Y137285D01*
Y137280D01*
X68893Y137268D01*
X68881Y137244D01*
X68869Y137221D01*
X68857Y137186D01*
X68834Y137145D01*
X68781Y137057D01*
X68711Y136958D01*
X68623Y136853D01*
X68512Y136753D01*
X68448Y136706D01*
X68378Y136665D01*
X68384Y136660D01*
X68401Y136642D01*
X68430Y136607D01*
X68460Y136560D01*
X68489Y136507D01*
X68506Y136437D01*
X68518Y136355D01*
Y136262D01*
Y136256D01*
X68512Y136238D01*
X68506Y136203D01*
X68495Y136151D01*
X68477Y136080D01*
X68454Y135987D01*
X68419Y135876D01*
X68395Y135811D01*
X68372Y135741D01*
Y135735D01*
X68366Y135723D01*
X68360Y135706D01*
X68348Y135682D01*
X68319Y135624D01*
X68278Y135542D01*
X68214Y135449D01*
X68138Y135355D01*
X68044Y135256D01*
X67933Y135162D01*
X67927D01*
X67921Y135150D01*
X67904Y135138D01*
X67880Y135127D01*
X67816Y135086D01*
X67728Y135045D01*
X67629Y134998D01*
X67518Y134957D01*
X67401Y134934D01*
X67272Y134922D01*
X67237D01*
X67213Y134928D01*
X67155Y134934D01*
X67079Y134951D01*
X66997Y134980D01*
X66915Y135021D01*
X66833Y135080D01*
X66769Y135156D01*
X66763Y135168D01*
X66746Y135197D01*
X66728Y135250D01*
X66705Y135320D01*
X66687Y135402D01*
Y135507D01*
X66699Y135618D01*
X66710Y135677D01*
X66728Y135741D01*
X66833Y136051D01*
Y136057D01*
X66839Y136069D01*
X66851Y136092D01*
X66862Y136115D01*
X66880Y136151D01*
X66898Y136191D01*
X66950Y136279D01*
X67020Y136379D01*
X67114Y136478D01*
X67225Y136578D01*
X67354Y136665D01*
X67342Y136677D01*
X67319Y136706D01*
X67284Y136753D01*
X67255Y136823D01*
X67225Y136911D01*
X67213Y137016D01*
Y137075D01*
X67219Y137139D01*
X67231Y137209D01*
X67255Y137285D01*
Y137291D01*
X67260Y137303D01*
X67266Y137320D01*
X67278Y137344D01*
X67307Y137408D01*
X67354Y137490D01*
X67412Y137578D01*
X67488Y137677D01*
X67582Y137777D01*
X67693Y137870D01*
X67699D01*
X67711Y137882D01*
X67722Y137894D01*
X67752Y137906D01*
X67810Y137946D01*
X67898Y137993D01*
X67997Y138034D01*
X68109Y138075D01*
X68231Y138099D01*
X68354Y138110D01*
X68389D01*
X68413Y138104D01*
D02*
G37*
G36*
X66792D02*
X66827Y138099D01*
X66857Y138087D01*
X66886Y138058D01*
X66909Y138022D01*
X66915Y137976D01*
Y137941D01*
X66904Y137906D01*
X66898Y137900D01*
X66892Y137876D01*
X66868Y137841D01*
X66845Y137806D01*
X66804Y137771D01*
X66757Y137736D01*
X66699Y137713D01*
X66628Y137707D01*
X65979D01*
X65944Y137701D01*
X65903Y137689D01*
X65851Y137677D01*
X65798Y137654D01*
X65739Y137625D01*
X65675Y137584D01*
X65669Y137578D01*
X65652Y137560D01*
X65622Y137537D01*
X65587Y137502D01*
X65546Y137455D01*
X65511Y137408D01*
X65482Y137350D01*
X65453Y137285D01*
X64926Y135741D01*
Y135735D01*
X64920Y135712D01*
X64915Y135677D01*
X64909Y135636D01*
X64903Y135589D01*
X64909Y135542D01*
X64920Y135489D01*
X64944Y135443D01*
X64950Y135437D01*
X64961Y135425D01*
X64979Y135408D01*
X65008Y135384D01*
X65043Y135361D01*
X65084Y135343D01*
X65137Y135331D01*
X65195Y135326D01*
X65827D01*
X65845Y135320D01*
X65880Y135314D01*
X65909Y135302D01*
X65938Y135273D01*
X65962Y135238D01*
X65968Y135191D01*
Y135156D01*
X65956Y135121D01*
X65950Y135115D01*
X65944Y135092D01*
X65921Y135057D01*
X65897Y135021D01*
X65856Y134986D01*
X65810Y134951D01*
X65745Y134928D01*
X65675Y134922D01*
X65026D01*
X65002Y134928D01*
X64944Y134934D01*
X64868Y134951D01*
X64786Y134980D01*
X64704Y135021D01*
X64622Y135080D01*
X64558Y135156D01*
X64552Y135168D01*
X64534Y135197D01*
X64517Y135250D01*
X64493Y135320D01*
X64476Y135402D01*
Y135507D01*
X64487Y135618D01*
X64499Y135677D01*
X64517Y135741D01*
X65043Y137285D01*
Y137291D01*
X65049Y137303D01*
X65055Y137320D01*
X65067Y137344D01*
X65096Y137408D01*
X65143Y137490D01*
X65201Y137578D01*
X65277Y137677D01*
X65371Y137777D01*
X65482Y137870D01*
X65488D01*
X65500Y137882D01*
X65511Y137894D01*
X65540Y137906D01*
X65599Y137946D01*
X65687Y137993D01*
X65786Y138034D01*
X65897Y138075D01*
X66020Y138099D01*
X66143Y138110D01*
X66775D01*
X66792Y138104D01*
D02*
G37*
G36*
X34333Y138099D02*
X34368Y138087D01*
X34397Y138064D01*
X34421Y138028D01*
X34427Y137976D01*
X34421Y137946D01*
X34415Y137911D01*
Y137906D01*
X34409Y137900D01*
X34403Y137882D01*
X34385Y137853D01*
X33736Y136718D01*
X33812D01*
X33830Y136712D01*
X33859Y136706D01*
X33894Y136695D01*
X33923Y136665D01*
X33947Y136630D01*
Y136583D01*
Y136548D01*
X33935Y136513D01*
X33929Y136507D01*
X33923Y136484D01*
X33906Y136449D01*
X33877Y136414D01*
X33841Y136379D01*
X33795Y136344D01*
X33730Y136320D01*
X33660Y136314D01*
X33514D01*
X32824Y135080D01*
X32818Y135074D01*
X32806Y135057D01*
X32783Y135027D01*
X32759Y135004D01*
X32718Y134975D01*
X32677Y134945D01*
X32625Y134928D01*
X32566Y134922D01*
X32560D01*
X32537Y134928D01*
X32508Y134934D01*
X32473Y134945D01*
X32443Y134969D01*
X32426Y135004D01*
X32420Y135057D01*
Y135086D01*
X32432Y135121D01*
Y135127D01*
X32438Y135133D01*
X32449Y135162D01*
X33104Y136314D01*
X33034D01*
X33011Y136320D01*
X32982Y136326D01*
X32946Y136338D01*
X32917Y136361D01*
X32900Y136396D01*
X32894Y136449D01*
Y136478D01*
X32906Y136513D01*
X32911Y136525D01*
X32917Y136548D01*
X32941Y136578D01*
X32964Y136618D01*
X33005Y136654D01*
X33052Y136689D01*
X33110Y136712D01*
X33180Y136718D01*
X33321D01*
X33894Y137707D01*
X32888D01*
X32864Y137713D01*
X32835Y137718D01*
X32806Y137730D01*
X32777Y137753D01*
X32753Y137788D01*
Y137841D01*
Y137870D01*
X32765Y137906D01*
X32771Y137917D01*
X32777Y137941D01*
X32794Y137970D01*
X32824Y138011D01*
X32859Y138046D01*
X32906Y138081D01*
X32964Y138104D01*
X33034Y138110D01*
X34304D01*
X34333Y138099D01*
D02*
G37*
G36*
X32092Y138104D02*
X32127Y138099D01*
X32157Y138087D01*
X32186Y138058D01*
X32209Y138022D01*
X32215Y137976D01*
Y137941D01*
X32204Y137906D01*
X32198Y137900D01*
X32192Y137876D01*
X32168Y137841D01*
X32145Y137806D01*
X32104Y137771D01*
X32057Y137736D01*
X31999Y137713D01*
X31929Y137707D01*
X31279D01*
X31244Y137701D01*
X31203Y137689D01*
X31150Y137677D01*
X31098Y137654D01*
X31039Y137625D01*
X30975Y137584D01*
X30969Y137578D01*
X30952Y137560D01*
X30922Y137537D01*
X30887Y137502D01*
X30846Y137455D01*
X30811Y137408D01*
X30782Y137350D01*
X30753Y137285D01*
X30226Y135741D01*
Y135735D01*
X30220Y135712D01*
X30215Y135677D01*
X30209Y135636D01*
X30203Y135589D01*
X30209Y135542D01*
X30220Y135489D01*
X30244Y135443D01*
X30250Y135437D01*
X30261Y135425D01*
X30279Y135408D01*
X30308Y135384D01*
X30343Y135361D01*
X30384Y135343D01*
X30437Y135331D01*
X30495Y135326D01*
X31127D01*
X31145Y135320D01*
X31180Y135314D01*
X31209Y135302D01*
X31238Y135273D01*
X31262Y135238D01*
X31267Y135191D01*
Y135156D01*
X31256Y135121D01*
X31250Y135115D01*
X31244Y135092D01*
X31221Y135057D01*
X31197Y135021D01*
X31156Y134986D01*
X31109Y134951D01*
X31045Y134928D01*
X30975Y134922D01*
X30326D01*
X30302Y134928D01*
X30244Y134934D01*
X30168Y134951D01*
X30086Y134980D01*
X30004Y135021D01*
X29922Y135080D01*
X29858Y135156D01*
X29852Y135168D01*
X29834Y135197D01*
X29817Y135250D01*
X29793Y135320D01*
X29776Y135402D01*
Y135507D01*
X29787Y135618D01*
X29799Y135677D01*
X29817Y135741D01*
X30343Y137285D01*
Y137291D01*
X30349Y137303D01*
X30355Y137320D01*
X30367Y137344D01*
X30396Y137408D01*
X30443Y137490D01*
X30501Y137578D01*
X30577Y137677D01*
X30671Y137777D01*
X30782Y137870D01*
X30788D01*
X30799Y137882D01*
X30811Y137894D01*
X30840Y137906D01*
X30899Y137946D01*
X30987Y137993D01*
X31086Y138034D01*
X31197Y138075D01*
X31320Y138099D01*
X31443Y138110D01*
X32075D01*
X32092Y138104D01*
D02*
G37*
G36*
X29994Y243537D02*
X30029Y243531D01*
X30064Y243519D01*
X30093Y243490D01*
X30111Y243455D01*
X30117Y243408D01*
Y243373D01*
X30105Y243338D01*
Y243332D01*
X30099Y243326D01*
X30082Y243291D01*
X28520Y240518D01*
X28514Y240512D01*
X28502Y240495D01*
X28479Y240465D01*
X28455Y240436D01*
X28414Y240407D01*
X28374Y240378D01*
X28321Y240360D01*
X28262Y240354D01*
X28239D01*
X28216Y240366D01*
X28192Y240378D01*
X28163Y240395D01*
X28139Y240424D01*
X28122Y240465D01*
X28116Y240518D01*
X28163Y241875D01*
X27285Y240518D01*
X27280Y240512D01*
X27268Y240495D01*
X27244Y240465D01*
X27209Y240436D01*
X27174Y240407D01*
X27128Y240378D01*
X27075Y240360D01*
X27022Y240354D01*
X26999D01*
X26975Y240360D01*
X26946Y240372D01*
X26917Y240389D01*
X26899Y240413D01*
X26882Y240442D01*
Y240489D01*
X27209Y243291D01*
Y243297D01*
X27215Y243309D01*
X27221Y243338D01*
X27227Y243350D01*
X27233Y243373D01*
X27256Y243402D01*
X27280Y243443D01*
X27321Y243478D01*
X27367Y243513D01*
X27420Y243537D01*
X27490Y243543D01*
X27519D01*
X27543Y243537D01*
X27572Y243525D01*
X27601Y243508D01*
X27625Y243484D01*
X27642Y243449D01*
Y243402D01*
X27350Y241179D01*
X28163Y242449D01*
X28169Y242455D01*
X28181Y242472D01*
X28204Y242501D01*
X28233Y242530D01*
X28268Y242560D01*
X28315Y242589D01*
X28362Y242607D01*
X28414Y242612D01*
X28438D01*
X28461Y242607D01*
X28490Y242595D01*
X28514Y242583D01*
X28537Y242560D01*
X28555Y242525D01*
X28561Y242484D01*
X28508Y241179D01*
X29713Y243379D01*
X29719Y243385D01*
X29731Y243402D01*
X29748Y243431D01*
X29778Y243461D01*
X29813Y243490D01*
X29859Y243519D01*
X29906Y243537D01*
X29965Y243543D01*
X29976D01*
X29994Y243537D01*
D02*
G37*
G36*
X31614D02*
X31644Y243531D01*
X31679Y243519D01*
X31708Y243490D01*
X31731Y243455D01*
Y243408D01*
Y243373D01*
X31720Y243338D01*
X30772Y240553D01*
X30766Y240547D01*
X30760Y240524D01*
X30743Y240489D01*
X30713Y240454D01*
X30678Y240419D01*
X30632Y240384D01*
X30567Y240360D01*
X30497Y240354D01*
X30491D01*
X30468Y240360D01*
X30439Y240366D01*
X30404Y240378D01*
X30374Y240401D01*
X30357Y240436D01*
X30351Y240489D01*
Y240518D01*
X30362Y240553D01*
X31170Y242917D01*
X30778Y242577D01*
X30772D01*
X30766Y242566D01*
X30731Y242548D01*
X30678Y242530D01*
X30614Y242519D01*
X30608D01*
X30585Y242525D01*
X30556Y242530D01*
X30526Y242542D01*
X30497Y242566D01*
X30474Y242601D01*
Y242653D01*
Y242683D01*
X30485Y242718D01*
Y242724D01*
X30491Y242729D01*
X30509Y242764D01*
X30538Y242811D01*
X30591Y242858D01*
X31398Y243466D01*
X31404Y243472D01*
X31416Y243478D01*
X31433Y243490D01*
X31457Y243508D01*
X31521Y243531D01*
X31550Y243537D01*
X31585Y243543D01*
X31597D01*
X31614Y243537D01*
D02*
G37*
G36*
X143749Y143415D02*
X143778Y143410D01*
X143813Y143398D01*
X143842Y143369D01*
X143866Y143334D01*
Y143287D01*
Y143252D01*
X143854Y143217D01*
X143170Y141204D01*
Y141198D01*
X143164Y141187D01*
X143152Y141163D01*
X143140Y141134D01*
X143129Y141105D01*
X143105Y141064D01*
X143052Y140964D01*
X142982Y140859D01*
X142895Y140742D01*
X142783Y140625D01*
X142719Y140567D01*
X142649Y140514D01*
X142643Y140508D01*
X142631Y140502D01*
X142614Y140490D01*
X142585Y140473D01*
X142550Y140450D01*
X142508Y140426D01*
X142409Y140374D01*
X142292Y140321D01*
X142157Y140280D01*
X142011Y140245D01*
X141935Y140239D01*
X141859Y140233D01*
X141818D01*
X141795Y140239D01*
X141725Y140251D01*
X141637Y140268D01*
X141537Y140303D01*
X141438Y140350D01*
X141350Y140420D01*
X141303Y140467D01*
X141268Y140514D01*
Y140520D01*
X141262Y140526D01*
X141251Y140543D01*
X141239Y140567D01*
X141216Y140625D01*
X141192Y140707D01*
X141175Y140806D01*
X141169Y140923D01*
Y140994D01*
X141181Y141058D01*
X141192Y141128D01*
X141216Y141204D01*
X141900Y143217D01*
X141906Y143228D01*
X141912Y143252D01*
X141935Y143281D01*
X141959Y143322D01*
X141999Y143357D01*
X142046Y143392D01*
X142105Y143415D01*
X142175Y143421D01*
X142187D01*
X142204Y143415D01*
X142234Y143410D01*
X142269Y143398D01*
X142298Y143369D01*
X142321Y143334D01*
Y143287D01*
Y143252D01*
X142310Y143217D01*
X141625Y141204D01*
X141619Y141192D01*
X141613Y141163D01*
X141608Y141122D01*
X141596Y141064D01*
Y140999D01*
X141602Y140935D01*
X141619Y140865D01*
X141649Y140800D01*
X141654Y140795D01*
X141672Y140777D01*
X141695Y140748D01*
X141736Y140719D01*
X141783Y140689D01*
X141842Y140660D01*
X141912Y140643D01*
X141994Y140637D01*
X142035D01*
X142081Y140648D01*
X142140Y140660D01*
X142210Y140678D01*
X142292Y140707D01*
X142374Y140748D01*
X142456Y140800D01*
X142468Y140806D01*
X142491Y140830D01*
X142532Y140865D01*
X142579Y140912D01*
X142625Y140970D01*
X142678Y141040D01*
X142725Y141116D01*
X142760Y141204D01*
X143445Y143217D01*
X143450Y143228D01*
X143456Y143252D01*
X143480Y143281D01*
X143503Y143322D01*
X143544Y143357D01*
X143591Y143392D01*
X143649Y143415D01*
X143719Y143421D01*
X143731D01*
X143749Y143415D01*
D02*
G37*
G36*
X145346D02*
X145375Y143410D01*
X145410Y143398D01*
X145439Y143369D01*
X145463Y143334D01*
Y143287D01*
Y143252D01*
X145451Y143217D01*
X144503Y140432D01*
X144498Y140426D01*
X144492Y140403D01*
X144474Y140368D01*
X144445Y140332D01*
X144410Y140297D01*
X144363Y140262D01*
X144299Y140239D01*
X144228Y140233D01*
X144223D01*
X144199Y140239D01*
X144170Y140245D01*
X144135Y140257D01*
X144106Y140280D01*
X144088Y140315D01*
X144082Y140368D01*
Y140397D01*
X144094Y140432D01*
X144901Y142795D01*
X144509Y142456D01*
X144503D01*
X144498Y142444D01*
X144462Y142427D01*
X144410Y142409D01*
X144345Y142398D01*
X144340D01*
X144316Y142403D01*
X144287Y142409D01*
X144258Y142421D01*
X144228Y142444D01*
X144205Y142480D01*
Y142532D01*
Y142561D01*
X144217Y142596D01*
Y142602D01*
X144223Y142608D01*
X144240Y142643D01*
X144269Y142690D01*
X144322Y142737D01*
X145129Y143345D01*
X145135Y143351D01*
X145147Y143357D01*
X145164Y143369D01*
X145188Y143386D01*
X145252Y143410D01*
X145281Y143415D01*
X145317Y143421D01*
X145328D01*
X145346Y143415D01*
D02*
G37*
G36*
X14037Y77204D02*
X14066Y77199D01*
X14102Y77187D01*
X14131Y77158D01*
X14154Y77122D01*
Y77076D01*
Y77041D01*
X14143Y77005D01*
X13195Y74221D01*
X13189Y74215D01*
X13183Y74192D01*
X13166Y74157D01*
X13136Y74121D01*
X13101Y74086D01*
X13055Y74051D01*
X12990Y74028D01*
X12920Y74022D01*
X12914D01*
X12891Y74028D01*
X12861Y74034D01*
X12826Y74045D01*
X12797Y74069D01*
X12779Y74104D01*
X12774Y74157D01*
Y74186D01*
X12785Y74221D01*
X13593Y76584D01*
X13201Y76245D01*
X13195D01*
X13189Y76233D01*
X13154Y76216D01*
X13101Y76198D01*
X13037Y76187D01*
X13031D01*
X13008Y76192D01*
X12978Y76198D01*
X12949Y76210D01*
X12920Y76233D01*
X12897Y76268D01*
Y76321D01*
Y76350D01*
X12908Y76385D01*
Y76391D01*
X12914Y76397D01*
X12932Y76432D01*
X12961Y76479D01*
X13013Y76526D01*
X13821Y77134D01*
X13827Y77140D01*
X13838Y77146D01*
X13856Y77158D01*
X13879Y77175D01*
X13944Y77199D01*
X13973Y77204D01*
X14008Y77210D01*
X14020D01*
X14037Y77204D01*
D02*
G37*
G36*
X12452D02*
X12481Y77199D01*
X12516Y77187D01*
X12546Y77158D01*
X12569Y77122D01*
Y77076D01*
Y77041D01*
X12557Y77005D01*
X11820Y74841D01*
Y74835D01*
X11814Y74823D01*
X11808Y74806D01*
X11797Y74783D01*
X11767Y74718D01*
X11721Y74636D01*
X11662Y74549D01*
X11586Y74449D01*
X11492Y74350D01*
X11381Y74256D01*
X11376D01*
X11370Y74244D01*
X11352Y74233D01*
X11329Y74221D01*
X11264Y74180D01*
X11177Y74139D01*
X11077Y74098D01*
X10966Y74057D01*
X10843Y74034D01*
X10714Y74022D01*
X10399D01*
X10375Y74028D01*
X10346Y74034D01*
X10317Y74045D01*
X10287Y74069D01*
X10264Y74104D01*
Y74157D01*
Y74186D01*
X10276Y74221D01*
X10282Y74233D01*
X10287Y74256D01*
X10305Y74285D01*
X10334Y74326D01*
X10369Y74361D01*
X10416Y74396D01*
X10475Y74420D01*
X10545Y74426D01*
X10884D01*
X10919Y74432D01*
X10960Y74443D01*
X11013Y74455D01*
X11071Y74472D01*
X11130Y74502D01*
X11188Y74543D01*
X11194Y74549D01*
X11218Y74566D01*
X11241Y74590D01*
X11276Y74625D01*
X11317Y74671D01*
X11352Y74718D01*
X11387Y74777D01*
X11411Y74841D01*
X12148Y77005D01*
X12154Y77017D01*
X12159Y77041D01*
X12183Y77070D01*
X12206Y77111D01*
X12247Y77146D01*
X12294Y77181D01*
X12353Y77204D01*
X12423Y77210D01*
X12434D01*
X12452Y77204D01*
D02*
G37*
G36*
X192629Y267651D02*
X192664Y267645D01*
X192693Y267633D01*
X192723Y267604D01*
X192746Y267569D01*
X192752Y267522D01*
Y267487D01*
X192740Y267452D01*
X192734Y267446D01*
X192729Y267423D01*
X192705Y267388D01*
X192682Y267353D01*
X192641Y267318D01*
X192594Y267282D01*
X192535Y267259D01*
X192465Y267253D01*
X191594D01*
X191307Y266417D01*
X191752D01*
X191775Y266411D01*
X191833Y266405D01*
X191910Y266387D01*
X191991Y266358D01*
X192073Y266311D01*
X192155Y266253D01*
X192220Y266171D01*
X192226Y266159D01*
X192243Y266130D01*
X192266Y266077D01*
X192284Y266007D01*
X192301Y265925D01*
Y265826D01*
X192290Y265715D01*
X192278Y265656D01*
X192261Y265592D01*
X192155Y265287D01*
Y265282D01*
X192149Y265270D01*
X192144Y265252D01*
X192132Y265229D01*
X192103Y265171D01*
X192056Y265089D01*
X191997Y264995D01*
X191921Y264901D01*
X191828Y264802D01*
X191717Y264708D01*
X191711D01*
X191705Y264697D01*
X191687Y264685D01*
X191664Y264673D01*
X191600Y264632D01*
X191512Y264591D01*
X191412Y264545D01*
X191301Y264504D01*
X191184Y264480D01*
X191056Y264469D01*
X190429D01*
X190406Y264474D01*
X190377Y264480D01*
X190342Y264492D01*
X190313Y264515D01*
X190295Y264550D01*
X190289Y264603D01*
Y264632D01*
X190301Y264667D01*
X190307Y264679D01*
X190313Y264703D01*
X190336Y264732D01*
X190359Y264773D01*
X190400Y264808D01*
X190447Y264843D01*
X190500Y264866D01*
X190570Y264872D01*
X191219D01*
X191254Y264878D01*
X191295Y264890D01*
X191348Y264901D01*
X191407Y264919D01*
X191465Y264948D01*
X191524Y264989D01*
X191529Y264995D01*
X191553Y265013D01*
X191576Y265036D01*
X191611Y265071D01*
X191652Y265118D01*
X191687Y265165D01*
X191722Y265223D01*
X191746Y265287D01*
X191851Y265592D01*
Y265598D01*
X191857Y265621D01*
X191863Y265656D01*
X191869Y265697D01*
Y265744D01*
Y265791D01*
X191851Y265843D01*
X191828Y265890D01*
X191822Y265896D01*
X191816Y265908D01*
X191793Y265931D01*
X191769Y265954D01*
X191734Y265972D01*
X191687Y265995D01*
X191635Y266007D01*
X191576Y266013D01*
X190956D01*
X190933Y266019D01*
X190903Y266025D01*
X190868Y266036D01*
X190839Y266060D01*
X190822Y266095D01*
X190816Y266147D01*
Y266177D01*
X190827Y266212D01*
X191249Y267452D01*
X191254Y267464D01*
X191260Y267487D01*
X191284Y267516D01*
X191307Y267557D01*
X191348Y267592D01*
X191395Y267628D01*
X191447Y267651D01*
X191518Y267657D01*
X192612D01*
X192629Y267651D01*
D02*
G37*
G36*
X190576D02*
X190611Y267645D01*
X190640Y267633D01*
X190669Y267604D01*
X190693Y267569D01*
X190699Y267522D01*
Y267487D01*
X190687Y267452D01*
X190681Y267446D01*
X190675Y267423D01*
X190652Y267388D01*
X190628Y267353D01*
X190587Y267318D01*
X190541Y267282D01*
X190482Y267259D01*
X190412Y267253D01*
X189763D01*
X189727Y267247D01*
X189687Y267236D01*
X189634Y267224D01*
X189581Y267200D01*
X189523Y267171D01*
X189458Y267130D01*
X189453Y267124D01*
X189435Y267107D01*
X189406Y267083D01*
X189371Y267048D01*
X189330Y267002D01*
X189295Y266955D01*
X189265Y266896D01*
X189236Y266832D01*
X188710Y265287D01*
Y265282D01*
X188704Y265258D01*
X188698Y265223D01*
X188692Y265182D01*
X188686Y265135D01*
X188692Y265089D01*
X188704Y265036D01*
X188727Y264989D01*
X188733Y264983D01*
X188745Y264972D01*
X188762Y264954D01*
X188792Y264931D01*
X188827Y264907D01*
X188868Y264890D01*
X188920Y264878D01*
X188979Y264872D01*
X189611D01*
X189628Y264866D01*
X189663Y264860D01*
X189692Y264849D01*
X189722Y264820D01*
X189745Y264784D01*
X189751Y264738D01*
Y264703D01*
X189739Y264667D01*
X189733Y264662D01*
X189727Y264638D01*
X189704Y264603D01*
X189681Y264568D01*
X189640Y264533D01*
X189593Y264498D01*
X189529Y264474D01*
X189458Y264469D01*
X188809D01*
X188786Y264474D01*
X188727Y264480D01*
X188651Y264498D01*
X188569Y264527D01*
X188487Y264568D01*
X188405Y264627D01*
X188341Y264703D01*
X188335Y264714D01*
X188318Y264743D01*
X188300Y264796D01*
X188277Y264866D01*
X188259Y264948D01*
Y265054D01*
X188271Y265165D01*
X188283Y265223D01*
X188300Y265287D01*
X188827Y266832D01*
Y266838D01*
X188832Y266849D01*
X188838Y266867D01*
X188850Y266890D01*
X188879Y266955D01*
X188926Y267037D01*
X188985Y267124D01*
X189061Y267224D01*
X189154Y267323D01*
X189265Y267417D01*
X189271D01*
X189283Y267429D01*
X189295Y267440D01*
X189324Y267452D01*
X189382Y267493D01*
X189470Y267540D01*
X189570Y267581D01*
X189681Y267622D01*
X189804Y267645D01*
X189926Y267657D01*
X190558D01*
X190576Y267651D01*
D02*
G37*
G36*
X183275Y143225D02*
X183333Y143213D01*
X183398Y143196D01*
X184942Y142669D01*
X184948D01*
X184960Y142664D01*
X184977Y142658D01*
X185001Y142646D01*
X185065Y142617D01*
X185147Y142570D01*
X185235Y142511D01*
X185334Y142435D01*
X185433Y142342D01*
X185527Y142231D01*
Y142225D01*
X185539Y142213D01*
X185550Y142201D01*
X185562Y142172D01*
X185603Y142114D01*
X185650Y142026D01*
X185691Y141927D01*
X185732Y141815D01*
X185755Y141692D01*
X185767Y141570D01*
Y140938D01*
X185761Y140920D01*
X185755Y140885D01*
X185744Y140856D01*
X185714Y140827D01*
X185679Y140803D01*
X185632Y140797D01*
X185597D01*
X185562Y140809D01*
X185556Y140815D01*
X185533Y140821D01*
X185498Y140844D01*
X185463Y140868D01*
X185428Y140909D01*
X185393Y140955D01*
X185369Y141014D01*
X185363Y141084D01*
Y141733D01*
X185357Y141769D01*
X185346Y141809D01*
X185334Y141862D01*
X185311Y141915D01*
X185281Y141973D01*
X185240Y142038D01*
X185235Y142043D01*
X185217Y142061D01*
X185194Y142090D01*
X185159Y142125D01*
X185112Y142166D01*
X185065Y142201D01*
X185006Y142231D01*
X184942Y142260D01*
X183398Y142786D01*
X183392D01*
X183369Y142792D01*
X183333Y142798D01*
X183292Y142804D01*
X183246Y142810D01*
X183199Y142804D01*
X183146Y142792D01*
X183099Y142769D01*
X183094Y142763D01*
X183082Y142751D01*
X183064Y142734D01*
X183041Y142704D01*
X183018Y142669D01*
X183000Y142629D01*
X182988Y142576D01*
X182982Y142517D01*
Y141885D01*
X182976Y141868D01*
X182971Y141833D01*
X182959Y141804D01*
X182930Y141774D01*
X182895Y141751D01*
X182848Y141745D01*
X182813D01*
X182778Y141757D01*
X182772Y141763D01*
X182748Y141769D01*
X182713Y141792D01*
X182678Y141815D01*
X182643Y141856D01*
X182608Y141903D01*
X182585Y141967D01*
X182579Y142038D01*
Y142687D01*
X182585Y142710D01*
X182590Y142769D01*
X182608Y142845D01*
X182637Y142927D01*
X182678Y143009D01*
X182737Y143091D01*
X182813Y143155D01*
X182824Y143161D01*
X182854Y143178D01*
X182906Y143196D01*
X182976Y143219D01*
X183058Y143237D01*
X183164D01*
X183275Y143225D01*
D02*
G37*
G36*
X182778Y141195D02*
X182789Y141189D01*
X182813Y141178D01*
X182848Y141154D01*
X182889Y141125D01*
X184714Y139370D01*
X184720Y139364D01*
X184731Y139353D01*
X184755Y139335D01*
X184784Y139312D01*
X184860Y139259D01*
X184901Y139235D01*
X184942Y139218D01*
X184948D01*
X184971Y139212D01*
X185006Y139206D01*
X185047Y139200D01*
X185094D01*
X185141D01*
X185194Y139218D01*
X185240Y139241D01*
X185246Y139247D01*
X185258Y139259D01*
X185281Y139276D01*
X185305Y139306D01*
X185322Y139341D01*
X185346Y139382D01*
X185357Y139434D01*
X185363Y139493D01*
Y139505D01*
X185357Y139534D01*
X185346Y139586D01*
X185317Y139651D01*
X185276Y139733D01*
X185246Y139779D01*
X185205Y139832D01*
X185164Y139885D01*
X185118Y139937D01*
X185059Y139996D01*
X184995Y140060D01*
X184989Y140066D01*
X184977Y140078D01*
X184966Y140095D01*
X184948Y140119D01*
X184913Y140183D01*
X184901Y140224D01*
X184895Y140271D01*
Y140277D01*
X184901Y140300D01*
X184907Y140329D01*
X184919Y140365D01*
X184948Y140394D01*
X184983Y140411D01*
X185030Y140417D01*
X185065D01*
X185100Y140405D01*
X185106Y140400D01*
X185124Y140394D01*
X185147Y140382D01*
X185164Y140370D01*
X185170Y140365D01*
X185188Y140347D01*
X185223Y140318D01*
X185258Y140283D01*
X185305Y140236D01*
X185357Y140183D01*
X185410Y140119D01*
X185469Y140049D01*
X185574Y139897D01*
X185627Y139815D01*
X185673Y139727D01*
X185714Y139633D01*
X185744Y139546D01*
X185761Y139452D01*
X185767Y139358D01*
Y139323D01*
X185761Y139300D01*
X185755Y139241D01*
X185738Y139165D01*
X185708Y139083D01*
X185662Y139002D01*
X185603Y138920D01*
X185521Y138855D01*
X185510Y138849D01*
X185480Y138832D01*
X185428Y138808D01*
X185357Y138791D01*
X185276Y138773D01*
X185176D01*
X185065Y138785D01*
X185006Y138797D01*
X184942Y138814D01*
X184930Y138820D01*
X184901Y138832D01*
X184860Y138849D01*
X184796Y138879D01*
X184726Y138920D01*
X184650Y138972D01*
X184562Y139042D01*
X184474Y139119D01*
X182982Y140593D01*
Y139674D01*
X182976Y139657D01*
X182971Y139627D01*
X182959Y139592D01*
X182930Y139563D01*
X182895Y139540D01*
X182848D01*
X182813D01*
X182778Y139551D01*
X182772Y139557D01*
X182748Y139563D01*
X182713Y139581D01*
X182678Y139610D01*
X182643Y139645D01*
X182608Y139692D01*
X182585Y139756D01*
X182579Y139826D01*
Y141067D01*
X182585Y141090D01*
X182590Y141119D01*
X182602Y141154D01*
X182625Y141183D01*
X182661Y141201D01*
X182713Y141207D01*
X182743D01*
X182778Y141195D01*
D02*
G37*
G36*
X175139Y173458D02*
X175169Y173452D01*
X175204Y173440D01*
X175233Y173411D01*
X175256Y173376D01*
Y173329D01*
Y173294D01*
X175245Y173259D01*
X174297Y170475D01*
X174291Y170469D01*
X174285Y170445D01*
X174268Y170410D01*
X174239Y170375D01*
X174203Y170340D01*
X174157Y170305D01*
X174092Y170281D01*
X174022Y170276D01*
X174016D01*
X173993Y170281D01*
X173964Y170287D01*
X173928Y170299D01*
X173899Y170322D01*
X173882Y170358D01*
X173876Y170410D01*
Y170439D01*
X173888Y170475D01*
X174695Y172838D01*
X174303Y172499D01*
X174297D01*
X174291Y172487D01*
X174256Y172469D01*
X174203Y172452D01*
X174139Y172440D01*
X174133D01*
X174110Y172446D01*
X174081Y172452D01*
X174051Y172464D01*
X174022Y172487D01*
X173999Y172522D01*
Y172575D01*
Y172604D01*
X174010Y172639D01*
Y172645D01*
X174016Y172651D01*
X174034Y172686D01*
X174063Y172733D01*
X174116Y172779D01*
X174923Y173388D01*
X174929Y173394D01*
X174941Y173399D01*
X174958Y173411D01*
X174981Y173429D01*
X175046Y173452D01*
X175075Y173458D01*
X175110Y173464D01*
X175122D01*
X175139Y173458D01*
D02*
G37*
G36*
X173548D02*
X173583Y173452D01*
X173613Y173440D01*
X173642Y173411D01*
X173665Y173376D01*
X173671Y173329D01*
Y173294D01*
X173659Y173259D01*
X173653Y173253D01*
X173648Y173230D01*
X173624Y173195D01*
X173601Y173160D01*
X173560Y173125D01*
X173513Y173089D01*
X173455Y173066D01*
X173384Y173060D01*
X172735D01*
X172700Y173054D01*
X172659Y173043D01*
X172606Y173031D01*
X172554Y173008D01*
X172495Y172978D01*
X172431Y172937D01*
X172425Y172932D01*
X172407Y172914D01*
X172378Y172890D01*
X172343Y172855D01*
X172302Y172809D01*
X172267Y172762D01*
X172238Y172703D01*
X172209Y172639D01*
X171682Y171095D01*
Y171089D01*
X171676Y171065D01*
X171670Y171030D01*
X171665Y170989D01*
X171659Y170942D01*
X171665Y170896D01*
X171676Y170843D01*
X171700Y170796D01*
X171705Y170790D01*
X171717Y170779D01*
X171735Y170761D01*
X171764Y170738D01*
X171799Y170714D01*
X171840Y170697D01*
X171893Y170685D01*
X171951Y170679D01*
X172583D01*
X172600Y170673D01*
X172636Y170668D01*
X172665Y170656D01*
X172694Y170627D01*
X172717Y170591D01*
X172723Y170545D01*
Y170510D01*
X172712Y170475D01*
X172706Y170469D01*
X172700Y170445D01*
X172677Y170410D01*
X172653Y170375D01*
X172612Y170340D01*
X172565Y170305D01*
X172501Y170281D01*
X172431Y170276D01*
X171782D01*
X171758Y170281D01*
X171700Y170287D01*
X171624Y170305D01*
X171542Y170334D01*
X171460Y170375D01*
X171378Y170433D01*
X171314Y170510D01*
X171308Y170521D01*
X171290Y170551D01*
X171273Y170603D01*
X171249Y170673D01*
X171232Y170755D01*
Y170861D01*
X171243Y170972D01*
X171255Y171030D01*
X171273Y171095D01*
X171799Y172639D01*
Y172645D01*
X171805Y172657D01*
X171811Y172674D01*
X171823Y172697D01*
X171852Y172762D01*
X171898Y172844D01*
X171957Y172932D01*
X172033Y173031D01*
X172127Y173130D01*
X172238Y173224D01*
X172244D01*
X172255Y173236D01*
X172267Y173247D01*
X172296Y173259D01*
X172355Y173300D01*
X172443Y173347D01*
X172542Y173388D01*
X172653Y173429D01*
X172776Y173452D01*
X172899Y173464D01*
X173531D01*
X173548Y173458D01*
D02*
G37*
%LPC*%
G36*
X123330Y241104D02*
X122616D01*
X121803Y238722D01*
X122552D01*
X122587Y238728D01*
X122628Y238740D01*
X122681Y238752D01*
X122733Y238769D01*
X122798Y238799D01*
X122856Y238840D01*
X122862Y238845D01*
X122885Y238863D01*
X122909Y238886D01*
X122944Y238921D01*
X122985Y238968D01*
X123020Y239015D01*
X123055Y239073D01*
X123078Y239138D01*
X123605Y240682D01*
Y240688D01*
X123611Y240711D01*
X123617Y240747D01*
X123623Y240788D01*
Y240834D01*
Y240881D01*
X123605Y240934D01*
X123582Y240981D01*
X123576Y240986D01*
X123570Y240998D01*
X123546Y241022D01*
X123523Y241045D01*
X123488Y241062D01*
X123441Y241086D01*
X123388Y241098D01*
X123330Y241104D01*
D02*
G37*
G36*
X170979Y66856D02*
X170922D01*
X170853Y66845D01*
X170772Y66821D01*
X170668Y66798D01*
X170564Y66752D01*
X170449Y66695D01*
X170322Y66614D01*
X170311Y66602D01*
X170276Y66568D01*
X170219Y66522D01*
X170149Y66452D01*
X170069Y66372D01*
X169999Y66280D01*
X169942Y66164D01*
X169884Y66037D01*
X169815Y65830D01*
X171441D01*
X171521Y66037D01*
Y66049D01*
X171533Y66095D01*
X171545Y66153D01*
X171556Y66233D01*
Y66326D01*
Y66418D01*
X171521Y66522D01*
X171475Y66614D01*
X171464Y66625D01*
X171441Y66649D01*
X171406Y66695D01*
X171349Y66741D01*
X171279Y66775D01*
X171199Y66821D01*
X171095Y66845D01*
X170979Y66856D01*
D02*
G37*
G36*
X161006Y66868D02*
X160948D01*
X160891Y66856D01*
X160810Y66833D01*
X160706Y66810D01*
X160602Y66764D01*
X160476Y66706D01*
X160360Y66625D01*
X160349Y66614D01*
X160314Y66579D01*
X160257Y66533D01*
X160187Y66464D01*
X160107Y66372D01*
X160038Y66280D01*
X159980Y66164D01*
X159922Y66037D01*
X159507Y64827D01*
Y64815D01*
X159496Y64769D01*
X159484Y64700D01*
X159473Y64619D01*
X159461Y64527D01*
X159473Y64423D01*
X159496Y64331D01*
X159542Y64239D01*
X159553Y64227D01*
X159576Y64204D01*
X159611Y64170D01*
X159669Y64123D01*
X159738Y64077D01*
X159818Y64043D01*
X159922Y64020D01*
X160038Y64008D01*
X160095D01*
X160164Y64020D01*
X160245Y64043D01*
X160349Y64066D01*
X160453Y64100D01*
X160579Y64158D01*
X160695Y64239D01*
X160706Y64250D01*
X160752Y64285D01*
X160799Y64331D01*
X160868Y64400D01*
X160948Y64492D01*
X161018Y64585D01*
X161087Y64700D01*
X161133Y64827D01*
X161548Y66037D01*
Y66049D01*
X161559Y66095D01*
X161571Y66164D01*
X161583Y66245D01*
Y66337D01*
Y66430D01*
X161548Y66533D01*
X161502Y66625D01*
X161490Y66637D01*
X161479Y66660D01*
X161433Y66706D01*
X161387Y66752D01*
X161317Y66787D01*
X161225Y66833D01*
X161121Y66856D01*
X161006Y66868D01*
D02*
G37*
G36*
X156959Y68701D02*
X155852D01*
X155080Y66441D01*
X156267D01*
X156359Y66464D01*
X156475Y66487D01*
X156613Y66522D01*
X156774Y66579D01*
X156936Y66660D01*
X157097Y66764D01*
X157120Y66775D01*
X157167Y66821D01*
X157247Y66891D01*
X157340Y66983D01*
X157432Y67098D01*
X157536Y67237D01*
X157628Y67398D01*
X157697Y67571D01*
X157709Y67594D01*
X157720Y67652D01*
X157731Y67732D01*
X157755Y67848D01*
Y67975D01*
X157743Y68101D01*
X157709Y68240D01*
X157639Y68366D01*
X157628Y68378D01*
X157605Y68424D01*
X157547Y68470D01*
X157478Y68540D01*
X157386Y68597D01*
X157270Y68655D01*
X157120Y68689D01*
X156959Y68701D01*
D02*
G37*
G36*
X179223Y8988D02*
X177878D01*
X177825Y8975D01*
X177771Y8961D01*
X177623Y8921D01*
X177529Y8867D01*
X177448Y8813D01*
X177435Y8800D01*
X177408Y8786D01*
X177367Y8746D01*
X177327Y8692D01*
X177219Y8558D01*
X177125Y8383D01*
X176399Y6244D01*
Y6231D01*
X176385Y6204D01*
Y6164D01*
X176372Y6096D01*
Y5962D01*
X176399Y5895D01*
X176426Y5827D01*
Y5814D01*
X176453Y5800D01*
X176520Y5747D01*
X176628Y5679D01*
X176708Y5666D01*
X176789Y5652D01*
X178094D01*
X179223Y8988D01*
D02*
G37*
G36*
X81720Y11127D02*
X80428D01*
X79527Y8490D01*
X80913D01*
X81020Y8517D01*
X81155Y8544D01*
X81316Y8585D01*
X81504Y8652D01*
X81693Y8746D01*
X81881Y8867D01*
X81908Y8880D01*
X81962Y8934D01*
X82056Y9015D01*
X82164Y9123D01*
X82271Y9257D01*
X82392Y9419D01*
X82500Y9607D01*
X82580Y9809D01*
X82594Y9835D01*
X82607Y9903D01*
X82621Y9997D01*
X82648Y10131D01*
Y10279D01*
X82634Y10427D01*
X82594Y10589D01*
X82513Y10737D01*
X82500Y10750D01*
X82473Y10804D01*
X82406Y10858D01*
X82325Y10938D01*
X82217Y11006D01*
X82083Y11073D01*
X81908Y11113D01*
X81720Y11127D01*
D02*
G37*
G36*
X42350D02*
X41058D01*
X40399Y9203D01*
X41771D01*
X41852Y9217D01*
X41946Y9244D01*
X42067Y9270D01*
X42188Y9311D01*
X42336Y9378D01*
X42471Y9472D01*
X42484Y9486D01*
X42538Y9526D01*
X42592Y9580D01*
X42672Y9661D01*
X42766Y9768D01*
X42847Y9876D01*
X42928Y10010D01*
X42982Y10158D01*
Y10172D01*
X42995Y10226D01*
X43009Y10293D01*
X43022Y10387D01*
Y10494D01*
Y10602D01*
X42982Y10723D01*
X42928Y10831D01*
X42915Y10844D01*
X42901Y10871D01*
X42847Y10925D01*
X42793Y10979D01*
X42713Y11033D01*
X42605Y11086D01*
X42484Y11113D01*
X42350Y11127D01*
D02*
G37*
G36*
X41381Y8275D02*
X40077D01*
X39189Y5652D01*
X40588D01*
X40695Y5679D01*
X40830Y5706D01*
X40991Y5747D01*
X41179Y5814D01*
X41368Y5908D01*
X41556Y6029D01*
X41583Y6042D01*
X41637Y6096D01*
X41731Y6177D01*
X41838Y6285D01*
X41946Y6419D01*
X42067Y6581D01*
X42175Y6755D01*
X42255Y6957D01*
X42269Y6984D01*
X42282Y7051D01*
X42296Y7145D01*
X42323Y7280D01*
Y7428D01*
X42309Y7576D01*
X42269Y7737D01*
X42188Y7885D01*
X42175Y7899D01*
X42134Y7952D01*
X42081Y8006D01*
X41986Y8087D01*
X41879Y8154D01*
X41744Y8221D01*
X41570Y8262D01*
X41381Y8275D01*
D02*
G37*
G36*
X5661Y140285D02*
X5615D01*
X5568D01*
X5515Y140268D01*
X5468Y140244D01*
X5462Y140238D01*
X5451Y140233D01*
X5427Y140209D01*
X5404Y140186D01*
X5386Y140151D01*
X5363Y140104D01*
X5351Y140051D01*
X5345Y139993D01*
Y139583D01*
X6071Y139338D01*
X6077D01*
X6100Y139332D01*
X6135Y139326D01*
X6176Y139320D01*
X6223Y139314D01*
X6276Y139320D01*
X6322Y139332D01*
X6369Y139355D01*
X6375Y139361D01*
X6387Y139373D01*
X6404Y139390D01*
X6428Y139419D01*
X6451Y139454D01*
X6469Y139496D01*
X6480Y139548D01*
X6486Y139607D01*
Y139636D01*
X6480Y139671D01*
X6469Y139712D01*
X6457Y139765D01*
X6439Y139823D01*
X6410Y139882D01*
X6369Y139940D01*
X6363Y139946D01*
X6346Y139969D01*
X6322Y139993D01*
X6287Y140028D01*
X6240Y140069D01*
X6194Y140104D01*
X6135Y140139D01*
X6071Y140162D01*
X5767Y140268D01*
X5761D01*
X5737Y140273D01*
X5702Y140279D01*
X5661Y140285D01*
D02*
G37*
G36*
X27384Y122037D02*
X26823D01*
X26431Y120891D01*
X27033D01*
X27080Y120902D01*
X27139Y120914D01*
X27209Y120932D01*
X27291Y120961D01*
X27372Y121002D01*
X27454Y121054D01*
X27466Y121060D01*
X27489Y121084D01*
X27530Y121119D01*
X27577Y121166D01*
X27624Y121224D01*
X27677Y121294D01*
X27724Y121376D01*
X27759Y121464D01*
X27764Y121476D01*
X27770Y121505D01*
X27776Y121546D01*
X27788Y121604D01*
Y121669D01*
X27782Y121733D01*
X27764Y121803D01*
X27729Y121868D01*
X27724Y121873D01*
X27712Y121897D01*
X27683Y121920D01*
X27647Y121955D01*
X27601Y121985D01*
X27542Y122014D01*
X27466Y122031D01*
X27384Y122037D01*
D02*
G37*
G36*
X62223Y121997D02*
X61662D01*
X61270Y120851D01*
X61872D01*
X61919Y120862D01*
X61978Y120874D01*
X62048Y120891D01*
X62130Y120921D01*
X62212Y120962D01*
X62293Y121014D01*
X62305Y121020D01*
X62329Y121044D01*
X62370Y121079D01*
X62416Y121125D01*
X62463Y121184D01*
X62516Y121254D01*
X62563Y121336D01*
X62598Y121424D01*
X62603Y121436D01*
X62609Y121465D01*
X62615Y121506D01*
X62627Y121564D01*
Y121629D01*
X62621Y121693D01*
X62603Y121763D01*
X62568Y121827D01*
X62563Y121833D01*
X62551Y121857D01*
X62522Y121880D01*
X62486Y121915D01*
X62440Y121944D01*
X62381Y121974D01*
X62305Y121991D01*
X62223Y121997D01*
D02*
G37*
G36*
X100908Y122022D02*
X100896D01*
X100872Y122016D01*
X100826Y121998D01*
X100767Y121963D01*
X100732Y121934D01*
X100691Y121905D01*
X100650Y121864D01*
X100609Y121817D01*
X100562Y121764D01*
X100516Y121694D01*
X100469Y121624D01*
X100416Y121536D01*
Y121530D01*
X100410Y121519D01*
X100399Y121501D01*
X100381Y121477D01*
X100364Y121448D01*
X100346Y121407D01*
X100299Y121320D01*
X100247Y121214D01*
X100194Y121097D01*
X100141Y120963D01*
X100089Y120828D01*
Y120822D01*
X100083Y120811D01*
X100077Y120793D01*
X100071Y120764D01*
X100059Y120729D01*
X100048Y120688D01*
X100018Y120594D01*
X99995Y120489D01*
X99966Y120366D01*
X99942Y120243D01*
X99925Y120115D01*
Y120109D01*
Y120097D01*
Y120073D01*
X99919Y120038D01*
Y119962D01*
X99931Y119880D01*
X99948Y119793D01*
X99977Y119717D01*
X100001Y119687D01*
X100024Y119664D01*
X100059Y119647D01*
X100094Y119641D01*
X100106D01*
X100135Y119647D01*
X100182Y119664D01*
X100241Y119699D01*
X100276Y119722D01*
X100311Y119758D01*
X100352Y119793D01*
X100399Y119840D01*
X100445Y119892D01*
X100492Y119957D01*
X100539Y120033D01*
X100592Y120115D01*
Y120120D01*
X100598Y120132D01*
X100609Y120150D01*
X100627Y120173D01*
X100638Y120202D01*
X100662Y120243D01*
X100703Y120331D01*
X100755Y120436D01*
X100808Y120559D01*
X100861Y120688D01*
X100913Y120828D01*
Y120834D01*
X100919Y120846D01*
X100925Y120863D01*
X100937Y120893D01*
X100943Y120928D01*
X100954Y120963D01*
X100984Y121056D01*
X101013Y121168D01*
X101036Y121290D01*
X101060Y121413D01*
X101077Y121542D01*
Y121548D01*
Y121565D01*
X101083Y121589D01*
Y121618D01*
Y121694D01*
X101071Y121782D01*
X101054Y121870D01*
X101024Y121946D01*
X101001Y121975D01*
X100978Y122004D01*
X100943Y122016D01*
X100908Y122022D01*
D02*
G37*
G36*
X96953D02*
X96391D01*
X95999Y120875D01*
X96602D01*
X96649Y120887D01*
X96707Y120898D01*
X96777Y120916D01*
X96859Y120945D01*
X96941Y120986D01*
X97023Y121039D01*
X97035Y121045D01*
X97058Y121068D01*
X97099Y121103D01*
X97146Y121150D01*
X97193Y121208D01*
X97245Y121279D01*
X97292Y121361D01*
X97327Y121448D01*
X97333Y121460D01*
X97339Y121489D01*
X97345Y121530D01*
X97357Y121589D01*
Y121653D01*
X97351Y121717D01*
X97333Y121788D01*
X97298Y121852D01*
X97292Y121858D01*
X97281Y121881D01*
X97251Y121905D01*
X97216Y121940D01*
X97169Y121969D01*
X97111Y121998D01*
X97035Y122016D01*
X96953Y122022D01*
D02*
G37*
G36*
X27808Y161522D02*
X27779D01*
X27750Y161516D01*
X27709Y161504D01*
X27656Y161493D01*
X27604Y161469D01*
X27539Y161440D01*
X27481Y161399D01*
X27475Y161393D01*
X27457Y161376D01*
X27428Y161352D01*
X27393Y161317D01*
X27352Y161276D01*
X27317Y161224D01*
X27288Y161171D01*
X27259Y161107D01*
X27153Y160797D01*
Y160791D01*
X27147Y160767D01*
X27142Y160732D01*
X27136Y160691D01*
X27130Y160645D01*
X27136Y160592D01*
X27147Y160545D01*
X27171Y160498D01*
X27177Y160493D01*
X27188Y160481D01*
X27206Y160463D01*
X27235Y160440D01*
X27270Y160416D01*
X27311Y160399D01*
X27364Y160387D01*
X27422Y160381D01*
X27838D01*
X28084Y161107D01*
Y161113D01*
X28089Y161136D01*
X28095Y161165D01*
X28101Y161206D01*
Y161253D01*
Y161300D01*
X28084Y161352D01*
X28060Y161399D01*
X28054Y161405D01*
X28048Y161417D01*
X28025Y161440D01*
X28002Y161464D01*
X27966Y161481D01*
X27920Y161504D01*
X27867Y161516D01*
X27808Y161522D01*
D02*
G37*
G36*
X25439Y161528D02*
X24878D01*
X24486Y160381D01*
X25088D01*
X25135Y160393D01*
X25194Y160405D01*
X25264Y160422D01*
X25346Y160451D01*
X25428Y160493D01*
X25510Y160545D01*
X25521Y160551D01*
X25545Y160574D01*
X25585Y160609D01*
X25632Y160656D01*
X25679Y160715D01*
X25732Y160785D01*
X25779Y160867D01*
X25814Y160955D01*
X25820Y160966D01*
X25825Y160996D01*
X25831Y161037D01*
X25843Y161095D01*
Y161159D01*
X25837Y161224D01*
X25820Y161294D01*
X25784Y161358D01*
X25779Y161364D01*
X25767Y161388D01*
X25738Y161411D01*
X25703Y161446D01*
X25656Y161475D01*
X25597Y161504D01*
X25521Y161522D01*
X25439Y161528D01*
D02*
G37*
G36*
X62537Y161552D02*
X62507D01*
X62472Y161546D01*
X62431Y161534D01*
X62379Y161523D01*
X62326Y161499D01*
X62268Y161470D01*
X62203Y161429D01*
X62197Y161423D01*
X62180Y161406D01*
X62151Y161382D01*
X62115Y161347D01*
X62080Y161306D01*
X62045Y161259D01*
X62010Y161201D01*
X61987Y161137D01*
Y161131D01*
X61981Y161107D01*
X61975Y161072D01*
X61969Y161031D01*
X61963Y160985D01*
X61969Y160938D01*
X61981Y160885D01*
X62004Y160838D01*
X62010Y160832D01*
X62022Y160821D01*
X62039Y160803D01*
X62069Y160780D01*
X62104Y160756D01*
X62145Y160739D01*
X62197Y160727D01*
X62256Y160721D01*
X62285D01*
X62320Y160727D01*
X62361Y160739D01*
X62414Y160750D01*
X62472Y160768D01*
X62531Y160797D01*
X62589Y160838D01*
X62595Y160844D01*
X62618Y160862D01*
X62642Y160885D01*
X62677Y160920D01*
X62718Y160967D01*
X62753Y161014D01*
X62788Y161072D01*
X62811Y161137D01*
Y161143D01*
X62817Y161166D01*
X62823Y161195D01*
X62829Y161236D01*
Y161283D01*
Y161330D01*
X62811Y161382D01*
X62788Y161429D01*
X62782Y161435D01*
X62776Y161447D01*
X62753Y161470D01*
X62730Y161494D01*
X62695Y161511D01*
X62648Y161534D01*
X62595Y161546D01*
X62537Y161552D01*
D02*
G37*
G36*
X62121Y160318D02*
X62092D01*
X62057Y160312D01*
X62016Y160300D01*
X61963Y160288D01*
X61905Y160265D01*
X61846Y160236D01*
X61788Y160195D01*
X61782Y160189D01*
X61764Y160171D01*
X61735Y160148D01*
X61700Y160113D01*
X61665Y160072D01*
X61630Y160025D01*
X61595Y159967D01*
X61566Y159902D01*
X61460Y159592D01*
Y159586D01*
X61454Y159563D01*
X61449Y159528D01*
X61443Y159487D01*
X61437Y159440D01*
X61443Y159388D01*
X61454Y159341D01*
X61478Y159294D01*
X61484Y159288D01*
X61495Y159276D01*
X61513Y159259D01*
X61542Y159235D01*
X61577Y159212D01*
X61618Y159194D01*
X61671Y159183D01*
X61729Y159177D01*
X61759D01*
X61794Y159183D01*
X61835Y159194D01*
X61887Y159206D01*
X61946Y159224D01*
X62004Y159253D01*
X62063Y159294D01*
X62069Y159300D01*
X62092Y159317D01*
X62115Y159341D01*
X62151Y159376D01*
X62191Y159423D01*
X62226Y159469D01*
X62262Y159528D01*
X62285Y159592D01*
X62390Y159902D01*
Y159908D01*
X62396Y159932D01*
X62402Y159961D01*
X62408Y160002D01*
Y160048D01*
Y160095D01*
X62390Y160148D01*
X62367Y160195D01*
X62361Y160201D01*
X62355Y160212D01*
X62332Y160236D01*
X62308Y160259D01*
X62273Y160277D01*
X62232Y160300D01*
X62180Y160312D01*
X62121Y160318D01*
D02*
G37*
G36*
X60167Y161558D02*
X59606D01*
X59214Y160411D01*
X59816D01*
X59863Y160423D01*
X59922Y160435D01*
X59992Y160452D01*
X60074Y160481D01*
X60156Y160522D01*
X60237Y160575D01*
X60249Y160581D01*
X60273Y160604D01*
X60314Y160639D01*
X60360Y160686D01*
X60407Y160745D01*
X60460Y160815D01*
X60507Y160897D01*
X60542Y160985D01*
X60548Y160996D01*
X60553Y161026D01*
X60559Y161066D01*
X60571Y161125D01*
Y161189D01*
X60565Y161254D01*
X60548Y161324D01*
X60513Y161388D01*
X60507Y161394D01*
X60495Y161417D01*
X60466Y161441D01*
X60431Y161476D01*
X60384Y161505D01*
X60325Y161534D01*
X60249Y161552D01*
X60167Y161558D01*
D02*
G37*
G36*
X94984Y161519D02*
X94423D01*
X94031Y160372D01*
X94633D01*
X94680Y160383D01*
X94739Y160395D01*
X94809Y160413D01*
X94891Y160442D01*
X94973Y160483D01*
X95055Y160536D01*
X95066Y160541D01*
X95090Y160565D01*
X95131Y160600D01*
X95177Y160647D01*
X95224Y160705D01*
X95277Y160775D01*
X95324Y160857D01*
X95359Y160945D01*
X95365Y160957D01*
X95371Y160986D01*
X95376Y161027D01*
X95388Y161085D01*
Y161150D01*
X95382Y161214D01*
X95365Y161284D01*
X95329Y161349D01*
X95324Y161355D01*
X95312Y161378D01*
X95283Y161401D01*
X95248Y161437D01*
X95201Y161466D01*
X95142Y161495D01*
X95066Y161513D01*
X94984Y161519D01*
D02*
G37*
G36*
X131716Y160322D02*
X131306D01*
X131060Y159597D01*
Y159591D01*
X131055Y159568D01*
X131049Y159533D01*
X131043Y159492D01*
X131037Y159445D01*
X131043Y159392D01*
X131055Y159345D01*
X131078Y159299D01*
X131084Y159293D01*
X131096Y159281D01*
X131113Y159264D01*
X131142Y159240D01*
X131177Y159217D01*
X131218Y159199D01*
X131271Y159187D01*
X131330Y159182D01*
X131359D01*
X131394Y159187D01*
X131435Y159199D01*
X131488Y159211D01*
X131546Y159228D01*
X131605Y159258D01*
X131663Y159299D01*
X131669Y159304D01*
X131692Y159322D01*
X131716Y159345D01*
X131751Y159380D01*
X131792Y159427D01*
X131827Y159474D01*
X131862Y159533D01*
X131885Y159597D01*
X131991Y159901D01*
Y159907D01*
X131997Y159930D01*
X132002Y159966D01*
X132008Y160006D01*
Y160053D01*
Y160100D01*
X131991Y160153D01*
X131967Y160199D01*
X131961Y160205D01*
X131956Y160217D01*
X131932Y160240D01*
X131909Y160264D01*
X131874Y160281D01*
X131827Y160305D01*
X131774Y160317D01*
X131716Y160322D01*
D02*
G37*
G36*
X129768Y161563D02*
X129206D01*
X128814Y160416D01*
X129417D01*
X129463Y160428D01*
X129522Y160439D01*
X129592Y160457D01*
X129674Y160486D01*
X129756Y160527D01*
X129838Y160580D01*
X129850Y160586D01*
X129873Y160609D01*
X129914Y160644D01*
X129961Y160691D01*
X130007Y160749D01*
X130060Y160820D01*
X130107Y160901D01*
X130142Y160989D01*
X130148Y161001D01*
X130154Y161030D01*
X130159Y161071D01*
X130171Y161130D01*
Y161194D01*
X130165Y161258D01*
X130148Y161328D01*
X130113Y161393D01*
X130107Y161399D01*
X130095Y161422D01*
X130066Y161446D01*
X130031Y161481D01*
X129984Y161510D01*
X129926Y161539D01*
X129850Y161557D01*
X129768Y161563D01*
D02*
G37*
G36*
X131712Y122010D02*
X131151D01*
X130759Y120863D01*
X131361D01*
X131408Y120875D01*
X131467Y120887D01*
X131537Y120904D01*
X131619Y120933D01*
X131701Y120974D01*
X131783Y121027D01*
X131794Y121033D01*
X131818Y121056D01*
X131859Y121091D01*
X131905Y121138D01*
X131952Y121197D01*
X132005Y121267D01*
X132052Y121349D01*
X132087Y121437D01*
X132093Y121448D01*
X132099Y121477D01*
X132104Y121518D01*
X132116Y121577D01*
Y121641D01*
X132110Y121706D01*
X132093Y121776D01*
X132058Y121840D01*
X132052Y121846D01*
X132040Y121869D01*
X132011Y121893D01*
X131976Y121928D01*
X131929Y121957D01*
X131870Y121986D01*
X131794Y122004D01*
X131712Y122010D01*
D02*
G37*
G36*
X6531Y121507D02*
X6490D01*
X6443Y121501D01*
X6385Y121483D01*
X6315Y121466D01*
X6239Y121436D01*
X6157Y121396D01*
X6075Y121337D01*
X6063Y121331D01*
X6040Y121308D01*
X5999Y121273D01*
X5952Y121226D01*
X5905Y121167D01*
X5853Y121097D01*
X5806Y121021D01*
X5771Y120933D01*
X5350Y119693D01*
X5344Y119681D01*
X5338Y119652D01*
X5332Y119611D01*
X5320Y119553D01*
Y119488D01*
X5326Y119424D01*
X5344Y119354D01*
X5373Y119290D01*
X5379Y119284D01*
X5396Y119266D01*
X5420Y119237D01*
X5461Y119208D01*
X5508Y119178D01*
X5566Y119149D01*
X5642Y119132D01*
X5724Y119126D01*
X5771D01*
X5823Y119137D01*
X5888Y119149D01*
X5964Y119167D01*
X6046Y119196D01*
X6134Y119237D01*
X6215Y119295D01*
X6210Y119301D01*
X6192Y119313D01*
X6169Y119336D01*
X6145Y119366D01*
Y119371D01*
X6139Y119383D01*
X6134Y119401D01*
X6128Y119418D01*
X6116Y119477D01*
X6122Y119506D01*
X6128Y119535D01*
X6134Y119541D01*
X6139Y119564D01*
X6163Y119599D01*
X6186Y119635D01*
X6227Y119670D01*
X6274Y119705D01*
X6327Y119728D01*
X6397Y119734D01*
X6408D01*
X6438Y119722D01*
X6467Y119699D01*
X6479Y119681D01*
Y119670D01*
X6485Y119693D01*
X6906Y120933D01*
X6911Y120945D01*
X6917Y120974D01*
X6923Y121015D01*
X6935Y121074D01*
Y121138D01*
X6929Y121202D01*
X6911Y121273D01*
X6876Y121337D01*
X6871Y121343D01*
X6859Y121366D01*
X6830Y121390D01*
X6795Y121425D01*
X6748Y121454D01*
X6689Y121483D01*
X6613Y121501D01*
X6531Y121507D01*
D02*
G37*
G36*
X41331D02*
X41290D01*
X41243Y121501D01*
X41185Y121483D01*
X41115Y121466D01*
X41039Y121436D01*
X40957Y121396D01*
X40875Y121337D01*
X40863Y121331D01*
X40840Y121308D01*
X40799Y121273D01*
X40752Y121226D01*
X40705Y121167D01*
X40653Y121097D01*
X40606Y121021D01*
X40571Y120933D01*
X40150Y119693D01*
X40144Y119681D01*
X40138Y119652D01*
X40132Y119611D01*
X40120Y119553D01*
Y119488D01*
X40126Y119424D01*
X40144Y119354D01*
X40173Y119290D01*
X40179Y119284D01*
X40196Y119266D01*
X40220Y119237D01*
X40261Y119208D01*
X40308Y119178D01*
X40366Y119149D01*
X40442Y119132D01*
X40524Y119126D01*
X40571D01*
X40623Y119137D01*
X40688Y119149D01*
X40764Y119167D01*
X40846Y119196D01*
X40933Y119237D01*
X41015Y119295D01*
X41010Y119301D01*
X40992Y119313D01*
X40969Y119336D01*
X40945Y119366D01*
Y119371D01*
X40939Y119383D01*
X40933Y119401D01*
X40928Y119418D01*
X40916Y119477D01*
X40922Y119506D01*
X40928Y119535D01*
X40933Y119541D01*
X40939Y119564D01*
X40963Y119599D01*
X40986Y119635D01*
X41027Y119670D01*
X41074Y119705D01*
X41126Y119728D01*
X41197Y119734D01*
X41208D01*
X41238Y119722D01*
X41267Y119699D01*
X41279Y119681D01*
Y119670D01*
X41284Y119693D01*
X41706Y120933D01*
X41712Y120945D01*
X41717Y120974D01*
X41723Y121015D01*
X41735Y121074D01*
Y121138D01*
X41729Y121202D01*
X41712Y121273D01*
X41676Y121337D01*
X41671Y121343D01*
X41659Y121366D01*
X41630Y121390D01*
X41594Y121425D01*
X41548Y121454D01*
X41489Y121483D01*
X41413Y121501D01*
X41331Y121507D01*
D02*
G37*
G36*
X76131D02*
X76090D01*
X76043Y121501D01*
X75985Y121483D01*
X75915Y121466D01*
X75839Y121436D01*
X75757Y121396D01*
X75675Y121337D01*
X75663Y121331D01*
X75640Y121308D01*
X75599Y121273D01*
X75552Y121226D01*
X75505Y121167D01*
X75453Y121097D01*
X75406Y121021D01*
X75371Y120933D01*
X74950Y119693D01*
X74944Y119681D01*
X74938Y119652D01*
X74932Y119611D01*
X74920Y119553D01*
Y119488D01*
X74926Y119424D01*
X74944Y119354D01*
X74973Y119290D01*
X74979Y119284D01*
X74996Y119266D01*
X75020Y119237D01*
X75061Y119208D01*
X75108Y119178D01*
X75166Y119149D01*
X75242Y119132D01*
X75324Y119126D01*
X75371D01*
X75423Y119137D01*
X75488Y119149D01*
X75564Y119167D01*
X75646Y119196D01*
X75734Y119237D01*
X75815Y119295D01*
X75810Y119301D01*
X75792Y119313D01*
X75769Y119336D01*
X75745Y119366D01*
Y119371D01*
X75739Y119383D01*
X75734Y119401D01*
X75728Y119418D01*
X75716Y119477D01*
X75722Y119506D01*
X75728Y119535D01*
X75734Y119541D01*
X75739Y119564D01*
X75763Y119599D01*
X75786Y119635D01*
X75827Y119670D01*
X75874Y119705D01*
X75927Y119728D01*
X75997Y119734D01*
X76008D01*
X76038Y119722D01*
X76067Y119699D01*
X76079Y119681D01*
Y119670D01*
X76085Y119693D01*
X76506Y120933D01*
X76512Y120945D01*
X76517Y120974D01*
X76523Y121015D01*
X76535Y121074D01*
Y121138D01*
X76529Y121202D01*
X76512Y121273D01*
X76476Y121337D01*
X76471Y121343D01*
X76459Y121366D01*
X76430Y121390D01*
X76394Y121425D01*
X76348Y121454D01*
X76289Y121483D01*
X76213Y121501D01*
X76131Y121507D01*
D02*
G37*
G36*
X110931D02*
X110890D01*
X110844Y121501D01*
X110785Y121483D01*
X110715Y121466D01*
X110639Y121436D01*
X110557Y121396D01*
X110475Y121337D01*
X110463Y121331D01*
X110440Y121308D01*
X110399Y121273D01*
X110352Y121226D01*
X110305Y121167D01*
X110253Y121097D01*
X110206Y121021D01*
X110171Y120933D01*
X109750Y119693D01*
X109744Y119681D01*
X109738Y119652D01*
X109732Y119611D01*
X109720Y119553D01*
Y119488D01*
X109726Y119424D01*
X109744Y119354D01*
X109773Y119290D01*
X109779Y119284D01*
X109796Y119266D01*
X109820Y119237D01*
X109861Y119208D01*
X109907Y119178D01*
X109966Y119149D01*
X110042Y119132D01*
X110124Y119126D01*
X110171D01*
X110223Y119137D01*
X110288Y119149D01*
X110364Y119167D01*
X110446Y119196D01*
X110533Y119237D01*
X110615Y119295D01*
X110609Y119301D01*
X110592Y119313D01*
X110569Y119336D01*
X110545Y119366D01*
Y119371D01*
X110539Y119383D01*
X110533Y119401D01*
X110528Y119418D01*
X110516Y119477D01*
X110522Y119506D01*
X110528Y119535D01*
X110533Y119541D01*
X110539Y119564D01*
X110563Y119599D01*
X110586Y119635D01*
X110627Y119670D01*
X110674Y119705D01*
X110726Y119728D01*
X110797Y119734D01*
X110808D01*
X110838Y119722D01*
X110867Y119699D01*
X110879Y119681D01*
Y119670D01*
X110884Y119693D01*
X111306Y120933D01*
X111311Y120945D01*
X111317Y120974D01*
X111323Y121015D01*
X111335Y121074D01*
Y121138D01*
X111329Y121202D01*
X111311Y121273D01*
X111276Y121337D01*
X111271Y121343D01*
X111259Y121366D01*
X111230Y121390D01*
X111195Y121425D01*
X111148Y121454D01*
X111089Y121483D01*
X111013Y121501D01*
X110931Y121507D01*
D02*
G37*
G36*
X139499Y137707D02*
X139488D01*
X139464Y137701D01*
X139417Y137683D01*
X139359Y137648D01*
X139324Y137619D01*
X139283Y137590D01*
X139242Y137549D01*
X139201Y137502D01*
X139154Y137449D01*
X139107Y137379D01*
X139060Y137309D01*
X139008Y137221D01*
Y137215D01*
X139002Y137204D01*
X138990Y137186D01*
X138973Y137163D01*
X138955Y137133D01*
X138938Y137092D01*
X138891Y137005D01*
X138838Y136899D01*
X138786Y136782D01*
X138733Y136648D01*
X138680Y136513D01*
Y136507D01*
X138674Y136496D01*
X138669Y136478D01*
X138663Y136449D01*
X138651Y136414D01*
X138639Y136373D01*
X138610Y136279D01*
X138587Y136174D01*
X138557Y136051D01*
X138534Y135928D01*
X138516Y135800D01*
Y135794D01*
Y135782D01*
Y135759D01*
X138511Y135723D01*
Y135647D01*
X138522Y135565D01*
X138540Y135478D01*
X138569Y135402D01*
X138593Y135372D01*
X138616Y135349D01*
X138651Y135331D01*
X138686Y135326D01*
X138698D01*
X138727Y135331D01*
X138774Y135349D01*
X138832Y135384D01*
X138867Y135408D01*
X138902Y135443D01*
X138944Y135478D01*
X138990Y135525D01*
X139037Y135577D01*
X139084Y135642D01*
X139131Y135718D01*
X139183Y135800D01*
Y135805D01*
X139189Y135817D01*
X139201Y135835D01*
X139218Y135858D01*
X139230Y135887D01*
X139253Y135928D01*
X139295Y136016D01*
X139347Y136121D01*
X139400Y136244D01*
X139452Y136373D01*
X139505Y136513D01*
Y136519D01*
X139511Y136531D01*
X139517Y136548D01*
X139529Y136578D01*
X139534Y136613D01*
X139546Y136648D01*
X139575Y136741D01*
X139604Y136853D01*
X139628Y136975D01*
X139651Y137098D01*
X139669Y137227D01*
Y137233D01*
Y137250D01*
X139675Y137274D01*
Y137303D01*
Y137379D01*
X139663Y137467D01*
X139646Y137555D01*
X139616Y137631D01*
X139593Y137660D01*
X139569Y137689D01*
X139534Y137701D01*
X139499Y137707D01*
D02*
G37*
G36*
X103114Y137701D02*
X103085D01*
X103055Y137695D01*
X103014Y137683D01*
X102962Y137671D01*
X102909Y137648D01*
X102845Y137619D01*
X102786Y137578D01*
X102780Y137572D01*
X102763Y137555D01*
X102734Y137531D01*
X102699Y137496D01*
X102658Y137455D01*
X102622Y137402D01*
X102593Y137350D01*
X102564Y137285D01*
X102459Y136975D01*
Y136969D01*
X102453Y136946D01*
X102447Y136911D01*
X102441Y136870D01*
X102435Y136823D01*
X102441Y136771D01*
X102453Y136724D01*
X102476Y136677D01*
X102482Y136671D01*
X102494Y136660D01*
X102511Y136642D01*
X102541Y136618D01*
X102576Y136595D01*
X102617Y136578D01*
X102669Y136566D01*
X102728Y136560D01*
X103143D01*
X103389Y137285D01*
Y137291D01*
X103395Y137315D01*
X103401Y137344D01*
X103406Y137385D01*
Y137432D01*
Y137478D01*
X103389Y137531D01*
X103365Y137578D01*
X103360Y137584D01*
X103354Y137595D01*
X103330Y137619D01*
X103307Y137642D01*
X103272Y137660D01*
X103225Y137683D01*
X103172Y137695D01*
X103114Y137701D01*
D02*
G37*
G36*
X68214D02*
X68185D01*
X68150Y137695D01*
X68109Y137683D01*
X68056Y137671D01*
X68003Y137648D01*
X67945Y137619D01*
X67880Y137578D01*
X67875Y137572D01*
X67857Y137555D01*
X67828Y137531D01*
X67793Y137496D01*
X67758Y137455D01*
X67722Y137408D01*
X67687Y137350D01*
X67664Y137285D01*
Y137280D01*
X67658Y137256D01*
X67652Y137221D01*
X67646Y137180D01*
X67641Y137133D01*
X67646Y137086D01*
X67658Y137034D01*
X67681Y136987D01*
X67687Y136981D01*
X67699Y136969D01*
X67717Y136952D01*
X67746Y136929D01*
X67781Y136905D01*
X67822Y136888D01*
X67875Y136876D01*
X67933Y136870D01*
X67962D01*
X67997Y136876D01*
X68038Y136888D01*
X68091Y136899D01*
X68150Y136917D01*
X68208Y136946D01*
X68266Y136987D01*
X68272Y136993D01*
X68296Y137011D01*
X68319Y137034D01*
X68354Y137069D01*
X68395Y137116D01*
X68430Y137163D01*
X68465Y137221D01*
X68489Y137285D01*
Y137291D01*
X68495Y137315D01*
X68501Y137344D01*
X68506Y137385D01*
Y137432D01*
Y137478D01*
X68489Y137531D01*
X68465Y137578D01*
X68460Y137584D01*
X68454Y137595D01*
X68430Y137619D01*
X68407Y137642D01*
X68372Y137660D01*
X68325Y137683D01*
X68272Y137695D01*
X68214Y137701D01*
D02*
G37*
G36*
X67799Y136466D02*
X67769D01*
X67734Y136461D01*
X67693Y136449D01*
X67641Y136437D01*
X67582Y136414D01*
X67524Y136384D01*
X67465Y136344D01*
X67459Y136338D01*
X67442Y136320D01*
X67412Y136297D01*
X67377Y136262D01*
X67342Y136221D01*
X67307Y136174D01*
X67272Y136115D01*
X67243Y136051D01*
X67137Y135741D01*
Y135735D01*
X67132Y135712D01*
X67126Y135677D01*
X67120Y135636D01*
X67114Y135589D01*
X67120Y135536D01*
X67132Y135489D01*
X67155Y135443D01*
X67161Y135437D01*
X67173Y135425D01*
X67190Y135408D01*
X67219Y135384D01*
X67255Y135361D01*
X67295Y135343D01*
X67348Y135331D01*
X67407Y135326D01*
X67436D01*
X67471Y135331D01*
X67512Y135343D01*
X67564Y135355D01*
X67623Y135372D01*
X67681Y135402D01*
X67740Y135443D01*
X67746Y135449D01*
X67769Y135466D01*
X67793Y135489D01*
X67828Y135525D01*
X67869Y135571D01*
X67904Y135618D01*
X67939Y135677D01*
X67962Y135741D01*
X68068Y136051D01*
Y136057D01*
X68073Y136080D01*
X68079Y136110D01*
X68085Y136151D01*
Y136197D01*
Y136244D01*
X68068Y136297D01*
X68044Y136344D01*
X68038Y136349D01*
X68032Y136361D01*
X68009Y136384D01*
X67986Y136408D01*
X67951Y136425D01*
X67910Y136449D01*
X67857Y136461D01*
X67799Y136466D01*
D02*
G37*
%LPD*%
D10*
X155179Y209055D02*
X154661Y209768D01*
X153823Y209496D01*
Y208614D01*
X154661Y208342D01*
X155179Y209055D01*
D11*
X138216Y211435D02*
X137478Y211861D01*
Y211008D01*
X138216Y211435D01*
X110728Y203543D02*
X109990Y203970D01*
Y203117D01*
X110728Y203543D01*
X141437Y41142D02*
X140699Y41568D01*
Y40716D01*
X141437Y41142D01*
X133839Y148921D02*
X133100Y149347D01*
Y148495D01*
X133839Y148921D01*
X99062D02*
X98324Y149347D01*
Y148495D01*
X99062Y148921D01*
X64285D02*
X63547Y149347D01*
Y148495D01*
X64285Y148921D01*
X29508D02*
X28770Y149347D01*
Y148495D01*
X29508Y148921D01*
X177224Y128937D02*
X176486Y129363D01*
Y128511D01*
X177224Y128937D01*
X138307Y110236D02*
X137569Y110662D01*
Y109810D01*
X138307Y110236D01*
X103530D02*
X102792Y110662D01*
Y109810D01*
X103530Y110236D01*
X68753D02*
X68015Y110662D01*
Y109810D01*
X68753Y110236D01*
X33976D02*
X33238Y110662D01*
Y109810D01*
X33976Y110236D01*
D12*
X194193Y201476D02*
X194172Y202479D01*
X194108Y203480D01*
X194002Y204477D01*
X193853Y205469D01*
X193663Y206453D01*
X193431Y207429D01*
X193157Y208393D01*
X192844Y209346D01*
X192490Y210284D01*
X192096Y211206D01*
X191664Y212111D01*
X191193Y212997D01*
X190686Y213862D01*
X190142Y214704D01*
X189563Y215523D01*
X188950Y216316D01*
X188303Y217083D01*
X187625Y217821D01*
X186916Y218531D01*
X186177Y219209D01*
X185411Y219855D01*
X184617Y220468D01*
X183799Y221047D01*
X182956Y221591D01*
X182091Y222099D01*
X181206Y222569D01*
X180301Y223002D01*
X179378Y223395D01*
X178440Y223749D01*
X177488Y224063D01*
X176523Y224336D01*
X175548Y224568D01*
X174563Y224759D01*
X173571Y224907D01*
X172574Y225013D01*
X171573Y225077D01*
X170571Y225098D01*
X169568Y225077D01*
X168568Y225013D01*
X167570Y224907D01*
X166579Y224759D01*
X165594Y224568D01*
X164619Y224336D01*
X163654Y224063D01*
X162701Y223749D01*
X161763Y223395D01*
X160841Y223002D01*
X159936Y222569D01*
X159051Y222099D01*
X158186Y221591D01*
X157343Y221047D01*
X156524Y220468D01*
X155731Y219855D01*
X154964Y219209D01*
X154226Y218531D01*
X153517Y217821D01*
X152838Y217083D01*
X152192Y216316D01*
X151579Y215523D01*
X151000Y214704D01*
X150456Y213862D01*
X149949Y212997D01*
X149478Y212111D01*
X149046Y211206D01*
X148652Y210284D01*
X148298Y209346D01*
X147984Y208393D01*
X147711Y207429D01*
X147479Y206453D01*
X147289Y205469D01*
X147140Y204477D01*
X147034Y203480D01*
X146970Y202479D01*
X146949Y201476D01*
X146970Y200474D01*
X147034Y199473D01*
X147140Y198476D01*
X147289Y197484D01*
X147479Y196500D01*
X147711Y195524D01*
X147984Y194559D01*
X148298Y193607D01*
X148652Y192669D01*
X149046Y191746D01*
X149478Y190842D01*
X149949Y189956D01*
X150456Y189091D01*
X151000Y188249D01*
X151579Y187430D01*
X152192Y186636D01*
X152839Y185870D01*
X153517Y185131D01*
X154226Y184422D01*
X154964Y183744D01*
X155731Y183098D01*
X156525Y182484D01*
X157343Y181905D01*
X158186Y181361D01*
X159051Y180854D01*
X159936Y180384D01*
X160841Y179951D01*
X161763Y179558D01*
X162701Y179204D01*
X163654Y178890D01*
X164619Y178616D01*
X165594Y178384D01*
X166579Y178194D01*
X167570Y178046D01*
X168568Y177939D01*
X169568Y177876D01*
X170571Y177854D01*
X171573Y177876D01*
X172574Y177939D01*
X173571Y178046D01*
X174563Y178194D01*
X175548Y178384D01*
X176523Y178617D01*
X177488Y178890D01*
X178440Y179204D01*
X179379Y179558D01*
X180301Y179951D01*
X181206Y180384D01*
X182091Y180854D01*
X182956Y181362D01*
X183799Y181905D01*
X184617Y182484D01*
X185411Y183098D01*
X186177Y183744D01*
X186916Y184422D01*
X187625Y185131D01*
X188303Y185870D01*
X188950Y186637D01*
X189563Y187430D01*
X190142Y188249D01*
X190686Y189091D01*
X191193Y189956D01*
X191664Y190842D01*
X192096Y191746D01*
X192490Y192669D01*
X192844Y193607D01*
X193157Y194559D01*
X193431Y195524D01*
X193663Y196500D01*
X193853Y197484D01*
X194002Y198476D01*
X194108Y199473D01*
X194172Y200474D01*
X194193Y201476D01*
X195689Y245472D02*
X195659Y246468D01*
X195570Y247461D01*
X195421Y248446D01*
X195214Y249421D01*
X194949Y250381D01*
X194627Y251324D01*
X194249Y252246D01*
X193817Y253144D01*
X193332Y254014D01*
X192795Y254854D01*
X192210Y255660D01*
X191577Y256429D01*
X190899Y257160D01*
X190179Y257848D01*
X189419Y258493D01*
X188621Y259090D01*
X187790Y259639D01*
X186927Y260138D01*
X186036Y260583D01*
X185120Y260975D01*
X184182Y261311D01*
X183225Y261590D01*
X182254Y261812D01*
X181271Y261975D01*
X180280Y262079D01*
X179285Y262124D01*
X178288Y262109D01*
X177295Y262035D01*
X176307Y261901D01*
X175330Y261708D01*
X174365Y261458D01*
X173418Y261150D01*
X172490Y260786D01*
X171586Y260367D01*
X170709Y259895D01*
X169861Y259371D01*
X169046Y258798D01*
X168267Y258176D01*
X167527Y257509D01*
X166827Y256800D01*
X166172Y256049D01*
X165562Y255261D01*
X165001Y254438D01*
X164490Y253583D01*
X164031Y252698D01*
X163626Y251788D01*
X163276Y250855D01*
X162982Y249903D01*
X162746Y248935D01*
X162568Y247955D01*
X162449Y246965D01*
X162389Y245971D01*
Y244974D01*
X162449Y243980D01*
X162568Y242990D01*
X162746Y242010D01*
X162982Y241042D01*
X163276Y240090D01*
X163626Y239157D01*
X164031Y238247D01*
X164490Y237362D01*
X165001Y236507D01*
X165562Y235684D01*
X166172Y234895D01*
X166827Y234145D01*
X167527Y233435D01*
X168267Y232769D01*
X169046Y232147D01*
X169861Y231574D01*
X170709Y231050D01*
X171586Y230578D01*
X172490Y230159D01*
X173418Y229795D01*
X174365Y229487D01*
X175330Y229236D01*
X176307Y229044D01*
X177295Y228910D01*
X178288Y228836D01*
X179285Y228821D01*
X180280Y228866D01*
X181271Y228970D01*
X182254Y229133D01*
X183225Y229355D01*
X184182Y229634D01*
X185120Y229970D01*
X186036Y230362D01*
X186927Y230807D01*
X187790Y231306D01*
X188621Y231855D01*
X189419Y232452D01*
X190179Y233096D01*
X190899Y233785D01*
X191577Y234515D01*
X192209Y235285D01*
X192795Y236091D01*
X193332Y236931D01*
X193817Y237801D01*
X194249Y238699D01*
X194627Y239621D01*
X194949Y240564D01*
X195214Y241524D01*
X195421Y242499D01*
X195570Y243484D01*
X195659Y244476D01*
X195689Y245472D01*
X143335Y256059D02*
X143303Y257040D01*
X143206Y258017D01*
X143046Y258985D01*
X142824Y259941D01*
X142539Y260881D01*
X142193Y261799D01*
X141788Y262693D01*
X141325Y263559D01*
X140807Y264393D01*
X140235Y265191D01*
X139612Y265949D01*
X138941Y266666D01*
X138225Y267337D01*
X137466Y267959D01*
X136668Y268531D01*
X135835Y269049D01*
X134969Y269512D01*
X134075Y269917D01*
X133156Y270263D01*
X132217Y270548D01*
X131261Y270771D01*
X130292Y270931D01*
X129316Y271027D01*
X128335Y271059D01*
Y169059D02*
X129316Y169091D01*
X130292Y169187D01*
X131261Y169347D01*
X132217Y169570D01*
X133156Y169855D01*
X134075Y170201D01*
X134969Y170606D01*
X135835Y171069D01*
X136668Y171587D01*
X137466Y172159D01*
X138225Y172781D01*
X138941Y173452D01*
X139612Y174169D01*
X140235Y174928D01*
X140807Y175725D01*
X141325Y176559D01*
X141788Y177425D01*
X142193Y178319D01*
X142539Y179237D01*
X142824Y180177D01*
X143046Y181133D01*
X143206Y182101D01*
X143303Y183078D01*
X143335Y184059D01*
X171083Y162106D02*
X171053Y163102D01*
X170964Y164095D01*
X170815Y165080D01*
X170608Y166054D01*
X170343Y167015D01*
X170021Y167958D01*
X169643Y168880D01*
X169211Y169778D01*
X168725Y170648D01*
X168189Y171488D01*
X167603Y172294D01*
X166970Y173063D01*
X166293Y173794D01*
X165573Y174482D01*
X164812Y175127D01*
X164015Y175724D01*
X163184Y176273D01*
X162321Y176771D01*
X161430Y177217D01*
X160513Y177609D01*
X159575Y177945D01*
X158619Y178224D01*
X157648Y178446D01*
X156665Y178609D01*
X155674Y178713D01*
X154678Y178758D01*
X153682Y178743D01*
X152688Y178669D01*
X151701Y178535D01*
X150723Y178342D01*
X149759Y178092D01*
X148811Y177784D01*
X147884Y177420D01*
X146980Y177001D01*
X146102Y176529D01*
X145255Y176005D01*
X144440Y175431D01*
X143661Y174810D01*
X142920Y174143D01*
X142221Y173434D01*
X141566Y172683D01*
X140956Y171895D01*
X140395Y171072D01*
X139884Y170216D01*
X139425Y169332D01*
X139020Y168422D01*
X138669Y167489D01*
X138376Y166537D01*
X138139Y165569D01*
X137962Y164588D01*
X137843Y163599D01*
X137783Y162604D01*
Y161608D01*
X137843Y160614D01*
X137962Y159624D01*
X138139Y158644D01*
X138376Y157676D01*
X138669Y156724D01*
X139020Y155791D01*
X139425Y154881D01*
X139884Y153996D01*
X140395Y153141D01*
X140956Y152318D01*
X141566Y151529D01*
X142221Y150779D01*
X142920Y150069D01*
X143661Y149402D01*
X144440Y148781D01*
X145255Y148208D01*
X146102Y147684D01*
X146980Y147212D01*
X147884Y146793D01*
X148811Y146429D01*
X149759Y146121D01*
X150723Y145870D01*
X151701Y145678D01*
X152688Y145544D01*
X153682Y145469D01*
X154678Y145455D01*
X155674Y145499D01*
X156665Y145604D01*
X157648Y145767D01*
X158619Y145988D01*
X159575Y146268D01*
X160513Y146604D01*
X161430Y146996D01*
X162321Y147441D01*
X163184Y147940D01*
X164015Y148488D01*
X164812Y149086D01*
X165573Y149730D01*
X166293Y150419D01*
X166970Y151149D01*
X167603Y151919D01*
X168189Y152725D01*
X168725Y153565D01*
X169211Y154435D01*
X169643Y155333D01*
X170021Y156255D01*
X170343Y157197D01*
X170608Y158158D01*
X170815Y159133D01*
X170964Y160118D01*
X171053Y161110D01*
X171083Y162106D01*
X7335Y169059D02*
X128335D01*
X143335Y184059D02*
Y256059D01*
X8335Y262059D02*
X24335D01*
X7335Y261059D02*
X8335Y262059D01*
X24335D02*
X32335D01*
X33335Y263059D01*
Y270059D01*
X34335Y271059D01*
X128335D01*
X7335Y169059D02*
Y261059D01*
D13*
X137598Y213779D02*
Y231890D01*
X121850Y213779D02*
Y231890D01*
X136699D02*
X137598D01*
X136699Y213779D02*
X137598D01*
X121850Y231890D02*
X122750D01*
X121850Y213779D02*
X122750D01*
X90945Y200689D02*
X97047D01*
X90945Y241634D02*
X97047D01*
Y200689D02*
Y241634D01*
X143306Y61221D02*
X182677D01*
Y19489D02*
Y61221D01*
X143306Y19489D02*
X182677D01*
X143306D02*
Y61221D01*
X181791Y131988D02*
Y132382D01*
X186319Y131988D02*
Y132382D01*
X112461Y136126D02*
Y142425D01*
X132146Y136126D02*
Y142425D01*
X112461Y136126D02*
X132146D01*
X112461Y142425D02*
X132146D01*
X77684Y136126D02*
Y142425D01*
X97369Y136126D02*
Y142425D01*
X77684Y136126D02*
X97369D01*
X77684Y142425D02*
X97369D01*
X42907Y136126D02*
Y142425D01*
X62592Y136126D02*
Y142425D01*
X42907Y136126D02*
X62592D01*
X42907Y142425D02*
X62592D01*
X8130Y136126D02*
Y142425D01*
X27815Y136126D02*
Y142425D01*
X8130Y136126D02*
X27815D01*
X8130Y142425D02*
X27815D01*
X142421Y111811D02*
Y117126D01*
X182972D01*
Y111811D02*
Y117126D01*
X123403Y159439D02*
Y160620D01*
X126203Y159439D02*
Y160620D01*
X88626Y159439D02*
Y160620D01*
X91426Y159439D02*
Y160620D01*
X53849Y159439D02*
Y160620D01*
X56649Y159439D02*
Y160620D01*
X19072Y159439D02*
Y160620D01*
X21872Y159439D02*
Y160620D01*
X127756Y113583D02*
Y117520D01*
X121850Y113583D02*
Y117520D01*
X92979Y113583D02*
Y117520D01*
X87073Y113583D02*
Y117520D01*
X58202Y113583D02*
Y117520D01*
X52297Y113583D02*
Y117520D01*
X23425Y113583D02*
Y117520D01*
X17520Y113583D02*
Y117520D01*
X35236Y131890D02*
X35630D01*
X35236Y127362D02*
X35630D01*
X137992Y99213D02*
Y101575D01*
X111614D02*
X137992D01*
X111614Y99213D02*
Y101575D01*
X69882Y131890D02*
X70276D01*
X69882Y127362D02*
X70276D01*
X103215Y99213D02*
Y101575D01*
X76837D02*
X103215D01*
X76837Y99213D02*
Y101575D01*
X104823Y131890D02*
X105217D01*
X104823Y127362D02*
X105217D01*
X68438Y99213D02*
Y101575D01*
X42060D02*
X68438D01*
X42060Y99213D02*
Y101575D01*
X139567Y131890D02*
X139961D01*
X139567Y127362D02*
X139961D01*
X33661Y99213D02*
Y101575D01*
X7283D02*
X33661D01*
X7283Y99213D02*
Y101575D01*
D14*
X128937Y19488D02*
Y71850D01*
X10433Y19488D02*
Y71850D01*
X128937D01*
X10433Y19488D02*
X128937D01*
M02*
